<svg width="100" height="100" viewBox="0 0 100 100" fill="none" xmlns="http://www.w3.org/2000/svg">
<path fill-rule="evenodd" clip-rule="evenodd" d="M49.9271 91.9999C58.7144 91.9828 66.8267 88.8165 73.2456 83.4651C70.463 81.7308 67.2311 80.2846 63.6513 79.2297C59.2748 77.9401 54.5407 77.2839 49.7386 77.3251C44.9364 77.3664 40.23 78.1036 35.9062 79.4649C32.4771 80.5445 29.3904 81.9841 26.7335 83.6864C32.6827 88.5545 40.0531 91.5613 48.0529 91.9557C48.6742 91.984 49.299 91.9989 49.9271 91.9999ZM19.574 78.9528C19.6858 78.8662 19.7984 78.7802 19.9117 78.6945C23.7757 75.7742 28.3956 73.4424 33.5038 71.8342C35.3964 71.2383 37.342 70.7461 39.3246 70.3602C42.693 69.7045 46.168 69.3555 49.6699 69.3254C49.7591 69.3247 49.8483 69.3241 49.9374 69.3238C53.5774 69.3094 57.1971 69.64 60.7068 70.3031C62.4738 70.6369 64.2128 71.0551 65.9125 71.5559C71.0712 73.076 75.765 75.3279 79.7221 78.1811C80.0073 78.3867 80.2882 78.5951 80.5648 78.8063C87.6546 71.2865 92 61.1507 92 50C92 26.804 73.196 8 50 8C26.804 8 8 26.804 8 50C8 61.2233 12.4022 71.4184 19.574 78.9528ZM47.6763 99.947C21.1408 98.7331 0 76.8354 0 50C0 22.3858 22.3858 0 50 0C77.6142 0 100 22.3858 100 50C100 77.6142 77.6142 100 50 100C49.976 100 49.952 100 49.928 99.9999C49.9038 100 49.8797 100 49.8555 100C49.125 100 48.3984 99.9822 47.6763 99.947ZM49.626 64.2085C46.2853 64.1642 43.1105 63.4088 40.2367 62.0819C31.9237 58.2436 26.1305 49.6237 26.1305 39.6053C26.1305 26.0162 36.7892 15 49.9374 15C63.0856 15 73.7444 26.0162 73.7444 39.6053C73.7444 49.5787 68.003 58.1662 59.7499 62.0299C56.7579 63.4306 53.4358 64.2105 49.9374 64.2105C49.8335 64.2105 49.7297 64.2098 49.626 64.2085ZM65.7444 39.6053C65.7444 49.0269 58.4207 56.2105 49.9374 56.2105C41.4542 56.2105 34.1305 49.0269 34.1305 39.6053C34.1305 30.1837 41.4542 23 49.9374 23C58.4207 23 65.7444 30.1837 65.7444 39.6053Z" fill="black"/>
</svg>
