<svg width="80" height="100" viewBox="0 0 80 100" fill="none" xmlns="http://www.w3.org/2000/svg">
<circle cx="40" cy="17" r="14" stroke="black" stroke-width="6"/>
<circle cx="40" cy="75" r="3" fill="black"/>
<path d="M12.1973 90H67.5352C69.6667 90 71.0964 92.1493 70.3301 94.0928L70.249 94.2803L69.7773 95.2803C69.282 96.3303 68.2245 97 67.0635 97H12.6377C11.4485 96.9999 10.3719 96.2973 9.89258 95.209L9.45215 94.209C8.57918 92.2263 10.0309 90.0002 12.1973 90Z" stroke="black" stroke-width="6"/>
<path d="M70.377 54.0098C73.8753 54.2044 76.4953 57.3742 75.9697 60.8877L71.7979 88.7773C70.7323 87.6953 69.2478 87 67.5352 87H65.9971L70.0361 60H9.89551L13.665 87H12.1973C10.4503 87.0001 8.93557 87.7238 7.86426 88.8477L3.95312 60.8291C3.46543 57.3335 6.08043 54.2022 9.55664 54.0098L9.89551 54H70.0361L70.377 54.0098Z" fill="black"/>
<path d="M47.5166 36.6436C56.3781 36.8682 63.8043 42.8567 66.1914 51H59.8164C57.648 46.0753 52.7266 42.6367 47 42.6367H33C27.2734 42.6367 22.352 46.0753 20.1836 51H13.8086C16.1957 42.8567 23.6219 36.8682 32.4834 36.6436L33 36.6367H47L47.5166 36.6436Z" fill="black"/>
</svg>
