<svg width="52" height="26" viewBox="0 0 52 26" fill="none" xmlns="http://www.w3.org/2000/svg">
<mask id="path-1-inside-1_749_38979" fill="white">
<path fill-rule="evenodd" clip-rule="evenodd" d="M52 9.99973C52 8.34288 50.6569 6.99973 49 6.99973L17.75 6.99973V3.16941C17.75 0.589878 14.71 -0.786894 12.7712 0.914565L1.56942 10.7449C0.207817 11.9398 0.207821 14.0597 1.56942 15.2546L12.7712 25.085C14.71 26.7865 17.75 25.4097 17.75 22.8302V18.9997L49 18.9997C50.6569 18.9997 52 17.6566 52 15.9997V9.99973Z"/>
</mask>
<path d="M17.75 6.99973H14.75V9.99973H17.75V6.99973ZM12.7712 0.914565L14.75 3.16942V3.16942L12.7712 0.914565ZM1.56942 10.7449L-0.409378 8.49008V8.49008L1.56942 10.7449ZM1.56942 15.2546L-0.409374 17.5095V17.5095L1.56942 15.2546ZM12.7712 25.085L10.7924 27.3399H10.7924L12.7712 25.085ZM17.75 18.9997V15.9997H14.75V18.9997L17.75 18.9997ZM49 9.99973H49H55C55 6.68603 52.3137 3.99973 49 3.99973V9.99973ZM17.75 9.99973L49 9.99973V3.99973L17.75 3.99973V9.99973ZM14.75 3.16941V6.99973L20.75 6.99973V3.16941L14.75 3.16941ZM14.75 3.16942C14.7602 3.16045 14.7665 3.15622 14.7685 3.15495C14.7705 3.15367 14.7698 3.15431 14.7665 3.15578C14.7632 3.15723 14.7589 3.15885 14.7538 3.16026C14.7488 3.16166 14.7442 3.16254 14.7402 3.16305C14.7321 3.16406 14.7293 3.16322 14.7321 3.16367C14.7354 3.16418 14.7419 3.16576 14.75 3.16942C14.7581 3.17308 14.7636 3.17696 14.7661 3.17907C14.7683 3.1809 14.7658 3.17933 14.7613 3.17262C14.759 3.16927 14.7566 3.16517 14.7543 3.16049C14.7521 3.15575 14.7504 3.15142 14.7494 3.14802C14.7483 3.14458 14.7483 3.14363 14.7487 3.14597C14.749 3.1483 14.75 3.15583 14.75 3.16941L20.75 3.16941C20.75 -1.98967 14.67 -4.7432 10.7924 -1.34029L14.75 3.16942ZM3.54822 12.9998L14.75 3.16942L10.7924 -1.34029L-0.409378 8.49008L3.54822 12.9998ZM3.54822 12.9998L3.54822 12.9998L-0.409378 8.49008C-3.13259 10.8799 -3.13258 15.1197 -0.409374 17.5095L3.54822 12.9998ZM14.75 22.8302L3.54822 12.9998L-0.409374 17.5095L10.7924 27.3399L14.75 22.8302ZM14.75 22.8302C14.75 22.8437 14.749 22.8513 14.7487 22.8536C14.7483 22.8559 14.7483 22.855 14.7494 22.8516C14.7504 22.8482 14.7521 22.8438 14.7543 22.8391C14.7566 22.8344 14.759 22.8303 14.7613 22.827C14.7658 22.8203 14.7683 22.8187 14.7661 22.8205C14.7636 22.8226 14.7581 22.8265 14.75 22.8302C14.7419 22.8338 14.7354 22.8354 14.7321 22.8359C14.7293 22.8364 14.7321 22.8355 14.7402 22.8365C14.7442 22.837 14.7488 22.8379 14.7538 22.8393C14.7589 22.8407 14.7632 22.8424 14.7665 22.8438C14.7698 22.8453 14.7705 22.8459 14.7685 22.8446C14.7665 22.8434 14.7602 22.8391 14.75 22.8302L10.7924 27.3399C14.6701 30.7428 20.75 27.9892 20.75 22.8302L14.75 22.8302ZM14.75 18.9997V22.8302L20.75 22.8302V18.9997L14.75 18.9997ZM49 15.9997L17.75 15.9997V21.9997L49 21.9997V15.9997ZM49 15.9997V21.9997C52.3137 21.9997 55 19.3134 55 15.9997H49ZM49 9.99973V15.9997H55V9.99973H49Z" fill="black" mask="url(#path-1-inside-1_749_38979)"/>
</svg>
