<svg width="224" height="200" viewBox="0 0 224 200" fill="none" xmlns="http://www.w3.org/2000/svg">
<circle cx="100" cy="100" r="9" stroke="black" stroke-width="8"/>
<path d="M42 41L48.0122 47.0122" stroke="black" stroke-width="8" stroke-linecap="round"/>
<path d="M100 183.502V175" stroke="black" stroke-width="8" stroke-linecap="round"/>
<path d="M42 158.012L48.0122 152" stroke="black" stroke-width="8" stroke-linecap="round"/>
<path d="M154 47.0122L160.012 41.0001" stroke="black" stroke-width="8" stroke-linecap="round"/>
<path d="M100.006 24.2573V15.7549" stroke="black" stroke-width="8" stroke-linecap="round"/>
<path d="M100 91V45" stroke="black" stroke-width="8" stroke-linecap="round"/>
<path d="M18 100H26.5025" stroke="black" stroke-width="8" stroke-linecap="round"/>
<path d="M109 92L127 74" stroke="black" stroke-width="8" stroke-linecap="round"/>
<path d="M169.125 109L166.822 107.237C162.789 104.15 162.616 98.1362 166.464 94.8224L169.125 92.5312L170.416 91.4196C173.961 88.3669 174.142 82.937 170.807 79.6555L169.125 78" stroke="black" stroke-width="8" stroke-linecap="round"/>
<path d="M188.562 109V109C184.624 107.147 184.493 101.592 188.34 99.5552L188.562 99.4375V99.4375C191.837 97.704 191.97 93.0616 188.8 91.1436L188.562 91" stroke="black" stroke-width="8" stroke-linecap="round"/>
<path d="M148.063 109L147.39 108.236C144.845 105.345 144.72 101.052 147.094 98.0188L148.063 96.7812L148.388 96.3651C150.538 93.6176 150.66 89.7933 148.689 86.9146L148.063 86" stroke="black" stroke-width="8" stroke-linecap="round"/>
<mask id="path-13-inside-1_1730_24971" fill="white">
<path fill-rule="evenodd" clip-rule="evenodd" d="M134 120C134 118.895 134.895 118 136 118H200.354C201.459 118 202.354 118.895 202.354 120V124.767C214.36 125.065 224 134.783 224 146.728C224 158.861 214.054 168.696 201.785 168.696C201.671 168.696 201.556 168.695 201.442 168.694C197.885 179.029 184.342 186.722 168.177 186.722C149.302 186.722 134 176.233 134 163.294C134 163.186 134.001 163.078 134.003 162.97C134.001 162.932 134 162.894 134 162.856V120ZM202.354 160.685C210.019 160.391 216 154.175 216 146.728C216 139.281 210.019 133.065 202.354 132.77V160.685Z"/>
</mask>
<path d="M202.354 124.767H194.354V132.57L202.155 132.764L202.354 124.767ZM201.442 168.694L201.562 160.695L195.764 160.608L193.878 166.09L201.442 168.694ZM134.003 162.97L142.002 163.128L142.008 162.824L141.991 162.52L134.003 162.97ZM202.354 160.685H194.354V168.999L202.662 168.679L202.354 160.685ZM202.354 132.77L202.662 124.776L194.354 124.457V132.77H202.354ZM136 110C130.477 110 126 114.477 126 120H142C142 123.314 139.314 126 136 126V110ZM200.354 110H136V126H200.354V110ZM210.354 120C210.354 114.477 205.877 110 200.354 110V126C197.041 126 194.354 123.314 194.354 120H210.354ZM210.354 124.767V120H194.354V124.767H210.354ZM232 146.728C232 130.351 218.806 117.173 202.553 116.769L202.155 132.764C209.914 132.957 216 139.216 216 146.728H232ZM201.785 176.696C218.388 176.696 232 163.363 232 146.728H216C216 154.358 209.72 160.696 201.785 160.696V176.696ZM201.323 176.693C201.476 176.695 201.631 176.696 201.785 176.696V160.696C201.71 160.696 201.636 160.696 201.562 160.695L201.323 176.693ZM168.177 194.722C186.098 194.722 203.881 186.192 209.007 171.297L193.878 166.09C191.889 171.867 182.585 178.722 168.177 178.722V194.722ZM126 163.294C126 173.167 131.844 181.219 139.487 186.458C147.167 191.723 157.335 194.722 168.177 194.722V178.722C160.144 178.722 153.223 176.476 148.533 173.261C143.806 170.021 142 166.359 142 163.294H126ZM126.005 162.812C126.002 162.972 126 163.133 126 163.294H142C142 163.238 142.001 163.183 142.002 163.128L126.005 162.812ZM126 162.856C126 163.044 126.005 163.232 126.016 163.419L141.991 162.52C141.997 162.632 142 162.744 142 162.856H126ZM126 120V162.856H142V120H126ZM202.662 168.679C214.54 168.223 224 158.555 224 146.728H208C208 149.795 205.497 152.559 202.047 152.691L202.662 168.679ZM224 146.728C224 134.901 214.54 125.233 202.662 124.776L202.047 140.765C205.497 140.897 208 143.661 208 146.728H224ZM210.354 160.685V132.77H194.354V160.685H210.354Z" fill="black" mask="url(#path-13-inside-1_1730_24971)"/>
<rect x="132" y="183" width="72" height="13" rx="4" stroke="black" stroke-width="8"/>
<path fill-rule="evenodd" clip-rule="evenodd" d="M100 192C104.827 192 109.568 191.628 114.194 190.912C116.683 190.526 119 192.403 119 194.921C119 196.823 117.652 198.465 115.773 198.763C110.635 199.577 105.367 200 100 200C44.7715 200 0 155.228 0 100C0 44.7715 44.7715 0 100 0C147.212 0 186.782 32.7173 197.275 76.716C197.72 78.5806 196.697 80.4685 194.918 81.1818C192.595 82.1133 190.004 80.6839 189.414 78.2516C179.643 37.9379 143.318 8 100 8C49.1898 8 8 49.1898 8 100C8 150.81 49.1898 192 100 192Z" fill="black"/>
</svg>
