<svg width="150" height="130" viewBox="0 0 150 130" fill="none" xmlns="http://www.w3.org/2000/svg">
<path fill-rule="evenodd" clip-rule="evenodd" d="M75 116.611C70.4972 117.638 65.8019 118.182 60.9756 118.182C27.2997 118.182 0 91.7259 0 59.0909C0 26.4559 27.2997 0 60.9756 0C87.3726 0 109.852 16.2553 118.336 39H113.034C104.791 19.0778 84.6005 5 61 5C30.0721 5 5 29.1766 5 59C5 88.8234 30.0721 113 61 113C65.8342 113 70.5253 112.409 75 111.299V116.611ZM68.2927 59.0909C68.2927 63.0071 65.0167 66.1818 60.9756 66.1818C56.9345 66.1818 53.6585 63.0071 53.6585 59.0909C53.6585 56.2013 55.4421 53.7154 58.0005 52.6107C58.0002 52.5941 58 52.5776 58 52.561V27.439C58 26.092 59.092 25 60.439 25C61.7861 25 62.878 26.092 62.878 27.439V52.242C63.4594 52.3933 64.0122 52.6123 64.5269 52.8897C64.5875 52.8146 64.6534 52.7424 64.7247 52.6733L75.0456 42.6713C75.9981 41.7483 77.5424 41.7483 78.4949 42.6713C79.4474 43.5944 79.4474 45.091 78.4949 46.014L68.174 56.016C68.0368 56.1489 67.8874 56.2627 67.7292 56.3573C68.0922 57.1986 68.2927 58.1221 68.2927 59.0909ZM64.6341 59.0909C64.6341 61.049 62.9962 62.6364 60.9756 62.6364C58.9551 62.6364 57.3171 61.049 57.3171 59.0909C57.3171 57.1328 58.9551 55.5455 60.9756 55.5455C62.9962 55.5455 64.6341 57.1328 64.6341 59.0909ZM59.475 103.958C58.8983 103.934 58.411 104.391 58.411 104.968V109.929C58.411 110.481 58.8587 110.929 59.411 110.929H61.8334C62.3857 110.929 62.8334 110.481 62.8334 109.929V105.009C62.8334 104.447 62.3689 103.996 61.806 103.999L61.6391 104L61.5 104C60.8215 104 60.1464 103.986 59.475 103.958ZM29.0015 92.6382C29.4168 92.2357 29.4044 91.5667 28.9844 91.1691C28.4375 90.6513 27.9038 90.1206 27.3838 89.5775C26.9941 89.1705 26.3464 89.1503 25.9417 89.5424L21.8831 93.4756C21.4777 93.8685 21.4777 94.5189 21.8831 94.9118L23.5733 96.5498C23.9611 96.9256 24.5773 96.9256 24.9651 96.5498L29.0015 92.6382ZM14.0013 61.1074C14.5723 61.1074 15.0263 60.6301 15.0126 60.0593C15.0042 59.7072 15 59.3541 15 59C15 58.6227 15.0048 58.2465 15.0143 57.8714C15.0289 57.3 14.5747 56.8217 14.0031 56.8217H8C7.44772 56.8217 7 57.2694 7 57.8217V60.1074C7 60.6597 7.44771 61.1074 8 61.1074H14.0013ZM25.9767 28.4211C26.381 28.8129 27.0282 28.7931 27.418 28.3869C27.9386 27.8443 28.4729 27.3141 29.0204 26.7969C29.4411 26.3995 29.4538 25.7298 29.0382 25.3271L24.9646 21.3794C24.5768 21.0035 23.9606 21.0035 23.5728 21.3794L21.8826 23.0173C21.4771 23.4102 21.4771 24.0606 21.8826 24.4535L25.9767 28.4211ZM58.411 13.0322C58.411 13.6094 58.8983 14.0658 59.475 14.0419C60.1464 14.0141 60.8215 14 61.5 14C61.6021 14 61.704 14.0003 61.806 14.001C62.3689 14.0045 62.8334 13.5535 62.8334 12.9905V8C62.8334 7.44772 62.3857 7 61.8334 7H59.411C58.8587 7 58.411 7.44771 58.411 8V13.0322ZM93.0609 24.4978C92.6377 24.9079 92.6598 25.5925 93.0985 25.9859C93.6598 26.4892 94.2082 27.0058 94.7432 27.5351C95.136 27.9237 95.7687 27.9347 96.1655 27.5502L99.3611 24.4533C99.7665 24.0604 99.7665 23.41 99.3611 23.0171L97.6709 21.3791C97.2831 21.0033 96.6669 21.0033 96.2791 21.3791L93.0609 24.4978Z" fill="black"/>
<path fill-rule="evenodd" clip-rule="evenodd" d="M89.7558 69.7271C86.9944 69.7271 84.7558 71.9656 84.7558 74.7271V89.8923C84.7558 97.822 89.0499 104.749 95.4396 108.474H81.8984C80.446 108.474 79.2686 109.651 79.2686 111.104C79.2686 115.945 83.1933 119.87 88.0348 119.87H126.948C131.79 119.87 135.715 115.945 135.715 111.104C135.715 109.651 134.537 108.474 133.085 108.474H117.06C121.906 105.648 125.547 100.981 127.023 95.4314H133.122C139.75 95.4314 145.122 90.0588 145.122 83.4314V82.3859C145.122 76.863 140.645 72.3859 135.122 72.3859H130.915C129.654 72.3859 128.501 72.853 127.622 73.6236C127.119 71.3931 125.126 69.7271 122.744 69.7271H89.7558ZM93.6259 73.4414C90.9884 73.4414 88.8503 75.5794 88.8503 78.2169V89.6226C88.8503 99.1481 96.5723 106.87 106.098 106.87C115.623 106.87 123.345 99.1481 123.345 89.6226V78.2169C123.345 75.5794 121.207 73.4414 118.57 73.4414H93.6259ZM86.0244 112.063C85.4434 112.063 84.9724 112.534 84.9724 113.115C84.9724 115.052 86.5423 116.622 88.4789 116.622H126.152C128.089 116.622 129.659 115.052 129.659 113.115C129.659 112.534 129.188 112.063 128.607 112.063H86.0244ZM128.397 79.9861C128.397 77.6769 130.269 75.8049 132.579 75.8049H133.344C137.539 75.8049 140.941 79.2064 140.941 83.4023C140.941 87.5983 137.539 90.9997 133.344 90.9997H128.397V79.9861Z" fill="black"/>
<path d="M106.708 66.1818V66.1818C103.566 62.7993 103.415 57.6136 106.354 54.0537L106.708 53.625V53.625C109.222 50.5795 109.362 46.2207 107.05 43.0195L106.708 42.5454" stroke="black" stroke-width="3"/>
<path d="M93.2925 66.1816V66.1816C90.751 64.6765 90.6543 61.0331 93.1125 59.3953L93.2925 59.2754V59.2754C95.3826 57.8829 95.4784 54.846 93.4802 53.3246L93.2925 53.1816" stroke="black" stroke-width="3"/>
<path d="M117.683 66.1819V66.1819C114.799 63.8527 114.672 59.4996 117.416 57.0067L117.683 56.7642V56.7642C120.02 54.6411 120.141 51.0069 117.951 48.7328L117.683 48.4546" stroke="black" stroke-width="3"/>
</svg>
