<svg width="90" height="90" viewBox="0 0 90 90" fill="none" xmlns="http://www.w3.org/2000/svg">
<g clip-path="url(#clip0_5643_1633)">
<mask id="path-1-inside-1_5643_1633" fill="white">
<path d="M6.70595 20.5177C6.16013 21.4719 6.25651 22.6633 6.94849 23.5175C8.47956 25.407 6.88635 28.1917 4.48157 27.8295C3.39457 27.6658 2.3186 28.1867 1.7726 29.1407L1.18339 30.1706C-0.0224214 32.2783 0.708298 34.9648 2.81578 36.1708L13.2477 42.139C15.3827 43.3605 18.1043 42.6197 19.3257 40.4848L19.9615 39.3735C20.4907 38.4483 20.3974 37.2928 19.7265 36.4646C18.2419 34.6326 19.7865 31.9326 22.1183 32.284C23.1722 32.4428 24.2155 31.9373 24.745 31.0123L30.3324 21.246C31.4968 19.2106 30.7587 16.6189 30.1427 14.3563V14.3563C29.2164 10.953 31.2247 7.44271 34.628 6.51641L34.7714 6.47809V6.47809C35.7575 6.20971 36.5986 5.33464 36.2922 4.35975C36.1048 3.76353 35.8617 3.18439 35.565 2.63088C34.1647 0.019 30.8329 -0.382095 27.9733 0.396051L20.4149 2.45328C17.8559 3.14984 15.6783 4.83474 14.3613 7.13673L6.70595 20.5177Z"/>
</mask>
<path d="M6.70595 20.5177L1.49781 17.5385L1.49802 17.5381L6.70595 20.5177ZM6.94849 23.5175L2.28683 27.2949L2.28638 27.2944L6.94849 23.5175ZM4.48157 27.8295L5.3748 21.8963L5.37529 21.8964L4.48157 27.8295ZM1.7726 29.1407L-3.43533 26.1612L-3.43491 26.1605L1.7726 29.1407ZM1.18339 30.1706L-4.02454 27.1911L1.18339 30.1706ZM2.81578 36.1708L-0.163726 41.3787L-0.164283 41.3784L2.81578 36.1708ZM13.2477 42.139L10.2682 47.347L13.2477 42.139ZM19.3257 40.4848L24.5336 43.4643L24.5336 43.4643L19.3257 40.4848ZM19.9615 39.3735L25.1695 42.3528L25.1694 42.353L19.9615 39.3735ZM19.7265 36.4646L24.388 32.6869L24.3887 32.6878L19.7265 36.4646ZM22.1183 32.284L21.2246 38.2171L21.2241 38.217L22.1183 32.284ZM24.745 31.0123L29.9529 33.9918L29.9524 33.9927L24.745 31.0123ZM34.628 6.51641L33.0523 0.727021L33.0657 0.723357L33.0792 0.719755L34.628 6.51641ZM35.565 2.63088L40.853 -0.204018L40.8531 -0.203855L35.565 2.63088ZM27.9733 0.396051L26.3976 -5.39334L26.3979 -5.39343L27.9733 0.396051ZM20.4149 2.45328L18.839 -3.33608L18.8392 -3.33611L20.4149 2.45328ZM14.3613 7.13673L19.5692 10.1162L14.3613 7.13673ZM36.2922 4.35975L30.5683 6.15888L36.2922 4.35975ZM6.70595 20.5177L11.9141 23.4968C12.5977 22.3017 12.4768 20.8099 11.6106 19.7406L6.94849 23.5175L2.28638 27.2944C0.036228 24.5168 -0.277448 20.642 1.49781 17.5385L6.70595 20.5177ZM6.94849 23.5175L11.6101 19.7401C16.5895 25.885 11.4082 34.9406 3.58785 33.7625L4.48157 27.8295L5.37529 21.8964C2.36446 21.4429 0.369636 24.929 2.28683 27.2949L6.94849 23.5175ZM4.48157 27.8295L3.58833 33.7626C4.94966 33.9676 6.29661 33.3153 6.98012 32.121L1.7726 29.1407L-3.43491 26.1605C-1.6594 23.0581 1.83948 21.3641 5.3748 21.8963L4.48157 27.8295ZM1.7726 29.1407L6.98053 32.1203L6.39132 33.1501L1.18339 30.1706L-4.02454 27.1911L-3.43533 26.1612L1.7726 29.1407ZM1.18339 30.1706L6.39132 33.1501C6.8305 32.3825 6.56496 31.4033 5.79584 30.9632L2.81578 36.1708L-0.164283 41.3784C-5.14837 38.5263 -6.87534 32.1741 -4.02454 27.1911L1.18339 30.1706ZM2.81578 36.1708L5.79529 30.9629L16.2273 36.9311L13.2477 42.139L10.2682 47.347L-0.163726 41.3787L2.81578 36.1708ZM13.2477 42.139L16.2273 36.9311C15.486 36.507 14.5419 36.764 14.1178 37.5053L19.3257 40.4848L24.5336 43.4643C21.6666 48.4755 15.2795 50.2139 10.2682 47.347L13.2477 42.139ZM19.3257 40.4848L14.1178 37.5053L14.7535 36.394L19.9615 39.3735L25.1694 42.353L24.5336 43.4643L19.3257 40.4848ZM19.9615 39.3735L14.7534 36.3942C14.0535 37.6177 14.1766 39.1456 15.0643 40.2414L19.7265 36.4646L24.3887 32.6878C26.6182 35.44 26.9279 39.279 25.1695 42.3528L19.9615 39.3735ZM19.7265 36.4646L15.065 40.2423C10.132 34.1551 15.2644 25.1833 23.0125 26.351L22.1183 32.284L21.2241 38.217C24.3087 38.6819 26.3518 35.1102 24.388 32.6869L19.7265 36.4646ZM22.1183 32.284L23.0119 26.351C21.6157 26.1406 20.2368 26.8101 19.5375 28.0319L24.745 31.0123L29.9524 33.9927C28.1942 37.0646 24.7287 38.7449 21.2246 38.2171L22.1183 32.284ZM24.745 31.0123L19.537 28.0328L25.1245 18.2664L30.3324 21.246L35.5403 24.2255L29.9529 33.9918L24.745 31.0123ZM30.1427 14.3563L24.3533 15.932C22.5568 9.33133 26.4516 2.52357 33.0523 0.727021L34.628 6.51641L36.2037 12.3058C35.9978 12.3618 35.8761 12.5746 35.9321 12.7805L30.1427 14.3563ZM34.628 6.51641L33.0792 0.719755L33.2226 0.681431L34.7714 6.47809L36.3202 12.2747L36.1768 12.3131L34.628 6.51641ZM36.2922 4.35975L30.5683 6.15888C30.4926 5.91822 30.395 5.686 30.2768 5.46561L35.565 2.63088L40.8531 -0.203855C41.3284 0.682778 41.7169 1.60884 42.0161 2.56062L36.2922 4.35975ZM35.565 2.63088L30.2769 5.46577C30.3799 5.65792 30.5424 5.83913 30.72 5.96501C30.8789 6.07768 30.9676 6.08895 30.909 6.07479C30.8462 6.05966 30.6847 6.03327 30.4215 6.04435C30.1617 6.05529 29.861 6.10057 29.5488 6.18553L27.9733 0.396051L26.3979 -5.39343C28.5704 -5.9846 31.1664 -6.20752 33.7239 -5.59038C36.3855 -4.94812 39.1834 -3.31845 40.853 -0.204018L35.565 2.63088ZM27.9733 0.396051L29.5491 6.18544L21.9906 8.24267L20.4149 2.45328L18.8392 -3.33611L26.3976 -5.39334L27.9733 0.396051ZM20.4149 2.45328L21.9908 8.24264C20.9675 8.52117 20.0962 9.19515 19.5692 10.1162L14.3613 7.13673L9.15338 4.15722C11.2604 0.474339 14.7443 -2.2215 18.839 -3.33608L20.4149 2.45328ZM14.3613 7.13673L19.5692 10.1162L11.9139 23.4972L6.70595 20.5177L1.49802 17.5381L9.15338 4.15722L14.3613 7.13673ZM34.7714 6.47809L33.1957 0.688697C32.6056 0.849314 31.9019 1.21224 31.3062 1.96727C30.6261 2.82922 30.0133 4.39323 30.5683 6.15888L36.2922 4.35975L42.0161 2.56062C42.8775 5.30117 41.9974 7.79016 40.7268 9.40045C39.5406 10.9038 37.9233 11.8385 36.3472 12.2675L34.7714 6.47809ZM30.3324 21.246L25.1245 18.2664C24.8564 18.735 24.9839 18.9832 24.9337 18.4707C24.9101 18.2294 24.8551 17.9049 24.7513 17.4577C24.6448 16.9988 24.5173 16.5345 24.3534 15.9323L30.1427 14.3563L35.932 12.7803C36.2037 13.7783 36.7016 15.5131 36.8767 17.3019C37.0585 19.1598 36.9728 21.7215 35.5403 24.2255L30.3324 21.246Z" fill="black" mask="url(#path-1-inside-1_5643_1633)"/>
<path d="M25.278 21.9602C26.9917 19.2882 30.519 18.4014 33.3055 19.9955L50.9682 30.1008C51.0568 30.1514 51.0643 30.2763 50.9824 30.3372V30.3372L49.2837 31.5983C48.8222 31.9408 48.7438 32.6008 49.112 33.042L50.4679 34.6665L52.5244 37.1336C52.6553 37.2906 52.6217 37.5264 52.4523 37.6406V37.6406C52.3433 37.7141 52.2021 37.7193 52.088 37.6541L31.1939 25.7C30.7145 25.4257 30.1035 25.592 29.8293 26.0715L29.3045 26.9891C29.0304 27.4684 29.1967 28.0793 29.676 28.3535L48.0596 38.8712C48.7022 39.2388 48.7364 40.1529 48.123 40.5676L44.4307 43.0638C44.1148 43.2774 43.7049 43.2927 43.374 43.1033L25.8285 33.0648C23.0423 31.4708 22.0192 27.9812 23.4536 25.1498L23.5994 24.8776L25.118 22.2236L25.278 21.9602Z" fill="black"/>
<path d="M79.2007 87.3548L78.9298 87.5019C76.1952 88.9009 72.8338 88.0011 71.1652 85.4221L71.0046 85.1584L49.0556 47.1407C48.8766 46.8306 49.1641 46.4596 49.5091 46.5556V46.5556L51.3182 47.0579C51.8269 47.1992 52.3578 46.9206 52.5306 46.4217L53.1457 44.646V44.646C53.3505 44.0539 54.1563 43.9769 54.4696 44.5194L79.2007 87.3548ZM84.0452 77.63L84.1923 77.9008C85.5915 80.6355 84.6909 83.9967 82.1116 85.6653L81.8488 85.826L79.2007 87.3548L76.7008 83.0246C76.4247 82.5463 76.5886 81.9347 77.0669 81.6586L77.9829 81.1298C78.4612 80.8537 78.6251 80.242 78.349 79.7637L57.692 43.985C57.2778 43.2676 57.9264 42.4037 58.731 42.6014V42.6014L61.3789 43.252C61.819 43.3601 62.2495 43.0429 62.2765 42.5906V42.5906C62.3195 41.8721 63.2696 41.6477 63.6295 42.2711L84.0452 77.63Z" fill="black"/>
<path d="M57 14L56 25" stroke="black" stroke-width="6" stroke-linecap="round"/>
<path d="M80 19L64 32" stroke="black" stroke-width="6" stroke-linecap="round"/>
<path d="M82 39H72" stroke="black" stroke-width="6" stroke-linecap="round"/>
</g>
<defs>
<clipPath id="clip0_5643_1633">
<rect width="90" height="90" fill="white"/>
</clipPath>
</defs>
</svg>
