<svg width="98" height="90" viewBox="0 0 98 90" fill="none" xmlns="http://www.w3.org/2000/svg">
<rect x="1" y="10.6431" width="96" height="78.3571" rx="2" fill="#DADADA" stroke="black" stroke-width="2"/>
<rect x="1" y="10.6431" width="96" height="18.8929" rx="2" fill="#D9D9D9" stroke="black" stroke-width="2"/>
<rect x="43.2515" y="44.7241" width="16.9721" height="11.0429" rx="2" fill="black"/>
<rect x="67.3408" y="44.7241" width="18.067" height="11.0429" rx="2" fill="black"/>
<rect x="18.0669" y="64.6011" width="18.067" height="10.4908" rx="2" fill="black"/>
<rect x="43.2515" y="64.6011" width="16.9721" height="10.4908" rx="2" fill="black"/>
<rect x="67.3408" y="64.6011" width="18.067" height="10.4908" rx="2" fill="black"/>
<path d="M13.2559 4.53916C13.2559 2.03225 15.2881 0 17.795 0C20.3019 0 22.3342 2.03225 22.3342 4.53916V19.3282C22.3342 21.8352 20.3019 23.8674 17.795 23.8674C15.2881 23.8674 13.2559 21.8352 13.2559 19.3282V4.53916Z" fill="black"/>
<rect x="44.5024" width="9.07833" height="23.8674" rx="4.53917" fill="black"/>
<rect x="76.2222" width="9.07833" height="23.8674" rx="4.53917" fill="black"/>
</svg>
