<svg width="100" height="80" viewBox="0 0 100 80" fill="none" xmlns="http://www.w3.org/2000/svg">
<path d="M64 42.5316C64 50.437 57.6847 56.7594 50 56.7594C42.3153 56.7594 36 50.437 36 42.5316C36 34.6261 42.3153 28.3037 50 28.3037C57.6847 28.3037 64 34.6261 64 42.5316Z" stroke="black" stroke-width="8"/>
<mask id="path-3-inside-1_1678_25834" fill="white">
<ellipse cx="83.5" cy="28.8606" rx="6.5" ry="6.58228"/>
</mask>
<path d="M82 28.8606C82 28.1728 82.577 27.4429 83.5 27.4429V43.4429C91.6027 43.4429 98 36.819 98 28.8606H82ZM83.5 27.4429C84.423 27.4429 85 28.1728 85 28.8606H69C69 36.819 75.3973 43.4429 83.5 43.4429V27.4429ZM85 28.8606C85 29.5484 84.423 30.2783 83.5 30.2783V14.2783C75.3973 14.2783 69 20.9022 69 28.8606H85ZM83.5 30.2783C82.577 30.2783 82 29.5484 82 28.8606H98C98 20.9022 91.6027 14.2783 83.5 14.2783V30.2783Z" fill="black" mask="url(#path-3-inside-1_1678_25834)"/>
<mask id="path-5-inside-2_1678_25834" fill="white">
<path fill-rule="evenodd" clip-rule="evenodd" d="M32.5109 0C29.3432 0 26.4365 1.86064 25.3338 4.83016C24.5401 6.96783 23.8729 9.04359 23.3185 11.0692H8C3.58172 11.0692 0 14.6509 0 19.0692V72C0 76.4183 3.58172 80 8 80H92C96.4183 80 100 76.4183 100 72V19.0692C100 14.6509 96.4183 11.0692 92 11.0692H75.4703C74.7804 8.99689 73.9706 6.84988 73.0282 4.61515C71.8303 1.77485 68.988 0 65.9054 0H32.5109Z"/>
</mask>
<path d="M25.3338 4.83016L32.8335 7.61496L25.3338 4.83016ZM23.3185 11.0692V19.0692H29.4231L31.0346 13.1812L23.3185 11.0692ZM75.4703 11.0692L67.8799 13.5961L69.7019 19.0692H75.4703V11.0692ZM73.0282 4.61515L65.6569 7.72393V7.72393L73.0282 4.61515ZM32.8335 7.61496C32.8028 7.69749 32.7573 7.77646 32.7042 7.84231C32.653 7.9059 32.6046 7.94531 32.571 7.96758C32.5102 8.00797 32.4881 8 32.5109 8V-8C26.2867 -8 20.198 -4.32061 17.8342 2.04536L32.8335 7.61496ZM31.0346 13.1812C31.5248 11.3903 32.119 9.53898 32.8335 7.61496L17.8342 2.04536C16.9611 4.39669 16.2209 6.69685 15.6023 8.95723L31.0346 13.1812ZM8 19.0692H23.3185V3.0692H8V19.0692ZM8 19.0692V19.0692V3.0692C-0.836544 3.0692 -8 10.2326 -8 19.0692H8ZM8 72V19.0692H-8V72H8ZM8 72H8H-8C-8 80.8366 -0.836557 88 8 88V72ZM92 72H8V88H92V72ZM92 72V72V88C100.837 88 108 80.8366 108 72H92ZM92 19.0692V72H108V19.0692H92ZM92 19.0692H108C108 10.2326 100.837 3.0692 92 3.0692V19.0692ZM75.4703 19.0692H92V3.0692H75.4703V19.0692ZM65.6569 7.72393C66.524 9.78001 67.2596 11.7329 67.8799 13.5961L83.0608 8.54231C82.3013 6.26091 81.4172 3.91976 80.3994 1.50637L65.6569 7.72393ZM65.9054 8C65.9138 8 65.8965 8.00335 65.8552 7.97682C65.8053 7.94481 65.7153 7.86247 65.6569 7.72393L80.3994 1.50637C77.8745 -4.48052 72.0024 -8 65.9054 -8V8ZM32.5109 8H65.9054V-8H32.5109V8Z" fill="black" mask="url(#path-5-inside-2_1678_25834)"/>
</svg>
