<svg width="58" height="43" viewBox="0 0 58 43" fill="none" xmlns="http://www.w3.org/2000/svg">
<mask id="path-1-inside-1_749_38887" fill="white">
<path fill-rule="evenodd" clip-rule="evenodd" d="M14.1472 5.89968C15.2449 2.19492 18.8939 0 22.7579 0H35.6337C39.3869 0 42.9288 2.07092 44.2263 5.59276C44.2818 5.74328 44.336 5.89306 44.389 6.04213H48C53.5229 6.04213 58 10.5193 58 16.0421V33C58 38.5229 53.5228 43 48 43H10C4.47715 43 0 38.5228 0 33V16.0421C0 10.5193 4.47715 6.04213 10 6.04213H14.1054C14.1192 5.99469 14.1332 5.94721 14.1472 5.89968ZM29 33C33.9706 33 38 28.9706 38 24C38 19.0294 33.9706 15 29 15C24.0294 15 20 19.0294 20 24C20 28.9706 24.0294 33 29 33Z"/>
</mask>
<path d="M14.1472 5.89968L17.0236 6.75192L17.0236 6.75191L14.1472 5.89968ZM44.2263 5.59276L41.4113 6.62989L41.4113 6.62991L44.2263 5.59276ZM44.389 6.04213L41.5622 7.0467L42.2713 9.04213H44.389V6.04213ZM14.1054 6.04213V9.04213H16.3552L16.9853 6.88231L14.1054 6.04213ZM22.7579 -3C17.865 -3 12.8247 -0.197071 11.2708 5.04744L17.0236 6.75191C17.6651 4.58692 19.9229 3 22.7579 3V-3ZM35.6337 -3H22.7579V3H35.6337V-3ZM47.0414 4.55564C45.235 -0.347351 40.4142 -3 35.6337 -3V3C38.3596 3 40.6226 4.48919 41.4113 6.62989L47.0414 4.55564ZM47.2158 5.03755C47.1589 4.87755 47.1008 4.71691 47.0414 4.55561L41.4113 6.62991C41.4628 6.76964 41.5131 6.90857 41.5622 7.0467L47.2158 5.03755ZM48 3.04213H44.389V9.04213H48V3.04213ZM61 16.0421C61 8.86242 55.1797 3.04213 48 3.04213V9.04213C51.866 9.04213 55 12.1761 55 16.0421H61ZM61 33V16.0421H55V33H61ZM48 46C55.1797 46 61 40.1797 61 33H55C55 36.866 51.866 40 48 40V46ZM10 46H48V40H10V46ZM-3 33C-3 40.1797 2.8203 46 10 46V40C6.13401 40 3 36.866 3 33H-3ZM-3 16.0421V33H3V16.0421H-3ZM10 3.04213C2.8203 3.04213 -3 8.86242 -3 16.0421H3C3 12.1761 6.13401 9.04213 10 9.04213V3.04213ZM14.1054 3.04213H10V9.04213H14.1054V3.04213ZM11.2708 5.04743C11.2556 5.09896 11.2404 5.15047 11.2254 5.20194L16.9853 6.88231C16.998 6.83892 17.0107 6.79546 17.0236 6.75192L11.2708 5.04743ZM35 24C35 27.3137 32.3137 30 29 30V36C35.6274 36 41 30.6274 41 24H35ZM29 18C32.3137 18 35 20.6863 35 24H41C41 17.3726 35.6274 12 29 12V18ZM23 24C23 20.6863 25.6863 18 29 18V12C22.3726 12 17 17.3726 17 24H23ZM29 30C25.6863 30 23 27.3137 23 24H17C17 30.6274 22.3726 36 29 36V30Z" fill="black" mask="url(#path-1-inside-1_749_38887)"/>
<ellipse cx="48.8413" cy="14.8251" rx="1.84127" ry="1.82508" fill="black"/>
</svg>
