<svg width="79" height="67" viewBox="0 0 79 67" fill="none" xmlns="http://www.w3.org/2000/svg">
<mask id="path-1-inside-1_749_39815" fill="white">
<path fill-rule="evenodd" clip-rule="evenodd" d="M65.4439 5.13106C63.5834 3.95423 61.1211 4.50848 59.9443 6.36899L30.4891 52.9366L11.3292 33.7766C9.79583 32.2433 7.30977 32.2433 5.77641 33.7766C4.24306 35.31 4.24305 37.7961 5.77641 39.3294L28.1604 61.7134C29.1421 62.6951 30.5143 63.0483 31.777 62.7729C32.9982 62.6867 34.1635 62.041 34.8681 60.9271L66.6818 10.6307C67.8587 8.77013 67.3044 6.30788 65.4439 5.13106Z"/>
</mask>
<path fill-rule="evenodd" clip-rule="evenodd" d="M65.4439 5.13106C63.5834 3.95423 61.1211 4.50848 59.9443 6.36899L30.4891 52.9366L11.3292 33.7766C9.79583 32.2433 7.30977 32.2433 5.77641 33.7766C4.24306 35.31 4.24305 37.7961 5.77641 39.3294L28.1604 61.7134C29.1421 62.6951 30.5143 63.0483 31.777 62.7729C32.9982 62.6867 34.1635 62.041 34.8681 60.9271L66.6818 10.6307C67.8587 8.77013 67.3044 6.30788 65.4439 5.13106Z" fill="black"/>
<path d="M59.9443 6.36899L59.0992 5.83443L59.0992 5.83443L59.9443 6.36899ZM30.4891 52.9366L29.782 53.6437L30.666 54.5277L31.3343 53.4711L30.4891 52.9366ZM11.3292 33.7766L10.6221 34.4838L11.3292 33.7766ZM5.77641 33.7766L5.06931 33.0695L5.06931 33.0695L5.77641 33.7766ZM5.77641 39.3294L5.0693 40.0365L5.0693 40.0365L5.77641 39.3294ZM28.1604 61.7134L27.4533 62.4205L28.1604 61.7134ZM31.777 62.7729L31.7066 61.7754L31.6345 61.7805L31.564 61.7959L31.777 62.7729ZM34.8681 60.9271L35.7132 61.4617L35.7132 61.4617L34.8681 60.9271ZM66.6818 10.6307L65.8367 10.0961L65.8367 10.0961L66.6818 10.6307ZM60.7894 6.90356C61.671 5.50979 63.5156 5.09459 64.9093 5.97618L65.9785 4.28593C63.6512 2.81387 60.5712 3.50716 59.0992 5.83443L60.7894 6.90356ZM31.3343 53.4711L60.7894 6.90356L59.0992 5.83443L29.644 52.402L31.3343 53.4711ZM10.6221 34.4838L29.782 53.6437L31.1962 52.2295L12.0363 33.0695L10.6221 34.4838ZM6.48352 34.4838C7.62635 33.3409 9.47925 33.3409 10.6221 34.4838L12.0363 33.0695C10.1124 31.1457 6.99319 31.1457 5.06931 33.0695L6.48352 34.4838ZM6.48352 38.6223C5.34068 37.4795 5.34069 35.6266 6.48352 34.4838L5.06931 33.0695C3.14542 34.9934 3.14542 38.1126 5.0693 40.0365L6.48352 38.6223ZM28.8675 61.0063L6.48352 38.6223L5.0693 40.0365L27.4533 62.4205L28.8675 61.0063ZM31.564 61.7959C30.6199 62.0018 29.5984 61.7372 28.8675 61.0063L27.4533 62.4205C28.6858 63.653 30.4088 64.0948 31.9901 63.75L31.564 61.7959ZM34.0229 60.3925C33.4955 61.2264 32.6242 61.7106 31.7066 61.7754L31.8475 63.7705C33.3721 63.6627 34.8315 62.8556 35.7132 61.4617L34.0229 60.3925ZM65.8367 10.0961L34.0229 60.3925L35.7132 61.4617L67.527 11.1652L65.8367 10.0961ZM64.9093 5.97618C66.3031 6.85778 66.7183 8.70232 65.8367 10.0961L67.527 11.1652C68.999 8.83795 68.3057 5.75799 65.9785 4.28593L64.9093 5.97618Z" fill="black" mask="url(#path-1-inside-1_749_39815)"/>
</svg>
