<svg width="100" height="100" viewBox="0 0 100 100" fill="none" xmlns="http://www.w3.org/2000/svg">
<mask id="path-1-inside-1_749_39815" fill="white">
<path fill-rule="evenodd" clip-rule="evenodd" d="M92.3898 5.74986C89.9232 3.76091 86.6971 4.41446 85.1841 7.20962L47.5742 76.6895L22.714 44.0073C20.8896 41.609 17.7342 41.4509 15.6662 43.6541C13.5981 45.8574 13.4005 49.5877 15.2248 51.986L44.4511 90.4078C44.86 90.9454 45.3358 91.3704 45.8512 91.6815C45.8566 91.6859 45.862 91.6902 45.8674 91.6946C48.334 93.6835 51.5601 93.03 53.0731 90.2348L94.1163 14.4123C95.6293 11.6171 94.8563 7.73881 92.3898 5.74986Z"/>
</mask>
<path fill-rule="evenodd" clip-rule="evenodd" d="M92.3898 5.74986C89.9232 3.76091 86.6971 4.41446 85.1841 7.20962L47.5742 76.6895L22.714 44.0073C20.8896 41.609 17.7342 41.4509 15.6662 43.6541C13.5981 45.8574 13.4005 49.5877 15.2248 51.986L44.4511 90.4078C44.86 90.9454 45.3358 91.3704 45.8512 91.6815C45.8566 91.6859 45.862 91.6902 45.8674 91.6946C48.334 93.6835 51.5601 93.03 53.0731 90.2348L94.1163 14.4123C95.6293 11.6171 94.8563 7.73881 92.3898 5.74986Z" fill="black"/>
<path d="M85.1841 7.20962L86.0627 7.68401L86.0627 7.68401L85.1841 7.20962ZM92.3898 5.74986L93.0184 4.97015L93.0184 4.97015L92.3898 5.74986ZM47.5742 76.6895L46.7781 77.2969L47.7145 78.5279L48.4528 77.1639L47.5742 76.6895ZM22.714 44.0073L21.9179 44.6148L21.9179 44.6148L22.714 44.0073ZM15.6662 43.6541L14.9385 42.9704L14.9385 42.9704L15.6662 43.6541ZM15.2248 51.986L14.4287 52.5935L14.4287 52.5935L15.2248 51.986ZM44.4511 90.4078L43.655 91.0152L43.655 91.0152L44.4511 90.4078ZM45.8512 91.6815L46.4826 90.904L46.4288 90.8603L46.3694 90.8244L45.8512 91.6815ZM45.8674 91.6946L45.2387 92.4742L45.2387 92.4743L45.8674 91.6946ZM53.0731 90.2348L52.1945 89.7604L52.1945 89.7604L53.0731 90.2348ZM94.1163 14.4123L94.9949 14.8866L94.9949 14.8866L94.1163 14.4123ZM86.0627 7.68401C86.6884 6.52815 87.6335 5.86697 88.6248 5.66615C89.6161 5.46533 90.7412 5.70711 91.7611 6.52957L93.0184 4.97015C91.5718 3.80365 89.8505 3.37774 88.2339 3.70525C86.6172 4.03276 85.1928 5.09593 84.3054 6.73522L86.0627 7.68401ZM48.4528 77.1639L86.0627 7.68401L84.3054 6.73522L46.6956 76.2151L48.4528 77.1639ZM21.9179 44.6148L46.7781 77.2969L48.3703 76.082L23.51 43.3999L21.9179 44.6148ZM16.3938 44.3379C18.038 42.5861 20.4672 42.7077 21.9179 44.6148L23.51 43.3999C21.3121 40.5104 17.4304 40.3157 14.9385 42.9704L16.3938 44.3379ZM16.0209 51.3785C14.492 49.3685 14.6607 46.1842 16.3938 44.3379L14.9385 42.9704C12.5355 45.5306 12.3091 49.8069 14.4287 52.5935L16.0209 51.3785ZM45.2472 89.8003L16.0209 51.3785L14.4287 52.5935L43.655 91.0152L45.2472 89.8003ZM46.3694 90.8244C45.9662 90.5811 45.5834 90.2423 45.2472 89.8003L43.655 91.0152C44.1366 91.6484 44.7053 92.1597 45.333 92.5385L46.3694 90.8244ZM46.4961 90.9149C46.4917 90.9114 46.4872 90.9077 46.4826 90.904L45.2198 92.4589C45.226 92.464 45.2323 92.4691 45.2387 92.4742L46.4961 90.9149ZM52.1945 89.7604C51.5688 90.9163 50.6236 91.5775 49.6324 91.7783C48.6411 91.9791 47.516 91.7373 46.496 90.9149L45.2387 92.4743C46.6853 93.6408 48.4066 94.0667 50.0233 93.7392C51.6399 93.4117 53.0644 92.3485 53.9517 90.7092L52.1945 89.7604ZM93.2377 13.9379L52.1945 89.7604L53.9517 90.7092L94.9949 14.8866L93.2377 13.9379ZM91.7611 6.52956C93.8529 8.21635 94.5209 11.5673 93.2377 13.9379L94.9949 14.8866C96.7378 11.6669 95.8597 7.26128 93.0184 4.97015L91.7611 6.52956Z" fill="black" mask="url(#path-1-inside-1_749_39815)"/>
</svg>
