<svg width="130" height="130" viewBox="0 0 130 130" fill="none" xmlns="http://www.w3.org/2000/svg">
<path fill-rule="evenodd" clip-rule="evenodd" d="M48.54 1.80418C36.8998 4.51064 26.6608 10.0138 18.4097 17.4029C19.5347 18.6056 20.5826 19.8678 21.5507 21.1813C29.3193 14.257 38.9588 9.09385 49.9144 6.54658C83.7221 -1.31406 117.26 18.7122 124.823 51.2764C132.386 83.8406 111.111 116.611 77.303 124.472C45.4671 131.874 13.8706 114.548 3.97763 85.3093C2.67639 85.8583 1.34872 86.3421 1.52588e-05 86.7588C10.8227 117.71 44.254 136.018 77.895 128.196C113.868 119.832 136.458 84.7576 128.352 49.8555C120.246 14.9534 84.513 -6.55988 48.54 1.80418Z" fill="black"/>
<path fill-rule="evenodd" clip-rule="evenodd" d="M63 115C90.6142 115 113 92.6142 113 65C113 37.3858 90.6142 15 63 15C35.3858 15 13 37.3858 13 65C13 92.6142 35.3858 115 63 115ZM63.02 110.615C88.3809 110.615 108.94 90.1582 108.94 64.9231C108.94 39.6879 88.3809 19.2308 63.02 19.2308C37.6591 19.2308 17.1 39.6879 17.1 64.9231C17.1 90.1582 37.6591 110.615 63.02 110.615ZM68.4153 67.5868C68.7901 66.8036 69 65.9263 69 65C69 61.6863 66.3137 59 63 59C60.3876 59 58.1651 60.6696 57.3414 63H34C32.8954 63 32 63.8954 32 65C32 66.1046 32.8954 67 34 67H57.3414C58.1651 69.3304 60.3876 71 63 71C63.9263 71 64.8036 70.7901 65.5868 70.4153L76.7279 81.5564C77.509 82.3374 78.7753 82.3374 79.5564 81.5564C80.3374 80.7753 80.3374 79.509 79.5564 78.7279L68.4153 67.5868ZM63 68C61.3431 68 60 66.6569 60 65C60 63.3431 61.3431 62 63 62C64.6569 62 66 63.3431 66 65C66 66.6569 64.6569 68 63 68ZM60.897 103.985C60.897 103.407 61.3856 102.951 61.9632 102.972C62.4498 102.991 62.9388 103 63.43 103L63.495 103C64.0583 102.999 64.5234 103.45 64.5234 104.013V107.863C64.5234 108.415 64.0757 108.863 63.5234 108.863H61.897C61.3447 108.863 60.897 108.415 60.897 107.863V103.985ZM36.6628 92.0406C37.0661 92.4376 37.0784 93.089 36.6782 93.4892L33.6079 96.5595C33.2173 96.95 32.5842 96.95 32.1937 96.5595L31.0436 95.4095C30.6531 95.0189 30.6531 94.3858 31.0436 93.9953L34.1274 90.9115C34.5345 90.5043 35.1996 90.5251 35.5935 90.9451C35.9426 91.3174 36.2991 91.6826 36.6628 92.0406ZM25.307 65.6596C25.3178 66.2299 24.8642 66.7063 24.2938 66.7063H19.74C19.1877 66.7063 18.74 66.2586 18.74 65.7063V64.0799C18.74 63.5276 19.1877 63.0799 19.74 63.0799H24.295C24.866 63.0799 25.3199 63.5572 25.3081 64.1281C25.3027 64.3924 25.3 64.6574 25.3 64.9231C25.3 65.1691 25.3023 65.4147 25.307 65.6596ZM35.6216 38.8711C35.2276 39.2904 34.5631 39.3108 34.1562 38.904L31.0432 35.7909C30.6527 35.4004 30.6527 34.7672 31.0432 34.3767L32.1932 33.2267C32.5837 32.8361 33.2169 32.8361 33.6074 33.2267L36.7082 36.3275C37.1087 36.7279 37.096 37.3799 36.692 37.7768C36.3279 38.1344 35.9711 38.4993 35.6216 38.8711ZM61.9632 26.8738C61.3856 26.8956 60.897 26.4392 60.897 25.8612V21.9231C60.897 21.3708 61.3447 20.9231 61.897 20.9231H63.5234C64.0757 20.9231 64.5234 21.3708 64.5234 21.9231V25.833C64.5234 26.3963 64.0583 26.8471 63.495 26.8462L63.43 26.8462C62.9388 26.8462 62.4498 26.8554 61.9632 26.8738ZM89.4516 37.091C89.0297 36.6975 89.008 36.0309 89.4159 35.623L91.8124 33.2265C92.2029 32.836 92.8361 32.836 93.2266 33.2265L94.3766 34.3765C94.7672 34.7671 94.7672 35.4002 94.3766 35.7907L91.9966 38.1708C91.5972 38.5702 90.9473 38.5588 90.55 38.1574C90.191 37.7947 89.8248 37.4391 89.4516 37.091ZM101.552 64.1281C101.54 63.5572 101.994 63.0799 102.565 63.0799H105.68C106.232 63.0799 106.68 63.5276 106.68 64.0799V65.7063C106.68 66.2586 106.232 66.7063 105.68 66.7063H102.566C101.996 66.7063 101.542 66.2299 101.553 65.6596C101.558 65.4147 101.56 65.1691 101.56 64.9231C101.56 64.6574 101.557 64.3924 101.552 64.1281ZM90.5788 91.6597C90.976 91.2575 91.6265 91.2457 92.0262 91.6454L94.3762 93.9954C94.7667 94.3859 94.7667 95.0191 94.3762 95.4096L93.2262 96.5597C92.8356 96.9502 92.2025 96.9502 91.8119 96.5597L89.4467 94.1944C89.0391 93.7868 89.0605 93.1208 89.4816 92.7271C89.8544 92.3786 90.2202 92.0227 90.5788 91.6597Z" fill="black"/>
<path fill-rule="evenodd" clip-rule="evenodd" d="M15 9.55C15 8.14167 16.1417 7 17.55 7C18.9583 7 20.1 8.14167 20.1 9.55V15.9C20.1 17.5569 21.4431 18.9 23.1 18.9H29.45C30.8583 18.9 32 20.0417 32 21.45C32 22.8583 30.8583 24 29.45 24H18C16.3431 24 15 22.6569 15 21V9.55Z" fill="black"/>
</svg>
