<svg width="122" height="119" viewBox="0 0 122 119" fill="none" xmlns="http://www.w3.org/2000/svg">
<path fill-rule="evenodd" clip-rule="evenodd" d="M60.9756 118.182C94.6515 118.182 121.951 91.7259 121.951 59.0909C121.951 26.4559 94.6515 0 60.9756 0C27.2997 0 0 26.4559 0 59.0909C0 91.7259 27.2997 118.182 60.9756 118.182ZM61 113C91.9279 113 117 88.8234 117 59C117 29.1766 91.9279 5 61 5C30.0721 5 5 29.1766 5 59C5 88.8234 30.0721 113 61 113ZM60.9756 66.1818C65.0167 66.1818 68.2927 63.0071 68.2927 59.0909C68.2927 58.1221 68.0922 57.1986 67.7292 56.3573C67.8874 56.2627 68.0368 56.1489 68.174 56.016L79.087 45.4403C80.0395 44.5172 80.0395 43.0206 79.087 42.0976C78.1345 41.1745 76.5902 41.1745 75.6377 42.0976L64.7247 52.6733C64.6534 52.7424 64.5875 52.8146 64.5269 52.8897C64.0122 52.6123 63.4594 52.3933 62.878 52.242V27.439C62.878 26.092 61.7861 25 60.439 25C59.092 25 58 26.092 58 27.439V52.561C58 52.5776 58.0002 52.5941 58.0005 52.6107C55.4421 53.7154 53.6585 56.2013 53.6585 59.0909C53.6585 63.0071 56.9345 66.1818 60.9756 66.1818ZM60.9756 62.6364C62.9962 62.6364 64.6341 61.049 64.6341 59.0909C64.6341 57.1328 62.9962 55.5455 60.9756 55.5455C58.9551 55.5455 57.3171 57.1328 57.3171 59.0909C57.3171 61.049 58.9551 62.6364 60.9756 62.6364ZM58.411 104.968C58.411 104.391 58.8983 103.934 59.475 103.958C60.1464 103.986 60.8215 104 61.5 104L61.6391 104L61.806 103.999C62.3689 103.996 62.8334 104.447 62.8334 105.009V109.929C62.8334 110.481 62.3857 110.929 61.8334 110.929H59.411C58.8587 110.929 58.411 110.481 58.411 109.929V104.968ZM28.9844 91.1691C29.4044 91.5667 29.4168 92.2357 29.0015 92.6382L24.9651 96.5498C24.5773 96.9256 23.9611 96.9256 23.5733 96.5498L21.8831 94.9118C21.4777 94.5189 21.4777 93.8685 21.8831 93.4756L25.9417 89.5424C26.3464 89.1503 26.9941 89.1705 27.3838 89.5775C27.9038 90.1206 28.4375 90.6513 28.9844 91.1691ZM15.0126 60.0593C15.0263 60.6301 14.5723 61.1074 14.0013 61.1074H8C7.44771 61.1074 7 60.6597 7 60.1074V57.8217C7 57.2694 7.44772 56.8217 8 56.8217H14.0031C14.5747 56.8217 15.0289 57.3 15.0143 57.8714C15.0048 58.2465 15 58.6227 15 59C15 59.3541 15.0042 59.7072 15.0126 60.0593ZM27.418 28.3869C27.0282 28.7931 26.381 28.8129 25.9767 28.4211L21.8826 24.4535C21.4771 24.0606 21.4771 23.4102 21.8826 23.0173L23.5728 21.3794C23.9606 21.0035 24.5768 21.0035 24.9646 21.3794L29.0382 25.3271C29.4538 25.7298 29.4411 26.3995 29.0204 26.7969C28.4729 27.3141 27.9386 27.8443 27.418 28.3869ZM59.475 14.0419C58.8983 14.0658 58.411 13.6094 58.411 13.0322V8C58.411 7.44771 58.8587 7 59.411 7H61.8334C62.3857 7 62.8334 7.44772 62.8334 8V12.9905C62.8334 13.5535 62.3689 14.0045 61.806 14.001C61.704 14.0003 61.6021 14 61.5 14C60.8215 14 60.1464 14.0141 59.475 14.0419ZM93.0985 25.9859C92.6598 25.5925 92.6377 24.9079 93.0609 24.4978L96.2791 21.3791C96.6669 21.0033 97.2831 21.0033 97.6709 21.3791L99.3611 23.0171C99.7665 23.41 99.7665 24.0604 99.3611 24.4533L96.1655 27.5502C95.7687 27.9347 95.136 27.9237 94.7432 27.5351C94.2082 27.0058 93.6598 26.4892 93.0985 25.9859ZM107.986 57.8714C107.971 57.3 108.425 56.8217 108.997 56.8217H113.244C113.796 56.8217 114.244 57.2694 114.244 57.8217V60.1074C114.244 60.6597 113.796 61.1074 113.244 61.1074H108.999C108.428 61.1074 107.974 60.6301 107.987 60.0593C107.996 59.7072 108 59.3541 108 59C108 58.6227 107.995 58.2465 107.986 57.8714ZM94.7783 90.4301C95.171 90.0408 95.8043 90.0294 96.2014 90.4143L99.3605 93.4758C99.766 93.8687 99.766 94.5191 99.3605 94.912L97.6704 96.55C97.2825 96.9258 96.6664 96.9258 96.2785 96.55L93.0986 93.4683C92.6758 93.0585 92.6974 92.3746 93.1354 91.981C93.6961 91.4771 94.2439 90.96 94.7783 90.4301Z" fill="black"/>
</svg>
