<svg width="130" height="130" viewBox="0 0 130 130" fill="none" xmlns="http://www.w3.org/2000/svg">
<path fill-rule="evenodd" clip-rule="evenodd" d="M66 115C93.6142 115 116 92.6142 116 65C116 37.3858 93.6142 15 66 15C38.3858 15 16 37.3858 16 65C16 92.6142 38.3858 115 66 115ZM66.02 110.615C91.3809 110.615 111.94 90.1582 111.94 64.9231C111.94 39.6879 91.3809 19.2308 66.02 19.2308C40.6591 19.2308 20.1 39.6879 20.1 64.9231C20.1 90.1582 40.6591 110.615 66.02 110.615ZM66 71C69.3137 71 72 68.3137 72 65C72 61.6863 69.3137 59 66 59C64.8111 59 63.703 59.3458 62.7707 59.9423L46.2426 43.4142C45.4616 42.6332 44.1953 42.6332 43.4142 43.4142C42.6332 44.1953 42.6332 45.4616 43.4142 46.2426L60.2982 63.1267C60.1047 63.7161 60 64.3458 60 65C60 66.1885 60.3456 67.2963 60.9417 68.2284C60.8672 68.2845 60.7957 68.3464 60.7279 68.4142L49.4142 79.7279C48.6332 80.509 48.6332 81.7753 49.4142 82.5564C50.1953 83.3374 51.4616 83.3374 52.2426 82.5564L63.5563 71.2426C63.7337 71.0653 63.8707 70.863 63.9675 70.647C64.6022 70.8755 65.2866 71 66 71ZM66 68C67.6569 68 69 66.6569 69 65C69 63.3431 67.6569 62 66 62C64.3431 62 63 63.3431 63 65C63 66.6569 64.3431 68 66 68ZM63.897 103.985C63.897 103.407 64.3856 102.951 64.9632 102.972C65.4498 102.991 65.9388 103 66.43 103L66.495 103C67.0583 102.999 67.5234 103.45 67.5234 104.013V107.863C67.5234 108.415 67.0757 108.863 66.5234 108.863H64.897C64.3447 108.863 63.897 108.415 63.897 107.863V103.985ZM39.6628 92.0406C40.0661 92.4376 40.0784 93.089 39.6782 93.4892L36.6079 96.5595C36.2173 96.95 35.5842 96.95 35.1937 96.5595L34.0436 95.4095C33.6531 95.0189 33.6531 94.3858 34.0436 93.9953L37.1274 90.9115C37.5345 90.5043 38.1996 90.5251 38.5935 90.9451C38.9426 91.3174 39.2991 91.6826 39.6628 92.0406ZM28.307 65.6596C28.3178 66.2299 27.8642 66.7063 27.2938 66.7063H22.74C22.1877 66.7063 21.74 66.2586 21.74 65.7063V64.0799C21.74 63.5276 22.1877 63.0799 22.74 63.0799H27.295C27.866 63.0799 28.3199 63.5572 28.3081 64.1281C28.3027 64.3924 28.3 64.6574 28.3 64.9231C28.3 65.1691 28.3023 65.4147 28.307 65.6596ZM38.6216 38.8711C38.2276 39.2904 37.5631 39.3108 37.1562 38.904L34.0432 35.7909C33.6527 35.4004 33.6527 34.7672 34.0432 34.3767L35.1932 33.2267C35.5837 32.8361 36.2169 32.8361 36.6074 33.2267L39.7082 36.3275C40.1087 36.7279 40.096 37.3799 39.692 37.7768C39.3279 38.1344 38.9711 38.4993 38.6216 38.8711ZM64.9632 26.8738C64.3856 26.8956 63.897 26.4392 63.897 25.8612V21.9231C63.897 21.3708 64.3447 20.9231 64.897 20.9231H66.5234C67.0757 20.9231 67.5234 21.3708 67.5234 21.9231V25.833C67.5234 26.3963 67.0583 26.8471 66.495 26.8462L66.43 26.8462C65.9388 26.8462 65.4498 26.8554 64.9632 26.8738ZM92.4516 37.091C92.0297 36.6975 92.008 36.0309 92.4159 35.623L94.8124 33.2265C95.2029 32.836 95.8361 32.836 96.2266 33.2265L97.3766 34.3765C97.7672 34.7671 97.7672 35.4002 97.3766 35.7907L94.9966 38.1708C94.5972 38.5702 93.9473 38.5588 93.55 38.1574C93.191 37.7947 92.8248 37.4391 92.4516 37.091ZM104.552 64.1281C104.54 63.5572 104.994 63.0799 105.565 63.0799H108.68C109.232 63.0799 109.68 63.5276 109.68 64.0799V65.7063C109.68 66.2586 109.232 66.7063 108.68 66.7063H105.566C104.996 66.7063 104.542 66.2299 104.553 65.6596C104.558 65.4147 104.56 65.1691 104.56 64.9231C104.56 64.6574 104.557 64.3924 104.552 64.1281ZM93.5788 91.6597C93.976 91.2575 94.6265 91.2457 95.0262 91.6454L97.3762 93.9954C97.7667 94.3859 97.7667 95.0191 97.3762 95.4096L96.2262 96.5597C95.8356 96.9502 95.2025 96.9502 94.8119 96.5597L92.4467 94.1944C92.0391 93.7868 92.0605 93.1208 92.4816 92.7271C92.8544 92.3786 93.2202 92.0227 93.5788 91.6597Z" fill="black"/>
<path fill-rule="evenodd" clip-rule="evenodd" d="M81.46 1.80418C93.1002 4.51064 103.339 10.0138 111.59 17.4029C110.465 18.6056 109.417 19.8678 108.449 21.1813C100.681 14.257 91.0412 9.09387 80.0856 6.54659C46.2779 -1.31405 12.7401 18.7122 5.17694 51.2764C-2.38622 83.8406 18.8892 116.611 52.697 124.472C84.5329 131.874 116.129 114.548 126.022 85.3093C127.324 85.8584 128.651 86.3421 130 86.7589C119.177 117.71 85.746 136.018 52.105 128.196C16.1321 119.832 -6.45842 84.7576 1.64772 49.8555C9.75385 14.9534 45.487 -6.55988 81.46 1.80418Z" fill="black"/>
<path fill-rule="evenodd" clip-rule="evenodd" d="M115 9.55C115 8.14167 113.858 7 112.45 7C111.042 7 109.9 8.14167 109.9 9.55V15.9C109.9 17.5569 108.557 18.9 106.9 18.9H100.55C99.1417 18.9 98 20.0417 98 21.45C98 22.8583 99.1417 24 100.55 24H112C113.657 24 115 22.6569 115 21V9.55Z" fill="black"/>
</svg>
