<svg width="200" height="200" viewBox="0 0 200 200" fill="none" xmlns="http://www.w3.org/2000/svg">
<path d="M174.201 100C174.201 139.144 141.868 171 101.829 171C61.7904 171 29.457 139.144 29.457 100C29.457 60.8558 61.7904 29 101.829 29C141.868 29 174.201 60.8558 174.201 100Z" stroke="black" stroke-width="8"/>
<path d="M110.24 100C110.24 104.454 106.543 108.188 101.829 108.188C97.1158 108.188 93.4189 104.454 93.4189 100C93.4189 95.5462 97.1158 91.8125 101.829 91.8125C106.543 91.8125 110.24 95.5462 110.24 100Z" stroke="black" stroke-width="8"/>
<path d="M58.5518 56.75L61.2519 59.4017" stroke="black" stroke-width="8" stroke-linecap="round"/>
<path d="M143.07 139L145.77 141.652" stroke="black" stroke-width="8" stroke-linecap="round"/>
<path d="M101.829 161.627V157.877" stroke="black" stroke-width="8" stroke-linecap="round"/>
<path d="M58.5518 142.509L61.2519 139.857" stroke="black" stroke-width="8" stroke-linecap="round"/>
<path d="M143.07 60.2593L145.77 57.6076" stroke="black" stroke-width="8" stroke-linecap="round"/>
<path d="M101.833 43.1929V39.4429" stroke="black" stroke-width="8" stroke-linecap="round"/>
<path d="M95.25 93.5391L72.2987 71" stroke="black" stroke-width="8" stroke-linecap="round"/>
<path d="M40.2227 100H44.0413" stroke="black" stroke-width="8" stroke-linecap="round"/>
<path d="M158.345 100H162.163" stroke="black" stroke-width="8" stroke-linecap="round"/>
<path d="M81.4639 120.5L95.2108 107" stroke="black" stroke-width="8" stroke-linecap="round"/>
<path fill-rule="evenodd" clip-rule="evenodd" d="M196.422 125.439C194.246 124.697 191.902 125.944 191.187 128.129C179.08 165.117 143.735 192 101.829 192C49.8714 192 8 150.674 8 100C8 49.3259 49.8714 8 101.829 8C127.82 8 151.287 18.341 168.252 35.0203C169.915 36.6558 172.619 36.6516 174.192 34.9289C175.597 33.3902 175.586 31.0228 174.105 29.5573C155.657 11.3034 130.087 0 101.829 0C45.5905 0 0 44.7715 0 100C0 155.228 45.5905 200 101.829 200C147.32 200 185.844 170.706 198.907 130.279C199.559 128.261 198.429 126.123 196.422 125.439Z" fill="black"/>
<path fill-rule="evenodd" clip-rule="evenodd" d="M154.872 31.303C153.215 31.303 151.872 32.6462 151.872 34.303V36.303C151.872 37.9599 153.215 39.303 154.872 39.303H159.872H170.364H175.364C177.02 39.303 178.364 37.9599 178.364 36.303V31.303V21V16C178.364 14.3431 177.02 13 175.364 13H173.364C171.707 13 170.364 14.3431 170.364 16V21V23.303V29C170.364 30.2719 169.332 31.303 168.061 31.303H167.872H162.364H159.872H154.872Z" fill="black"/>
</svg>
