<svg width="100" height="100" viewBox="0 0 100 100" fill="none" xmlns="http://www.w3.org/2000/svg">
<mask id="path-1-inside-1_4404_8167" fill="white">
<path fill-rule="evenodd" clip-rule="evenodd" d="M50 89.1509C77.6142 89.1509 100 71.4324 100 49.5754C100 27.7185 77.6142 10 50 10C22.3858 10 0 27.7185 0 49.5754C0 56.1488 2.02476 62.3479 5.60756 67.8033C5.94083 68.3107 6.04449 68.9381 5.87159 69.5201L0.256573 88.4198C-0.158174 89.8158 0.909582 91.0821 2.30562 90.8499L30.2771 86.197C30.5967 86.1438 30.9243 86.1697 31.2329 86.2687C37.0277 88.1273 43.3628 89.1509 50 89.1509Z"/>
</mask>
<path d="M0.256573 88.4198L-7.41214 86.1414L-7.41214 86.1414L0.256573 88.4198ZM2.30562 90.8499L0.992896 82.9583L0.992854 82.9583L2.30562 90.8499ZM30.2771 86.197L28.9643 78.3054L30.2771 86.197ZM31.2329 86.2687L33.6762 78.6509L31.2329 86.2687ZM5.60756 67.8033L12.2944 63.4117L5.60756 67.8033ZM92 49.5754C92 65.3714 75.0409 81.1509 50 81.1509V97.1509C80.1876 97.1509 108 77.4933 108 49.5754H92ZM50 18C75.0409 18 92 33.7795 92 49.5754H108C108 21.6576 80.1876 2 50 2V18ZM8 49.5754C8 33.7795 24.9591 18 50 18V2C19.8124 2 -8 21.6576 -8 49.5754H8ZM12.2944 63.4117C9.49164 59.144 8 54.4542 8 49.5754H-8C-8 57.8435 -5.44212 65.5518 -1.07929 72.1949L12.2944 63.4117ZM7.92529 90.6981L13.5403 71.7984L-1.79712 67.2417L-7.41214 86.1414L7.92529 90.6981ZM0.992854 82.9583C3.1221 82.6041 5.31509 83.4245 6.71807 85.0884C8.0991 86.7263 8.4696 88.866 7.92529 90.6981L-7.41214 86.1414C-9.37844 92.7598 -4.06089 100.019 3.61838 98.7414L0.992854 82.9583ZM28.9643 78.3054L0.992896 82.9583L3.61834 98.7414L31.5898 94.0885L28.9643 78.3054ZM50 81.1509C44.1832 81.1509 38.6728 80.2535 33.6762 78.6509L28.7896 93.8864C35.3826 96.0011 42.5425 97.1509 50 97.1509V81.1509ZM31.5898 94.0885C30.6197 94.2499 29.6603 94.1657 28.7896 93.8864L33.6762 78.6509C32.1882 78.1737 30.5738 78.0377 28.9643 78.3054L31.5898 94.0885ZM-1.07929 72.1949C-1.97842 70.8258 -2.32673 69.0244 -1.79712 67.2417L13.5403 71.7984C14.4157 68.8519 13.8601 65.7957 12.2944 63.4117L-1.07929 72.1949Z" fill="black" mask="url(#path-1-inside-1_4404_8167)"/>
</svg>
