<svg width="32" height="25" viewBox="0 0 32 25" fill="none" xmlns="http://www.w3.org/2000/svg">
<mask id="path-1-inside-1_2992_36710" fill="white">
<path fill-rule="evenodd" clip-rule="evenodd" d="M16.6194 24.5C25.1144 24.5 32.001 19.0155 32.001 12.25C32.001 5.48451 25.1144 0 16.6194 0C8.12435 0 1.23776 5.48451 1.23776 12.25C1.23776 14.1136 1.76028 15.88 2.695 17.4613L0 24.1283L9.04877 22.916C11.2838 23.9243 13.8672 24.5 16.6194 24.5Z"/>
</mask>
<path fill-rule="evenodd" clip-rule="evenodd" d="M16.6194 24.5C25.1144 24.5 32.001 19.0155 32.001 12.25C32.001 5.48451 25.1144 0 16.6194 0C8.12435 0 1.23776 5.48451 1.23776 12.25C1.23776 14.1136 1.76028 15.88 2.695 17.4613L0 24.1283L9.04877 22.916C11.2838 23.9243 13.8672 24.5 16.6194 24.5Z" fill="white"/>
<path d="M2.695 17.4613L5.93991 18.773L6.58814 17.1693L5.70799 15.6803L2.695 17.4613ZM0 24.1283L-3.24492 22.8167L-5.50047 28.3966L0.464784 27.5973L0 24.1283ZM9.04877 22.916L10.4881 19.7256L9.57589 19.3141L8.58398 19.447L9.04877 22.916ZM28.501 12.25C28.501 16.3813 23.9666 21 16.6194 21V28C26.2622 28 35.501 21.6497 35.501 12.25H28.501ZM16.6194 3.5C23.9666 3.5 28.501 8.11874 28.501 12.25H35.501C35.501 2.85028 26.2622 -3.5 16.6194 -3.5V3.5ZM4.73776 12.25C4.73776 8.11874 9.27215 3.5 16.6194 3.5V-3.5C6.97655 -3.5 -2.26224 2.85028 -2.26224 12.25H4.73776ZM5.70799 15.6803C5.0682 14.5979 4.73776 13.4417 4.73776 12.25H-2.26224C-2.26224 14.7855 -1.54765 17.162 -0.318003 19.2423L5.70799 15.6803ZM3.24492 25.44L5.93991 18.773L-0.549923 16.1496L-3.24492 22.8167L3.24492 25.44ZM8.58398 19.447L-0.464784 20.6593L0.464784 27.5973L9.51355 26.385L8.58398 19.447ZM16.6194 21C14.3523 21 12.2607 20.5253 10.4881 19.7256L7.60941 26.1063C10.307 27.3234 13.3821 28 16.6194 28V21Z" fill="black" mask="url(#path-1-inside-1_2992_36710)"/>
</svg>
