<svg width="100" height="100" viewBox="0 0 100 100" fill="none" xmlns="http://www.w3.org/2000/svg">
<mask id="path-1-inside-1_4404_8167" fill="white">
<path fill-rule="evenodd" clip-rule="evenodd" d="M51.1776 63.5556C61.5045 63.5556 69.8761 57.3871 69.8761 49.7778C69.8761 42.1685 61.5045 36 51.1776 36C40.8507 36 32.4792 42.1685 32.4792 49.7778C32.4792 50.9711 32.6851 52.129 33.0721 53.2332C33.2762 53.8156 33.2679 54.4601 32.9804 55.0062L30.2414 60.2088C29.4846 61.6463 30.6092 63.3067 32.1993 63.0995L40.9626 61.9576V61.9576C41.4896 61.889 42.045 61.8104 42.5411 62.0011C45.1245 62.9942 48.0621 63.5556 51.1776 63.5556Z"/>
</mask>
<path d="M30.2414 60.2088L27.1444 58.5783L27.1444 58.5783L30.2414 60.2088ZM32.1993 63.0995L31.7471 59.6288L31.7471 59.6288L32.1993 63.0995ZM42.5411 62.0011L43.7969 58.7341L42.5411 62.0011ZM32.9804 55.0062L29.8834 53.3757L32.9804 55.0062ZM66.3761 49.7778C66.3761 52.2069 65.0474 54.6952 62.3232 56.7025C59.6004 58.7088 55.6713 60.0556 51.1776 60.0556V67.0556C57.0108 67.0556 62.4309 65.3182 66.4756 62.3379C70.519 59.3586 73.3761 54.958 73.3761 49.7778H66.3761ZM51.1776 39.5C55.6713 39.5 59.6004 40.8468 62.3232 42.8531C65.0474 44.8604 66.3761 47.3487 66.3761 49.7778H73.3761C73.3761 44.5976 70.519 40.1971 66.4756 37.2177C62.4309 34.2374 57.0108 32.5 51.1776 32.5V39.5ZM35.9792 49.7778C35.9792 47.3487 37.3079 44.8604 40.032 42.8531C42.7548 40.8468 46.6839 39.5 51.1776 39.5V32.5C45.3444 32.5 39.9243 34.2374 35.8796 37.2177C31.8363 40.1971 28.9792 44.5976 28.9792 49.7778H35.9792ZM36.3751 52.0755C36.1139 51.3303 35.9792 50.5633 35.9792 49.7778H28.9792C28.9792 51.3789 29.2562 52.9277 29.7691 54.3909L36.3751 52.0755ZM33.3384 61.8393L36.0774 56.6367L29.8834 53.3757L27.1444 58.5783L33.3384 61.8393ZM31.7471 59.6288C33.0959 59.4531 33.8439 60.8792 33.3384 61.8393L27.1444 58.5783C25.1253 62.4134 28.1225 67.1603 32.6515 66.5701L31.7471 59.6288ZM40.5104 58.487L31.7471 59.6288L32.6515 66.5701L41.4149 65.4283L40.5104 58.487ZM51.1776 60.0556C48.4787 60.0556 45.9678 59.5686 43.7969 58.7341L41.2853 65.268C44.2812 66.4197 47.6455 67.0556 51.1776 67.0556V60.0556ZM41.4149 65.4283C41.4876 65.4188 41.5412 65.4118 41.5968 65.4048C41.6497 65.3982 41.6914 65.3933 41.7268 65.3896C41.8001 65.3819 41.825 65.3816 41.8211 65.3816C41.8159 65.3817 41.7601 65.3826 41.6697 65.3698C41.5764 65.3566 41.4423 65.3284 41.2853 65.268L43.7969 58.7341C42.3134 58.1639 40.7997 58.4493 40.5104 58.487L41.4149 65.4283ZM29.7691 54.3909C29.7082 54.2171 29.6439 53.8306 29.8834 53.3757L36.0774 56.6367C36.8919 55.0896 36.8442 53.4141 36.3751 52.0755L29.7691 54.3909Z" fill="black" mask="url(#path-1-inside-1_4404_8167)"/>
</svg>
