<svg width="100" height="100" viewBox="0 0 100 100" fill="none" xmlns="http://www.w3.org/2000/svg">
<circle cx="50" cy="50" r="50" fill="#4FCF62"/>
<mask id="path-2-inside-1_4517_29410" fill="white">
<path fill-rule="evenodd" clip-rule="evenodd" d="M77.044 24.6256C75.3289 23.5601 73.0594 24.0616 71.9749 25.7458L45.0349 67.5823L27.4886 50.3597C26.083 48.98 23.8122 48.972 22.4167 50.3419C21.0212 51.7118 21.0294 53.9409 22.4351 55.3206L42.9549 75.462C43.8825 76.3725 45.1868 76.6856 46.3677 76.3997C47.4591 76.2967 48.4921 75.7171 49.1235 74.7366L78.1858 29.6042C79.2703 27.92 78.7591 25.691 77.044 24.6256Z"/>
</mask>
<path fill-rule="evenodd" clip-rule="evenodd" d="M77.044 24.6256C75.3289 23.5601 73.0594 24.0616 71.9749 25.7458L45.0349 67.5823L27.4886 50.3597C26.083 48.98 23.8122 48.972 22.4167 50.3419C21.0212 51.7118 21.0294 53.9409 22.4351 55.3206L42.9549 75.462C43.8825 76.3725 45.1868 76.6856 46.3677 76.3997C47.4591 76.2967 48.4921 75.7171 49.1235 74.7366L78.1858 29.6042C79.2703 27.92 78.7591 25.691 77.044 24.6256Z" fill="black"/>
<path d="M71.9749 25.7458L71.1307 25.2023L71.1307 25.2023L71.9749 25.7458ZM77.044 24.6256L77.5695 23.7795L77.044 24.6256ZM45.0349 67.5823L44.3346 68.2911L45.2157 69.156L45.879 68.1258L45.0349 67.5823ZM27.4886 50.3597L26.7883 51.0685L26.7883 51.0685L27.4886 50.3597ZM22.4167 50.3419L21.7111 49.6282L21.7111 49.6282L22.4167 50.3419ZM22.4351 55.3206L21.7348 56.0294L21.7348 56.0294L22.4351 55.3206ZM42.9549 75.462L42.2546 76.1708L42.2547 76.1708L42.9549 75.462ZM46.3677 76.3997L46.2662 75.4058L46.1945 75.4126L46.1246 75.4295L46.3677 76.3997ZM49.1235 74.7366L49.9677 75.28L49.9677 75.28L49.1235 74.7366ZM78.1858 29.6042L79.03 30.1476L79.03 30.1476L78.1858 29.6042ZM72.8191 26.2892C73.6091 25.0623 75.269 24.6955 76.5185 25.4717L77.5695 23.7795C75.3887 22.4247 72.5096 23.061 71.1307 25.2023L72.8191 26.2892ZM45.879 68.1258L72.8191 26.2892L71.1307 25.2023L44.1907 67.0389L45.879 68.1258ZM26.7883 51.0685L44.3346 68.2911L45.7352 66.8736L28.1889 49.651L26.7883 51.0685ZM23.1222 51.0556C24.1292 50.0671 25.774 50.0728 26.7883 51.0685L28.1889 49.651C26.3919 47.8871 23.4951 47.8769 21.7111 49.6282L23.1222 51.0556ZM23.1354 54.6119C22.1295 53.6246 22.1237 52.0359 23.1222 51.0556L21.7111 49.6282C19.9187 51.3878 19.9293 54.2572 21.7348 56.0294L23.1354 54.6119ZM43.6552 74.7533L23.1354 54.6119L21.7348 56.0294L42.2546 76.1708L43.6552 74.7533ZM46.1246 75.4295C45.2644 75.6378 44.3219 75.4077 43.6552 74.7533L42.2547 76.1708C43.4431 77.3373 45.1092 77.7335 46.6108 77.3698L46.1246 75.4295ZM48.2793 74.1932C47.8211 74.9048 47.0691 75.3301 46.2662 75.4058L46.4692 77.3935C47.8492 77.2633 49.1632 76.5294 49.9677 75.28L48.2793 74.1932ZM77.3417 29.0607L48.2793 74.1932L49.9677 75.28L79.03 30.1476L77.3417 29.0607ZM76.5185 25.4717C77.7572 26.2412 78.1249 27.8444 77.3417 29.0607L79.03 30.1476C80.4157 27.9957 79.761 25.1409 77.5695 23.7795L76.5185 25.4717Z" fill="black" mask="url(#path-2-inside-1_4517_29410)"/>
</svg>
