<svg width="181" height="177" viewBox="0 0 181 177" fill="none" xmlns="http://www.w3.org/2000/svg">
<rect x="8" y="95.6218" width="168" height="76.3782" rx="5" stroke="black" stroke-width="10"/>
<mask id="path-2-inside-1_1863_1635" fill="white">
<path fill-rule="evenodd" clip-rule="evenodd" d="M3.80876 77.7807C3.28395 78.4751 3 79.3218 3 80.1923V92.5587C3 98.0816 7.47715 102.559 13 102.559H171C176.523 102.559 181 98.0816 181 92.5588V79.8061C181 78.9356 180.716 78.0889 180.191 77.3944V77.3944C177.878 74.3335 173 75.9694 173 79.806V92.5588C173 93.6633 172.105 94.5587 171 94.5587H13C11.8954 94.5587 11 93.6633 11 92.5587V80.1923C11 76.3556 6.12192 74.7197 3.80876 77.7807V77.7807ZM34.4438 37.2422C32.4525 39.8773 34.3322 43.6538 37.6351 43.6538H146.657C149.96 43.6538 151.839 39.8773 149.848 37.2422V37.2422C149.092 36.2418 147.911 35.6538 146.657 35.6538H37.6351C36.3812 35.6538 35.1998 36.2418 34.4438 37.2422V37.2422Z"/>
</mask>
<path fill-rule="evenodd" clip-rule="evenodd" d="M3.80876 77.7807C3.28395 78.4751 3 79.3218 3 80.1923V92.5587C3 98.0816 7.47715 102.559 13 102.559H171C176.523 102.559 181 98.0816 181 92.5588V79.8061C181 78.9356 180.716 78.0889 180.191 77.3944V77.3944C177.878 74.3335 173 75.9694 173 79.806V92.5588C173 93.6633 172.105 94.5587 171 94.5587H13C11.8954 94.5587 11 93.6633 11 92.5587V80.1923C11 76.3556 6.12192 74.7197 3.80876 77.7807V77.7807ZM34.4438 37.2422C32.4525 39.8773 34.3322 43.6538 37.6351 43.6538H146.657C149.96 43.6538 151.839 39.8773 149.848 37.2422V37.2422C149.092 36.2418 147.911 35.6538 146.657 35.6538H37.6351C36.3812 35.6538 35.1998 36.2418 34.4438 37.2422V37.2422Z" fill="#D9D9D9"/>
<path d="M-7 80.1923V92.5587H13V80.1923H-7ZM-7 92.5587C-7 103.604 1.9543 112.559 13 112.559V92.5587H13H-7ZM13 112.559H171V92.5587H13V112.559ZM171 112.559C182.046 112.559 191 103.604 191 92.5588H171V92.5587V112.559ZM191 92.5588V79.8061H171V92.5588H191ZM163 79.806V92.5588H183V79.806H163ZM163 92.5588C163 88.1405 166.582 84.5587 171 84.5587V104.559C177.627 104.559 183 99.1862 183 92.5588H163ZM171 84.5587H13V104.559H171V84.5587ZM13 84.5587C17.4183 84.5587 21 88.1405 21 92.5587H1C1 99.1862 6.37259 104.559 13 104.559V84.5587ZM21 92.5587V80.1923H1V92.5587H21ZM37.6351 53.6538H146.657V33.6538H37.6351V53.6538ZM146.657 25.6538H37.6351V45.6538H146.657V25.6538ZM37.6351 25.6538C33.2464 25.6538 29.1117 27.7118 26.4657 31.2131L42.422 43.2713C41.288 44.7718 39.5159 45.6538 37.6351 45.6538V25.6538ZM157.826 31.2131C155.18 27.7118 151.045 25.6538 146.657 25.6538V45.6538C144.776 45.6538 143.004 44.7718 141.87 43.2713L157.826 31.2131ZM146.657 53.6538C158.217 53.6538 164.796 40.4359 157.826 31.2131L141.87 43.2713C138.883 39.3186 141.702 33.6538 146.657 33.6538V53.6538ZM37.6351 33.6538C42.5894 33.6538 45.409 39.3186 42.422 43.2713L26.4657 31.2131C19.496 40.4359 26.075 53.6538 37.6351 53.6538V33.6538ZM13 80.1923C13 81.498 12.5741 82.7681 11.7869 83.8098L-4.16935 71.7516C-6.00618 74.1822 -7 77.1457 -7 80.1923H13ZM21 80.1923C21 66.764 3.92674 61.0383 -4.16935 71.7516L11.7869 83.8098C8.31711 88.4012 1 85.9473 1 80.1923H21ZM188.169 71.3653C180.073 60.652 163 66.3777 163 79.806H183C183 85.5611 175.683 88.0149 172.213 83.4235L188.169 71.3653ZM191 79.8061C191 76.7594 190.006 73.796 188.169 71.3653L172.213 83.4235C171.426 82.3818 171 81.1117 171 79.8061H191Z" fill="black" mask="url(#path-2-inside-1_1863_1635)"/>
<path fill-rule="evenodd" clip-rule="evenodd" d="M59.96 10.9998C59.96 6.02935 63.9893 2 68.9598 2H115.356C119.878 2 123.621 5.33504 124.26 9.67965C124.418 10.2358 124.503 10.8228 124.503 11.4297V36.3358C124.503 37.9927 123.16 39.3358 121.503 39.3358H114.745C113.088 39.3358 111.745 37.9927 111.745 36.3358V22.9996C111.745 21.3428 110.402 19.9996 108.745 19.9996H75.8637C74.2068 19.9996 72.8637 21.3428 72.8637 22.9996V35.1029C72.8637 36.7598 71.5205 38.1029 69.8637 38.1029H63.106C61.4491 38.1029 60.106 36.7598 60.106 35.1029V12.8941C60.106 12.7138 60.0884 12.5341 60.0614 12.3558C59.9946 11.9135 59.96 11.4607 59.96 10.9998Z" fill="black"/>
<path d="M6.55957 78.282L36.8196 40.141" stroke="black" stroke-width="8" stroke-linecap="round"/>
<path d="M177.44 79.4038L147.18 40.141" stroke="black" stroke-width="8" stroke-linecap="round"/>
</svg>
