<svg width="34" height="34" viewBox="0 0 34 34" fill="none" xmlns="http://www.w3.org/2000/svg">
<rect x="1.5" y="1.5" width="31" height="31" rx="8.5" fill="#FC8F2B" stroke="black" stroke-width="3"/>
<path d="M12.4961 27V6.375H18.168C19.6523 6.375 20.7695 6.78906 21.5195 7.61719C22.2695 8.4375 22.6445 9.64062 22.6445 11.2266V20.8828C22.6445 22.8359 22.3008 24.3438 21.6133 25.4062C20.9336 26.4688 19.7383 27 18.0273 27H12.4961ZM16.6445 23.3555H17.3594C18.1172 23.3555 18.4961 22.9883 18.4961 22.2539V11.6133C18.4961 10.9258 18.4023 10.4844 18.2148 10.2891C18.0352 10.0859 17.6641 9.98438 17.1016 9.98438H16.6445V23.3555Z" fill="black"/>
</svg>
