<svg width="88" height="106" viewBox="0 0 88 106" fill="none" xmlns="http://www.w3.org/2000/svg">
<path fill-rule="evenodd" clip-rule="evenodd" d="M60.8506 6H35.4689H31.4689L27.4689 10.004L16.4837 21L4.25385 32.5L0 36.5V40.5V98C0 102.418 3.58172 106 8 106H71.9209C76.3392 106 79.9209 102.418 79.9209 98V33.762L71.9209 45.1985V98H8L8 40.5H23.4689C30.0963 40.5 35.4689 35.1274 35.4689 28.5V14H55.2545L60.8506 6ZM22.1433 26.6541L27.4689 21.3233V28.5C27.4689 30.7091 25.678 32.5 23.4689 32.5H15.9321L21.964 26.8281L22.055 26.7425L22.1433 26.6541Z" fill="black"/>
<path fill-rule="evenodd" clip-rule="evenodd" d="M43.5563 62.4018C43.4893 62.4807 43.4343 62.5422 43.3913 62.5886L37.315 66.1264L38.5756 58.8269C38.6007 58.7791 38.633 58.7201 38.6736 58.6494C38.9276 58.2073 39.3309 57.6132 39.9066 56.8508C40.4284 56.1597 40.9818 55.4729 41.5861 54.723L41.7611 54.5058C42.3645 53.7566 43.1273 52.8087 43.7367 51.9358L43.7388 51.9329L68.3414 18.377L72.9458 21.7596L48.343 55.3158L48.342 55.3172C47.6906 56.1867 47.0297 57.2248 46.5128 58.0417C46.4606 58.1242 46.409 58.2059 46.3578 58.2868C46.3047 58.371 46.252 58.4544 46.1999 58.537C45.7429 59.261 45.3214 59.9289 44.8804 60.5894C44.3412 61.3969 43.9032 61.9937 43.5563 62.4018ZM77.6768 15.307L80.0112 12.1231L80.0111 12.1228L75.4068 8.74033L73.0724 11.9244L77.6768 15.307ZM38.5045 58.971C38.5012 58.9793 38.4994 58.9835 38.4993 58.9836C38.4992 58.9836 38.5008 58.9795 38.5045 58.971ZM54.7393 60.119C54.2318 60.7963 53.6338 61.744 52.9791 62.7816C51.4053 65.2757 49.5041 68.2889 47.7466 69.3121L33.9253 77.3595C30.99 79.0685 27.3971 76.5679 27.9755 73.2184L30.7648 57.0667C31.1307 54.9479 33.4586 52.0599 35.3539 49.7084L35.3539 49.7084C36.0672 48.8234 36.7193 48.0144 37.1825 47.351C37.2184 47.2995 37.2551 47.2483 37.2924 47.1974L68.9606 4.00468C71.5734 0.440969 76.5776 -0.327754 80.1378 2.28767L84.7423 5.67026C88.3025 8.2857 89.0704 13.2949 86.4576 16.8586L54.7894 60.0513C54.7728 60.074 54.7561 60.0965 54.7393 60.119Z" fill="black"/>
</svg>
