<svg width="58" height="56" viewBox="0 0 58 56" fill="none" xmlns="http://www.w3.org/2000/svg">
<path fill-rule="evenodd" clip-rule="evenodd" d="M34.3984 11H3C1.34315 11 0 12.3431 0 14V53C0 54.6569 1.34315 56 3 56H42C43.6569 56 45 54.6569 45 53V25.2566L42 28.2566V53H3L3 14H31.3984L34.3984 11Z" fill="black"/>
<mask id="path-2-inside-1_749_38982" fill="white">
<path fill-rule="evenodd" clip-rule="evenodd" d="M19.2241 29.4927C19.2241 29.4927 19.2241 29.4927 19.2241 29.4927L16.8436 37.3143C16.1236 39.6803 18.4147 41.8523 20.7389 41.0072L28.0719 38.3406C28.0719 38.3406 28.0719 38.3406 28.072 38.3406C28.072 38.3406 28.072 38.3406 28.072 38.3406L55.4436 10.969C56.6152 9.79742 56.6152 7.89792 55.4436 6.72635L50.8384 2.12111C49.6668 0.949533 47.7673 0.949537 46.5957 2.12111L19.2241 29.4927C19.2241 29.4927 19.2241 29.4927 19.2241 29.4927C19.2241 29.4927 19.2241 29.4927 19.2241 29.4927L19.2241 29.4927Z"/>
</mask>
<path d="M19.2241 29.4927L22.2187 29.6729L19.2241 29.4927ZM28.0719 38.3406L27.0467 35.5212L28.0719 38.3406ZM19.2241 29.4927L16.3541 28.6193L19.2241 29.4927ZM19.2241 29.4927L22.2187 29.6729L19.2241 29.4927ZM19.7137 38.1878L22.0941 30.3662L16.3541 28.6193L13.9736 36.4408L19.7137 38.1878ZM27.0467 35.5212L19.7137 38.1878L21.7642 43.8265L29.0972 41.16L27.0467 35.5212ZM53.3223 8.84767L25.9507 36.2193L30.1933 40.4619L57.5649 13.0903L53.3223 8.84767ZM48.717 4.24243L53.3223 8.84767L57.5649 4.60503L52.9597 -0.000214807L48.717 4.24243ZM21.3455 31.614L48.717 4.24243L44.4744 -0.000211941L17.1028 27.3714L21.3455 31.614ZM22.2187 29.6729L22.2187 29.6729L16.2295 29.3125L16.2295 29.3126L22.2187 29.6729ZM21.3454 27.3714C19.5164 25.5423 16.3849 26.7305 16.2295 29.3125L22.2187 29.6729C22.0633 32.2548 18.9318 33.443 17.1028 31.614L21.3454 27.3714ZM17.1028 27.3714C18.2744 26.1998 20.1739 26.1998 21.3454 27.3714L17.1028 31.614C18.2744 32.7856 20.1739 32.7856 21.3455 31.614L17.1028 27.3714ZM52.9597 -0.000214807C50.6165 -2.34336 46.8175 -2.34335 44.4744 -0.000211941L48.717 4.24243L48.717 4.24243L52.9597 -0.000214807ZM57.5649 13.0903C59.9081 10.7472 59.9081 6.94817 57.5649 4.60503L53.3223 8.84767L53.3223 8.84767L57.5649 13.0903ZM25.9506 40.4619C27.0175 41.5288 28.9197 41.7355 30.1933 40.4619L25.9507 36.2193C27.2243 34.9457 29.1264 35.1524 30.1933 36.2193L25.9506 40.4619ZM29.0972 41.16C28.0018 41.5583 26.7748 41.2861 25.9506 40.4619L30.1933 36.2193C29.3691 35.3951 28.1421 35.1229 27.0467 35.5212L29.0972 41.16ZM22.0941 30.3662C22.1693 30.1192 22.206 29.8844 22.2187 29.6729L16.2295 29.3126C16.2422 29.101 16.2789 28.8662 16.3541 28.6193L22.0941 30.3662ZM13.9736 36.4408C12.5335 41.1728 17.1157 45.5169 21.7642 43.8265L19.7137 38.1878L19.7137 38.1878L13.9736 36.4408Z" fill="black" mask="url(#path-2-inside-1_749_38982)"/>
<line x1="41.9884" y1="7.28114" x2="50.0424" y2="15.3351" stroke="black" stroke-width="3"/>
</svg>
