<svg width="72" height="94" viewBox="0 0 72 94" fill="none" xmlns="http://www.w3.org/2000/svg">
<path fill-rule="evenodd" clip-rule="evenodd" d="M2.56377 1.75327C1.28293 1.37697 0 2.3372 0 3.67217V81.9261C0 82.8374 0.616086 83.6335 1.49828 83.8621L37.4034 93.1669C38.6698 93.4951 39.9051 92.5391 39.9051 91.2309V14.221C39.9051 13.3336 39.3203 12.5523 38.4689 12.3021L2.56377 1.75327ZM5.6122 5.83992C4.32113 5.42481 3 6.38776 3 7.74392V78.1291C3 79.0235 3.59383 79.8092 4.4543 80.0533L33.4543 88.278C34.7311 88.6401 36 87.6811 36 86.3539V17.0683C36 16.1996 35.4392 15.4302 34.6122 15.1643L5.6122 5.83992Z" fill="black"/>
<path fill-rule="evenodd" clip-rule="evenodd" d="M2.56377 1.75327C1.28293 1.37697 0 2.3372 0 3.67217V81.9261C0 82.8374 0.616086 83.6335 1.49828 83.8621L37.4034 93.1669C38.6698 93.4951 39.9051 92.5391 39.9051 91.2309V14.221C39.9051 13.3336 39.3203 12.5523 38.4689 12.3021L2.56377 1.75327ZM5.6122 5.83992C4.32113 5.42481 3 6.38776 3 7.74392V78.1291C3 79.0235 3.59383 79.8092 4.4543 80.0533L33.4543 88.278C34.7311 88.6401 36 87.6811 36 86.3539V17.0683C36 16.1996 35.4392 15.4302 34.6122 15.1643L5.6122 5.83992Z" fill="black"/>
<path fill-rule="evenodd" clip-rule="evenodd" d="M2 0C0.895431 0 0 0.895431 0 2V80.9633C0 82.0679 0.895431 82.9633 2 82.9633H11.344L4.05283 80.9253C3.18874 80.6837 2.59124 79.8963 2.59124 78.9991V5.84293C2.59124 4.49029 3.90599 3.52775 5.19543 3.93637L5.39623 4H46C47.1046 4 48 4.89543 48 6V33H51.8248V2C51.8248 0.895431 50.9294 0 49.8248 0H2ZM51.8248 53H48V77C48 78.1046 47.1046 79 46 79H37.3139V82.9633H49.8248C50.9294 82.9633 51.8248 82.0679 51.8248 80.9633V53Z" fill="black"/>
<rect x="29" y="45" width="4" height="8" rx="2" fill="black"/>
<path d="M59 49.009H60.5V47.509H59V49.009ZM62.5315 53.2374L63.68 54.2022L63.68 54.2022L62.5315 53.2374ZM69.9196 44.4414L68.771 43.4767L68.771 43.4767L69.9196 44.4414ZM69.9196 41.8688L71.0682 40.904H71.0681L69.9196 41.8688ZM62.5315 33.0728L61.3829 34.0375H61.3829L62.5315 33.0728ZM59 37.3015V38.8015H60.5V37.3015H59ZM45 47.509C44.7239 47.509 44.5 47.2851 44.5 47.009H41.5C41.5 48.942 43.067 50.509 45 50.509V47.509ZM59 47.509L45 47.509V50.509L59 50.509V47.509ZM60.5 51.9511V49.009H57.5V51.9511H60.5ZM61.3829 52.2727C61.0827 52.63 60.5 52.4178 60.5 51.9511H57.5C57.5 55.2179 61.579 56.7036 63.68 54.2022L61.3829 52.2727ZM68.771 43.4767L61.3829 52.2727L63.68 54.2022L71.0682 45.4062L68.771 43.4767ZM68.771 42.8335C68.9272 43.0195 68.9272 43.2907 68.771 43.4767L71.0681 45.4062C72.1614 44.1046 72.1614 42.2056 71.0682 40.904L68.771 42.8335ZM61.3829 34.0375L68.771 42.8335L71.0681 40.904L63.68 32.108L61.3829 34.0375ZM60.5 34.3591C60.5 33.8924 61.0827 33.6802 61.3829 34.0375L63.68 32.108C61.579 29.6066 57.5 31.0923 57.5 34.3591L60.5 34.3591ZM60.5 37.3015V34.3591L57.5 34.3591V37.3015L60.5 37.3015ZM45 38.8015L59 38.8015V35.8015L45 35.8015L45 38.8015ZM44.5 39.3015C44.5 39.0253 44.7239 38.8015 45 38.8015L45 35.8015C43.067 35.8015 41.5 37.3685 41.5 39.3015H44.5ZM44.5 47.009V39.3015H41.5V47.009H44.5Z" fill="black"/>
</svg>
