<svg width="105" height="100" viewBox="0 0 105 100" fill="none" xmlns="http://www.w3.org/2000/svg">
<g clip-path="url(#clip0_5690_1798)">
<mask id="path-1-inside-1_5690_1798" fill="white">
<path d="M11.1864 16.6574C10.2521 17.5918 9.98761 19.0045 10.5207 20.2136C11.6998 22.8882 8.97331 25.6147 6.29878 24.4356C5.08962 23.9025 3.67693 24.1668 2.74253 25.1012L1.73504 26.1087C-0.327842 28.1719 -0.327915 31.5171 1.73504 33.5803L11.9467 43.7919C14.0365 45.8817 17.4249 45.8815 19.5149 43.7919L20.6032 42.7036C21.509 41.7977 21.7649 40.4287 21.2481 39.2565C20.1049 36.6635 22.7487 34.0199 25.3416 35.163C26.5139 35.6798 27.8835 35.4232 28.7895 34.5173L38.3506 24.9562C40.3423 22.9646 40.3049 19.7281 40.3048 16.9115C40.3048 12.6734 43.7406 9.23759 47.9787 9.23759H48.1569C49.778 9.23759 51.5401 8.36755 51.3833 6.754C51.1671 4.52966 50.208 2.36431 48.5042 0.660464C48.1085 0.264748 47.5716 0.0424362 47.012 0.0424361H31.9431C29.2912 0.0425397 26.748 1.09589 24.8728 2.97099L11.1864 16.6574Z"/>
</mask>
<path d="M11.1864 16.6574L6.94348 12.415L6.94373 12.4147L11.1864 16.6574ZM10.5207 20.2136L16.0108 17.7931L16.0109 17.7933L10.5207 20.2136ZM6.29878 24.4356L8.71913 18.9454L8.71933 18.9455L6.29878 24.4356ZM1.73504 26.1087L-2.50796 21.8664L-2.50761 21.8661L1.73504 26.1087ZM1.73504 33.5803L-2.50761 37.8229L-2.50784 37.8227L1.73504 33.5803ZM11.9467 43.7919L7.70404 48.0346L7.70401 48.0346L11.9467 43.7919ZM19.5149 43.7919L23.7575 48.0346L23.7572 48.0349L19.5149 43.7919ZM20.6032 42.7036L24.8461 46.946L24.8458 46.9463L20.6032 42.7036ZM21.2481 39.2565L26.7382 36.8359L26.7383 36.8361L21.2481 39.2565ZM25.3416 35.163L27.762 29.6728L27.7622 29.6729L25.3416 35.163ZM28.7895 34.5173L33.0321 38.76L33.0319 38.7602L28.7895 34.5173ZM48.5042 0.660464L52.7469 -3.58218L52.7469 -3.58216L48.5042 0.660464ZM31.9431 0.0424361L31.9429 -5.95756L31.9431 -5.95756L31.9431 0.0424361ZM24.8728 2.97099L20.6301 -1.27165L20.6303 -1.27181L24.8728 2.97099ZM11.1864 16.6574L15.4293 20.8998C16.2456 20.0833 16.4766 18.8496 16.0108 17.7931L10.5207 20.2136L5.03062 22.6342C3.49863 19.1594 4.2585 15.1003 6.94348 12.415L11.1864 16.6574ZM10.5207 20.2136L16.0109 17.7933C19.399 25.4788 11.5646 33.3145 3.87822 29.9256L6.29878 24.4356L8.71933 18.9455C6.38198 17.9149 4.00052 20.2976 5.03054 22.634L10.5207 20.2136ZM6.29878 24.4356L3.87842 29.9257C4.93434 30.3912 6.16829 30.1607 6.98517 29.3439L2.74253 25.1012L-1.50012 20.8586C1.18557 18.1729 5.24491 17.4138 8.71913 18.9454L6.29878 24.4356ZM2.74253 25.1012L6.98517 29.3439L5.97768 30.3514L1.73504 26.1087L-2.50761 21.8661L-1.50012 20.8586L2.74253 25.1012ZM1.73504 26.1087L5.97803 30.351C6.25771 30.0713 6.25792 29.6179 5.97791 29.3379L1.73504 33.5803L-2.50784 37.8227C-6.91375 33.4163 -6.91339 26.2726 -2.50796 21.8664L1.73504 26.1087ZM1.73504 33.5803L5.97768 29.3377L16.1893 39.5493L11.9467 43.7919L7.70401 48.0346L-2.50761 37.8229L1.73504 33.5803ZM11.9467 43.7919L16.1893 39.5492C15.9356 39.2956 15.5254 39.2962 15.2726 39.5489L19.5149 43.7919L23.7572 48.0349C19.3245 52.4668 12.1374 52.4679 7.70404 48.0346L11.9467 43.7919ZM19.5149 43.7919L15.2723 39.5493L16.3605 38.461L20.6032 42.7036L24.8458 46.9463L23.7575 48.0346L19.5149 43.7919ZM20.6032 42.7036L16.3602 38.4613C15.5146 39.3071 15.2765 40.5847 15.758 41.6769L21.2481 39.2565L26.7383 36.8361C28.2534 40.2727 27.5034 44.2883 24.8461 46.946L20.6032 42.7036ZM21.2481 39.2565L15.7581 41.6771C12.4051 34.0722 20.1581 26.3206 27.762 29.6728L25.3416 35.163L22.9213 40.6532C25.3392 41.7191 27.8047 39.2549 26.7382 36.8359L21.2481 39.2565ZM25.3416 35.163L27.7622 29.6729C26.6679 29.1905 25.3913 29.4304 24.547 30.2745L28.7895 34.5173L33.0319 38.7602C30.3758 41.416 26.3599 42.1692 22.9211 40.6531L25.3416 35.163ZM28.7895 34.5173L24.5468 30.2747L34.108 20.7135L38.3506 24.9562L42.5933 29.1988L33.0321 38.76L28.7895 34.5173ZM40.3048 16.9115H34.3048C34.3048 9.35965 40.4269 3.23759 47.9787 3.23759L47.9787 9.23759L47.9787 15.2376C47.0543 15.2376 46.3048 15.9871 46.3048 16.9115L40.3048 16.9115ZM47.9787 9.23759L47.9787 3.23759H48.1569L48.1569 9.23759L48.1569 15.2376H47.9787L47.9787 9.23759ZM51.3833 6.754L45.4114 7.33442C45.3247 6.44224 44.9456 5.58712 44.2616 4.90309L48.5042 0.660464L52.7469 -3.58216C55.4705 -0.858501 57.0095 2.61709 57.3552 6.17357L51.3833 6.754ZM48.5042 0.660464L44.2616 4.90311C44.9915 5.63302 45.9809 6.04244 47.012 6.04244L47.012 0.0424361L47.012 -5.95756C49.1623 -5.95756 51.2255 -5.10352 52.7469 -3.58218L48.5042 0.660464ZM47.012 0.0424361L47.012 6.04244L31.9431 6.04244V0.0424361L31.9431 -5.95756H47.012L47.012 0.0424361ZM31.9431 0.0424361L31.9434 6.04244C30.8825 6.04248 29.8652 6.46386 29.1152 7.21379L24.8728 2.97099L20.6303 -1.27181C23.6308 -4.27208 27.7 -5.9574 31.9429 -5.95756L31.9431 0.0424361ZM24.8728 2.97099L29.1154 7.21363L15.429 20.9L11.1864 16.6574L6.94373 12.4147L20.6301 -1.27165L24.8728 2.97099ZM48.1569 9.23759L48.1569 3.23759C48.0306 3.23759 47.6481 3.24584 47.0893 3.62149C46.7715 3.83519 46.2892 4.24792 45.9075 4.94683C45.4982 5.69622 45.3346 6.54383 45.4114 7.33442L51.3833 6.754L57.3552 6.17357C57.6973 9.69363 55.7606 12.2517 53.7843 13.5803C51.9784 14.7943 49.9044 15.2376 48.1569 15.2376L48.1569 9.23759ZM38.3506 24.9562L34.108 20.7135C33.8934 20.9282 34.033 20.9818 34.1594 20.2381C34.2974 19.4261 34.3049 18.4576 34.3048 16.9116L40.3048 16.9115L46.3048 16.9113C46.3048 18.182 46.3311 20.24 45.9898 22.2483C45.637 24.3249 44.7995 26.9926 42.5933 29.1988L38.3506 24.9562Z" fill="black" mask="url(#path-1-inside-1_5690_1798)"/>
<circle cx="20" cy="85" r="4" fill="black"/>
<path d="M102.526 85.9646L102.74 86.1892C104.867 88.5445 104.796 92.1802 102.526 94.45L99.4508 97.5252L99.2271 97.7381C96.9479 99.7969 93.4692 99.797 91.19 97.7381L90.9654 97.5252L98.2838 90.2078L61.8463 53.7703L66.0894 49.5281L102.526 85.9646ZM95.2086 93.282L90.9654 97.5252L54.5289 61.0887L58.7711 56.8455L95.2086 93.282ZM31.8932 23.8162C34.1632 21.5469 37.7988 21.4764 40.1539 23.6043L40.3775 23.8162L54.6607 38.0994L50.4185 42.3426L36.1353 28.0594L33.0602 31.1346L47.3434 45.4168L43.1002 49.6599L28.818 35.3767L28.6051 35.1531C26.5456 32.8738 26.5458 29.3944 28.6051 27.115L28.818 26.8914L31.8932 23.8162Z" fill="black"/>
<mask id="path-5-inside-2_5690_1798" fill="white">
<path d="M9.60553 95.8409C3.74814 89.9831 3.74804 80.4854 9.60553 74.6277C12.3204 71.9131 15.8172 70.457 19.371 70.2589C21.26 70.1536 23.1572 69.6027 24.495 68.2649L64.8044 27.9555C64.805 27.955 64.8059 27.955 64.8065 27.9555C64.807 27.9561 64.808 27.9561 64.8085 27.9555L65.5986 27.1654C65.8969 26.8671 65.9992 26.4271 65.8832 26.0215C64.0103 19.4747 65.8533 11.8742 71.2978 6.42917C76.1565 1.57055 82.7312 -0.421247 88.7425 0.536496C92.5119 1.13705 93.0765 5.70076 90.3775 8.3997L85.5636 13.2137C84.1517 14.6255 84.1517 16.9145 85.5636 18.3264C86.9754 19.7382 89.2645 19.7382 90.6763 18.3264L95.4904 13.5123C98.1893 10.8134 102.753 11.3779 103.354 15.1471C104.312 21.1589 102.321 27.7346 97.4622 32.5935C92.9142 37.141 86.8623 39.1761 81.1768 38.632C78.9822 38.422 76.6978 38.9216 75.1389 40.4805L66.2124 49.407C66.2118 49.4075 66.2109 49.4075 66.2103 49.407C66.2098 49.4064 66.2088 49.4064 66.2083 49.407L37.1216 78.4936C35.5711 80.0441 35.0886 82.3172 35.1942 84.5074C35.3908 88.5847 33.9323 92.727 30.8187 95.8409C24.9609 101.698 15.4633 101.698 9.60553 95.8409Z"/>
</mask>
<path d="M9.60553 95.8409L5.36274 100.083L5.36296 100.084L9.60553 95.8409ZM9.60553 74.6277L5.3631 70.3848L5.3628 70.3851L9.60553 74.6277ZM71.2978 6.42917L67.0552 2.18653L67.055 2.18676L71.2978 6.42917ZM97.4622 32.5935L101.705 36.8364L101.705 36.8361L97.4622 32.5935ZM30.8187 95.8409L35.0613 100.084L35.0616 100.083L30.8187 95.8409ZM81.1768 38.632L80.6052 44.6047L81.1768 38.632ZM65.8832 26.0215L60.1146 27.6718L65.8832 26.0215ZM88.7425 0.536496L87.7985 6.46177L88.7425 0.536496ZM19.371 70.2589L19.0369 64.2682L19.371 70.2589ZM9.60553 95.8409L13.8483 91.5984C10.3338 88.0836 10.3339 82.3848 13.8483 78.8702L9.60553 74.6277L5.3628 70.3851C-2.83777 78.5861 -2.83754 91.8825 5.36274 100.083L9.60553 95.8409ZM9.60553 74.6277L13.848 78.8705C15.4792 77.2395 17.567 76.3688 19.705 76.2496L19.371 70.2589L19.0369 64.2682C14.0674 64.5453 9.16163 66.5867 5.3631 70.3848L9.60553 74.6277ZM24.495 68.2649L28.7377 72.5075L69.047 32.1982L64.8044 27.9555L60.5618 23.7129L20.2524 64.0223L24.495 68.2649ZM64.8085 27.9555L69.0512 32.1982L69.8413 31.4081L65.5986 27.1654L61.356 22.9228L60.5659 23.7129L64.8085 27.9555ZM65.8832 26.0215L71.6518 24.3713C70.3973 19.9861 71.5881 14.6246 75.5407 10.6716L71.2978 6.42917L67.055 2.18676C60.1186 9.12385 57.6233 18.9632 60.1146 27.6718L65.8832 26.0215ZM71.2978 6.42917L75.5405 10.6718C79.0617 7.15054 83.7165 5.81141 87.7985 6.46177L88.7425 0.536496L89.6866 -5.38877C81.746 -6.6539 73.2512 -4.00944 67.0552 2.18653L71.2978 6.42917ZM90.3775 8.3997L86.1349 4.15706L81.3209 8.97102L85.5636 13.2137L89.8062 17.4563L94.6202 12.6423L90.3775 8.3997ZM90.6763 18.3264L94.9189 22.569L99.733 17.7549L95.4904 13.5123L91.2478 9.26962L86.4336 14.0837L90.6763 18.3264ZM103.354 15.1471L97.4286 16.0917C98.0795 20.1745 96.7406 24.8298 93.2195 28.3509L97.4622 32.5935L101.705 36.8361C107.901 30.6395 110.545 22.1434 109.279 14.2025L103.354 15.1471ZM97.4622 32.5935L93.2198 28.3506C89.9263 31.6437 85.6351 33.0312 81.7483 32.6593L81.1768 38.632L80.6052 44.6047C88.0895 45.3209 95.9021 42.6382 101.705 36.8364L97.4622 32.5935ZM75.1389 40.4805L70.8963 36.2378L61.9698 45.1643L66.2124 49.407L70.455 53.6496L79.3815 44.7231L75.1389 40.4805ZM66.2083 49.407L61.9656 45.1643L32.879 74.251L37.1216 78.4936L41.3643 82.7362L70.4509 53.6496L66.2083 49.407ZM35.1942 84.5074L29.2012 84.7964C29.3198 87.2553 28.4438 89.7303 26.5759 91.5984L30.8187 95.8409L35.0616 100.083C39.4208 95.7237 41.4619 89.9141 41.1872 84.2184L35.1942 84.5074ZM30.8187 95.8409L26.5762 91.5981C23.0615 95.1127 17.3627 95.1127 13.8481 91.5982L9.60553 95.8409L5.36296 100.084C13.5639 108.284 26.8604 108.284 35.0613 100.084L30.8187 95.8409ZM37.1216 78.4936L32.879 74.251C29.6545 77.4754 29.0536 81.7358 29.2012 84.7964L35.1942 84.5074L41.1872 84.2184C41.1592 83.6364 41.2201 83.2046 41.2982 82.9361C41.3704 82.6878 41.4265 82.674 41.3643 82.7362L37.1216 78.4936ZM81.1768 38.632L81.7483 32.6593C78.4328 32.342 74.1262 33.0079 70.8963 36.2378L75.1389 40.4805L79.3815 44.7231C79.3321 44.7725 79.3457 44.7247 79.5487 44.6674C79.7699 44.605 80.1316 44.5594 80.6052 44.6047L81.1768 38.632ZM95.4904 13.5123L99.733 17.7549C99.7723 17.7156 99.6409 17.8969 99.1632 17.8123C98.8892 17.7638 98.4631 17.6086 98.062 17.2174C97.6343 16.8003 97.4684 16.3413 97.4286 16.0917L103.354 15.1471L109.279 14.2025C108.544 9.59142 105.119 6.67995 101.254 5.99595C97.67 5.36156 93.9074 6.60999 91.2478 9.26962L95.4904 13.5123ZM85.5636 18.3264L81.3209 22.569C85.0759 26.324 91.1639 26.324 94.9189 22.569L90.6763 18.3264L86.4336 14.0837C87.365 13.1524 88.8749 13.1524 89.8062 14.0837L85.5636 18.3264ZM85.5636 13.2137L81.3209 8.97102C77.566 12.726 77.566 18.814 81.3209 22.569L85.5636 18.3264L89.8062 14.0837C90.7375 15.015 90.7375 16.525 89.8062 17.4563L85.5636 13.2137ZM65.5986 27.1654L69.8413 31.4081C71.7707 29.4787 72.3316 26.7476 71.6518 24.3713L65.8832 26.0215L60.1146 27.6718C59.6669 26.1067 60.0232 24.2556 61.356 22.9228L65.5986 27.1654ZM64.8065 27.9555L60.5638 32.1982C62.9075 34.5419 66.7075 34.5419 69.0512 32.1982L64.8085 27.9555L60.5659 23.7129C62.9085 21.3703 66.7065 21.3703 69.0491 23.7129L64.8065 27.9555ZM66.2103 49.407L70.453 45.1643C68.1092 42.8206 64.3093 42.8206 61.9656 45.1643L66.2083 49.407L70.4509 53.6496C68.1083 55.9922 64.3103 55.9922 61.9677 53.6496L66.2103 49.407ZM64.8044 27.9555L69.047 32.1982C66.7111 34.5341 62.9131 34.5474 60.5638 32.1982L64.8065 27.9555L69.0491 23.7129C66.6987 21.3625 62.8988 21.3758 60.5618 23.7129L64.8044 27.9555ZM88.7425 0.536496L87.7985 6.46177C87.5489 6.422 87.0898 6.25616 86.6726 5.8284C86.2813 5.42725 86.126 5.00104 86.0775 4.72698C85.9929 4.24921 86.1742 4.11779 86.1349 4.15706L90.3775 8.3997L94.6202 12.6423C97.2799 9.98266 98.5283 6.21992 97.8938 2.63542C97.2097 -1.22954 94.2979 -4.65407 89.6866 -5.38877L88.7425 0.536496ZM66.2124 49.407L61.9698 45.1643C64.3111 42.823 68.1091 42.8205 70.453 45.1643L66.2103 49.407L61.9677 53.6496C64.3127 55.9946 68.1126 55.9921 70.455 53.6496L66.2124 49.407ZM19.371 70.2589L19.705 76.2496C22.3861 76.1001 25.9577 75.2875 28.7377 72.5075L24.495 68.2649L20.2524 64.0223C20.3078 63.9669 20.2952 64.0107 20.0952 64.0832C19.8811 64.1608 19.5316 64.2406 19.0369 64.2682L19.371 70.2589Z" fill="black" mask="url(#path-5-inside-2_5690_1798)"/>
</g>
<defs>
<clipPath id="clip0_5690_1798">
<rect width="105" height="100" fill="white"/>
</clipPath>
</defs>
</svg>
