<svg width="37" height="54" viewBox="0 0 37 54" fill="none" xmlns="http://www.w3.org/2000/svg">
<mask id="path-1-outside-1_2354_35227" maskUnits="userSpaceOnUse" x="-19.2413" y="-2.59754" width="59.3781" height="59.4158" fill="black">
<rect fill="white" x="-19.2413" y="-2.59754" width="59.3781" height="59.4158"/>
<path fill-rule="evenodd" clip-rule="evenodd" d="M12.2223 4.12259C11.0515 2.95027 9.15263 2.94967 7.98105 4.12124L4.69298 7.40931C3.52141 8.58089 3.52081 10.481 4.69163 11.6533L18.0122 24.9908C19.183 26.1631 19.1824 28.0632 18.0108 29.2348L4.68181 42.5638C3.51024 43.7354 3.50964 45.6355 4.68046 46.8078L7.96644 50.0979C9.13727 51.2703 11.0362 51.2709 12.2077 50.0993L33.0675 29.2396C34.239 28.068 34.2396 26.1679 33.0688 24.9956L12.2223 4.12259Z"/>
</mask>
<path fill-rule="evenodd" clip-rule="evenodd" d="M12.2223 4.12259C11.0515 2.95027 9.15263 2.94967 7.98105 4.12124L4.69298 7.40931C3.52141 8.58089 3.52081 10.481 4.69163 11.6533L18.0122 24.9908C19.183 26.1631 19.1824 28.0632 18.0108 29.2348L4.68181 42.5638C3.51024 43.7354 3.50964 45.6355 4.68046 46.8078L7.96644 50.0979C9.13727 51.2703 11.0362 51.2709 12.2077 50.0993L33.0675 29.2396C34.239 28.068 34.2396 26.1679 33.0688 24.9956L12.2223 4.12259Z" fill="#57BDE9"/>
<path d="M6.81295 9.53198L10.101 6.24391L5.86108 1.99858L2.57301 5.28665L6.81295 9.53198ZM2.57031 13.7746L15.8909 27.1121L20.1335 22.8695L6.81295 9.53198L2.57031 13.7746ZM15.8909 27.1121L2.56184 40.4411L6.80178 44.6865L20.1308 31.3574L15.8909 27.1121ZM10.0878 47.9766L6.80179 44.6865L2.55914 48.9291L5.84512 52.2193L10.0878 47.9766ZM30.9475 27.1169L10.0878 47.9766L14.3277 52.222L35.1874 31.3622L30.9475 27.1169ZM10.101 6.24391L30.9475 27.1169L35.1901 22.8743L14.3437 2.00127L10.101 6.24391ZM35.1874 31.3622C37.5306 29.0191 37.5318 25.2189 35.1901 22.8743L30.9475 27.1169L35.1874 31.3622ZM5.84512 52.2193C8.18678 54.5639 11.9846 54.5651 14.3277 52.222L10.0878 47.9766L10.0878 47.9766L5.84512 52.2193ZM2.56184 40.4411C0.218687 42.7843 0.217493 46.5845 2.55914 48.9291L6.80179 44.6865L6.80178 44.6865L2.56184 40.4411ZM15.8909 27.1121L15.8909 27.1121L20.1308 31.3574C22.4739 29.0143 22.4752 25.2141 20.1335 22.8695L15.8909 27.1121ZM10.101 6.24391L10.101 6.24391L14.3437 2.00127C12.002 -0.343367 8.20422 -0.344567 5.86108 1.99858L10.101 6.24391ZM2.57301 5.28665C0.229865 7.62979 0.228657 11.43 2.57031 13.7746L6.81295 9.53198L2.57301 5.28665Z" fill="black" mask="url(#path-1-outside-1_2354_35227)"/>
</svg>
