<svg width="80" height="100" viewBox="0 0 80 100" fill="none" xmlns="http://www.w3.org/2000/svg">
<g clip-path="url(#clip0_5611_41936)">
<path d="M74.3086 30.0078C77.4789 30.1684 80 32.7898 80 36V94L79.9922 94.3086C79.8367 97.3767 77.3767 99.8367 74.3086 99.9922L74 100H6L5.69141 99.9922C2.62332 99.8367 0.163251 97.3767 0.0078125 94.3086L0 94V36C0 32.7898 2.52111 30.1684 5.69141 30.0078L6 30H25C26.1046 30 27 30.8954 27 32V34C27 35.1046 26.1046 36 25 36H8C6.89543 36 6 36.8954 6 38V92C6 93.1046 6.89543 94 8 94H72C73.1046 94 74 93.1046 74 92V38C74 36.8954 73.1046 36 72 36H55C53.8954 36 53 35.1046 53 34V32C53 30.8954 53.8954 30 55 30H74L74.3086 30.0078Z" fill="black"/>
<path d="M58.1584 17.2537C59.2225 18.4313 59.1869 20.2495 58.0519 21.3845C56.9169 22.5193 55.0987 22.555 53.9211 21.491L53.8097 21.3845L42.8732 10.447L43.0002 64.9929L42.9963 65.1482C42.9192 66.7331 41.6118 67.996 40.007 67.9998C38.4021 68.0035 37.0884 66.7466 37.0041 65.1619L37.0002 65.0066L36.8732 10.2253L25.714 21.3845L25.6027 21.491C24.4251 22.5549 22.6068 22.5194 21.4719 21.3845C20.3369 20.2496 20.3014 18.4313 21.3654 17.2537L21.4719 17.1414L37.0129 1.60133C37.1499 1.34141 37.3274 1.09735 37.5461 0.878669C38.148 0.276785 38.9419 -0.0138473 39.7306 0.00269288C39.7697 0.00109253 39.8094 -0.000144835 39.8488 -0.000236805C40.0411 -0.00066155 40.229 0.0173667 40.4113 0.051521C40.4214 0.0534009 40.4316 0.0544209 40.4416 0.0564038C40.4928 0.0665518 40.5427 0.0817669 40.593 0.0944898C40.6404 0.10648 40.6886 0.116275 40.7355 0.130623C40.7534 0.136086 40.7706 0.143392 40.7883 0.149177C40.8629 0.173509 40.937 0.199894 41.0099 0.230232C41.0301 0.238655 41.0496 0.248727 41.0695 0.257576C41.1385 0.288092 41.2076 0.319252 41.2746 0.355232C41.2905 0.363801 41.3057 0.373728 41.3215 0.382576C41.5564 0.514222 41.7779 0.678888 41.9777 0.878669C42.1752 1.07622 42.338 1.29514 42.4689 1.52711C42.4775 1.54221 42.487 1.55676 42.4953 1.57203C42.5007 1.58204 42.5076 1.59127 42.5129 1.60133L58.0519 17.1414L58.1584 17.2537Z" fill="black"/>
</g>
<defs>
<clipPath id="clip0_5611_41936">
<rect width="80" height="100" fill="white"/>
</clipPath>
</defs>
</svg>
