<svg width="100" height="100" viewBox="0 0 100 100" fill="none" xmlns="http://www.w3.org/2000/svg">
<path fill-rule="evenodd" clip-rule="evenodd" d="M38.7429 44C38.7429 41.7909 36.952 40 34.7429 40H20C14.4771 40 10 44.4772 10 50V87.6986C10 93.2215 14.4771 97.6986 20 97.6986H81C86.5229 97.6986 91 93.2215 91 87.6986V50C91 44.4772 86.5229 40 81 40H66.259C64.0499 40 62.259 41.7909 62.259 44V44C62.259 46.2091 64.0499 48 66.259 48H81C82.1046 48 83 48.8954 83 50V87.6986C83 88.8032 82.1046 89.6986 81 89.6986H20C18.8954 89.6986 18 88.8032 18 87.6986V50C18 48.8954 18.8954 48 20 48H34.7429C36.952 48 38.7429 46.2091 38.7429 44V44Z" fill="black"/>
<path d="M46 71.5C46 73.7091 47.7909 75.5 50 75.5C52.2091 75.5 54 73.7091 54 71.5H46ZM52.8284 1.17157C51.2663 -0.390524 48.7337 -0.390524 47.1716 1.17157L21.7157 26.6274C20.1536 28.1895 20.1536 30.7222 21.7157 32.2843C23.2778 33.8464 25.8105 33.8464 27.3726 32.2843L50 9.65685L72.6274 32.2843C74.1895 33.8464 76.7222 33.8464 78.2843 32.2843C79.8464 30.7222 79.8464 28.1895 78.2843 26.6274L52.8284 1.17157ZM54 71.5L54 4H46L46 71.5H54Z" fill="black"/>
</svg>
