<svg width="180" height="200" viewBox="0 0 180 200" fill="none" xmlns="http://www.w3.org/2000/svg">
<mask id="path-1-inside-1_1730_24910" fill="white">
<path fill-rule="evenodd" clip-rule="evenodd" d="M61.0849 8.88889C65.1493 3.52895 72.0708 0 79.926 0C87.7812 0 94.7027 3.52895 98.7671 8.88889H110.945C115.364 8.88889 118.945 12.4706 118.945 16.8889V32C118.945 36.4183 115.364 40 110.945 40H79.926H47.6484C43.2302 40 39.6484 36.4183 39.6484 32V16.8889C39.6484 12.4706 43.2302 8.88889 47.6484 8.88889H61.0849Z"/>
</mask>
<path d="M61.0849 8.88889V16.8889H65.0586L67.4595 13.7226L61.0849 8.88889ZM98.7671 8.88889L92.3925 13.7226L94.7934 16.8889H98.7671V8.88889ZM67.4595 13.7226C69.9271 10.4684 74.4311 8 79.926 8V-8C69.7105 -8 60.3715 -3.41053 54.7104 4.05517L67.4595 13.7226ZM79.926 8C85.4209 8 89.9249 10.4684 92.3925 13.7226L105.142 4.05517C99.4805 -3.41054 90.1415 -8 79.926 -8V8ZM98.7671 16.8889H110.945V0.888889H98.7671V16.8889ZM110.945 16.8889H110.945H126.945C126.945 8.05232 119.782 0.888889 110.945 0.888889V16.8889ZM110.945 16.8889V32H126.945V16.8889H110.945ZM110.945 32V32V48C119.782 48 126.945 40.8365 126.945 32H110.945ZM110.945 32H79.926V48H110.945V32ZM79.926 32H47.6484V48H79.926V32ZM47.6484 32H47.6484H31.6484C31.6484 40.8366 38.8119 48 47.6484 48V32ZM47.6484 32V16.8889H31.6484V32H47.6484ZM47.6484 16.8889V16.8889V0.888889C38.8119 0.888889 31.6484 8.05235 31.6484 16.8889H47.6484ZM47.6484 16.8889H61.0849V0.888889H47.6484V16.8889Z" fill="black" mask="url(#path-1-inside-1_1730_24910)"/>
<path fill-rule="evenodd" clip-rule="evenodd" d="M116.797 108.435L103.729 113.521L108.471 99.5659C108.498 99.5361 108.528 99.503 108.563 99.4666C108.901 99.1085 109.393 98.6555 110.075 98.0777C110.545 97.6791 110.985 97.3207 111.472 96.9241L111.474 96.9221C111.725 96.7178 111.988 96.5034 112.274 96.2682C113.003 95.6692 113.934 94.8914 114.743 94.0844L152.533 56.3974L160.102 64.1891L122.312 101.876C121.472 102.714 120.689 103.673 120.097 104.417C119.808 104.78 119.514 105.156 119.243 105.504L119.242 105.506L119.171 105.597C118.87 105.982 118.591 106.339 118.315 106.684C117.748 107.392 117.3 107.918 116.935 108.296C116.883 108.35 116.837 108.396 116.797 108.435ZM165.767 58.5395L171.912 52.4113L171.912 52.411L164.343 44.6195L158.198 50.7479L165.767 58.5395ZM93.4413 119.067C92.3427 122.3 95.4714 125.36 98.6224 124.134L120.207 115.733C120.406 115.655 120.594 115.564 120.771 115.462C122.286 114.583 123.953 112.448 125.47 110.505C126.345 109.385 127.169 108.329 127.886 107.614L177.486 58.1488C180.615 55.0287 180.656 49.9304 177.577 46.7616L170.008 38.9699C166.93 35.8011 161.898 35.7617 158.769 38.8818L109.169 88.3469C108.5 89.0138 107.565 89.7755 106.566 90.5895C104.523 92.2548 102.21 94.1394 101.355 95.8804C101.277 96.0392 101.208 96.2058 101.149 96.3801L93.4413 119.067Z" fill="black"/>
<path d="M39.6484 100H88.5334" stroke="black" stroke-width="8" stroke-linecap="round"/>
<path d="M39.6484 63H118.945" stroke="black" stroke-width="8" stroke-linecap="round"/>
<path d="M39.6484 140H118.945" stroke="black" stroke-width="8" stroke-linecap="round"/>
<path fill-rule="evenodd" clip-rule="evenodd" d="M42.8464 15H8C3.58172 15 0 18.5817 0 23V192C0 196.418 3.58173 200 8 200H150.594C155.012 200 158.594 196.418 158.594 192V84.3899L150.594 92.4608V192H8V23H42.6221V16.8889C42.6221 16.2382 42.6998 15.6056 42.8464 15ZM113.989 23H150.594V39.9235L158.594 31.8525V23C158.594 18.5817 155.012 15 150.594 15H113.765C113.912 15.6056 113.989 16.2382 113.989 16.8889V23Z" fill="black"/>
<path fill-rule="evenodd" clip-rule="evenodd" d="M43.6133 26H20.8857C16.4675 26 12.8857 29.5817 12.8857 34V181C12.8857 185.418 16.4675 189 20.8857 189H108.998H112.998L116.998 185.343L128.857 174.5L141.495 162.5L145.708 158.5V154.5V97.3899L137.708 105.461V154.5H120.998C114.371 154.5 108.998 159.873 108.998 166.5V181H20.8857V34H43.8653C43.7008 33.3608 43.6133 32.6906 43.6133 32V26ZM114.728 34H137.708V52.9235L145.708 44.8525V34C145.708 29.5817 142.126 26 137.708 26H114.981V32C114.981 32.6906 114.893 33.3608 114.728 34ZM116.998 174.503L123.404 168.647L129.877 162.5H120.998C118.789 162.5 116.998 164.291 116.998 166.5V174.503Z" fill="black"/>
</svg>
