<svg width="80" height="100" viewBox="0 0 80 100" fill="none" xmlns="http://www.w3.org/2000/svg">
<g clip-path="url(#clip0_5580_4534)">
<path d="M39.4746 0C43.6741 0 47.325 2.19983 49.1865 5.43555H55C56.5562 5.43555 57.9738 6.0283 59.04 7H74L74.3086 7.00781C77.4789 7.16843 80 9.78979 80 13V94L79.9922 94.3086C79.8367 97.3767 77.3767 99.8367 74.3086 99.9922L74 100H6L5.69141 99.9922C2.62332 99.8367 0.16325 97.3767 0.0078125 94.3086L0 94V13C0 9.78979 2.52111 7.16843 5.69141 7.00781L6 7H20.96C22.0262 6.0283 23.4438 5.43555 25 5.43555H29.7637C31.6252 2.19998 35.2753 0.000136161 39.4746 0ZM6 13V94H74V13H61V16H64L64.3086 16.0078C67.3765 16.1632 69.8365 18.6235 69.9922 21.6914L70 22V65.0469C69.605 65.0501 69.2122 65.0929 68.8271 65.1719C69.2144 65.0957 69.6071 65.058 70 65.0586V71.0547L69.9951 71.0566C69.9941 71.0559 69.9922 71.0559 69.9912 71.0566L50.0537 90.9941V90.9961L50.0498 91H44.0537C44.0536 90.7975 44.0646 90.5952 44.085 90.3936C44.0619 90.5947 44.0444 90.7967 44.043 91H16L15.6914 90.9922C12.5211 90.8316 10 88.2102 10 85V22L10.0078 21.6914C10.1635 18.6235 12.6235 16.1632 15.6914 16.0078L16 16H19V13H6ZM50.0527 91H50.0498L50.0527 90.998V91ZM45.9873 86.5742C45.7275 86.8168 45.4912 87.0811 45.2793 87.3633C45.3801 87.231 45.4853 87.1 45.5986 86.9746L45.8115 86.751L45.9883 86.5762L45.9873 86.5742ZM16 85H45.8867V71.6475C45.887 68.8862 48.1254 66.6475 50.8867 66.6475H64V22H60.1953C59.1578 23.7929 57.2205 25 55 25H25C22.7795 25 20.8422 23.7929 19.8047 22H16V85ZM51.8867 80.6758L59.915 72.6475H51.8867V80.6758ZM66.2715 66.3506C66.1115 66.475 65.9577 66.6075 65.8105 66.748C65.8125 66.7486 65.8144 66.7495 65.8164 66.75C65.9631 66.608 66.1146 66.4744 66.2715 66.3506ZM19.3154 20.9199C19.3214 20.9375 19.3269 20.9552 19.333 20.9727C19.3269 20.9552 19.3214 20.9375 19.3154 20.9199ZM60.666 20.9727C60.6721 20.9552 60.6776 20.9375 60.6836 20.9199C60.6777 20.9375 60.6721 20.9552 60.666 20.9727ZM19.0459 19.7334C19.0507 19.7722 19.0551 19.811 19.0605 19.8496C19.0551 19.811 19.0506 19.7722 19.0459 19.7334ZM60.9385 19.8496C60.944 19.811 60.9484 19.7722 60.9531 19.7334C60.9484 19.7722 60.944 19.811 60.9385 19.8496ZM19.0117 19.3672C19.0139 19.4038 19.0176 19.4402 19.0205 19.4766C19.0176 19.4402 19.0139 19.4038 19.0117 19.3672ZM60.9785 19.4766C60.9814 19.4402 60.9851 19.4038 60.9873 19.3672C60.9851 19.4038 60.9814 19.4402 60.9785 19.4766ZM39.4746 6C37.374 6.00014 35.7319 7.09453 34.9648 8.42773L33.2334 11.4355H25V19H55V11.4355H45.7158L43.9854 8.42773C43.2184 7.09476 41.5759 6 39.4746 6ZM19.0469 10.6943C19.0424 10.7304 19.037 10.7665 19.0332 10.8027C19.037 10.7664 19.0424 10.7304 19.0469 10.6943ZM60.9658 10.8027C60.962 10.7664 60.9566 10.7304 60.9521 10.6943C60.9566 10.7304 60.962 10.7664 60.9658 10.8027ZM19.0957 10.374C19.089 10.4114 19.0812 10.4487 19.0752 10.4863C19.0812 10.4487 19.089 10.4114 19.0957 10.374ZM60.9238 10.4863C60.9178 10.4487 60.911 10.4114 60.9043 10.374C60.911 10.4114 60.9179 10.4487 60.9238 10.4863ZM19.1611 10.0518C19.1499 10.0994 19.139 10.1472 19.1289 10.1953C19.139 10.1472 19.1499 10.0994 19.1611 10.0518ZM60.8701 10.1953C60.86 10.1472 60.8491 10.0994 60.8379 10.0518C60.8491 10.0994 60.86 10.1472 60.8701 10.1953ZM19.2461 9.73535C19.2312 9.78597 19.2158 9.83653 19.2021 9.8877C19.2158 9.83653 19.2312 9.78597 19.2461 9.73535ZM60.7969 9.8877C60.7833 9.83661 60.7688 9.78589 60.7539 9.73535C60.7688 9.78589 60.7833 9.83661 60.7969 9.8877ZM19.3291 9.47266C19.3154 9.51221 19.3019 9.55188 19.2891 9.5918C19.3019 9.55187 19.3154 9.51221 19.3291 9.47266ZM60.71 9.5918C60.6971 9.55187 60.6836 9.51221 60.6699 9.47266C60.6836 9.51221 60.6971 9.55187 60.71 9.5918ZM19.4365 9.18555C19.4199 9.22669 19.4035 9.26798 19.3877 9.30957C19.4035 9.26798 19.4199 9.22669 19.4365 9.18555ZM60.6113 9.30957C60.5956 9.26798 60.5792 9.22669 60.5625 9.18555C60.5792 9.2267 60.5956 9.26797 60.6113 9.30957ZM19.5527 8.91895C19.5367 8.95357 19.5212 8.98846 19.5059 9.02344C19.5212 8.98846 19.5367 8.95357 19.5527 8.91895ZM60.4941 9.02344C60.4787 8.98834 60.4624 8.95369 60.4463 8.91895C60.4624 8.95369 60.4787 8.98833 60.4941 9.02344ZM19.6865 8.64844C19.6707 8.67858 19.655 8.70882 19.6396 8.73926C19.655 8.70881 19.6707 8.67858 19.6865 8.64844ZM60.3594 8.73926C60.344 8.70881 60.3284 8.67858 60.3125 8.64844C60.3283 8.67859 60.344 8.70881 60.3594 8.73926ZM19.834 8.38281C19.8161 8.41302 19.7996 8.44406 19.7822 8.47461C19.7996 8.44406 19.8161 8.41303 19.834 8.38281ZM60.2178 8.47461C60.2003 8.44392 60.183 8.41316 60.165 8.38281C60.183 8.41317 60.2003 8.44391 60.2178 8.47461ZM19.9941 8.12793C19.9826 8.14539 19.9713 8.16307 19.96 8.18066C19.9713 8.16307 19.9826 8.14539 19.9941 8.12793ZM60.04 8.18066C60.0287 8.16307 60.0174 8.14539 60.0059 8.12793C60.0174 8.14539 60.0287 8.16307 60.04 8.18066ZM20.168 7.87891C20.1459 7.90878 20.125 7.93944 20.1035 7.96973C20.125 7.93943 20.1459 7.90878 20.168 7.87891ZM59.8965 7.96973C59.8749 7.93928 59.8532 7.90893 59.8311 7.87891C59.8532 7.90893 59.8749 7.93927 59.8965 7.96973ZM20.3477 7.64648C20.3223 7.67757 20.2982 7.70962 20.2734 7.74121C20.2982 7.70961 20.3223 7.67757 20.3477 7.64648ZM59.7256 7.74121C59.7008 7.70962 59.6767 7.67757 59.6514 7.64648C59.6767 7.67757 59.7008 7.70961 59.7256 7.74121ZM20.8906 7.06641C20.81 7.1423 20.7307 7.21959 20.6543 7.2998C20.7307 7.21958 20.81 7.14231 20.8906 7.06641ZM59.1094 7.06641C59.1899 7.14215 59.2685 7.21975 59.3447 7.2998C59.2685 7.21976 59.1899 7.14215 59.1094 7.06641Z" fill="black"/>
<path d="M55 37H25" stroke="black" stroke-width="6" stroke-linecap="round"/>
<path d="M55 54H25" stroke="black" stroke-width="6" stroke-linecap="round"/>
<path d="M36 70H25" stroke="black" stroke-width="6" stroke-linecap="round"/>
</g>
<defs>
<clipPath id="clip0_5580_4534">
<rect width="80" height="100" rx="6" fill="white"/>
</clipPath>
</defs>
</svg>
