<svg width="90" height="100" viewBox="0 0 90 100" fill="none" xmlns="http://www.w3.org/2000/svg">
<g clip-path="url(#clip0_5582_4629)">
<path d="M75.3088 0.0078125C78.4789 0.168421 80.9999 2.79 81.0002 6V8C81.0002 9.605 82.2609 10.9156 83.8459 10.9961L84.3088 11.0078C87.4789 11.1684 89.9999 13.79 90.0002 17V93.75L89.9924 94.0586C89.8369 97.1267 87.3768 99.5867 84.3088 99.7422L84.0002 99.75H25.0002L24.6916 99.7422C21.6236 99.5866 19.1634 97.1266 19.008 94.0586L19.0002 93.75V91.75C19.0002 90.1448 17.7398 88.8341 16.1545 88.7539L15.6916 88.7422C12.6236 88.5866 10.1634 86.1266 10.008 83.0586L10.0002 82.75V72.9199C10.0002 72.3943 10.4745 72.0002 11.0002 72H15.0002C15.5259 72 16.0002 72.3942 16.0002 72.9199V79.75C16.0002 81.4067 17.3435 82.7498 19.0002 82.75H72.0002C73.657 82.75 75.0002 81.4069 75.0002 79.75V9C75.0002 7.34315 73.657 6 72.0002 6H19.0002C17.3435 6.00017 16.0002 7.34325 16.0002 9V23.0791C16.0002 23.6048 15.5259 24 15.0002 24H11.0002C10.4746 23.9998 10.0002 23.6047 10.0002 23.0791V6C10.0004 2.7901 12.5216 0.168579 15.6916 0.0078125L16.0002 0H75.0002L75.3088 0.0078125ZM82.5002 17C81.6719 17.0002 81.0002 17.6717 81.0002 18.5V82.75L80.9924 83.0586C80.8369 86.1267 78.3768 88.5867 75.3088 88.7422L75.0002 88.75H27.5002C26.1196 88.7502 25.0002 89.8694 25.0002 91.25C25.0002 92.6306 26.1196 93.7498 27.5002 93.75H81.0002C82.657 93.75 84.0002 92.4069 84.0002 90.75V18.5C84.0002 17.6716 83.3286 17 82.5002 17ZM64.0002 66C65.657 66 67.0002 67.3431 67.0002 69C67.0002 70.6569 65.657 72 64.0002 72H29.0002C27.3435 71.9998 26.0002 70.6567 26.0002 69C26.0002 67.3433 27.3435 66.0002 29.0002 66H64.0002ZM29.2082 24C38.2587 24 45.5959 31.3783 45.5959 40.4795L45.591 40.9043C45.3668 49.809 38.1174 56.958 29.2082 56.958L28.7853 56.9531C25.449 56.868 22.3605 55.7796 19.8068 53.9775C19.8022 53.9822 19.7978 53.9876 19.7931 53.9922L5.10075 68.6846L4.98845 68.791C3.81118 69.8543 1.99879 69.8138 0.870284 68.6729C-0.258148 67.5316 -0.288677 65.7082 0.775558 64.5303L0.882003 64.418L15.5744 49.7256C15.5882 49.7118 15.6033 49.699 15.6174 49.6855C13.8532 47.0568 12.8215 43.8895 12.8215 40.4795L12.8263 40.0537C13.0472 31.2906 20.0711 24.2281 28.7853 24.0059L29.2082 24ZM64.0002 49C65.657 49 67.0002 50.3431 67.0002 52C67.0002 53.6569 65.657 55 64.0002 55H50.0002L49.8459 54.9961C48.2609 54.9156 47.0002 53.605 47.0002 52C47.0002 50.395 48.2609 49.0844 49.8459 49.0039L50.0002 49H64.0002ZM29.2082 30C23.5032 30.0003 18.8215 34.6606 18.8215 40.4795C18.8216 46.2983 23.5033 50.9577 29.2082 50.958C34.9134 50.958 39.5957 46.2985 39.5959 40.4795C39.5959 34.6604 34.9135 30 29.2082 30ZM64.0002 32C65.657 32 67.0002 33.3431 67.0002 35C67.0002 36.6569 65.657 38 64.0002 38H53.0002L52.8459 37.9961C51.2609 37.9156 50.0002 36.605 50.0002 35C50.0002 33.395 51.2609 32.0844 52.8459 32.0039L53.0002 32H64.0002ZM64.0002 14C65.657 14 67.0002 15.3431 67.0002 17C67.0002 18.6569 65.657 20 64.0002 20H36.0002L35.8459 19.9961C34.2609 19.9156 33.0002 18.605 33.0002 17C33.0002 15.395 34.2609 14.0844 35.8459 14.0039L36.0002 14H64.0002Z" fill="black"/>
</g>
<defs>
<clipPath id="clip0_5582_4629">
<rect width="90" height="100" fill="white"/>
</clipPath>
</defs>
</svg>
