<svg width="90" height="100" viewBox="0 0 90 100" fill="none" xmlns="http://www.w3.org/2000/svg">
<g clip-path="url(#clip0_5582_4629)">
<path d="M75.3086 0.0078125C78.4787 0.168421 80.9998 2.79 81 6V8C81 9.65685 82.3431 11 84 11V11L84.3086 11.0078C87.4787 11.1684 89.9998 13.79 90 17V93.75L89.9922 94.0586C89.8368 97.1267 87.3767 99.5867 84.3086 99.7422L84 99.75H25L24.6914 99.7422C21.6233 99.5867 19.1633 97.1267 19.0078 94.0586L19 93.75V91.75C19 90.0931 17.6569 88.75 16 88.75V88.75L15.6914 88.7422C12.6233 88.5867 10.1633 86.1267 10.0078 83.0586L10 82.75V72.9198C10 72.394 10.4742 72 11 72V72H15V72C15.5258 72 16 72.394 16 72.9198V79.75C16 81.4069 17.3431 82.75 19 82.75H72C73.6569 82.75 75 81.4069 75 79.75V9C75 7.34315 73.6569 6 72 6H19C17.3431 6 16 7.34315 16 9V23.0793C16 23.605 15.5257 24 15 24V24H11V24C10.4743 24 10 23.605 10 23.0793V6C10.0002 2.79 12.5213 0.168421 15.6914 0.0078125L16 0H75L75.3086 0.0078125ZM81 82.75L80.9922 83.0586C80.8368 86.1267 78.3767 88.5867 75.3086 88.7422L75 88.75H27.5C26.1193 88.75 25 89.8693 25 91.25V91.25C25 92.6307 26.1193 93.75 27.5 93.75H81C82.6569 93.75 84 92.4069 84 90.75V18.5C84 17.6716 83.3284 17 82.5 17V17C81.6716 17 81 17.6716 81 18.5V82.75Z" fill="black"/>
<path d="M45.5908 40.9043C45.3666 49.809 38.1172 56.958 29.208 56.958L28.7852 56.9531C25.4487 56.8681 22.3605 55.7797 19.8066 53.9775C19.802 53.9822 19.7977 53.9875 19.793 53.9922L5.10059 68.6846L4.98828 68.791C3.81102 69.8545 1.99868 69.8138 0.870117 68.6729C-0.258519 67.5315 -0.289039 65.7082 0.775391 64.5303L0.881836 64.418L15.5742 49.7256C15.5881 49.7117 15.6031 49.6991 15.6172 49.6855C13.8529 47.0567 12.8213 43.8896 12.8213 40.4795L12.8262 40.0537C13.047 31.2905 20.0708 24.228 28.7852 24.0059L29.208 24C38.2585 24 45.5957 31.3783 45.5957 40.4795L45.5908 40.9043ZM39.5957 40.4795C39.5957 34.6604 34.9133 30 29.208 30C23.5028 30.0001 18.8213 34.6605 18.8213 40.4795C18.8214 46.2984 23.5029 50.9579 29.208 50.958C34.9132 50.958 39.5955 46.2985 39.5957 40.4795Z" fill="black"/>
<path d="M64 17L36 17" stroke="black" stroke-width="6" stroke-linecap="round"/>
<path d="M64 35H53" stroke="black" stroke-width="6" stroke-linecap="round"/>
<path d="M64 52H50" stroke="black" stroke-width="6" stroke-linecap="round"/>
<path d="M64 69H29" stroke="black" stroke-width="6" stroke-linecap="round"/>
</g>
<defs>
<clipPath id="clip0_5582_4629">
<rect width="90" height="100" fill="white"/>
</clipPath>
</defs>
</svg>
