<svg width="100" height="100" viewBox="0 0 100 100" fill="none" xmlns="http://www.w3.org/2000/svg">
<path fill-rule="evenodd" clip-rule="evenodd" d="M63.232 65.9477C47.386 65.9477 34.4641 53.0178 34.4641 36.9738C34.4641 20.9299 47.386 8 63.232 8C79.0781 8 92 20.9299 92 36.9738C92 53.0178 79.0781 65.9477 63.232 65.9477ZM34.3185 59.8167C29.3988 53.5284 26.4641 45.5958 26.4641 36.9738C26.4641 16.5538 42.9256 0 63.232 0C83.5384 0 100 16.5538 100 36.9738C100 57.3939 83.5384 73.9477 63.232 73.9477C54.3735 73.9477 46.2468 70.7974 39.8991 65.5501L7.27724 98.3546C5.71951 99.9211 3.19393 99.9211 1.6362 98.3546C0.0784683 96.7882 0.0784683 94.2485 1.6362 92.682L34.3185 59.8167Z" fill="black"/>
</svg>
