<svg width="80" height="100" viewBox="0 0 80 100" fill="none" xmlns="http://www.w3.org/2000/svg">
<g clip-path="url(#clip0_5580_4450)">
<path d="M29.6035 0C29.6038 0.279538 29.5844 0.559526 29.5459 0.836914C29.5866 0.560494 29.6114 0.280858 29.6133 0H65L65.3086 0.0078125C68.4787 0.168421 70.9998 2.79 71 6V11H74L74.3086 11.0078C77.4787 11.1684 79.9998 13.79 80 17V93.75L79.9922 94.0586C79.8368 97.1267 77.3767 99.5867 74.3086 99.7422L74 99.75H15L14.6914 99.7422C11.6233 99.5867 9.16325 97.1267 9.00781 94.0586L9 93.75V88.75H6L5.69141 88.7422C2.62333 88.5867 0.16325 86.1267 0.0078125 83.0586L0 82.75V29.6084C0.274744 29.6066 0.547808 29.5829 0.818359 29.5439C0.546849 29.5807 0.273521 29.599 0 29.5986V23.6016L0.00585938 23.5986C0.0072811 23.6001 0.010297 23.6001 0.0117188 23.5986L23.6025 0.0078125V0.00390625L23.6045 0H29.6035ZM71 82.75L70.9922 83.0586C70.8368 86.1267 68.3767 88.5867 65.3086 88.7422L65 88.75H15V93.75H74V17H71V82.75ZM27.9844 6.13574V23.2686C27.9842 26.0297 25.7455 28.2683 22.9844 28.2686H6V82.75H65V6H27.9805C27.9825 6.04497 27.9844 6.09028 27.9844 6.13574ZM9.82715 22.2686H21.9844V10.1113L9.82715 22.2686ZM28.3652 3.6543C28.2681 3.78078 28.1672 3.90619 28.0586 4.02637L27.8457 4.25L27.626 4.46875C27.8985 4.22008 28.1445 3.9462 28.3652 3.6543Z" fill="black"/>
<path d="M53.9883 30L48.5737 39.0966" stroke="black" stroke-width="6" stroke-linecap="round"/>
<path d="M48.5732 39.0964L44.9996 35.1979" stroke="black" stroke-width="6" stroke-linecap="round"/>
<path d="M53.9883 47L48.5737 56.0966" stroke="black" stroke-width="6" stroke-linecap="round"/>
<path d="M48.5732 56.0964L44.9996 52.1979" stroke="black" stroke-width="6" stroke-linecap="round"/>
<path d="M53.9883 64L48.5737 73.0966" stroke="black" stroke-width="6" stroke-linecap="round"/>
<path d="M48.5732 73.0964L44.9996 69.1979" stroke="black" stroke-width="6" stroke-linecap="round"/>
<path d="M36 39H18" stroke="black" stroke-width="6" stroke-linecap="round"/>
<path d="M36 56H18" stroke="black" stroke-width="6" stroke-linecap="round"/>
<path d="M36 73H18" stroke="black" stroke-width="6" stroke-linecap="round"/>
</g>
<defs>
<clipPath id="clip0_5580_4450">
<rect width="80" height="100" fill="white"/>
</clipPath>
</defs>
</svg>
