<svg width="80" height="100" viewBox="0 0 80 100" fill="none" xmlns="http://www.w3.org/2000/svg">
<g clip-path="url(#clip0_5688_1556)">
<path d="M50.3965 0C50.3962 0.279538 50.4156 0.559526 50.4541 0.836914C50.4134 0.560494 50.3886 0.280858 50.3867 0H15L14.6914 0.0078125C11.5213 0.168421 9.00024 2.79 9 6V11H6L5.69141 11.0078C2.52126 11.1684 0.000239695 13.79 0 17V93.75L0.0078125 94.0586C0.163249 97.1267 2.62333 99.5867 5.69141 99.7422L6 99.75H65L65.3086 99.7422C68.3767 99.5867 70.8367 97.1267 70.9922 94.0586L71 93.75V88.75H74L74.3086 88.7422C77.3767 88.5867 79.8367 86.1267 79.9922 83.0586L80 82.75V29.6084C79.7253 29.6066 79.4522 29.5829 79.1816 29.5439C79.4532 29.5807 79.7265 29.599 80 29.5986V23.6016L79.9941 23.5986C79.9927 23.6001 79.9897 23.6001 79.9883 23.5986L56.3975 0.0078125V0.00390625L56.3955 0H50.3965ZM9 82.75L9.00781 83.0586C9.16325 86.1267 11.6233 88.5867 14.6914 88.7422L15 88.75H65V93.75H6V17H9V82.75ZM52.0156 6.13574V23.2686C52.0158 26.0297 54.2545 28.2683 57.0156 28.2686H74V82.75H15V6H52.0195C52.0175 6.04497 52.0156 6.09028 52.0156 6.13574ZM70.1729 22.2686H58.0156V10.1113L70.1729 22.2686ZM51.6348 3.6543C51.7319 3.78078 51.8328 3.90619 51.9414 4.02637L52.1543 4.25L52.374 4.46875C52.1015 4.22008 51.8555 3.9462 51.6348 3.6543Z" fill="black"/>
<path d="M45 44V64" stroke="black" stroke-width="6" stroke-linecap="round"/>
<path d="M55 54H35" stroke="black" stroke-width="6" stroke-linecap="round"/>
</g>
<defs>
<clipPath id="clip0_5688_1556">
<rect width="80" height="100" fill="white"/>
</clipPath>
</defs>
</svg>
