<svg width="80" height="100" viewBox="0 0 80 100" fill="none" xmlns="http://www.w3.org/2000/svg">
<path d="M54.9043 41L36.8889 71.2659" stroke="black" stroke-width="6" stroke-linecap="round"/>
<path d="M36.8906 71.2656L25.0005 58.2945" stroke="black" stroke-width="6" stroke-linecap="round"/>
<path d="M32.5947 0C32.5951 0.277105 32.5749 0.554074 32.5371 0.829102C32.5771 0.555041 32.6026 0.278401 32.6045 0H74L74.3086 0.0078125C77.4789 0.16843 80 2.78979 80 6V94L79.9922 94.3086C79.8367 97.3767 77.3767 99.8367 74.3086 99.9922L74 100H6L5.69141 99.9922C2.62332 99.8367 0.16325 97.3767 0.0078125 94.3086L0 94V32.6016C0.205961 32.6002 0.410557 32.5828 0.614258 32.5596C0.410037 32.5801 0.205106 32.5911 0 32.5908V26.5938L0.00585938 26.5908C0.0072811 26.5922 0.010297 26.5922 0.0117188 26.5908L26.5938 0.00878906V0.00488281L26.5957 0H32.5947ZM31 26C31 28.7614 28.7614 31 26 31H6V94H74V6H31V26ZM10.0879 25H25V10.0879L10.0879 25ZM31.0498 4.02734L31 4.0791V4.08496C31.0577 4.02131 31.114 3.95654 31.1689 3.89062L31.1943 3.85938C31.1476 3.91621 31.0995 3.97231 31.0498 4.02734Z" fill="black"/>
</svg>
