<svg width="80" height="100" viewBox="0 0 80 100" fill="none" xmlns="http://www.w3.org/2000/svg">
<g clip-path="url(#clip0_5577_18118)">
<path d="M32.5947 0.276367C32.5951 0.553472 32.5749 0.830441 32.5371 1.10547C32.5771 0.831408 32.6026 0.554768 32.6045 0.276367H58.959L54.7578 6.27637H31V26.2764C31 29.0378 28.7614 31.2764 26 31.2764H6V94.2764H74V30.0811L80 21.5117V94.2764L79.9922 94.585C79.8367 97.653 77.3767 100.113 74.3086 100.269L74 100.276H6L5.69141 100.269C2.62332 100.113 0.16325 97.653 0.0078125 94.585L0 94.2764V32.8779C0.205961 32.8765 0.410557 32.8591 0.614258 32.8359C0.410037 32.8564 0.205106 32.8675 0 32.8672V26.8701L0.00585938 26.8672C0.0072811 26.8686 0.010297 26.8686 0.0117188 26.8672L26.5938 0.285156V0.28125L26.5957 0.276367H32.5947ZM10.0879 25.2764H25V10.3643L10.0879 25.2764ZM31.0498 4.30371L31 4.35547V4.36133C31.0577 4.29768 31.114 4.23291 31.1689 4.16699L31.1943 4.13574C31.1476 4.19258 31.0995 4.24868 31.0498 4.30371Z" fill="black"/>
<path d="M78.0184 7.05979C79.8277 8.32697 80.2677 10.8212 79.0007 12.6307L46.6132 58.8848C46.4655 59.2081 46.2588 59.5094 45.9932 59.7703L45.9825 59.7855L45.8858 59.9169C45.3854 60.5597 44.6797 60.9598 43.9275 61.091L34.7367 66.4973C31.8744 68.1807 28.3789 65.8484 28.729 62.6364L28.7755 62.3232L30.7118 51.8349C30.5702 51.035 30.734 50.1808 31.2367 49.4628L31.2417 49.4556C31.3984 49.1084 31.6153 48.8045 31.8752 48.5508L64.2559 2.30633C65.5231 0.496705 68.0172 0.0569144 69.8269 1.32402L78.0184 7.05979ZM61.7609 16.3304L36.775 52.0139L36.7564 52.1392L35.4701 59.1044L41.5748 55.5142L41.6938 55.4497L66.6758 19.7718L61.7609 16.3304ZM45.744 55.2516C45.7369 55.246 45.7299 55.2399 45.7227 55.2344L45.5994 55.1432C45.6491 55.178 45.6972 55.2147 45.744 55.2516ZM65.2023 11.4155L70.1172 14.8569L72.9386 10.8275L68.0237 7.38609L65.2023 11.4155Z" fill="black"/>
</g>
<defs>
<clipPath id="clip0_5577_18118">
<rect width="80" height="100" fill="white"/>
</clipPath>
</defs>
</svg>
