<svg width="90" height="100" viewBox="0 0 90 100" fill="none" xmlns="http://www.w3.org/2000/svg">
<g clip-path="url(#clip0_5580_4562)">
<path d="M74.3086 0.0078125C77.4789 0.168428 80 2.78979 80 6V35C80 36.6569 78.6569 38 77 38V38C75.3431 38 74 36.6569 74 35V9C74 7.34315 72.6569 6 71 6H9C7.34314 6 6 7.34315 6 9V91C6 92.6569 7.34315 94 9 94H39C40.6569 94 42 95.3431 42 97V97C42 98.6569 40.6569 100 39 100H6L5.69141 99.9922C2.62332 99.8367 0.163251 97.3767 0.0078125 94.3086L0 94V6C1.24831e-07 2.78979 2.52111 0.168429 5.69141 0.0078125L6 0H74L74.3086 0.0078125Z" fill="black"/>
<path d="M38.8997 70.9973L46.4879 62.9232C47.4715 61.8765 48.8582 61.3037 50.2943 61.3508L53.5534 61.4578C54.2906 61.482 55.0134 61.6689 55.6701 62.0053L60.5676 64.5138M71.5141 73.3987L74.339 77.2365C74.7968 77.8585 75.1044 78.5778 75.2376 79.3383L75.7524 82.2763C76.0231 83.8214 75.553 85.4035 74.4827 86.5496L67.1463 94.4054M71.5141 73.3987L66.8016 68.781C66.5793 68.5631 66.3371 68.3665 66.0783 68.1937L60.5676 64.5138M71.5141 73.3987L73.8923 66.3064C74.1494 65.5397 74.5887 64.8468 75.1727 64.2873L80.436 59.2442L84.9059 55.0858C86.1552 53.9236 86.7249 52.2042 86.417 50.5254L86.119 48.9011C85.6243 46.2045 83.0503 44.408 80.3486 44.8737L78.4203 45.2061C76.9144 45.4656 75.6103 46.3995 74.8799 47.7413L71.9772 53.0739L67.8032 59.5262C67.3948 60.1576 66.8491 60.6887 66.2067 61.0799L60.5676 64.5138" stroke="black" stroke-width="6" stroke-linecap="round"/>
<path d="M57.8123 77.5728C61.9232 81.1443 64.8019 85.1322 66.2104 88.5725C67.6912 92.1893 67.2512 94.3017 66.4636 95.2191C65.6759 96.1365 63.6631 96.8813 59.891 95.9343C56.3028 95.0335 51.9617 92.7492 47.8508 89.1777C43.7398 85.6061 40.8612 81.6182 39.4527 78.178C37.972 74.5615 38.4114 72.4497 39.1988 71.5321C39.9863 70.6146 41.9994 69.869 45.772 70.8161C49.3603 71.717 53.7013 74.0013 57.8123 77.5728Z" stroke="black" stroke-width="6"/>
<circle cx="39.5" cy="32.5" r="17.5" stroke="black" stroke-width="6"/>
<path d="M31 64H16" stroke="black" stroke-width="6" stroke-linecap="round"/>
<path d="M27 78H16" stroke="black" stroke-width="6" stroke-linecap="round"/>
<path d="M45 27L38.3736 38.1324" stroke="black" stroke-width="6" stroke-linecap="round"/>
<path d="M38.373 38.1323L33.9996 33.3613" stroke="black" stroke-width="6" stroke-linecap="round"/>
</g>
<defs>
<clipPath id="clip0_5580_4562">
<rect width="90" height="100" fill="white"/>
</clipPath>
</defs>
</svg>
