<svg width="32" height="32" viewBox="0 0 32 32" fill="none" xmlns="http://www.w3.org/2000/svg">
<mask id="path-1-inside-1_4387_89549" fill="white">
<path fill-rule="evenodd" clip-rule="evenodd" d="M26.1137 28.9087C27.4551 27.9361 27.7901 26.035 26.862 24.6624L25.7226 22.9774C26.5178 21.8044 27.0944 20.5039 27.4407 19.1445L29.2641 18.9793C30.8905 18.8319 32.0942 17.3553 31.9528 15.6812L31.7711 13.5308C31.6296 11.8567 30.1966 10.619 28.5702 10.7664L26.7105 10.9348C26.4354 10.3353 26.1084 9.75144 25.7285 9.18955C25.2493 8.48086 24.7095 7.84217 24.1215 7.27571L24.8974 5.43237C25.5495 3.88301 24.8858 2.05126 23.415 1.34105L21.5258 0.428798C20.055 -0.281418 18.3341 0.398843 17.682 1.9482L16.7836 4.08268C15.5923 4.02291 14.3877 4.15246 13.2147 4.47949L11.9572 2.61981C11.0292 1.24728 9.18943 0.923075 7.84808 1.89567L6.18407 3.10222C4.84272 4.07482 4.5077 5.97592 5.43578 7.34845L6.70491 9.22536C5.94867 10.3532 5.39345 11.5973 5.04953 12.8972L2.73584 13.1068C1.10949 13.2542 -0.0942634 14.7308 0.0471809 16.4049L0.228864 18.5552C0.370308 20.2294 1.80339 21.4671 3.42974 21.3197L5.70375 21.1137C5.98844 21.7497 6.33108 22.3686 6.73295 22.963C7.15242 23.5833 7.61827 24.15 8.12225 24.6616L7.32001 26.5677C6.66791 28.1171 7.3316 29.9488 8.80239 30.659L10.6916 31.5713C12.1624 32.2815 13.8833 31.6012 14.5354 30.0519L15.3777 28.0508C16.6471 28.1485 17.9359 28.0312 19.1895 27.6888L20.3406 29.3911C21.2686 30.7636 23.1084 31.0878 24.4497 30.1152L26.1137 28.9087ZM15.8403 17.92C16.8124 17.92 17.6004 17.0604 17.6004 16C17.6004 14.9396 16.8124 14.08 15.8403 14.08C14.8683 14.08 14.0803 14.9396 14.0803 16C14.0803 17.0604 14.8683 17.92 15.8403 17.92Z"/>
</mask>
<path fill-rule="evenodd" clip-rule="evenodd" d="M26.1137 28.9087C27.4551 27.9361 27.7901 26.035 26.862 24.6624L25.7226 22.9774C26.5178 21.8044 27.0944 20.5039 27.4407 19.1445L29.2641 18.9793C30.8905 18.8319 32.0942 17.3553 31.9528 15.6812L31.7711 13.5308C31.6296 11.8567 30.1966 10.619 28.5702 10.7664L26.7105 10.9348C26.4354 10.3353 26.1084 9.75144 25.7285 9.18955C25.2493 8.48086 24.7095 7.84217 24.1215 7.27571L24.8974 5.43237C25.5495 3.88301 24.8858 2.05126 23.415 1.34105L21.5258 0.428798C20.055 -0.281418 18.3341 0.398843 17.682 1.9482L16.7836 4.08268C15.5923 4.02291 14.3877 4.15246 13.2147 4.47949L11.9572 2.61981C11.0292 1.24728 9.18943 0.923075 7.84808 1.89567L6.18407 3.10222C4.84272 4.07482 4.5077 5.97592 5.43578 7.34845L6.70491 9.22536C5.94867 10.3532 5.39345 11.5973 5.04953 12.8972L2.73584 13.1068C1.10949 13.2542 -0.0942634 14.7308 0.0471809 16.4049L0.228864 18.5552C0.370308 20.2294 1.80339 21.4671 3.42974 21.3197L5.70375 21.1137C5.98844 21.7497 6.33108 22.3686 6.73295 22.963C7.15242 23.5833 7.61827 24.15 8.12225 24.6616L7.32001 26.5677C6.66791 28.1171 7.3316 29.9488 8.80239 30.659L10.6916 31.5713C12.1624 32.2815 13.8833 31.6012 14.5354 30.0519L15.3777 28.0508C16.6471 28.1485 17.9359 28.0312 19.1895 27.6888L20.3406 29.3911C21.2686 30.7636 23.1084 31.0878 24.4497 30.1152L26.1137 28.9087ZM15.8403 17.92C16.8124 17.92 17.6004 17.0604 17.6004 16C17.6004 14.9396 16.8124 14.08 15.8403 14.08C14.8683 14.08 14.0803 14.9396 14.0803 16C14.0803 17.0604 14.8683 17.92 15.8403 17.92Z" fill="#B4B4B4"/>
<path d="M26.862 24.6624L25.2052 25.7827L25.2052 25.7827L26.862 24.6624ZM26.1137 28.9087L27.2877 30.5278L27.2878 30.5278L26.1137 28.9087ZM25.7226 22.9774L24.0672 21.8552L23.3074 22.976L24.0659 24.0977L25.7226 22.9774ZM27.4407 19.1445L27.2602 17.1526L25.8517 17.2802L25.5026 18.6508L27.4407 19.1445ZM29.2641 18.9793L29.4446 20.9711L29.4446 20.9711L29.2641 18.9793ZM31.9528 15.6812L29.9599 15.8496L29.9599 15.8496L31.9528 15.6812ZM31.7711 13.5308L33.764 13.3625L33.764 13.3625L31.7711 13.5308ZM28.5702 10.7664L28.3898 8.77453L28.3898 8.77453L28.5702 10.7664ZM26.7105 10.9348L24.8928 11.7691L25.4827 13.0543L26.891 12.9267L26.7105 10.9348ZM25.7285 9.18955L27.3853 8.06926L27.3853 8.06926L25.7285 9.18955ZM24.1215 7.27571L22.2782 6.49986L21.746 7.76426L22.7339 8.71604L24.1215 7.27571ZM24.8974 5.43237L26.7408 6.20822L26.7408 6.20822L24.8974 5.43237ZM23.415 1.34105L22.5453 3.14206L22.5453 3.14206L23.415 1.34105ZM21.5258 0.428798L22.3955 -1.37222L22.3955 -1.37222L21.5258 0.428798ZM17.682 1.9482L15.8386 1.17235L15.8386 1.17236L17.682 1.9482ZM16.7836 4.08268L16.6834 6.08017L18.0832 6.1504L18.627 4.85853L16.7836 4.08268ZM13.2147 4.47949L11.5579 5.59978L12.3646 6.79278L13.7518 6.40602L13.2147 4.47949ZM11.9572 2.61981L13.614 1.49953L13.614 1.49953L11.9572 2.61981ZM7.84808 1.89567L6.67405 0.27652L6.67405 0.27652L7.84808 1.89567ZM6.18407 3.10222L5.01004 1.48307L5.01004 1.48307L6.18407 3.10222ZM5.43578 7.34845L3.77899 8.46874L3.77899 8.46874L5.43578 7.34845ZM6.70491 9.22536L8.36604 10.3392L9.11604 9.22067L8.3617 8.10507L6.70491 9.22536ZM5.04953 12.8972L5.22998 14.8891L6.62479 14.7627L6.983 13.4088L5.04953 12.8972ZM2.73584 13.1068L2.55539 11.115L2.55539 11.115L2.73584 13.1068ZM0.0471809 16.4049L-1.94572 16.5732L-1.94572 16.5732L0.0471809 16.4049ZM0.228864 18.5552L2.22176 18.3869L2.22176 18.3869L0.228864 18.5552ZM3.42974 21.3197L3.61019 23.3116L3.61019 23.3116L3.42974 21.3197ZM5.70375 21.1137L7.52922 20.2966L6.94571 18.993L5.5233 19.1219L5.70375 21.1137ZM6.73295 22.963L5.07616 24.0833L6.73295 22.963ZM8.12225 24.6616L9.96564 25.4375L10.483 24.2081L9.547 23.258L8.12225 24.6616ZM7.32001 26.5677L5.47663 25.7918L5.47663 25.7918L7.32001 26.5677ZM8.80239 30.659L9.67207 28.858L9.67207 28.858L8.80239 30.659ZM10.6916 31.5713L9.8219 33.3723L9.8219 33.3723L10.6916 31.5713ZM14.5354 30.0519L16.3788 30.8277L16.3788 30.8277L14.5354 30.0519ZM15.3777 28.0508L15.5312 26.0567L14.0936 25.946L13.5343 27.2749L15.3777 28.0508ZM19.1895 27.6888L20.8463 26.5685L20.0441 25.3822L18.6626 25.7595L19.1895 27.6888ZM20.3406 29.3911L18.6838 30.5113L18.6838 30.5113L20.3406 29.3911ZM24.4497 30.1152L23.2757 28.496L23.2757 28.496L24.4497 30.1152ZM25.2052 25.7827C25.5289 26.2614 25.4075 26.9503 24.9397 27.2895L27.2878 30.5278C29.5027 28.9218 30.0513 25.8085 28.5188 23.5421L25.2052 25.7827ZM24.0659 24.0977L25.2052 25.7827L28.5188 23.5421L27.3794 21.8571L24.0659 24.0977ZM25.5026 18.6508C25.2119 19.7918 24.7291 20.8787 24.0672 21.8552L27.3781 24.0997C28.3065 22.7301 28.9769 21.216 29.3788 19.6381L25.5026 18.6508ZM29.0837 16.9874L27.2602 17.1526L27.6211 21.1363L29.4446 20.9711L29.0837 16.9874ZM29.9599 15.8496C30.0132 16.4811 29.5622 16.9441 29.0837 16.9874L29.4446 20.9711C32.2188 20.7198 34.1752 18.2296 33.9457 15.5128L29.9599 15.8496ZM29.7782 13.6992L29.9599 15.8496L33.9457 15.5128L33.764 13.3625L29.7782 13.6992ZM28.7507 12.7582C29.2188 12.7158 29.7256 13.0762 29.7782 13.6992L33.764 13.3625C33.5337 10.6372 31.1744 8.52226 28.3898 8.77453L28.7507 12.7582ZM26.891 12.9267L28.7507 12.7582L28.3898 8.77453L26.5301 8.943L26.891 12.9267ZM24.0717 10.3098C24.3897 10.7801 24.663 11.2682 24.8928 11.7691L28.5283 10.1006C28.2078 9.40242 27.8271 8.72277 27.3853 8.06926L24.0717 10.3098ZM22.7339 8.71604C23.2211 9.18541 23.6707 9.71682 24.0717 10.3098L27.3853 8.06926C26.8278 7.24491 26.1979 6.49892 25.5091 5.83538L22.7339 8.71604ZM23.054 4.65652L22.2782 6.49986L25.9649 8.05156L26.7408 6.20822L23.054 4.65652ZM22.5453 3.14206C23.0125 3.36766 23.3128 4.0417 23.054 4.65653L26.7408 6.20822C27.7862 3.72432 26.7591 0.734861 24.2847 -0.459974L22.5453 3.14206ZM20.6561 2.22982L22.5453 3.14206L24.2847 -0.459973L22.3955 -1.37222L20.6561 2.22982ZM19.5253 2.72405C19.7562 2.17556 20.2689 2.04282 20.6561 2.22982L22.3955 -1.37222C19.8412 -2.60565 16.9119 -1.37787 15.8386 1.17235L19.5253 2.72405ZM18.627 4.85853L19.5253 2.72405L15.8386 1.17236L14.9402 3.30683L18.627 4.85853ZM13.7518 6.40602C14.7149 6.13753 15.7041 6.03103 16.6834 6.08017L16.8838 2.08519C15.4805 2.01479 14.0606 2.16738 12.6776 2.55297L13.7518 6.40602ZM10.3004 3.7401L11.5579 5.59978L14.8715 3.35921L13.614 1.49953L10.3004 3.7401ZM9.02211 3.51483C9.44841 3.20572 10.0055 3.30389 10.3005 3.7401L13.614 1.49953C12.0528 -0.809323 8.93045 -1.35957 6.67405 0.27652L9.02211 3.51483ZM7.3581 4.72138L9.02211 3.51483L6.67405 0.27652L5.01004 1.48307L7.3581 4.72138ZM7.09257 6.22816C6.7689 5.7495 6.89031 5.06057 7.3581 4.72138L5.01004 1.48307C2.79514 3.08908 2.2465 6.20234 3.77899 8.46874L7.09257 6.22816ZM8.3617 8.10507L7.09257 6.22816L3.77899 8.46874L5.04812 10.3456L8.3617 8.10507ZM6.983 13.4088C7.27162 12.3179 7.73646 11.2781 8.36604 10.3392L5.04377 8.11153C4.16088 9.42824 3.51528 10.8767 3.11605 12.3857L6.983 13.4088ZM2.91629 15.0987L5.22998 14.8891L4.86907 10.9054L2.55539 11.115L2.91629 15.0987ZM2.04008 16.2365C1.98673 15.605 2.43779 15.142 2.91629 15.0987L2.55539 11.115C-0.218812 11.3663 -2.17526 13.8565 -1.94572 16.5732L2.04008 16.2365ZM2.22176 18.3869L2.04008 16.2365L-1.94572 16.5732L-1.76404 18.7236L2.22176 18.3869ZM3.24929 19.3279C2.78118 19.3703 2.2744 19.0099 2.22176 18.3869L-1.76404 18.7236C-1.53378 21.4489 0.825598 23.5638 3.61019 23.3116L3.24929 19.3279ZM5.5233 19.1219L3.24929 19.3279L3.61019 23.3116L5.8842 23.1056L5.5233 19.1219ZM8.38974 21.8427C8.0534 21.3453 7.76703 20.8279 7.52922 20.2966L3.87828 21.9308C4.20985 22.6716 4.60876 23.392 5.07616 24.0833L8.38974 21.8427ZM9.547 23.258C9.12898 22.8337 8.74078 22.3618 8.38974 21.8427L5.07616 24.0833C5.56405 24.8048 6.10755 25.4664 6.69751 26.0652L9.547 23.258ZM9.16339 27.3435L9.96564 25.4375L6.27887 23.8858L5.47663 25.7918L9.16339 27.3435ZM9.67207 28.858C9.20487 28.6324 8.90463 27.9584 9.16339 27.3435L5.47663 25.7918C4.4312 28.2757 5.45832 31.2652 7.93272 32.46L9.67207 28.858ZM11.5612 29.7702L9.67207 28.858L7.93272 32.46L9.8219 33.3723L11.5612 29.7702ZM12.692 29.276C12.4612 29.8245 11.9485 29.9572 11.5612 29.7702L9.8219 33.3723C12.3762 34.6057 15.3055 33.3779 16.3788 30.8277L12.692 29.276ZM13.5343 27.2749L12.692 29.276L16.3788 30.8277L17.221 28.8266L13.5343 27.2749ZM18.6626 25.7595C17.6335 26.0405 16.575 26.137 15.5312 26.0567L15.2241 30.0449C16.7192 30.16 18.2383 30.0218 19.7164 29.6182L18.6626 25.7595ZM21.9973 28.2708L20.8463 26.5685L17.5327 28.8091L18.6838 30.5113L21.9973 28.2708ZM23.2757 28.496C22.8494 28.8052 22.2923 28.707 21.9973 28.2708L18.6838 30.5113C20.245 32.8202 23.3673 33.3704 25.6237 31.7344L23.2757 28.496ZM24.9397 27.2895L23.2757 28.496L25.6237 31.7344L27.2877 30.5278L24.9397 27.2895ZM15.6004 16C15.6004 16.0329 15.5888 16.0299 15.6106 16.0061C15.6221 15.9936 15.6461 15.9722 15.6875 15.9531C15.7309 15.933 15.7846 15.92 15.8403 15.92V19.92C18.0771 19.92 19.6004 17.9976 19.6004 16H15.6004ZM15.8403 16.08C15.7846 16.08 15.7309 16.0669 15.6875 16.0469C15.6461 16.0278 15.6221 16.0064 15.6106 15.9938C15.5888 15.9701 15.6004 15.967 15.6004 16H19.6004C19.6004 14.0023 18.0771 12.08 15.8403 12.08V16.08ZM16.0803 16C16.0803 15.967 16.0918 15.9701 16.0701 15.9938C16.0586 16.0064 16.0345 16.0278 15.9932 16.0469C15.9497 16.0669 15.8961 16.08 15.8403 16.08V12.08C13.6035 12.08 12.0803 14.0023 12.0803 16H16.0803ZM15.8403 15.92C15.8961 15.92 15.9497 15.933 15.9932 15.9531C16.0345 15.9722 16.0586 15.9936 16.0701 16.0061C16.0918 16.0299 16.0803 16.0329 16.0803 16H12.0803C12.0803 17.9976 13.6035 19.92 15.8403 19.92V15.92Z" fill="black" mask="url(#path-1-inside-1_4387_89549)"/>
</svg>
