<svg width="46" height="29" viewBox="0 0 46 29" fill="none" xmlns="http://www.w3.org/2000/svg">
<path d="M0 2.5C0 1.11929 1.11929 0 2.5 0H43.5C44.8807 0 46 1.11929 46 2.5C46 3.88071 44.8807 5 43.5 5H2.5C1.11929 5 0 3.88071 0 2.5Z" fill="black"/>
<path d="M0 2.5C0 1.11929 1.11929 0 2.5 0H43.5C44.8807 0 46 1.11929 46 2.5C46 3.88071 44.8807 5 43.5 5H2.5C1.11929 5 0 3.88071 0 2.5Z" fill="black"/>
<path d="M0 14C0 12.6193 1.11929 11.5 2.5 11.5H43.5C44.8807 11.5 46 12.6193 46 14C46 15.3807 44.8807 16.5 43.5 16.5H2.5C1.11929 16.5 0 15.3807 0 14Z" fill="black"/>
<path d="M0 26C0 24.6193 1.11929 23.5 2.5 23.5H43.5C44.8807 23.5 46 24.6193 46 26C46 27.3807 44.8807 28.5 43.5 28.5H2.5C1.11929 28.5 0 27.3807 0 26Z" fill="black"/>
</svg>
