<svg width="100" height="100" viewBox="0 0 100 100" fill="none" xmlns="http://www.w3.org/2000/svg">
<mask id="path-1-inside-1_4404_8165" fill="white">
<path fill-rule="evenodd" clip-rule="evenodd" d="M68 80C71.866 80 75 76.866 75 73C75 69.134 71.866 66 68 66C64.134 66 61 69.134 61 73C61 76.866 64.134 80 68 80ZM68 76C69.6569 76 71 74.6569 71 73C71 71.3431 69.6569 70 68 70C66.3431 70 65 71.3431 65 73C65 74.6569 66.3431 76 68 76Z"/>
</mask>
<path fill-rule="evenodd" clip-rule="evenodd" d="M68 80C71.866 80 75 76.866 75 73C75 69.134 71.866 66 68 66C64.134 66 61 69.134 61 73C61 76.866 64.134 80 68 80ZM68 76C69.6569 76 71 74.6569 71 73C71 71.3431 69.6569 70 68 70C66.3431 70 65 71.3431 65 73C65 74.6569 66.3431 76 68 76Z" fill="black"/>
<path d="M74 73C74 76.3137 71.3137 79 68 79V81C72.4183 81 76 77.4183 76 73H74ZM68 67C71.3137 67 74 69.6863 74 73H76C76 68.5817 72.4183 65 68 65V67ZM62 73C62 69.6863 64.6863 67 68 67V65C63.5817 65 60 68.5817 60 73H62ZM68 79C64.6863 79 62 76.3137 62 73H60C60 77.4183 63.5817 81 68 81V79ZM70 73C70 74.1046 69.1046 75 68 75V77C70.2091 77 72 75.2091 72 73H70ZM68 71C69.1046 71 70 71.8954 70 73H72C72 70.7909 70.2091 69 68 69V71ZM66 73C66 71.8954 66.8954 71 68 71V69C65.7909 69 64 70.7909 64 73H66ZM68 75C66.8954 75 66 74.1046 66 73H64C64 75.2091 65.7909 77 68 77V75Z" fill="black" mask="url(#path-1-inside-1_4404_8165)"/>
<path fill-rule="evenodd" clip-rule="evenodd" d="M62 34H57C55.8955 34 55 34.8955 55 36V56C55 57.1045 54.1045 58 53 58H23C21.8955 58 21 57.1045 21 56V46C21 44.8955 20.1045 44 19 44H17C15.8955 44 15 44.8955 15 46V71C15 72.1045 15.8955 73 17 73H21H21.0615C21.0215 72.6716 21 72.3379 21 72C21 67.0295 25.4775 63 31 63C36.5225 63 41 67.0295 41 72C41 72.3379 40.9785 72.6716 40.9385 73H58.0615C58.0215 72.6716 58 72.3379 58 72C58 67.0295 62.4775 63 68 63C73.5225 63 78 67.0295 78 72C78 72.3379 77.9785 72.6716 77.9385 73H81H83C84.1045 73 85 72.1045 85 71V66C85 65.8123 84.9482 65.6367 84.8584 65.4866C84.793 65.3772 84.707 65.2815 84.6064 65.2046C84.4385 65.0762 84.2285 65 84 65C83.4473 65 83 64.5522 83 64V58V48.5874C83 48.2039 82.8896 47.8284 82.6826 47.5059L74.5908 34.9185C74.2227 34.3459 73.5889 34 72.9082 34H62ZM70.5996 40.8C70.4072 40.5427 70.1582 40.3394 69.877 40.2021C69.6074 40.0708 69.3076 40 69 40H64C62.8955 40 62 40.8955 62 42V46C62 47.1045 62.8955 48 64 48H72C73.6484 48 74.5889 46.1184 73.5996 44.8L70.5996 40.8Z" fill="black"/>
<mask id="path-4-inside-2_4404_8165" fill="white">
<path fill-rule="evenodd" clip-rule="evenodd" d="M31 80C34.866 80 38 76.866 38 73C38 69.134 34.866 66 31 66C27.134 66 24 69.134 24 73C24 76.866 27.134 80 31 80ZM31 76C32.6569 76 34 74.6569 34 73C34 71.3431 32.6569 70 31 70C29.3431 70 28 71.3431 28 73C28 74.6569 29.3431 76 31 76Z"/>
</mask>
<path fill-rule="evenodd" clip-rule="evenodd" d="M31 80C34.866 80 38 76.866 38 73C38 69.134 34.866 66 31 66C27.134 66 24 69.134 24 73C24 76.866 27.134 80 31 80ZM31 76C32.6569 76 34 74.6569 34 73C34 71.3431 32.6569 70 31 70C29.3431 70 28 71.3431 28 73C28 74.6569 29.3431 76 31 76Z" fill="black"/>
<path d="M37 73C37 76.3137 34.3137 79 31 79V81C35.4183 81 39 77.4183 39 73H37ZM31 67C34.3137 67 37 69.6863 37 73H39C39 68.5817 35.4183 65 31 65V67ZM25 73C25 69.6863 27.6863 67 31 67V65C26.5817 65 23 68.5817 23 73H25ZM31 79C27.6863 79 25 76.3137 25 73H23C23 77.4183 26.5817 81 31 81V79ZM33 73C33 74.1046 32.1046 75 31 75V77C33.2091 77 35 75.2091 35 73H33ZM31 71C32.1046 71 33 71.8954 33 73H35C35 70.7909 33.2091 69 31 69V71ZM29 73C29 71.8954 29.8954 71 31 71V69C28.7909 69 27 70.7909 27 73H29ZM31 75C29.8954 75 29 74.1046 29 73H27C27 75.2091 28.7909 77 31 77V75Z" fill="black" mask="url(#path-4-inside-2_4404_8165)"/>
<path d="M40.5 23V36.5H35.5V23C35.5 21.6193 36.6193 20.5 38 20.5C39.3807 20.5 40.5 21.6193 40.5 23Z" fill="black" stroke="black"/>
<path d="M37.2652 49.204C37.6612 49.6329 38.3388 49.6329 38.7348 49.204L48.4508 38.6783C49.0421 38.0377 48.5878 37 47.716 37H28.284C27.4122 37 26.9579 38.0377 27.5492 38.6783L37.2652 49.204Z" fill="black" stroke="black"/>
</svg>
