<svg width="40" height="40" viewBox="0 0 40 40" fill="none" xmlns="http://www.w3.org/2000/svg">
<path d="M23.1256 5.53679L35.792 30.6751C36.9649 33.0029 35.2729 35.75 32.6664 35.75H7.33353C4.72696 35.75 3.03499 33.0029 4.20788 30.6751L16.8743 5.53678C18.1676 2.97001 21.8323 2.97001 23.1256 5.53679Z" fill="#FC3939" stroke="black" stroke-width="3"/>
<mask id="path-2-inside-1_4136_2948" fill="white">
<path d="M20.9924 23.9783C20.8477 25.1479 19.1523 25.1479 19.0076 23.9783L17.5408 12.1228C17.467 11.5263 17.9323 11 18.5333 11H21.4667C22.0677 11 22.533 11.5263 22.4592 12.1228L20.9924 23.9783Z"/>
</mask>
<path d="M20.9924 23.9783C20.8477 25.1479 19.1523 25.1479 19.0076 23.9783L17.5408 12.1228C17.467 11.5263 17.9323 11 18.5333 11H21.4667C22.0677 11 22.533 11.5263 22.4592 12.1228L20.9924 23.9783Z" fill="#D9D9D9"/>
<path d="M22.4592 12.1228L29.4062 12.9823L22.4592 12.1228ZM17.5408 12.1228L10.5938 12.9823L17.5408 12.1228ZM19.0076 23.9783L25.9546 23.1188L25.9546 23.1188L19.0076 23.9783ZM25.9546 23.1188L24.4879 11.2633L10.5938 12.9823L12.0605 24.8377L25.9546 23.1188ZM18.5333 18H21.4667L21.4667 4H18.5333L18.5333 18ZM15.5121 11.2633L14.0454 23.1188L27.9395 24.8377L29.4062 12.9823L15.5121 11.2633ZM21.4667 18C17.8608 18 15.0694 14.842 15.5121 11.2633L29.4062 12.9823C29.9965 8.2107 26.2747 4 21.4667 4L21.4667 18ZM24.4879 11.2633C24.9306 14.842 22.1392 18 18.5333 18L18.5333 4C13.7253 4 10.0035 8.21071 10.5938 12.9823L24.4879 11.2633ZM12.0605 24.8377C13.2182 34.1948 26.7819 34.1946 27.9395 24.8377L14.0454 23.1188C14.9136 16.1012 25.0864 16.1009 25.9546 23.1188L12.0605 24.8377Z" fill="black" mask="url(#path-2-inside-1_4136_2948)"/>
<mask id="path-4-inside-2_4136_2948" fill="white">
<ellipse cx="20" cy="28.5" rx="2" ry="2.5"/>
</mask>
<ellipse cx="20" cy="28.5" rx="2" ry="2.5" fill="black"/>
<path d="M19 28.5C19 28.5569 18.9791 28.5093 19.0716 28.3937C19.1685 28.2725 19.4777 28 20 28V34C23.3515 34 25 30.8783 25 28.5H19ZM20 28C20.5223 28 20.8315 28.2725 20.9284 28.3937C21.0209 28.5093 21 28.5569 21 28.5H15C15 30.8783 16.6485 34 20 34V28ZM21 28.5C21 28.4431 21.0209 28.4907 20.9284 28.6063C20.8315 28.7275 20.5223 29 20 29V23C16.6485 23 15 26.1217 15 28.5H21ZM20 29C19.4777 29 19.1685 28.7275 19.0716 28.6063C18.9791 28.4907 19 28.4431 19 28.5H25C25 26.1217 23.3515 23 20 23V29Z" fill="black" mask="url(#path-4-inside-2_4136_2948)"/>
</svg>
