<svg width="181" height="181" viewBox="0 0 181 181" fill="none" xmlns="http://www.w3.org/2000/svg">
<mask id="path-1-inside-1_1709_28634" fill="white">
<path fill-rule="evenodd" clip-rule="evenodd" d="M95.5753 2.70253C92.669 0.408405 88.5681 0.4084 85.6618 2.70252L3.67721 67.418C-2.27911 72.1197 1.04553 81.6974 8.63391 81.6974H26.173V172.982C26.173 177.4 29.7547 180.982 34.173 180.982H147.064C151.483 180.982 155.064 177.4 155.064 172.982V81.6974H172.603C180.192 81.6974 183.516 72.1197 177.56 67.418L95.5753 2.70253Z"/>
</mask>
<path d="M85.6618 2.70252L90.6186 8.98193V8.98193L85.6618 2.70252ZM95.5753 2.70253L100.532 -3.57688L100.532 -3.57688L95.5753 2.70253ZM3.67721 67.418L-1.27951 61.1386H-1.27951L3.67721 67.418ZM26.173 81.6974H34.173V73.6974H26.173V81.6974ZM155.064 81.6974V73.6974H147.064V81.6974H155.064ZM177.56 67.418L182.517 61.1386H182.517L177.56 67.418ZM90.6186 8.98193V8.98194L100.532 -3.57688C94.7194 -8.16511 86.5177 -8.16514 80.7051 -3.57688L90.6186 8.98193ZM8.63393 73.6974L90.6186 8.98193L80.7051 -3.57688L-1.27951 61.1386L8.63393 73.6974ZM8.63391 73.6974C8.60726 73.6974 8.58682 73.6963 8.57217 73.6952C8.55752 73.694 8.54782 73.6926 8.54264 73.6918C8.53746 73.691 8.53594 73.6905 8.53764 73.6909C8.53933 73.6913 8.54342 73.6924 8.54953 73.6945C8.55562 73.6965 8.56299 73.6993 8.57131 73.7029C8.57961 73.7065 8.58825 73.7106 8.597 73.7152C8.61484 73.7247 8.63037 73.7348 8.64292 73.7443C8.66811 73.7633 8.67338 73.7735 8.66665 73.7641C8.66333 73.7595 8.65794 73.7512 8.65172 73.7391C8.64548 73.7271 8.63932 73.7129 8.63392 73.6974C8.62853 73.6818 8.62462 73.6669 8.62202 73.6536C8.61944 73.6403 8.61853 73.6304 8.61826 73.6247C8.61772 73.6132 8.6199 73.6244 8.61192 73.655C8.60795 73.6702 8.60204 73.6878 8.5939 73.7063C8.58991 73.7153 8.58568 73.7239 8.58138 73.7319C8.57707 73.7398 8.573 73.7466 8.56949 73.7519C8.56597 73.7573 8.56343 73.7607 8.56236 73.7621C8.56129 73.7635 8.5622 73.7622 8.56575 73.7583C8.56929 73.7544 8.57606 73.7474 8.58684 73.7374C8.59761 73.7274 8.61301 73.7139 8.63393 73.6974L-1.27951 61.1386C-13.1921 70.5419 -6.5429 89.6974 8.63391 89.6974V73.6974ZM26.173 73.6974H8.63391V89.6974H26.173V73.6974ZM34.173 172.982V81.6974H18.173V172.982H34.173ZM34.173 172.982H34.173H18.173C18.173 181.818 25.3365 188.982 34.173 188.982V172.982ZM147.064 172.982H34.173V188.982H147.064V172.982ZM147.064 172.982V188.982C155.901 188.982 163.064 181.818 163.064 172.982H147.064ZM147.064 81.6974V172.982H163.064V81.6974H147.064ZM172.603 73.6974H155.064V89.6974H172.603V73.6974ZM172.603 73.6974C172.624 73.7139 172.639 73.7274 172.65 73.7374C172.661 73.7474 172.668 73.7544 172.671 73.7583C172.675 73.7622 172.676 73.7635 172.675 73.7621C172.674 73.7607 172.671 73.7573 172.668 73.7519C172.664 73.7466 172.66 73.7398 172.656 73.7319C172.651 73.7239 172.647 73.7153 172.643 73.7063C172.635 73.6878 172.629 73.6702 172.625 73.655C172.617 73.6244 172.619 73.6132 172.619 73.6247C172.619 73.6304 172.618 73.6403 172.615 73.6536C172.612 73.6669 172.609 73.6818 172.603 73.6974C172.598 73.7129 172.592 73.7271 172.585 73.7391C172.579 73.7512 172.574 73.7595 172.57 73.7641C172.564 73.7735 172.569 73.7633 172.594 73.7443C172.607 73.7348 172.622 73.7247 172.64 73.7152C172.649 73.7106 172.657 73.7065 172.666 73.7029C172.674 73.6993 172.681 73.6965 172.688 73.6945C172.694 73.6924 172.698 73.6913 172.699 73.6909C172.701 73.6905 172.7 73.691 172.694 73.6918C172.689 73.6926 172.68 73.694 172.665 73.6952C172.65 73.6963 172.63 73.6974 172.603 73.6974V89.6974C187.78 89.6974 194.429 70.5419 182.517 61.1386L172.603 73.6974ZM90.6185 8.98194L172.603 73.6974L182.517 61.1386L100.532 -3.57688L90.6185 8.98194Z" fill="black" mask="url(#path-1-inside-1_1709_28634)"/>
<rect x="70" y="120" width="42" height="57" rx="4" stroke="black" stroke-width="8"/>
<path d="M29 80L84.0807 35.0174C86.9615 32.6648 91.0837 32.6079 94.0283 34.8801L152.5 80" stroke="black" stroke-width="8"/>
<path d="M101.75 146.486V151.014" stroke="black" stroke-width="8" stroke-linecap="round"/>
</svg>
