<svg width="72" height="65" viewBox="0 0 72 65" fill="none" xmlns="http://www.w3.org/2000/svg">
<path fill-rule="evenodd" clip-rule="evenodd" d="M12.8027 64.2978C10.0413 64.2978 7.80273 62.0592 7.80273 59.2978V30.4348C7.80273 28.7576 8.64361 27.1922 10.0419 26.2661L33.103 10.9934C34.7767 9.885 36.951 9.88501 38.6246 10.9934L61.6858 26.2662C63.0841 27.1922 63.925 28.7577 63.925 30.4348V59.2978C63.925 62.0593 61.6864 64.2978 58.925 64.2978H48.1597C45.3983 64.2978 43.1597 62.0593 43.1597 59.2978V46.7159C43.1597 43.9545 40.9212 41.7159 38.1597 41.7159H33.568C30.8065 41.7159 28.568 43.9545 28.568 46.7159V59.2978C28.568 62.0593 26.3294 64.2978 23.568 64.2978H12.8027ZM15.0476 61.92C12.2862 61.92 10.0476 59.6814 10.0476 56.92V31.8873C10.0476 30.2101 10.8885 28.6447 12.2868 27.7186L33.1031 13.9326C34.7767 12.8242 36.951 12.8242 38.6247 13.9326L59.4409 27.7186C60.8392 28.6447 61.6801 30.2101 61.6801 31.8873V56.92C61.6801 59.6814 59.4415 61.92 56.6801 61.92H50.4047C47.6432 61.92 45.4047 59.6814 45.4047 56.92V44.4711C45.4047 41.7096 43.1661 39.4711 40.4047 39.4711H31.3231C28.5617 39.4711 26.3231 41.7096 26.3231 44.4711V56.92C26.3231 59.6814 24.0845 61.92 21.3231 61.92H15.0476Z" fill="black"/>
<path fill-rule="evenodd" clip-rule="evenodd" d="M0.501802 25.8966C-0.417656 24.5165 -0.03797 22.6599 1.34947 21.7515L33.8226 0.492243C34.3727 0.132072 34.9985 -0.0247798 35.6104 0.00316044C35.7824 0.0110123 35.955 0.0113368 36.127 0.00413534C36.7349 -0.0213202 37.356 0.135645 37.9025 0.493219L70.3816 21.7424C71.7694 22.6503 72.1496 24.5069 71.2305 25.8872L68.595 29.8453C67.6767 31.2244 65.8092 31.6056 64.4239 30.6967L36.9619 12.6794C36.2956 12.2423 35.4334 12.2424 34.7672 12.6797L7.30971 30.7044C5.92463 31.6136 4.05709 31.2329 3.13844 29.8541L0.501802 25.8966ZM3.65975 26.5196C2.74443 25.1457 3.12192 23.2975 4.50266 22.3926L33.948 3.09479C34.6664 2.62397 35.5147 2.50309 36.2907 2.68983C36.4928 2.73847 36.6979 2.77666 36.9039 2.80437C37.3325 2.862 37.755 3.01369 38.1402 3.26594L66.9714 22.1489C68.3525 23.0534 68.7305 24.9015 67.8155 26.2756C66.9011 27.649 65.0414 28.0286 63.6619 27.1235L37.0122 9.63919C36.346 9.20205 35.4837 9.20217 34.8176 9.63948L7.81367 27.3664C6.43435 28.2718 4.57457 27.8927 3.65975 26.5196Z" fill="black"/>
</svg>
