<svg width="60" height="56" viewBox="0 0 60 56" fill="none" xmlns="http://www.w3.org/2000/svg">
<path fill-rule="evenodd" clip-rule="evenodd" d="M17 13.5C17 12.6716 16.3284 12 15.5 12H9.28897C8.18686 12 7.17349 12.6043 6.6496 13.5739L0.240416 25.436C0.0826224 25.728 0 26.0548 0 26.3867V53C0 54.6569 1.34315 56 3 56H57C58.6569 56 60 54.6568 60 53V26.3867C60 26.0548 59.9174 25.728 59.7596 25.436L53.3504 13.5739C52.8265 12.6043 51.8131 12 50.711 12H44.5C43.6716 12 43 12.6716 43 13.5C43 14.3284 43.6716 15 44.5 15H48.5711C49.6143 15 50.5825 15.5419 51.1281 16.431L55.0578 22.8349C55.8755 24.1675 54.9166 25.881 53.3531 25.881L47.9835 25.8809C47.9834 25.8809 47.9834 25.881 47.9834 25.881C47.9834 25.881 47.9834 25.881 47.9834 25.881H46.95C46.3379 25.881 45.8192 26.3314 45.7334 26.9373L44.5314 35.4208C44.3218 36.9003 43.0553 38 41.5611 38H18.4376C16.9433 38 15.6769 36.9003 15.4673 35.4207L14.264 26.9257C14.1791 26.3264 13.6661 25.881 13.0609 25.881H12.0168C12.0168 25.881 12.0167 25.881 12.0167 25.881C12.0167 25.881 12.0167 25.8809 12.0167 25.8809L6.64686 25.881C5.08335 25.881 4.12447 24.1675 4.94221 22.8349L8.87192 16.431C9.41749 15.5419 10.3857 15 11.4289 15H15.5C16.3284 15 17 14.3284 17 13.5ZM50.8761 29C49.8673 29 49.0165 29.7513 48.8915 30.7523L47.9478 38.3122C47.7604 39.8137 46.4841 40.9406 44.9709 40.9406H15.027C13.5138 40.9406 12.2375 39.8137 12.0501 38.3121L11.1067 30.7524C10.9818 29.7513 10.1309 29 9.1221 29H5C3.89543 29 3 29.8955 3 31V50C3 51.6569 4.34315 53 6 53H54C55.6569 53 57 51.6569 57 50V31C57 29.8955 56.1046 29 55 29H50.8761Z" fill="black"/>
<path fill-rule="evenodd" clip-rule="evenodd" d="M27.8725 0C26.768 0 25.8725 0.895431 25.8725 2V17.4199C25.8725 17.4275 25.8664 17.4338 25.8587 17.4338H21.004C19.16 17.4338 18.2984 19.7172 19.6829 20.9353L28.6791 28.8503C29.4345 29.5148 30.5659 29.5148 31.3213 28.8503L40.3175 20.9353C41.702 19.7172 40.8405 17.4338 38.9964 17.4338H34.1408C34.1332 17.4338 34.127 17.4275 34.127 17.4199V2C34.127 0.895431 33.2316 0 32.127 0H27.8725Z" fill="black"/>
</svg>
