<svg width="162" height="200" viewBox="0 0 162 200" fill="none" xmlns="http://www.w3.org/2000/svg">
<circle cx="80.5" cy="42.5" r="38.5" stroke="black" stroke-width="8"/>
<path d="M41.0693 143C41.0693 140.791 39.2785 139 37.0693 139C34.8602 139 33.0693 140.791 33.0693 143H41.0693ZM33.0693 143V200H41.0693V143H33.0693Z" fill="black"/>
<path d="M97.0791 96.8188C97.5971 95.1429 99.1466 94 100.901 94H120.552C122.846 94 124.671 95.9265 124.546 98.2179L119.419 192.218C119.303 194.339 117.549 196 115.424 196H71.8462C69.1528 196 67.2292 193.392 68.0245 190.819L97.0791 96.8188Z" stroke="black" stroke-width="8"/>
<path fill-rule="evenodd" clip-rule="evenodd" d="M92.5309 97.9882L40.1298 97.9214C22.4567 97.8989 8.11159 112.208 8.08907 129.881L7.99999 199.781L0 199.771L0.0890738 129.87C0.117225 107.779 18.0486 89.8933 40.14 89.9214L101.806 90H100.901C97.3924 90 94.2935 92.2857 93.2575 95.6375L92.5309 97.9882ZM73.6728 159H65.0697C56.2332 159 49.0697 166.163 49.0697 175V184C49.0697 192.836 56.2332 200 65.0697 200H71.7945C67.2293 199.972 63.7828 196.195 63.8414 191.906C60.0063 191.315 57.0697 188 57.0697 184V175C57.0697 170.582 60.6515 167 65.0697 167H71.2001L73.6728 159ZM124.8 167L125.236 159H125.631C127.84 159 129.631 160.791 129.631 163C129.631 165.209 127.84 167 125.631 167H124.8ZM123.436 192H145.07C149.488 192 153.07 188.418 153.07 184V180.598C153.04 180.401 153.025 180.2 153.025 179.995L153.089 130.065C153.108 114.935 142.623 102.243 128.515 98.8907L128.54 98.4357C128.778 94.0663 125.472 90.3602 121.186 90.0247C143.256 90.0778 161.117 108 161.089 130.076L161.033 173.908C161.057 174.269 161.07 174.633 161.07 175V184C161.07 192.836 153.906 200 145.07 200H115.476C119.702 199.973 123.182 196.661 123.413 192.436L123.436 192Z" fill="black"/>
</svg>
