<svg width="40" height="57" viewBox="0 0 40 57" fill="none" xmlns="http://www.w3.org/2000/svg">
<path d="M31.0093 12.1719C31.0093 18.0562 26.2039 22.8438 20.2546 22.8438C14.3054 22.8438 9.5 18.0562 9.5 12.1719C9.5 6.28753 14.3054 1.5 20.2546 1.5C26.2039 1.5 31.0093 6.28753 31.0093 12.1719Z" stroke="black" stroke-width="3"/>
<path fill-rule="evenodd" clip-rule="evenodd" d="M32 44.6001H18.2C14.7758 44.6001 12 47.3759 12 50.8001C12 54.2243 14.7758 57.0001 18.2 57.0001H38C39.1046 57.0001 40 56.1047 40 55.0001V49.0001C40 50.1047 39.1046 51.0001 38 51.0001H37V54.0001H18.2C16.4327 54.0001 15 52.5674 15 50.8001C15 49.0328 16.4327 47.6001 18.2 47.6001H32V44.6001Z" fill="black"/>
<path d="M24.531 27.8637C24.592 27.6485 24.7884 27.5 25.0121 27.5H29.8975C30.1835 27.5 30.4112 27.7394 30.3969 28.025L29.0969 54.025C29.0836 54.2911 28.8639 54.5 28.5975 54.5H17.6454C17.3137 54.5 17.0739 54.1829 17.1643 53.8637L24.531 27.8637Z" fill="#D9D9D9" stroke="black" stroke-width="3"/>
<path fill-rule="evenodd" clip-rule="evenodd" d="M10 29H30C33.866 29 37 32.134 37 36V55.5C37 56.3284 37.6716 57 38.5 57C39.3284 57 40 56.3284 40 55.5V36C40 30.4772 35.5228 26 30 26H10C4.47715 26 0 30.4772 0 36V55.5C0 56.3284 0.671573 57 1.5 57C2.32843 57 3 56.3284 3 55.5V36C3 32.134 6.13401 29 10 29Z" fill="black"/>
<path fill-rule="evenodd" clip-rule="evenodd" d="M0 56.9999V40.8799H3V56.9999H0ZM11 56.9999V40.8799H8V56.9999H11Z" fill="black"/>
</svg>
