<svg width="182" height="182" viewBox="0 0 182 182" fill="none" xmlns="http://www.w3.org/2000/svg">
<path d="M63.8747 167.484L63.6892 137.256M63.8747 167.484L40.1109 137.256M63.8747 167.484L53.7067 165.379C52.6372 165.158 51.5337 165.158 50.4643 165.379L40.2963 167.484M63.8747 167.484L83.9865 175.767C84.0177 175.78 84.0479 175.795 84.077 175.812V175.812C84.6971 176.179 84.4373 177.129 83.717 177.129H20.9956C20.2953 177.129 20.0137 176.226 20.59 175.828V175.828C20.6301 175.8 20.6729 175.777 20.7177 175.758L40.2963 167.484M40.2963 167.484L40.1109 137.256M40.1109 49.7229H63.6892M40.1109 49.7229H38.2417C34.7466 49.7229 32.3019 46.2665 33.4661 42.971V42.971M40.1109 49.7229V78.9006M40.1109 49.7229L63.6892 78.9006M63.6892 49.7229H66.0149C69.5045 49.7229 71.9224 46.2407 70.7031 42.971V42.971M63.6892 49.7229V78.9006M40.1109 108.078H63.6892M40.1109 108.078V78.9006M40.1109 108.078V137.256M40.1109 108.078L63.6892 137.256M63.6892 108.078V78.9006M63.6892 108.078V137.256M63.6892 108.078L40.1109 78.9006M40.1109 78.9006H63.6892M40.1109 137.256H63.6892M37.896 30.4318L38.2261 29.4974C39.3556 26.3 42.3782 24.1622 45.7692 24.1622H51.9001M37.896 30.4318H4.99414M37.896 30.4318L33.4661 42.971M4.99414 30.4318V34.971C4.99414 39.3893 8.57586 42.971 12.9941 42.971H17.2711M4.99414 30.4318L51.9001 4.87109M33.4661 42.971H17.2711M70.7031 42.971L66.0272 30.4318M70.7031 42.971H150.478M164.984 30.4318L165.389 31.1866C168.251 36.5161 164.39 42.971 158.341 42.971H150.478M164.984 30.4318H66.0272M164.984 30.4318L51.9001 4.87109M66.0272 30.4318L65.6301 29.367C64.4631 26.2373 61.4745 24.1622 58.1343 24.1622H51.9001M51.9001 24.1622V4.87109M17.2711 42.971V60.333M17.2711 60.333H8.21502C7.3982 60.333 6.73604 60.9951 6.73604 61.812V61.812V72.8173V72.8173C6.73604 73.6467 7.40837 74.319 8.23773 74.319H24.7994C25.6287 74.319 26.3011 73.6467 26.3011 72.8173V72.8173V61.812V61.812C26.3011 60.9951 25.6389 60.333 24.8221 60.333H17.2711ZM150.478 42.971V57M100.813 84.2766H126.398M100.813 84.2766V99.8868M100.813 84.2766V72.1488V78.9006M126.398 84.2766V99.8868M126.398 84.2766V72.1488V99.8868M126.398 116.157V99.8868M126.398 99.8868H100.813M126.398 99.8868H148.999C153.418 99.8868 156.999 96.3051 156.999 91.8868V89.3122V123.752M100.813 99.8868V116.157M156.999 123.752H141.232C139.135 123.752 137.434 122.052 137.434 119.954V119.954C137.434 117.857 135.734 116.157 133.636 116.157H100.813M156.999 123.752H169.066C173.484 123.752 177.066 127.334 177.066 131.752V173.604V173.604C177.066 175.551 175.488 177.129 173.541 177.129H145.963M100.813 116.157V169.129C100.813 173.547 104.394 177.129 108.813 177.129H132.418M132.418 177.129V163.256C132.418 159.516 135.45 156.483 139.19 156.483V156.483C142.931 156.483 145.963 159.516 145.963 163.256V177.129M132.418 177.129H145.963M125.896 144.81V144.81C125.896 146.502 124.524 147.873 122.832 147.873H117.422C115.729 147.873 114.358 146.502 114.358 144.81V144.81V139.731V139.731C114.358 138.364 115.466 137.256 116.833 137.256H123.421C124.788 137.256 125.896 138.364 125.896 139.731V139.731V144.81ZM161.931 147.873H156.498C154.812 147.873 153.445 146.502 153.445 144.81V139.731C153.445 138.364 154.549 137.256 155.911 137.256H162.518C163.88 137.256 164.984 138.364 164.984 139.731V144.81C164.984 146.502 163.617 147.873 161.931 147.873Z" stroke="black" stroke-width="8"/>
<path fill-rule="evenodd" clip-rule="evenodd" d="M153.081 63.6864C155.048 61.8743 154.67 58.6506 152.007 58.3884C145.729 57.7701 140.147 62.3714 139.538 68.6657C138.93 74.9599 143.526 80.5636 149.804 81.1819C156.082 81.8002 161.665 77.1989 162.273 70.9047C162.279 70.8454 162.284 70.7862 162.289 70.7271C162.573 67.2408 158.379 66.4085 155.808 68.7777C154.841 69.6687 154.368 71.0032 153.522 72.0105C152.818 72.8502 151.729 73.3328 150.574 73.2191C148.711 73.0356 147.315 71.3642 147.5 69.4497C147.592 68.4952 148.058 67.6766 148.734 67.1185C149.515 66.4729 150.494 66.0704 151.239 65.3836L153.081 63.6864Z" fill="black"/>
<path d="M150.478 53.2476V61.3044" stroke="black" stroke-width="8" stroke-linecap="round"/>
<path d="M157 90V98.0569" stroke="black" stroke-width="8" stroke-linecap="round"/>
<path d="M51.5908 4.87109V12.928" stroke="black" stroke-width="8" stroke-linecap="round"/>
<path d="M13.0908 28.7954H4.90187" stroke="black" stroke-width="8" stroke-linecap="round"/>
<path d="M126.486 71.8604V79.9172" stroke="black" stroke-width="8" stroke-linecap="round"/>
<path d="M101 73V81.0569" stroke="black" stroke-width="8" stroke-linecap="round"/>
</svg>
