<svg width="90" height="90" viewBox="0 0 90 90" fill="none" xmlns="http://www.w3.org/2000/svg">
<g clip-path="url(#clip0_5615_70185)">
<rect x="21" y="22" width="12" height="65" rx="3" stroke="black" stroke-width="6"/>
<path d="M4 22H86C86.5523 22 87 22.4477 87 23C87 23.5523 86.5523 24 86 24H4C3.44772 24 3 23.5523 3 23C3 22.4477 3.44772 22 4 22Z" fill="black" stroke="black" stroke-width="6"/>
<path d="M27 3L5 23" stroke="black" stroke-width="6" stroke-linecap="round"/>
<path d="M27 3L73 23" stroke="black" stroke-width="6" stroke-linecap="round"/>
<path d="M14 87H40" stroke="black" stroke-width="6" stroke-linecap="round"/>
<path d="M21 67L32 78" stroke="black" stroke-width="6" stroke-linecap="round"/>
<path d="M22 33L33 44" stroke="black" stroke-width="6" stroke-linecap="round"/>
<path d="M33 49L22 60" stroke="black" stroke-width="6" stroke-linecap="round"/>
<path d="M81 23V35" stroke="black" stroke-width="6" stroke-linecap="round"/>
<path d="M82.3604 34.0088V34.0088C84.1636 34.1003 84.4544 36.2782 83.1548 37.5316L80.6977 39.9012C80.0183 40.5565 80.0184 41.6447 80.6978 42.2998V42.2998C81.3433 42.9222 82.3656 42.922 83.0109 42.2996L85.358 40.0355C86.7231 38.7187 89 39.1033 89 41V41L88.9902 41.3604C88.8026 45.0588 85.7449 47.9999 82 48L81.6396 47.9912C78.0605 47.8098 75.1903 44.9396 75.0088 41.3604L75 41C75.0001 37.134 78.1342 34 82 34L82.3604 34.0088Z" fill="black"/>
<path d="M53 41V87" stroke="black" stroke-width="6" stroke-linecap="round"/>
<path d="M67 48V64" stroke="black" stroke-width="6" stroke-linecap="round"/>
<path d="M7 23L7 33" stroke="black" stroke-width="6" stroke-linecap="round"/>
<path d="M87 58V87" stroke="black" stroke-width="6" stroke-linecap="round"/>
<path d="M65 87H53" stroke="black" stroke-width="6" stroke-linecap="round"/>
<path d="M87 87H77" stroke="black" stroke-width="6" stroke-linecap="round"/>
<path d="M87 65H53" stroke="black" stroke-width="6" stroke-linecap="square"/>
<path d="M65 55H55" stroke="black" stroke-width="6" stroke-linecap="square"/>
<path d="M73.3086 74.0078C76.4789 74.1684 79 76.7898 79 80V87C79 88.6569 77.6569 90 76 90V90C74.3431 90 73 88.6569 73 87V82.5C73 81.1193 71.8807 80 70.5 80V80C69.1193 80 68 81.1193 68 82.5V87C68 88.6569 66.6569 90 65 90V90C63.3431 90 62 88.6569 62 87V80C62 76.7898 64.5211 74.1684 67.6914 74.0078L68 74H73L73.3086 74.0078Z" fill="black"/>
<mask id="path-20-inside-1_5615_70185" fill="white">
<rect y="31" width="14" height="14" rx="4"/>
</mask>
<rect y="31" width="14" height="14" rx="4" stroke="black" stroke-width="12" mask="url(#path-20-inside-1_5615_70185)"/>
<path d="M33.708 22.25H20.292L27 6.61035L33.708 22.25Z" stroke="black" stroke-width="6"/>
</g>
<defs>
<clipPath id="clip0_5615_70185">
<rect width="90" height="90" fill="white"/>
</clipPath>
</defs>
</svg>
