<svg width="160" height="200" viewBox="0 0 160 200" fill="none" xmlns="http://www.w3.org/2000/svg">
<mask id="path-1-inside-1_1705_28228" fill="white">
<path fill-rule="evenodd" clip-rule="evenodd" d="M29.1826 180V192C29.1826 196.418 32.7643 200 37.1826 200H152C156.419 200 160 196.418 160 192V28C160 23.5817 156.419 20 152 20H135.849V28H152L152 192H37.1826V180H29.1826Z"/>
</mask>
<path fill-rule="evenodd" clip-rule="evenodd" d="M29.1826 180V192C29.1826 196.418 32.7643 200 37.1826 200H152C156.419 200 160 196.418 160 192V28C160 23.5817 156.419 20 152 20H135.849V28H152L152 192H37.1826V180H29.1826Z" fill="#D9D9D9"/>
<path d="M42.5768 20V28H50.5768V20H42.5768ZM37.1826 41H29.1826V49H37.1826V41ZM29.1826 180V172H21.1826V180H29.1826ZM135.849 20V12H127.849V20H135.849ZM135.849 28H127.849V36H135.849V28ZM152 28L160 28V20H152V28ZM152 192V200H160V192H152ZM37.1826 192H29.1826V200H37.1826V192ZM37.1826 180H45.1826V172H37.1826V180ZM21.1826 180V192H37.1826V180H21.1826ZM21.1826 192C21.1826 200.837 28.3461 208 37.1826 208V192H37.1826H21.1826ZM37.1826 208H152V192H37.1826V208ZM152 208C160.837 208 168 200.837 168 192H152V208ZM168 192V28H152V192H168ZM168 28C168 19.1634 160.837 12 152 12V28H152H168ZM152 12H135.849V28H152V12ZM127.849 20V28H143.849V20H127.849ZM152 20H135.849V36H152V20ZM160 192L160 28L144 28L144 192H160ZM37.1826 200H152V184H37.1826V200ZM29.1826 180V192H45.1826V180H29.1826ZM37.1826 172H29.1826V188H37.1826V172Z" fill="black" mask="url(#path-1-inside-1_1705_28228)"/>
<path d="M27.1699 110H76.4884" stroke="black" stroke-width="8" stroke-linecap="round"/>
<path d="M27.1699 74H76.4884" stroke="black" stroke-width="8" stroke-linecap="round"/>
<path d="M102.3 66L112.932 43.3423" stroke="black" stroke-width="8" stroke-linecap="round"/>
<path d="M93.585 59L101.294 65.4279" stroke="black" stroke-width="8" stroke-linecap="round"/>
<path d="M102.3 108.658L112.932 86" stroke="black" stroke-width="8" stroke-linecap="round"/>
<path d="M93.585 102L101.294 108.428" stroke="black" stroke-width="8" stroke-linecap="round"/>
<path d="M102.3 151.315L112.932 128.658" stroke="black" stroke-width="8" stroke-linecap="round"/>
<path d="M94.5908 145L102.299 151.428" stroke="black" stroke-width="8" stroke-linecap="round"/>
<path d="M27.1699 147H76.4884" stroke="black" stroke-width="8" stroke-linecap="round"/>
<path d="M26.0677 25.3767L48.1935 4H127.849C130.058 4 131.849 5.79086 131.849 8V172C131.849 174.209 130.058 176 127.849 176H8C5.79086 176 4 174.209 4 172V46.6973L26.0677 25.3767Z" stroke="black" stroke-width="8"/>
</svg>
