<svg width="48" height="60" viewBox="0 0 48 60" fill="none" xmlns="http://www.w3.org/2000/svg">
<mask id="path-1-inside-1_5173_37823" fill="white">
<path fill-rule="evenodd" clip-rule="evenodd" d="M8.75488 54V56C8.75488 58.2091 10.5457 60 12.7549 60H44.0002C46.2093 60 48.0002 58.2091 48.0002 56V10C48.0002 7.79086 46.2093 6 44.0002 6H40.7548V50C40.7548 52.2091 38.964 54 36.7548 54H8.75488Z"/>
</mask>
<path fill-rule="evenodd" clip-rule="evenodd" d="M8.75488 54V56C8.75488 58.2091 10.5457 60 12.7549 60H44.0002C46.2093 60 48.0002 58.2091 48.0002 56V10C48.0002 7.79086 46.2093 6 44.0002 6H40.7548V50C40.7548 52.2091 38.964 54 36.7548 54H8.75488Z" fill="#D9D9D9"/>
<path d="M12.9731 6V9.5H14.9731V6H12.9731ZM9.97314 12.5H8.75488V14.5H9.97314V12.5ZM12.9731 9.5C12.9731 11.1569 11.63 12.5 9.97314 12.5V14.5C12.7346 14.5 14.9731 12.2614 14.9731 9.5H12.9731ZM8.75488 54V52H6.75488V54H8.75488ZM40.7548 6V4H38.7548V6H40.7548ZM10.7549 56V54H6.75488V56H10.7549ZM12.7549 58C11.6503 58 10.7549 57.1046 10.7549 56H6.75488C6.75488 59.3137 9.44118 62 12.7549 62V58ZM44.0002 58H12.7549V62H44.0002V58ZM46.0002 56C46.0002 57.1046 45.1047 58 44.0002 58V62C47.3139 62 50.0002 59.3137 50.0002 56H46.0002ZM46.0002 10V56H50.0002V10H46.0002ZM44.0002 8C45.1047 8 46.0002 8.89543 46.0002 10H50.0002C50.0002 6.68629 47.3139 4 44.0002 4V8ZM40.7548 8H44.0002V4H40.7548V8ZM38.7548 6V50H42.7548V6H38.7548ZM38.7548 50C38.7548 51.1046 37.8594 52 36.7548 52V56C40.0685 56 42.7548 53.3137 42.7548 50H38.7548ZM36.7548 52H8.75488V56H36.7548V52Z" fill="black" mask="url(#path-1-inside-1_5173_37823)"/>
<path d="M8.15088 33H22.9464" stroke="black" stroke-width="2" stroke-linecap="round"/>
<path d="M8.15088 22.2H22.9464" stroke="black" stroke-width="2" stroke-linecap="round"/>
<path d="M30.6899 19.8L33.8795 13.0027" stroke="black" stroke-width="2" stroke-linecap="round"/>
<path d="M28.0754 17.7L30.388 19.6283" stroke="black" stroke-width="2" stroke-linecap="round"/>
<path d="M30.6899 32.5974L33.8795 25.8001" stroke="black" stroke-width="2" stroke-linecap="round"/>
<path d="M28.0754 30.6001L30.388 32.5285" stroke="black" stroke-width="2" stroke-linecap="round"/>
<path d="M30.6899 45.3945L33.8795 38.5972" stroke="black" stroke-width="2" stroke-linecap="round"/>
<path d="M28.3774 43.5L30.69 45.4284" stroke="black" stroke-width="2" stroke-linecap="round"/>
<path d="M8.15088 44.1001H22.9464" stroke="black" stroke-width="2" stroke-linecap="round"/>
<path d="M17.1063 3.14282H38.888C40.5449 3.14282 41.888 4.48597 41.888 6.14282V52.1428C41.888 53.7997 40.5449 55.1428 38.888 55.1428H6.1333C4.47644 55.1428 3.1333 53.7997 3.1333 52.1428V16.6428H12.1063C14.8678 16.6428 17.1063 14.4042 17.1063 11.6428V3.14282ZM15.1063 4.49945V11.6428C15.1063 13.2997 13.7632 14.6428 12.1063 14.6428H4.60755L9.81465 9.612L15.1063 4.49945Z" stroke="black" stroke-width="2"/>
</svg>
