<svg width="90" height="90" viewBox="0 0 90 90" fill="none" xmlns="http://www.w3.org/2000/svg">
<path fill-rule="evenodd" clip-rule="evenodd" d="M58.5529 33.0912C58.5529 46.9066 47.2784 58.1823 33.2765 58.1823C19.2745 58.1823 8 46.9066 8 33.0912C8 19.2758 19.2745 8 33.2765 8C47.2784 8 58.5529 19.2758 58.5529 33.0912ZM53.5159 59.36C47.9082 63.639 40.891 66.1823 33.2765 66.1823C14.8984 66.1823 0 51.3669 0 33.0912C0 14.8154 14.8984 0 33.2765 0C51.6545 0 66.5529 14.8154 66.5529 33.0912C66.5529 40.9197 63.8192 48.1133 59.2493 53.7795L88.8028 83.1684C90.3693 84.7262 90.3693 87.2517 88.8028 88.8095C87.2364 90.3672 84.6966 90.3672 83.1302 88.8095L53.5159 59.36Z" fill="black"/>
</svg>
