<svg width="103" height="97" viewBox="0 0 103 97" fill="none" xmlns="http://www.w3.org/2000/svg">
<mask id="path-1-inside-1_3883_48832" fill="white">
<path fill-rule="evenodd" clip-rule="evenodd" d="M3.0999 49.0012C2.99815 49.6376 2.97221 50.2966 3.03092 50.9678L3.72115 58.8571C4.10623 63.2586 7.98648 66.5145 12.3879 66.1294L20.0975 65.4549C20.9529 67.3003 21.9823 69.0961 23.1898 70.8204C24.4497 72.6198 25.8489 74.2636 27.3626 75.7476L24.6006 82.0847C22.8353 86.135 24.6504 90.9322 28.6547 92.7994L35.8322 96.1463C39.8365 98.0136 44.5137 96.2438 46.279 92.1935L49.1607 85.5818C52.9755 85.8657 56.8487 85.5252 60.6162 84.5315L64.5349 90.1279C67.0691 93.7471 72.0575 94.6267 75.6767 92.0925L82.1639 87.5501C85.7832 85.0159 86.6628 80.0275 84.1285 76.4082L80.2445 70.8612C82.6333 67.4581 84.3654 63.6852 85.4057 59.7412L91.7626 59.1851C96.1641 58.8 99.42 54.9197 99.0349 50.5183L98.9022 49.0012H62.3639C62.9601 52.9967 61.3253 57.1725 57.7913 59.647C52.8135 63.1325 45.9527 61.9227 42.4672 56.9449C40.7826 54.539 40.1948 51.6932 40.5991 49.0012H3.0999Z"/>
</mask>
<path d="M3.0999 49.0012V44.0012H-1.16414L-1.83738 48.2118L3.0999 49.0012ZM3.03092 50.9678L-1.95005 51.4036L-1.95005 51.4036L3.03092 50.9678ZM3.72115 58.8571L-1.25982 59.2929L-1.25982 59.2929L3.72115 58.8571ZM12.3879 66.1294L11.9522 61.1485L11.9522 61.1485L12.3879 66.1294ZM20.0975 65.4549L24.6339 63.3523L23.158 60.1681L19.6617 60.474L20.0975 65.4549ZM23.1898 70.8204L27.2855 67.9526L27.2855 67.9526L23.1898 70.8204ZM27.3626 75.7476L31.9462 77.7453L33.3222 74.5881L30.8629 72.1771L27.3626 75.7476ZM24.6006 82.0847L20.017 80.087L20.017 80.087L24.6006 82.0847ZM28.6547 92.7994L26.5417 97.3309L26.5417 97.331L28.6547 92.7994ZM35.8322 96.1463L37.9453 91.6148L35.8322 96.1463ZM46.279 92.1935L50.8626 94.1913L50.8626 94.1913L46.279 92.1935ZM49.1607 85.5818L49.5317 80.5956L45.9944 80.3323L44.5771 83.5841L49.1607 85.5818ZM60.6162 84.5315L64.712 81.6636L62.7122 78.8076L59.341 79.6968L60.6162 84.5315ZM64.5349 90.1279L68.6306 87.26L68.6306 87.26L64.5349 90.1279ZM75.6767 92.0925L78.5446 96.1883L78.5446 96.1883L75.6767 92.0925ZM82.1639 87.5501L79.296 83.4543L79.296 83.4543L82.1639 87.5501ZM84.1285 76.4082L80.0328 79.2761L80.0328 79.2761L84.1285 76.4082ZM80.2445 70.8612L76.1521 67.9886L74.1381 70.8577L76.1487 73.7291L80.2445 70.8612ZM85.4057 59.7412L84.9699 54.7602L81.4677 55.0667L80.5711 58.466L85.4057 59.7412ZM91.7626 59.1851L92.1984 64.166L92.1984 64.166L91.7626 59.1851ZM99.0349 50.5183L104.016 50.0825L104.016 50.0825L99.0349 50.5183ZM98.9022 49.0012L103.883 48.5654L103.484 44.0012H98.9022V49.0012ZM62.3639 49.0012V44.0012H56.5624L57.4187 49.7392L62.3639 49.0012ZM57.7913 59.647L54.9235 55.5512L54.9235 55.5512L57.7913 59.647ZM42.4672 56.9449L46.563 54.0771L46.563 54.0771L42.4672 56.9449ZM40.5991 49.0012L45.5437 49.7439L46.4063 44.0012H40.5991V49.0012ZM-1.83738 48.2118C-2.00338 49.25 -2.04481 50.3205 -1.95005 51.4036L8.0119 50.532C7.98922 50.2728 7.99968 50.0252 8.03718 49.7907L-1.83738 48.2118ZM-1.95005 51.4036L-1.25982 59.2929L8.70213 58.4214L8.0119 50.532L-1.95005 51.4036ZM-1.25982 59.2929C-0.634069 66.4453 5.67134 71.7362 12.8237 71.1104L11.9522 61.1485C10.3016 61.2929 8.84653 60.0719 8.70213 58.4214L-1.25982 59.2929ZM12.8237 71.1104L20.5333 70.4359L19.6617 60.474L11.9522 61.1485L12.8237 71.1104ZM15.5611 67.5576C16.5399 69.6693 17.7167 71.7213 19.094 73.6883L27.2855 67.9526C26.248 66.4708 25.3658 64.9313 24.6339 63.3523L15.5611 67.5576ZM19.094 73.6883C20.5312 75.7409 22.13 77.6198 23.8624 79.318L30.8629 72.1771C29.5678 70.9075 28.3681 69.4987 27.2855 67.9526L19.094 73.6883ZM22.779 73.7499L20.017 80.087L29.1842 84.0825L31.9462 77.7453L22.779 73.7499ZM20.017 80.087C17.1681 86.6236 20.0793 94.3175 26.5417 97.3309L30.7678 88.2679C29.2215 87.5468 28.5025 85.6465 29.1842 84.0824L20.017 80.087ZM26.5417 97.331L33.7191 100.678L37.9453 91.6148L30.7678 88.2679L26.5417 97.331ZM33.7191 100.678C40.2711 103.733 47.9742 100.818 50.8626 94.1913L41.6954 90.1958C41.0533 91.6693 39.402 92.2941 37.9453 91.6148L33.7191 100.678ZM50.8626 94.1913L53.7443 87.5795L44.5771 83.5841L41.6954 90.1958L50.8626 94.1913ZM48.7896 90.568C53.1489 90.8924 57.5787 90.5037 61.8914 89.3661L59.341 79.6968C56.1186 80.5468 52.8022 80.839 49.5317 80.5956L48.7896 90.568ZM56.5204 87.3994L60.4391 92.9958L68.6306 87.26L64.712 81.6636L56.5204 87.3994ZM60.4391 92.9958C64.5572 98.877 72.6633 100.306 78.5446 96.1883L72.8088 87.9967C71.4516 88.9471 69.5809 88.6172 68.6306 87.26L60.4391 92.9958ZM78.5446 96.1883L85.0318 91.6458L79.296 83.4543L72.8088 87.9967L78.5446 96.1883ZM85.0318 91.6458C90.9131 87.5277 92.3424 79.4216 88.2243 73.5404L80.0328 79.2761C80.9831 80.6333 80.6533 82.504 79.296 83.4543L85.0318 91.6458ZM88.2243 73.5404L84.3402 67.9934L76.1487 73.7291L80.0328 79.2761L88.2243 73.5404ZM84.3369 73.7339C87.0714 69.8383 89.0517 65.5229 90.2403 61.0165L80.5711 58.466C79.6791 61.8474 78.1952 65.0779 76.1521 67.9886L84.3369 73.7339ZM85.8415 64.7222L92.1984 64.166L91.3269 54.2041L84.9699 54.7602L85.8415 64.7222ZM92.1984 64.166C99.3508 63.5403 104.642 57.2349 104.016 50.0825L94.054 50.9541C94.1984 52.6046 92.9774 54.0597 91.3269 54.2041L92.1984 64.166ZM104.016 50.0825L103.883 48.5654L93.9212 49.437L94.054 50.9541L104.016 50.0825ZM98.9022 44.0012H62.3639V54.0012H98.9022V44.0012ZM60.6592 63.7428C65.8051 60.1396 68.1743 54.0609 67.3091 48.2633L57.4187 49.7392C57.7459 51.9324 56.8455 54.2054 54.9235 55.5512L60.6592 63.7428ZM38.3715 59.8128C43.4408 67.0526 53.4194 68.8121 60.6592 63.7428L54.9235 55.5512C52.2077 57.4528 48.4646 56.7928 46.563 54.0771L38.3715 59.8128ZM35.6546 48.2585C35.0674 52.1676 35.9225 56.3154 38.3715 59.8128L46.563 54.0771C45.6426 52.7626 45.3221 51.2188 45.5437 49.7439L35.6546 48.2585ZM40.5991 44.0012H3.0999V54.0012H40.5991V44.0012Z" fill="black" mask="url(#path-1-inside-1_3883_48832)"/>
<path d="M98.9014 44.4119L4.3293 44.4119" stroke="black" stroke-width="8" stroke-linecap="round"/>
<mask id="path-4-inside-2_3883_48832" fill="white">
<path fill-rule="evenodd" clip-rule="evenodd" d="M34.7085 8C34.7085 3.58173 38.2902 0 42.7085 0H58.8763C63.1833 0 66.6954 3.40364 66.8695 7.66792C81.8914 13.2776 92.5122 27.0684 92.5122 43.1917C92.5122 44.3111 92.461 45.4193 92.3607 46.5143H11.3976C11.2973 45.4193 11.2461 44.3111 11.2461 43.1917C11.2461 27.8601 20.8495 14.6376 34.7085 8.55277V8Z"/>
</mask>
<path d="M66.8695 7.66792L61.8737 7.87191L62.0092 11.1902L65.1203 12.352L66.8695 7.66792ZM92.3607 46.5143V51.5143H96.9236L97.3398 46.9704L92.3607 46.5143ZM11.3976 46.5143L6.41845 46.9704L6.8347 51.5143H11.3976V46.5143ZM34.7085 8.55277L36.7185 13.1309L39.7085 11.8182V8.55277H34.7085ZM42.7085 -5C35.5288 -5 29.7085 0.820307 29.7085 8H39.7085C39.7085 6.34315 41.0516 5 42.7085 5V-5ZM58.8763 -5H42.7085V5H58.8763V-5ZM71.8654 7.46394C71.5823 0.530856 65.8764 -5 58.8763 -5V5C60.4902 5 61.8085 6.27643 61.8737 7.87191L71.8654 7.46394ZM97.5122 43.1917C97.5122 24.764 85.3834 9.24437 68.6187 2.98387L65.1203 12.352C78.3994 17.3108 87.5122 29.3727 87.5122 43.1917H97.5122ZM97.3398 46.9704C97.454 45.7241 97.5122 44.4637 97.5122 43.1917H87.5122C87.5122 44.1586 87.468 45.1146 87.3815 46.0581L97.3398 46.9704ZM11.3976 51.5143H92.3607V41.5143H11.3976V51.5143ZM6.24609 43.1917C6.24609 44.4637 6.30427 45.7241 6.41845 46.9704L16.3767 46.0581C16.2903 45.1146 16.2461 44.1586 16.2461 43.1917H6.24609ZM32.6984 3.9746C17.2162 10.7721 6.24609 25.6729 6.24609 43.1917H16.2461C16.2461 30.0473 24.4828 18.5031 36.7185 13.1309L32.6984 3.9746ZM29.7085 8V8.55277H39.7085V8H29.7085Z" fill="black" mask="url(#path-4-inside-2_3883_48832)"/>
<path d="M37.6699 6.68115V23.8315" stroke="black" stroke-width="5" stroke-linecap="round"/>
<path d="M64.6006 6.68115V23.8315" stroke="black" stroke-width="5" stroke-linecap="round"/>
</svg>
