<svg width="84" height="60" viewBox="0 0 84 60" fill="none" xmlns="http://www.w3.org/2000/svg">
<mask id="path-1-inside-1_749_38938" fill="white">
<path fill-rule="evenodd" clip-rule="evenodd" d="M61.5764 43.0663H78.7172C81.7141 43.0663 84.0804 40.3867 82.8178 37.6688C79.9826 31.5657 73.8182 27.3363 66.6703 27.3363C61.7129 27.3363 57.2287 29.3706 54 32.6533C57.3643 35.2509 59.9966 38.7978 61.5211 42.9076C61.5408 42.9606 61.5592 43.0135 61.5764 43.0663ZM76.2353 16.3106C76.2353 21.4527 71.8958 25.6212 66.5427 25.6212C61.1897 25.6212 56.8502 21.4527 56.8502 16.3106C56.8502 11.1685 61.1897 7 66.5427 7C71.8958 7 76.2353 11.1685 76.2353 16.3106Z"/>
</mask>
<path d="M61.5764 43.0663L58.7244 43.997L59.3997 46.0663H61.5764V43.0663ZM82.8178 37.6688L85.5385 36.4049V36.4049L82.8178 37.6688ZM54 32.6533L51.8611 30.5497L49.4896 32.961L52.1666 35.0279L54 32.6533ZM61.5211 42.9076L58.7084 43.951L58.7084 43.951L61.5211 42.9076ZM78.7172 40.0663H61.5764V46.0663H78.7172V40.0663ZM80.097 38.9327C80.174 39.0986 80.1678 39.1892 80.1617 39.2317C80.1537 39.2875 80.1239 39.3857 80.0229 39.5118C79.805 39.7839 79.3391 40.0663 78.7172 40.0663V46.0663C81.0923 46.0663 83.3079 45.0089 84.7067 43.2618C86.1591 41.4477 86.6941 38.8924 85.5385 36.4049L80.097 38.9327ZM66.6703 30.3363C72.6024 30.3363 77.733 33.8438 80.097 38.9327L85.5385 36.4049C82.2322 29.2876 75.0341 24.3363 66.6703 24.3363V30.3363ZM56.1389 34.757C58.8282 32.0226 62.5517 30.3363 66.6703 30.3363V24.3363C60.8742 24.3363 55.6292 26.7185 51.8611 30.5497L56.1389 34.757ZM52.1666 35.0279C55.0864 37.2823 57.3793 40.3679 58.7084 43.951L64.3338 41.8642C62.6139 37.2277 59.6423 33.2196 55.8334 30.2788L52.1666 35.0279ZM58.7084 43.951C58.7143 43.9669 58.7196 43.9822 58.7244 43.997L64.4284 42.1356C64.3988 42.0447 64.3672 41.9543 64.3338 41.8642L58.7084 43.951ZM66.5427 28.6212C73.4378 28.6212 79.2353 23.2221 79.2353 16.3106H73.2353C73.2353 19.6833 70.3537 22.6212 66.5427 22.6212V28.6212ZM53.8502 16.3106C53.8502 23.2221 59.6477 28.6212 66.5427 28.6212V22.6212C62.7317 22.6212 59.8502 19.6833 59.8502 16.3106H53.8502ZM66.5427 4C59.6477 4 53.8502 9.39911 53.8502 16.3106H59.8502C59.8502 12.9379 62.7317 10 66.5427 10V4ZM79.2353 16.3106C79.2353 9.39911 73.4378 4 66.5427 4V10C70.3537 10 73.2353 12.9379 73.2353 16.3106H79.2353Z" fill="black" mask="url(#path-1-inside-1_749_38938)"/>
<mask id="path-3-inside-2_749_38938" fill="white">
<path fill-rule="evenodd" clip-rule="evenodd" d="M29.7539 32.6533C26.5252 29.3706 22.0409 27.3363 17.0836 27.3363C9.93566 27.3363 3.77129 31.5657 0.936128 37.6688C-0.326477 40.3867 2.03977 43.0663 5.03666 43.0663H22.1775C22.1947 43.0135 22.2131 42.9606 22.2328 42.9076C23.7573 38.7978 26.3896 35.2509 29.7539 32.6533ZM26.6486 16.3106C26.6486 21.4527 22.3091 25.6212 16.9561 25.6212C11.603 25.6212 7.26355 21.4527 7.26355 16.3106C7.26355 11.1685 11.603 7 16.9561 7C22.3091 7 26.6486 11.1685 26.6486 16.3106Z"/>
</mask>
<path d="M29.7539 32.6533L31.5873 35.0279L34.2643 32.961L31.8927 30.5497L29.7539 32.6533ZM0.936128 37.6688L-1.78463 36.4049L-1.78463 36.4049L0.936128 37.6688ZM22.1775 43.0663V46.0663H24.3541L25.0294 43.997L22.1775 43.0663ZM22.2328 42.9076L19.4201 41.8642L19.4201 41.8643L22.2328 42.9076ZM17.0836 30.3363C21.2022 30.3363 24.9257 32.0226 27.615 34.757L31.8927 30.5497C28.1247 26.7186 22.8797 24.3363 17.0836 24.3363V30.3363ZM3.65688 38.9327C6.02091 33.8438 11.1515 30.3363 17.0836 30.3363V24.3363C8.71979 24.3363 1.52167 29.2876 -1.78463 36.4049L3.65688 38.9327ZM5.03666 40.0663C4.41484 40.0663 3.94886 39.7839 3.73096 39.5118C3.63003 39.3857 3.60021 39.2875 3.59218 39.2317C3.58607 39.1892 3.57984 39.0985 3.65688 38.9327L-1.78463 36.4049C-2.94022 38.8925 -2.40518 41.4477 -0.952789 43.2618C0.446008 45.0089 2.6616 46.0663 5.03666 46.0663V40.0663ZM22.1775 40.0663H5.03666V46.0663H22.1775V40.0663ZM25.0294 43.997C25.0343 43.9822 25.0396 43.9669 25.0455 43.951L19.4201 41.8643C19.3867 41.9543 19.3551 42.0447 19.3255 42.1355L25.0294 43.997ZM25.0455 43.951C26.3746 40.368 28.6675 37.2823 31.5873 35.0279L27.9205 30.2788C24.1116 33.2196 21.14 37.2277 19.4201 41.8642L25.0455 43.951ZM16.9561 28.6212C23.8511 28.6212 29.6486 23.2221 29.6486 16.3106H23.6486C23.6486 19.6833 20.7671 22.6212 16.9561 22.6212V28.6212ZM4.26355 16.3106C4.26355 23.2221 10.061 28.6212 16.9561 28.6212V22.6212C13.1451 22.6212 10.2635 19.6833 10.2635 16.3106H4.26355ZM16.9561 4C10.061 4 4.26355 9.39911 4.26355 16.3106H10.2635C10.2635 12.9379 13.1451 10 16.9561 10V4ZM29.6486 16.3106C29.6486 9.39911 23.8511 4 16.9561 4V10C20.7671 10 23.6486 12.9379 23.6486 16.3106H29.6486Z" fill="black" mask="url(#path-3-inside-2_749_38938)"/>
<mask id="path-5-inside-3_749_38938" fill="white">
<path fill-rule="evenodd" clip-rule="evenodd" d="M41.8387 24.3438C48.6067 24.3438 54.0933 18.8942 54.0933 12.1719C54.0933 5.44953 48.6067 0 41.8387 0C35.0706 0 29.5841 5.44953 29.5841 12.1719C29.5841 18.8942 35.0706 24.3438 41.8387 24.3438ZM41.9999 26.5859C51.6321 26.5859 59.8516 32.8668 63.0679 41.6998C64.0907 44.5085 61.7317 47.15 58.7426 47.15H25.2573C22.2682 47.15 19.9092 44.5085 20.932 41.6998C24.1483 32.8668 32.3678 26.5859 41.9999 26.5859Z"/>
</mask>
<path d="M20.932 41.6998L18.113 40.6733L20.932 41.6998ZM63.0679 41.6998L60.249 42.7262L63.0679 41.6998ZM51.0933 12.1719C51.0933 17.2182 46.9691 21.3438 41.8387 21.3438V27.3438C50.2444 27.3438 57.0933 20.5702 57.0933 12.1719H51.0933ZM41.8387 3C46.9691 3 51.0933 7.12552 51.0933 12.1719H57.0933C57.0933 3.77355 50.2444 -3 41.8387 -3V3ZM32.5841 12.1719C32.5841 7.12552 36.7083 3 41.8387 3V-3C33.433 -3 26.5841 3.77355 26.5841 12.1719H32.5841ZM41.8387 21.3438C36.7083 21.3438 32.5841 17.2182 32.5841 12.1719H26.5841C26.5841 20.5702 33.433 27.3438 41.8387 27.3438V21.3438ZM65.8869 40.6733C62.2731 30.749 52.9899 23.5859 41.9999 23.5859V29.5859C50.2742 29.5859 57.43 34.9846 60.249 42.7262L65.8869 40.6733ZM25.2573 50.15H58.7426V44.15H25.2573V50.15ZM41.9999 23.5859C31.01 23.5859 21.7268 30.749 18.113 40.6733L23.7509 42.7262C26.5699 34.9846 33.7257 29.5859 41.9999 29.5859V23.5859ZM25.2573 44.15C24.6396 44.15 24.1574 43.8753 23.9031 43.5675C23.6851 43.3036 23.6345 43.0457 23.7509 42.7262L18.113 40.6733C17.2066 43.1625 17.8242 45.6297 19.2773 47.3888C20.6941 49.1039 22.8859 50.15 25.2573 50.15V44.15ZM60.249 42.7262C60.3654 43.0457 60.3148 43.3036 60.0968 43.5675C59.8425 43.8753 59.3603 44.15 58.7426 44.15V50.15C61.114 50.15 63.3058 49.1039 64.7226 47.3888C66.1757 45.6297 66.7933 43.1625 65.8869 40.6733L60.249 42.7262Z" fill="black" mask="url(#path-5-inside-3_749_38938)"/>
</svg>
