<svg width="77" height="77" viewBox="0 0 77 77" fill="none" xmlns="http://www.w3.org/2000/svg">
<path fill-rule="evenodd" clip-rule="evenodd" d="M45 17.9722C43.8954 17.9722 43 18.8676 43 19.9722V20.3889C43 21.4934 43.8954 22.3889 45 22.3889H52.3889C53.4934 22.3889 54.3889 21.4934 54.3889 20.3889V13C54.3889 11.8954 53.4934 11 52.3889 11H51.9722C50.8676 11 49.9722 11.8954 49.9722 13V15.9722C49.9722 17.0768 49.0768 17.9722 47.9722 17.9722H45Z" fill="black"/>
<path fill-rule="evenodd" clip-rule="evenodd" d="M30.3887 57.4165C31.4932 57.4165 32.3887 56.521 32.3887 55.4165V54.9998C32.3887 53.8952 31.4932 52.9998 30.3887 52.9998H22.9998C21.8952 52.9998 20.9998 53.8952 20.9998 54.9998V62.3887C20.9998 63.4932 21.8952 64.3887 22.9998 64.3887H23.4165C24.521 64.3887 25.4165 63.4932 25.4165 62.3887V59.4165C25.4165 58.3119 26.3119 57.4165 27.4165 57.4165H30.3887Z" fill="black"/>
<path fill-rule="evenodd" clip-rule="evenodd" d="M59.7925 27.8145C60.9706 26.6364 62.9532 26.9389 63.5446 28.4964C67.2238 38.1849 65.1618 49.5553 57.3585 57.3585C49.5553 65.1618 38.1849 67.2238 28.4964 63.5446C26.9388 62.9531 26.6364 60.9706 27.8144 59.7926C28.5303 59.0767 29.606 58.881 30.5639 59.2088C38.4485 61.9072 47.531 60.1113 53.8211 53.8212C60.1112 47.531 61.9071 38.4486 59.2088 30.564C58.881 29.6061 59.0766 28.5304 59.7925 27.8145ZM47.5184 15.9329C48.6442 14.8071 48.3107 12.9091 46.8011 12.4035C37.3417 9.23557 26.4842 11.4181 18.9512 18.9512C11.4181 26.4842 9.23557 37.3417 12.4035 46.8011C12.9091 48.3108 14.8071 48.6442 15.9329 47.5185C16.5896 46.8617 16.7773 45.878 16.4849 44.9965C13.8852 37.159 15.7036 28.1771 21.9403 21.9404C28.177 15.7037 37.1589 13.8852 44.9964 16.485C45.878 16.7774 46.8617 16.5897 47.5184 15.9329Z" fill="black"/>
<path fill-rule="evenodd" clip-rule="evenodd" d="M59.7925 27.8145C60.9706 26.6364 62.9532 26.9389 63.5446 28.4964C67.2238 38.1849 65.1618 49.5553 57.3585 57.3585C49.5553 65.1618 38.1849 67.2238 28.4964 63.5446C26.9388 62.9531 26.6364 60.9706 27.8144 59.7926C28.5303 59.0767 29.606 58.881 30.5639 59.2088C38.4485 61.9072 47.531 60.1113 53.8211 53.8212C60.1112 47.531 61.9071 38.4486 59.2088 30.564C58.881 29.6061 59.0766 28.5304 59.7925 27.8145ZM47.5184 15.9329C48.6442 14.8071 48.3107 12.9091 46.8011 12.4035C37.3417 9.23557 26.4842 11.4181 18.9512 18.9512C11.4181 26.4842 9.23557 37.3417 12.4035 46.8011C12.9091 48.3108 14.8071 48.6442 15.9329 47.5185C16.5896 46.8617 16.7773 45.878 16.4849 44.9965C13.8852 37.159 15.7036 28.1771 21.9403 21.9404C28.177 15.7037 37.1589 13.8852 44.9964 16.485C45.878 16.7774 46.8617 16.5897 47.5184 15.9329Z" fill="black"/>
</svg>
