<svg width="100" height="100" viewBox="0 0 100 100" fill="none" xmlns="http://www.w3.org/2000/svg">
<circle cx="50" cy="50" r="50" fill="#FC8F2B"/>
<path fill-rule="evenodd" clip-rule="evenodd" d="M58.3496 23.5518C57.245 23.5518 56.3496 24.4472 56.3496 25.5518V27.3396C56.3496 28.4441 57.245 29.3396 58.3496 29.3396H69.2741C70.3787 29.3396 71.2741 28.4441 71.2741 27.3396V16.415C71.2741 15.3105 70.3787 14.415 69.2741 14.415H67.4863C66.3818 14.415 65.4863 15.3105 65.4863 16.415V21.5518C65.4863 22.6563 64.5909 23.5518 63.4863 23.5518H58.3496Z" fill="black"/>
<path fill-rule="evenodd" clip-rule="evenodd" d="M40.4434 75.2417C41.5479 75.2417 42.4434 74.3463 42.4434 73.2417V71.4539C42.4434 70.3493 41.5479 69.4539 40.4434 69.4539H29.5188C28.4143 69.4539 27.5188 70.3493 27.5188 71.4539V82.3784C27.5188 83.483 28.4143 84.3784 29.5188 84.3784H31.3066C32.4112 84.3784 33.3066 83.483 33.3066 82.3784V77.2417C33.3066 76.1371 34.2021 75.2417 35.3066 75.2417H40.4434Z" fill="black"/>
<path fill-rule="evenodd" clip-rule="evenodd" d="M78.5902 36.2143C80.0172 34.7874 82.4183 35.1531 83.1524 37.0328C88.1369 49.7959 85.4746 64.8562 75.1654 75.1654C64.8562 85.4746 49.7959 88.137 37.0327 83.1525C35.153 82.4184 34.7873 80.0172 36.2142 78.5903L36.567 78.2375C37.4341 77.3704 38.7375 77.1323 39.8954 77.5359C50.264 81.1499 62.2451 78.8146 70.5298 70.5299C78.8145 62.2453 81.1498 50.2642 77.5358 39.8955C77.1322 38.7376 77.3703 37.4342 78.2374 36.5671L78.5902 36.2143ZM62.2705 20.8794C63.7359 19.414 63.3222 16.9231 61.3575 16.2634C48.9551 12.0987 34.7135 14.9557 24.8346 24.8346C14.9557 34.7135 12.0986 48.9552 16.2633 61.3576C16.923 63.3222 19.4139 63.736 20.8793 62.2705V62.2705C21.7342 61.4157 21.9881 60.1257 21.6069 58.9784C18.1939 48.7047 20.5755 36.9281 28.7517 28.7518C36.928 20.5756 48.7046 18.194 58.9783 21.607C60.1256 21.9882 61.4156 21.7342 62.2705 20.8794V20.8794Z" fill="black"/>
<path fill-rule="evenodd" clip-rule="evenodd" d="M78.5902 36.2143C80.0172 34.7874 82.4183 35.1531 83.1524 37.0328C88.1369 49.7959 85.4746 64.8562 75.1654 75.1654C64.8562 85.4746 49.7959 88.137 37.0327 83.1525C35.153 82.4184 34.7873 80.0172 36.2142 78.5903L36.567 78.2375C37.4341 77.3704 38.7375 77.1323 39.8954 77.5359C50.264 81.1499 62.2451 78.8146 70.5298 70.5299C78.8145 62.2453 81.1498 50.2642 77.5358 39.8955C77.1322 38.7376 77.3703 37.4342 78.2374 36.5671L78.5902 36.2143ZM62.2705 20.8794C63.7359 19.414 63.3222 16.9231 61.3575 16.2634C48.9551 12.0987 34.7135 14.9557 24.8346 24.8346C14.9557 34.7135 12.0986 48.9552 16.2633 61.3576C16.923 63.3222 19.4139 63.736 20.8793 62.2705V62.2705C21.7342 61.4157 21.9881 60.1257 21.6069 58.9784C18.1939 48.7047 20.5755 36.9281 28.7517 28.7518C36.928 20.5756 48.7046 18.194 58.9783 21.607C60.1256 21.9882 61.4156 21.7342 62.2705 20.8794V20.8794Z" fill="black"/>
</svg>
