<svg width="100" height="103" viewBox="0 0 100 103" fill="none" xmlns="http://www.w3.org/2000/svg">
<path d="M47.0309 64.6084L56.7362 57.6763C58.3107 56.5518 60.3933 56.4372 62.0827 57.3823L64.0851 58.5024C64.3476 58.6493 64.5964 58.8196 64.8284 59.0112L69.5863 62.9404M78.364 73.9731L80.2967 78.3291C80.6099 79.0349 80.7554 79.8036 80.7219 80.575L80.5922 83.5549C80.524 85.122 79.7244 86.5659 78.4325 87.4548L69.5773 93.5474M78.364 73.9731L73.373 67.0995L69.5863 62.9404M78.364 73.9731L81.9729 67.4412C82.4288 66.6161 83.1088 65.9368 83.9343 65.4818L94.7142 59.5403C96.4528 58.5821 97.459 56.6856 97.2781 54.7082L97.0775 52.515C96.8496 50.0233 94.8153 48.0826 92.3158 47.9725L91.1697 47.922C89.647 47.855 88.1772 48.4861 87.1777 49.6363L83.1908 54.2244L78.5922 59.5162C77.9589 60.245 77.128 60.7747 76.1999 61.0412L69.5863 62.9404" stroke="black" stroke-width="5" stroke-linecap="round"/>
<path d="M74.348 50.8614V4C74.348 3.44771 73.9002 3 73.348 3H4C3.44772 3 3 3.44772 3 4V88.4165C3 88.9687 3.44772 89.4165 4 89.4165H43.959" stroke="black" stroke-width="5" stroke-linecap="round"/>
<path d="M58.6357 30.9192C58.6357 41.1601 49.8286 49.6909 38.6743 49.6909C27.52 49.6909 18.7129 41.1601 18.7129 30.9192C18.7129 20.6783 27.52 12.1475 38.6743 12.1475C49.8286 12.1475 58.6357 20.6783 58.6357 30.9192Z" stroke="black" stroke-width="5"/>
<path d="M29.4248 32.2487L33.7349 38.0313C34.0828 38.498 34.7541 38.5701 35.1932 38.188L46.6012 28.2603" stroke="black" stroke-width="5" stroke-linecap="round"/>
<path d="M39.9955 60.1677H16.2129" stroke="black" stroke-width="4" stroke-linecap="round"/>
<path d="M33.3893 73.4626H16.2129" stroke="black" stroke-width="4" stroke-linecap="round"/>
<path d="M69.0333 94.5957C67.836 95.4956 65.4755 95.6923 61.9399 93.9277C58.546 92.234 54.7414 89.0112 51.4588 84.5891C48.1762 80.1671 46.1846 75.5817 45.5335 71.8265C44.8552 67.9144 45.7125 65.6926 46.9097 64.7927C48.1069 63.8929 50.4675 63.6962 54.0031 65.4607C57.3969 67.1545 61.2015 70.3773 64.4841 74.7993C67.7667 79.2214 69.7584 83.8068 70.4094 87.562C71.0877 91.4741 70.2305 93.6959 69.0333 94.5957Z" stroke="black" stroke-width="5"/>
</svg>
