<svg width="34" height="34" viewBox="0 0 34 34" fill="none" xmlns="http://www.w3.org/2000/svg">
<rect x="1.5" y="1.5" width="31" height="31" rx="8.5" fill="#74E957" stroke="black" stroke-width="3"/>
<path d="M12.7422 27V6.375H18.1914C19.332 6.375 20.2344 6.62891 20.8984 7.13672C21.5703 7.64453 22.0508 8.36719 22.3398 9.30469C22.6289 10.2422 22.7734 11.3594 22.7734 12.6562C22.7734 13.9062 22.6523 14.9961 22.4102 15.9258C22.168 16.8477 21.7344 17.5625 21.1094 18.0703C20.4922 18.5781 19.6133 18.832 18.4727 18.832H16.7969V27H12.7422ZM16.7969 15.1289H17.0312C17.7969 15.1289 18.2656 14.9141 18.4375 14.4844C18.6094 14.0547 18.6953 13.4219 18.6953 12.5859C18.6953 11.8047 18.6094 11.2031 18.4375 10.7812C18.2734 10.3516 17.8789 10.1367 17.2539 10.1367H16.7969V15.1289Z" fill="black"/>
</svg>
