<svg width="42" height="49" viewBox="0 0 42 49" fill="none" xmlns="http://www.w3.org/2000/svg">
<mask id="path-1-inside-1_749_38880" fill="white">
<path fill-rule="evenodd" clip-rule="evenodd" d="M20.9625 28.3684C28.8514 28.3684 35.2466 22.0179 35.2466 14.1842C35.2466 6.35049 28.8514 0 20.9625 0C13.0735 0 6.67831 6.35049 6.67831 14.1842C6.67831 22.0179 13.0735 28.3684 20.9625 28.3684ZM20.9133 49C29.4098 49 36.9988 45.1414 42 39.0927C37.4637 34.3998 29.7951 31.3158 21.0988 31.3158C12.275 31.3158 4.50916 34.491 0 39.3003C5.00232 45.2296 12.5144 49 20.9133 49Z"/>
</mask>
<path fill-rule="evenodd" clip-rule="evenodd" d="M20.9625 28.3684C28.8514 28.3684 35.2466 22.0179 35.2466 14.1842C35.2466 6.35049 28.8514 0 20.9625 0C13.0735 0 6.67831 6.35049 6.67831 14.1842C6.67831 22.0179 13.0735 28.3684 20.9625 28.3684ZM20.9133 49C29.4098 49 36.9988 45.1414 42 39.0927C37.4637 34.3998 29.7951 31.3158 21.0988 31.3158C12.275 31.3158 4.50916 34.491 0 39.3003C5.00232 45.2296 12.5144 49 20.9133 49Z" fill="#D9D9D9"/>
<path d="M42 39.0927L44.3121 41.0043L46.0217 38.9366L44.157 37.0076L42 39.0927ZM0 39.3003L-2.1885 37.2483L-4.01377 39.1951L-2.29298 41.2347L0 39.3003ZM32.2466 14.1842C32.2466 20.3413 27.2144 25.3684 20.9625 25.3684V31.3684C30.4883 31.3684 38.2466 23.6946 38.2466 14.1842H32.2466ZM20.9625 3C27.2144 3 32.2466 8.02717 32.2466 14.1842H38.2466C38.2466 4.67381 30.4883 -3 20.9625 -3V3ZM9.67831 14.1842C9.67831 8.02717 14.7105 3 20.9625 3V-3C11.4366 -3 3.67831 4.67381 3.67831 14.1842H9.67831ZM20.9625 25.3684C14.7105 25.3684 9.67831 20.3413 9.67831 14.1842H3.67831C3.67831 23.6946 11.4366 31.3684 20.9625 31.3684V25.3684ZM39.6879 37.181C35.235 42.5666 28.4821 46 20.9133 46V52C30.3376 52 38.7625 47.7162 44.3121 41.0043L39.6879 37.181ZM21.0988 34.3158C29.1537 34.3158 35.9812 37.1827 39.843 41.1777L44.157 37.0076C38.9461 31.617 30.4364 28.3158 21.0988 28.3158V34.3158ZM2.1885 41.3522C6.01713 37.2687 12.9224 34.3158 21.0988 34.3158V28.3158C11.6276 28.3158 3.00118 31.7132 -2.1885 37.2483L2.1885 41.3522ZM20.9133 46C13.4313 46 6.74689 42.645 2.29298 37.3658L-2.29298 41.2347C3.25775 47.8141 11.5974 52 20.9133 52V46Z" fill="black" mask="url(#path-1-inside-1_749_38880)"/>
</svg>
