<svg width="90" height="90" viewBox="0 0 90 90" fill="none" xmlns="http://www.w3.org/2000/svg">
<g clip-path="url(#clip0_5615_71719)">
<path d="M45 0C46.6569 0 48 1.34315 48 3V42H87C88.6569 42 90 43.3431 90 45C90 46.6569 88.6569 48 87 48H48V87C48 88.6569 46.6569 90 45 90C43.3431 90 42 88.6569 42 87V48H3C1.34315 48 0 46.6569 0 45C0 43.3431 1.34315 42 3 42H42V3C42 1.34315 43.3431 0 45 0Z" fill="black"/>
</g>
<defs>
<clipPath id="clip0_5615_71719">
<rect width="90" height="90" fill="white"/>
</clipPath>
</defs>
</svg>
