<svg width="100" height="100" viewBox="0 0 100 100" fill="none" xmlns="http://www.w3.org/2000/svg">
<circle cx="50" cy="50" r="48" stroke="black" stroke-width="4"/>
<mask id="path-2-inside-1_1730_24833" fill="white">
<path d="M50.1787 67.4829C65.963 67.4829 79.8818 73.1537 88.1162 81.7817C79.0382 92.9035 65.2651 99.9994 49.8428 99.9995C34.5979 99.9995 20.9649 93.0653 11.8848 82.1636C20.07 73.3219 34.1634 67.483 50.1787 67.4829ZM50.6006 11.9097C64.611 12.2668 75.8592 23.8028 75.8594 37.9819L75.8516 38.6558C75.4964 52.7486 64.0274 64.0628 49.9316 64.063L49.2617 64.0552C35.4739 63.7036 24.3613 52.5249 24.0117 38.6558L24.0029 37.9819C24.0031 23.5777 35.6119 11.9009 49.9316 11.9009L50.6006 11.9097ZM49.9316 15.9009C37.8432 15.9009 28.0031 25.7647 28.0029 37.9819C28.0029 50.1993 37.8431 60.063 49.9316 60.063C62.02 60.0628 71.8594 50.1992 71.8594 37.9819C71.8592 25.7648 62.0199 15.9011 49.9316 15.9009Z"/>
</mask>
<path d="M50.1787 67.4829L50.1787 63.4829L50.1787 63.4829L50.1787 67.4829ZM88.1162 81.7817L91.215 84.3111L93.4483 81.575L91.0099 79.0201L88.1162 81.7817ZM49.8428 99.9995L49.8428 104L49.8428 104L49.8428 99.9995ZM11.8848 82.1636L8.94947 79.4462L6.56291 82.0242L8.81124 84.7235L11.8848 82.1636ZM50.6006 11.9097L50.7025 7.91097L50.6778 7.91034L50.6531 7.91001L50.6006 11.9097ZM75.8594 37.9819L79.8591 38.0283L79.8594 38.0051L79.8594 37.9819L75.8594 37.9819ZM75.8516 38.6558L79.8503 38.7565L79.851 38.7293L79.8513 38.7021L75.8516 38.6558ZM49.9316 64.063L49.885 68.0627L49.9083 68.063L49.9317 68.063L49.9316 64.063ZM49.2617 64.0552L49.1598 68.0539L49.1874 68.0546L49.2151 68.0549L49.2617 64.0552ZM24.0117 38.6558L20.0121 38.7079L20.0124 38.7322L20.013 38.7565L24.0117 38.6558ZM24.0029 37.9819L20.0029 37.9819L20.0029 38.008L20.0033 38.0341L24.0029 37.9819ZM49.9316 11.9009L49.9842 7.90122L49.9579 7.90088H49.9316V11.9009ZM49.9316 15.9009L49.9317 11.9009H49.9316V15.9009ZM28.0029 37.9819L24.0029 37.9819V37.9819H28.0029ZM49.9316 60.063L49.9316 64.063L49.9317 64.063L49.9316 60.063ZM71.8594 37.9819L75.8594 37.9819L75.8594 37.9819L71.8594 37.9819ZM50.1787 67.4829V71.4829C65.0922 71.4829 77.8838 76.8539 85.2226 84.5434L88.1162 81.7817L91.0099 79.0201C81.8797 69.4535 66.8338 63.4829 50.1787 63.4829V67.4829ZM88.1162 81.7817L85.0174 79.2524C76.663 89.4876 64.0078 95.9994 49.8427 95.9995L49.8428 99.9995L49.8428 104C66.5223 103.999 81.4133 96.3194 91.215 84.3111L88.1162 81.7817ZM49.8428 99.9995V95.9995C35.8406 95.9995 23.3145 89.6362 14.9583 79.6036L11.8848 82.1636L8.81124 84.7235C18.6153 96.4944 33.3552 104 49.8428 104V99.9995ZM11.8848 82.1636L14.8201 84.8809C22.1022 77.0148 35.043 71.483 50.1787 71.4829L50.1787 67.4829L50.1787 63.4829C33.2839 63.483 18.0377 69.6291 8.94947 79.4462L11.8848 82.1636ZM50.6006 11.9097L50.4987 15.9084C62.3246 16.2098 71.8593 25.9565 71.8594 37.982L75.8594 37.9819L79.8594 37.9819C79.8592 21.6492 66.8974 8.32375 50.7025 7.91097L50.6006 11.9097ZM75.8594 37.9819L71.8596 37.9356L71.8518 38.6094L75.8516 38.6558L79.8513 38.7021L79.8591 38.0283L75.8594 37.9819ZM75.8516 38.6558L71.8528 38.555C71.5517 50.5054 61.8308 60.0628 49.9316 60.063L49.9316 64.063L49.9317 68.063C66.224 68.0628 79.4411 54.9918 79.8503 38.7565L75.8516 38.6558ZM49.9316 64.063L49.9783 60.0633L49.3084 60.0554L49.2617 64.0552L49.2151 68.0549L49.885 68.0627L49.9316 64.063ZM49.2617 64.0552L49.3637 60.0565C37.7261 59.7598 28.3068 50.3152 28.0104 38.555L24.0117 38.6558L20.013 38.7565C20.4157 54.7347 33.2216 67.6475 49.1598 68.0539L49.2617 64.0552ZM24.0117 38.6558L28.0114 38.6036L28.0026 37.9298L24.0029 37.9819L20.0033 38.0341L20.0121 38.7079L24.0117 38.6558ZM24.0029 37.9819L28.0029 37.982C28.003 25.7648 37.8431 15.9009 49.9316 15.9009V11.9009V7.90088C33.3807 7.90088 20.0031 21.3907 20.0029 37.9819L24.0029 37.9819ZM49.9316 11.9009L49.8791 15.9005L50.548 15.9093L50.6006 11.9097L50.6531 7.91001L49.9842 7.90122L49.9316 11.9009ZM49.9316 15.9009V11.9009C35.6132 11.9009 24.0031 23.5764 24.0029 37.9819L28.0029 37.9819L32.0029 37.982C32.003 27.9529 40.0732 19.9009 49.9316 19.9009V15.9009ZM28.0029 37.9819H24.0029C24.0029 52.3876 35.6132 64.063 49.9316 64.063V60.063V56.063C40.073 56.063 32.0029 48.011 32.0029 37.9819H28.0029ZM49.9316 60.063L49.9317 64.063C64.2501 64.0627 75.8594 52.3873 75.8594 37.9819H71.8594H67.8594C67.8594 48.0111 59.7899 56.0628 49.9316 56.063L49.9316 60.063ZM71.8594 37.9819L75.8594 37.9819C75.8592 23.5767 64.2501 11.9011 49.9317 11.9009L49.9316 15.9009L49.9316 19.9009C59.7898 19.901 67.8593 27.9529 67.8594 37.982L71.8594 37.9819Z" fill="black" mask="url(#path-2-inside-1_1730_24833)"/>
</svg>
