<svg width="40" height="40" viewBox="0 0 40 40" fill="none" xmlns="http://www.w3.org/2000/svg">
<circle cx="20" cy="20" r="18.5" fill="#D9D9D9" stroke="black" stroke-width="3"/>
<mask id="path-2-inside-1_749_38909" fill="white">
<path fill-rule="evenodd" clip-rule="evenodd" d="M19.9732 24.8421C25.6081 24.8421 30.1762 20.1764 30.1762 14.4211C30.1762 8.66566 25.6081 4 19.9732 4C14.3382 4 9.77022 8.66566 9.77022 14.4211C9.77022 20.1764 14.3382 24.8421 19.9732 24.8421ZM19.9381 40C26.007 40 31.4277 37.1651 35 32.7211C31.7598 29.2733 26.2822 27.0075 20.0706 27.0075C13.7678 27.0075 8.22083 29.3403 5 32.8737C8.57309 37.2299 13.9389 40 19.9381 40Z"/>
</mask>
<path fill-rule="evenodd" clip-rule="evenodd" d="M19.9732 24.8421C25.6081 24.8421 30.1762 20.1764 30.1762 14.4211C30.1762 8.66566 25.6081 4 19.9732 4C14.3382 4 9.77022 8.66566 9.77022 14.4211C9.77022 20.1764 14.3382 24.8421 19.9732 24.8421ZM19.9381 40C26.007 40 31.4277 37.1651 35 32.7211C31.7598 29.2733 26.2822 27.0075 20.0706 27.0075C13.7678 27.0075 8.22083 29.3403 5 32.8737C8.57309 37.2299 13.9389 40 19.9381 40Z" fill="#D9D9D9"/>
<path d="M35 32.7211L37.3382 34.6007L38.9726 32.5676L37.1861 30.6666L35 32.7211ZM5 32.8737L2.7829 30.8527L1.03502 32.7701L2.68045 34.7762L5 32.8737ZM27.1762 14.4211C27.1762 18.5797 23.8918 21.8421 19.9732 21.8421V27.8421C27.3245 27.8421 33.1762 21.7732 33.1762 14.4211H27.1762ZM19.9732 7C23.8918 7 27.1762 10.2624 27.1762 14.4211H33.1762C33.1762 7.06894 27.3245 1 19.9732 1V7ZM12.7702 14.4211C12.7702 10.2624 16.0546 7 19.9732 7V1C12.6219 1 6.77022 7.06894 6.77022 14.4211H12.7702ZM19.9732 21.8421C16.0546 21.8421 12.7702 18.5797 12.7702 14.4211H6.77022C6.77022 21.7732 12.6219 27.8421 19.9732 27.8421V21.8421ZM32.6618 30.8416C29.6257 34.6185 25.0465 37 19.9381 37V43C26.9676 43 33.2297 39.7118 37.3382 34.6007L32.6618 30.8416ZM20.0706 30.0075C25.6151 30.0075 30.2422 32.0392 32.8139 34.7756L37.1861 30.6666C33.2774 26.5075 26.9492 24.0075 20.0706 24.0075V30.0075ZM7.2171 34.8947C9.76419 32.1004 14.4416 30.0075 20.0706 30.0075V24.0075C13.0941 24.0075 6.67746 26.5802 2.7829 30.8527L7.2171 34.8947ZM19.9381 37C14.8881 37 10.3558 34.6728 7.31955 30.9711L2.68045 34.7762C6.79038 39.7869 12.9896 43 19.9381 43V37Z" fill="black" mask="url(#path-2-inside-1_749_38909)"/>
</svg>
