<svg width="180" height="180" viewBox="0 0 180 180" fill="none" xmlns="http://www.w3.org/2000/svg">
<rect x="47" y="47" width="21.6" height="21.6" rx="8" fill="black"/>
<rect x="112" y="47" width="21.6" height="21.6" rx="8" fill="black"/>
<rect x="47" y="111" width="21.6" height="21.6" rx="8" fill="black"/>
<path fill-rule="evenodd" clip-rule="evenodd" d="M60 4C60 1.79086 58.2091 0 56 0H8C3.58172 0 0 3.58172 0 8V56C0 58.2091 1.79086 60 4 60C6.20914 60 8 58.2091 8 56V16C8 11.5817 11.5817 8 16 8H56C58.2091 8 60 6.20914 60 4ZM124 8C121.791 8 120 6.20914 120 4C120 1.79086 121.791 0 124 0H172C176.418 0 180 3.58172 180 8V56C180 58.2091 178.209 60 176 60C173.791 60 172 58.2091 172 56V16C172 11.5817 168.418 8 164 8H124ZM120 176C120 173.791 121.791 172 124 172H164C168.418 172 172 168.418 172 164V124C172 121.791 173.791 120 176 120C178.209 120 180 121.791 180 124V172C180 176.418 176.418 180 172 180H124C121.791 180 120 178.209 120 176ZM4 120C6.20914 120 8 121.791 8 124V164C8 168.418 11.5817 172 16 172H56C58.2091 172 60 173.791 60 176C60 178.209 58.2091 180 56 180H8C3.58172 180 0 176.418 0 172V124C0 121.791 1.79086 120 4 120Z" fill="black"/>
<path fill-rule="evenodd" clip-rule="evenodd" d="M78 45C78 40.5817 74.4183 37 70 37H45C40.5817 37 37 40.5817 37 45V70C37 74.4183 40.5817 78 45 78H70C74.4183 78 78 74.4183 78 70V45ZM37 29C32.5817 29 29 32.5817 29 37V78C29 82.4183 32.5817 86 37 86H78C82.4183 86 86 82.4183 86 78V37C86 32.5817 82.4183 29 78 29H37Z" fill="black"/>
<path fill-rule="evenodd" clip-rule="evenodd" d="M143 45C143 40.5817 139.418 37 135 37H110C105.582 37 102 40.5817 102 45V70C102 74.4183 105.582 78 110 78H135C139.418 78 143 74.4183 143 70V45ZM102 29C97.5817 29 94 32.5817 94 37V78C94 82.4183 97.5817 86 102 86H143C147.418 86 151 82.4183 151 78V37C151 32.5817 147.418 29 143 29H102Z" fill="black"/>
<path fill-rule="evenodd" clip-rule="evenodd" d="M78 109C78 104.582 74.4183 101 70 101H45C40.5817 101 37 104.582 37 109V134C37 138.418 40.5817 142 45 142H70C74.4183 142 78 138.418 78 134V109ZM37 93C32.5817 93 29 96.5817 29 101V142C29 146.418 32.5817 150 37 150H78C82.4183 150 86 146.418 86 142V101C86 96.5817 82.4183 93 78 93H37Z" fill="black"/>
<path fill-rule="evenodd" clip-rule="evenodd" d="M120 109C120 104.582 116.418 101 112 101H110C105.582 101 102 104.582 102 109L102 111C102 115.418 105.582 119 110 119H112C116.418 119 120 115.418 120 111V109ZM102 93C97.5817 93 94 96.5817 94 101V119C94 123.418 97.5817 127 102 127H120C124.418 127 128 123.418 128 119V101C128 96.5817 124.418 93 120 93H102Z" fill="black"/>
<path fill-rule="evenodd" clip-rule="evenodd" d="M143 132C143 127.582 139.418 124 135 124H133C128.582 124 125 127.582 125 132L125 134C125 138.418 128.582 142 133 142H135C139.418 142 143 138.418 143 134V132ZM125 116C120.582 116 117 119.582 117 124V142C117 146.418 120.582 150 125 150H143C147.418 150 151 146.418 151 142V124C151 119.582 147.418 116 143 116H125Z" fill="black"/>
</svg>
