<svg width="180" height="181" viewBox="0 0 180 181" fill="none" xmlns="http://www.w3.org/2000/svg">
<path fill-rule="evenodd" clip-rule="evenodd" d="M177 180.6H131.571C129.915 180.6 128.571 179.257 128.571 177.6V175.886C128.571 174.229 129.915 172.886 131.571 172.886H169.286C170.943 172.886 172.286 171.543 172.286 169.886V132.172C172.286 130.515 173.629 129.172 175.286 129.172H177C178.657 129.172 180 130.515 180 132.172V177.6C180 179.257 178.657 180.6 177 180.6ZM172.286 49.0287C172.286 50.6855 173.629 52.0287 175.286 52.0287H177C178.657 52.0287 180 50.6855 180 49.0287V3.6001C180 1.94324 178.657 0.600098 177 0.600098H131.571C129.915 0.600098 128.571 1.94324 128.571 3.6001V5.31438C128.571 6.97123 129.915 8.31438 131.571 8.31438H169.286C170.943 8.31438 172.286 9.65753 172.286 11.3144V49.0287ZM48.4286 8.31438C50.0854 8.31438 51.4286 6.97123 51.4286 5.31438V3.6001C51.4286 1.94324 50.0854 0.600098 48.4286 0.600098H3C1.34315 0.600098 0 1.94324 0 3.60009V49.0287C0 50.6855 1.34315 52.0287 3 52.0287H4.71429C6.37114 52.0287 7.71429 50.6855 7.71429 49.0287V11.3144C7.71429 9.65753 9.05743 8.31438 10.7143 8.31438H48.4286ZM7.71429 132.172C7.71429 130.515 6.37114 129.172 4.71428 129.172H3C1.34315 129.172 0 130.515 0 132.172V177.6C0 179.257 1.34314 180.6 3 180.6H48.4286C50.0854 180.6 51.4286 179.257 51.4286 177.6V175.886C51.4286 174.229 50.0854 172.886 48.4286 172.886H10.7143C9.05744 172.886 7.71429 171.543 7.71429 169.886V132.172Z" fill="black"/>
<path fill-rule="evenodd" clip-rule="evenodd" d="M93.7998 97.7998C93.7998 96.143 95.143 94.7998 96.7998 94.7998H121.815C123.472 94.7998 124.815 96.143 124.815 97.7998V119.169H148.4C150.057 119.169 151.4 120.512 151.4 122.169V149.4C151.4 151.057 150.057 152.4 148.4 152.4H121.169C119.512 152.4 118.169 151.057 118.169 149.4V125.815H96.7998C95.1429 125.815 93.7998 124.472 93.7998 122.815V97.7998ZM100.003 104.003C100.003 102.346 101.346 101.003 103.003 101.003H115.612C117.269 101.003 118.612 102.346 118.612 104.003V116.612C118.612 118.269 117.269 119.612 115.612 119.612H103.003C101.346 119.612 100.003 118.269 100.003 116.612V104.003ZM124.815 128.815C124.815 127.158 126.158 125.815 127.815 125.815H141.753C143.41 125.815 144.753 127.158 144.753 128.815V142.754C144.753 144.411 143.41 145.754 141.753 145.754H127.815C126.158 145.754 124.815 144.411 124.815 142.754V128.815Z" fill="black"/>
<path fill-rule="evenodd" clip-rule="evenodd" d="M96.7998 30C95.143 30 93.7998 31.3431 93.7998 33V84.6C93.7998 86.2569 95.143 87.6 96.7998 87.6H148.4C150.057 87.6 151.4 86.2569 151.4 84.6V33C151.4 31.3431 150.057 30 148.4 30H96.7998ZM104 37.2C102.343 37.2 101 38.5431 101 40.2V77.4C101 79.0569 102.343 80.4 104 80.4H141.2C142.857 80.4 144.2 79.0569 144.2 77.4V40.2C144.2 38.5431 142.857 37.2 141.2 37.2H104Z" fill="black"/>
<path fill-rule="evenodd" clip-rule="evenodd" d="M93.7998 33C93.7998 31.3431 95.143 30 96.7998 30H148.4C150.057 30 151.4 31.3431 151.4 33V84.6C151.4 86.2569 150.057 87.6 148.4 87.6H96.7998C95.143 87.6 93.7998 86.2569 93.7998 84.6V33ZM101 40.2C101 38.5431 102.343 37.2 104 37.2H141.2C142.857 37.2 144.2 38.5431 144.2 40.2V77.4C144.2 79.0569 142.857 80.4 141.2 80.4H104C102.343 80.4 101 79.0569 101 77.4V40.2ZM114.8 48C113.143 48 111.8 49.3432 111.8 51V66.6C111.8 68.2569 113.143 69.6 114.8 69.6H130.4C132.057 69.6 133.4 68.2569 133.4 66.6V51C133.4 49.3431 132.057 48 130.4 48H114.8Z" fill="black"/>
<path fill-rule="evenodd" clip-rule="evenodd" d="M29 33C29 31.3431 30.3431 30 32 30H83.6C85.2569 30 86.6 31.3431 86.6 33V84.6C86.6 86.2569 85.2569 87.6 83.6 87.6H32C30.3431 87.6 29 86.2569 29 84.6V33ZM36.2 40.2C36.2 38.5431 37.5431 37.2 39.2 37.2H76.4C78.0569 37.2 79.4 38.5431 79.4 40.2V77.4C79.4 79.0569 78.0569 80.4 76.4 80.4H39.2C37.5432 80.4 36.2 79.0569 36.2 77.4V40.2ZM48 48C47.4477 48 47 48.4477 47 49V68.6C47 69.1523 47.4477 69.6 48 69.6H67.6C68.1523 69.6 68.6 69.1523 68.6 68.6V49C68.6 48.4477 68.1523 48 67.6 48H48Z" fill="black"/>
<path fill-rule="evenodd" clip-rule="evenodd" d="M29 97.7998C29 96.143 30.3431 94.7998 32 94.7998H83.6C85.2569 94.7998 86.6 96.143 86.6 97.7998V149.4C86.6 151.057 85.2569 152.4 83.6 152.4H32C30.3431 152.4 29 151.057 29 149.4V97.7998ZM36.2 105C36.2 103.343 37.5431 102 39.2 102H76.4C78.0569 102 79.4 103.343 79.4 105V142.2C79.4 143.857 78.0569 145.2 76.4 145.2H39.2C37.5432 145.2 36.2 143.857 36.2 142.2V105ZM48 112.8C47.4477 112.8 47 113.248 47 113.8V133.4C47 133.952 47.4477 134.4 48 134.4H67.6C68.1523 134.4 68.6 133.952 68.6 133.4V113.8C68.6 113.248 68.1523 112.8 67.6 112.8H48Z" fill="black"/>
</svg>
