<svg width="100" height="100" viewBox="0 0 100 100" fill="none" xmlns="http://www.w3.org/2000/svg">
<path fill-rule="evenodd" clip-rule="evenodd" d="M38.6878 28C38.1355 28 37.6878 28.4477 37.6878 29V62.3376C37.6878 63.2697 36.9322 64.0254 36 64.0254C35.4477 64.0254 35 64.4731 35 65.0254V70.2305C35 70.7828 35.4477 71.2305 36 71.2305H38.6839L38.6878 71.2305H59.5368L59.5407 71.2305H62.2252C62.7775 71.2305 63.2252 70.7828 63.2252 70.2305V65.0254C63.2252 64.4731 62.7775 64.0254 62.2252 64.0254C61.2927 64.0254 60.5368 63.2695 60.5368 62.337V29C60.5368 28.4477 60.0891 28 59.5368 28H38.6878ZM41.7206 33.323C41.7206 32.7707 42.1683 32.323 42.7206 32.323H55.5052C56.0575 32.323 56.5052 32.7707 56.5052 33.323V42.8511C56.5052 43.4034 56.0575 43.8511 55.5052 43.8511H42.7206C42.1683 43.8511 41.7206 43.4034 41.7206 42.8511V33.323ZM64.5304 29.864C65.0932 29.2561 66.0423 29.2196 66.6501 29.7825L70.9775 33.7893C72.4684 33.9931 73.6682 35.4514 73.9269 37.3281C74.063 37.7608 74.1343 38.2157 74.1343 38.6784V63.9085C74.1343 66.3938 72.1195 68.4085 69.6343 68.4085H69.2677C66.7824 68.4085 64.7677 66.3938 64.7677 63.9085V43.2497C64.7677 42.4213 64.0961 41.7497 63.2677 41.7497H60.5377V38.7497H63.2677C65.7529 38.7497 67.7677 40.7644 67.7677 43.2497V63.9085C67.7677 64.737 68.4392 65.4085 69.2677 65.4085H69.6343C70.4627 65.4085 71.1343 64.7369 71.1343 63.9085V42.3604C70.9661 42.3938 70.7939 42.4111 70.6185 42.4111C68.7627 42.4111 67.2583 40.4756 67.2583 38.088C67.2583 36.9868 67.5784 35.9818 68.1053 35.2184L64.6119 31.9837C64.004 31.4209 63.9675 30.4719 64.5304 29.864Z" fill="black"/>
</svg>
