<svg width="204" height="201" viewBox="0 0 204 201" fill="none" xmlns="http://www.w3.org/2000/svg">
<mask id="path-2-inside-1_1726_25193" fill="white">
<path fill-rule="evenodd" clip-rule="evenodd" d="M174.121 172.65C177.74 170.116 178.619 165.127 176.085 161.508L162.963 142.768C167.957 135.654 171.578 127.768 173.752 119.523L195.73 117.6C200.132 117.215 203.388 113.335 203.003 108.934L200.039 75.063C199.654 70.6616 195.774 67.4056 191.373 67.7907L169.167 69.7334C167.439 66.0972 165.385 62.5558 162.999 59.1478C159.989 54.8493 156.599 50.9753 152.906 47.5395L161.997 26.6805C163.762 22.6302 161.947 17.8331 157.943 15.9658L127.129 1.59679C123.124 -0.270458 118.447 1.49926 116.682 5.54956L106.82 28.1754C99.3396 27.8131 91.7756 28.5987 84.4096 30.5817L70.5472 10.7841C68.013 7.16482 63.0246 6.28523 59.4053 8.81945L31.5542 28.321C27.9349 30.8553 27.0554 35.8436 29.5896 39.4629L43.5245 59.364C38.7744 66.2047 35.287 73.7506 33.1268 81.6354L8.07277 83.8274C3.6713 84.2125 0.415377 88.0927 0.800456 92.4942L3.76375 126.365C4.14883 130.766 8.0291 134.022 12.4306 133.637L37.2356 131.467C39.0236 135.324 41.1755 139.078 43.6994 142.682C46.3335 146.444 49.259 149.881 52.4239 152.984L43.166 174.225C41.4007 178.275 43.2158 183.073 47.2201 184.94L78.0345 199.309C82.0389 201.176 86.716 199.406 88.4813 195.356L97.9901 173.539C105.964 174.132 114.059 173.42 121.933 171.343L135.128 190.187C137.662 193.806 142.65 194.686 146.269 192.151L174.121 172.65ZM103 124C115.702 124 126 113.703 126 101C126 88.2975 115.702 78.0001 103 78.0001C90.2971 78.0001 79.9997 88.2975 79.9997 101C79.9997 113.703 90.2971 124 103 124Z"/>
</mask>
<path d="M176.085 161.508L169.532 166.097L169.532 166.097L176.085 161.508ZM174.121 172.65L178.709 179.203L178.709 179.203L174.121 172.65ZM162.963 142.768L156.416 138.172L153.193 142.762L156.41 147.357L162.963 142.768ZM173.752 119.523L173.055 111.554L167.451 112.044L166.017 117.483L173.752 119.523ZM195.73 117.6L196.428 125.57L195.73 117.6ZM203.003 108.934L210.972 108.236V108.236L203.003 108.934ZM200.039 75.063L208.009 74.3658V74.3658L200.039 75.063ZM191.373 67.7907L190.675 59.8212L191.373 67.7907ZM169.167 69.7334L161.942 73.1672L164.327 78.1874L169.864 77.703L169.167 69.7334ZM162.999 59.1478L169.552 54.5592L169.552 54.5592L162.999 59.1478ZM152.906 47.5395L145.572 44.3432L143.308 49.5375L147.457 53.3969L152.906 47.5395ZM161.997 26.6805L154.663 23.4841L154.663 23.4841L161.997 26.6805ZM157.943 15.9658L154.562 23.2163L154.562 23.2163L157.943 15.9658ZM127.129 1.59679L123.748 8.84725V8.84725L127.129 1.59679ZM116.682 5.54956L124.015 8.7459L124.015 8.74589L116.682 5.54956ZM106.82 28.1754L106.433 36.166L111.948 36.4331L114.154 31.3717L106.82 28.1754ZM84.4096 30.5817L77.8564 35.1703L81.0734 39.7647L86.4893 38.3067L84.4096 30.5817ZM70.5472 10.7841L77.1004 6.19545V6.19544L70.5472 10.7841ZM59.4053 8.81945L63.994 15.3727L59.4053 8.81945ZM31.5542 28.321L36.1428 34.8743V34.8743L31.5542 28.321ZM29.5896 39.4629L36.1428 34.8743V34.8743L29.5896 39.4629ZM43.5245 59.364L50.0956 63.9269L53.2773 59.3449L50.0777 54.7754L43.5245 59.364ZM33.1268 81.6354L33.8241 89.605L39.3712 89.1197L40.8425 83.7492L33.1268 81.6354ZM8.07277 83.8274L8.77001 91.7969L8.07277 83.8274ZM0.800456 92.4942L8.77001 91.7969V91.7969L0.800456 92.4942ZM3.76375 126.365L11.7333 125.668L3.76375 126.365ZM12.4306 133.637L11.7333 125.668H11.7333L12.4306 133.637ZM37.2356 131.467L44.4938 128.103L42.1323 123.008L36.5384 123.497L37.2356 131.467ZM43.6994 142.682L50.2526 138.094L43.6994 142.682ZM52.4239 152.984L59.7576 156.18L61.9593 151.128L58.0241 147.271L52.4239 152.984ZM43.166 174.225L50.4997 177.421L50.4997 177.421L43.166 174.225ZM47.2201 184.94L43.8391 192.19H43.8391L47.2201 184.94ZM78.0345 199.309L81.4155 192.058H81.4155L78.0345 199.309ZM88.4813 195.356L95.8151 198.552V198.552L88.4813 195.356ZM97.9901 173.539L98.5835 165.561L92.9239 165.14L90.6564 170.343L97.9901 173.539ZM121.933 171.343L128.486 166.755L125.287 162.185L119.893 163.608L121.933 171.343ZM135.128 190.187L141.681 185.598L141.681 185.598L135.128 190.187ZM146.269 192.151L150.858 198.705H150.858L146.269 192.151ZM169.532 166.097H169.532L178.709 179.203C185.948 174.135 187.707 164.158 182.638 156.919L169.532 166.097ZM156.41 147.357L169.532 166.097L182.638 156.919L169.517 138.179L156.41 147.357ZM166.017 117.483C164.08 124.827 160.856 131.846 156.416 138.172L169.511 147.364C175.058 139.463 179.076 130.708 181.488 121.564L166.017 117.483ZM195.033 109.631L173.055 111.554L174.449 127.493L196.428 125.57L195.033 109.631ZM195.033 109.631H195.033L196.428 125.57C205.231 124.8 211.742 117.039 210.972 108.236L195.033 109.631ZM192.07 75.7603L195.033 109.631L210.972 108.236L208.009 74.3658L192.07 75.7603ZM192.07 75.7603V75.7603L208.009 74.3658C207.239 65.5629 199.478 59.051 190.675 59.8212L192.07 75.7603ZM169.864 77.703L192.07 75.7603L190.675 59.8212L168.47 61.7639L169.864 77.703ZM156.446 63.7364C158.575 66.7774 160.404 69.9324 161.942 73.1672L176.393 66.2997C174.474 62.2621 172.196 58.3343 169.552 54.5592L156.446 63.7364ZM147.457 53.3969C150.741 56.4521 153.76 59.9013 156.446 63.7365L169.552 54.5592C166.218 49.7973 162.457 45.4986 158.355 41.6822L147.457 53.3969ZM154.663 23.4841L145.572 44.3432L160.24 50.7359L169.331 29.8768L154.663 23.4841ZM154.562 23.2163C154.576 23.223 154.585 23.229 154.597 23.2421C154.612 23.2594 154.634 23.2908 154.651 23.3356C154.668 23.3804 154.673 23.4184 154.672 23.4418C154.672 23.4594 154.67 23.4697 154.663 23.4841L169.331 29.8768C172.83 21.8485 169.261 12.4165 161.324 8.71534L154.562 23.2163ZM123.748 8.84725L154.562 23.2163L161.324 8.71535L130.509 -5.65367L123.748 8.84725ZM124.015 8.74589C124.021 8.73253 124.013 8.75337 123.983 8.78202C123.957 8.80681 123.927 8.82494 123.897 8.8364C123.866 8.84787 123.832 8.85406 123.796 8.85289C123.754 8.85153 123.734 8.84109 123.748 8.84725L130.509 -5.65367C122.429 -9.42168 112.91 -5.82007 109.348 2.35324L124.015 8.74589ZM114.154 31.3717L124.015 8.7459L109.348 2.35323L99.4867 24.9791L114.154 31.3717ZM86.4893 38.3067C93.0393 36.5433 99.7706 35.8433 106.433 36.166L107.207 20.1848C98.9086 19.7829 90.5119 20.6541 82.33 22.8567L86.4893 38.3067ZM63.994 15.3727L77.8564 35.1703L90.9628 25.9931L77.1004 6.19545L63.994 15.3727ZM63.994 15.3727L63.994 15.3727L77.1004 6.19544C72.032 -1.04303 62.0552 -2.80221 54.8167 2.26624L63.994 15.3727ZM36.1428 34.8743L63.994 15.3727L54.8167 2.26624L26.9656 21.7678L36.1428 34.8743ZM36.1428 34.8743V34.8743L26.9656 21.7678C19.7271 26.8363 17.9679 36.813 23.0364 44.0515L36.1428 34.8743ZM50.0777 54.7754L36.1428 34.8743L23.0364 44.0515L36.9713 63.9526L50.0777 54.7754ZM40.8425 83.7492C42.7668 76.7255 45.8716 70.01 50.0956 63.9269L36.9534 54.8011C31.6772 62.3994 27.8072 70.7758 25.4111 79.5216L40.8425 83.7492ZM8.77001 91.7969L33.8241 89.605L32.4296 73.6659L7.37552 75.8578L8.77001 91.7969ZM8.77001 91.7969V91.7969L7.37552 75.8578C-1.42741 76.628 -7.93926 84.3885 -7.1691 93.1914L8.77001 91.7969ZM11.7333 125.668L8.77001 91.7969L-7.1691 93.1914L-4.2058 127.062L11.7333 125.668ZM11.7333 125.668L11.7333 125.668L-4.2058 127.062C-3.43565 135.865 4.32488 142.377 13.1278 141.607L11.7333 125.668ZM36.5384 123.497L11.7333 125.668L13.1278 141.607L37.9329 139.437L36.5384 123.497ZM50.2526 138.094C48.0005 134.878 46.0842 131.534 44.4938 128.103L29.9774 134.831C31.9629 139.115 34.3504 143.278 37.1462 147.271L50.2526 138.094ZM58.0241 147.271C55.209 144.511 52.603 141.451 50.2526 138.094L37.1462 147.271C40.0641 151.438 43.3089 155.251 46.8237 158.697L58.0241 147.271ZM50.4997 177.421L59.7576 156.18L45.0902 149.787L35.8322 171.029L50.4997 177.421ZM50.601 177.689C50.5867 177.683 50.5781 177.677 50.5663 177.664C50.5505 177.646 50.5287 177.615 50.5117 177.57C50.4948 177.525 50.4903 177.487 50.4907 177.464C50.491 177.446 50.4934 177.436 50.4997 177.421L35.8322 171.029C32.3332 179.057 35.902 188.489 43.8391 192.19L50.601 177.689ZM81.4155 192.058L50.601 177.689L43.8391 192.19L74.6536 206.559L81.4155 192.058ZM81.1476 192.16C81.1418 192.173 81.1496 192.152 81.18 192.124C81.2063 192.099 81.2362 192.081 81.2665 192.069C81.2968 192.058 81.3312 192.052 81.3673 192.053C81.409 192.054 81.4287 192.064 81.4155 192.058L74.6536 206.559C82.7341 210.327 92.2528 206.726 95.8151 198.552L81.1476 192.16ZM90.6564 170.343L81.1476 192.16L95.8151 198.552L105.324 176.735L90.6564 170.343ZM119.893 163.608C112.891 165.455 105.686 166.089 98.5835 165.561L97.3967 181.517C106.241 182.175 115.227 181.386 123.974 179.079L119.893 163.608ZM141.681 185.598L128.486 166.755L115.38 175.932L128.574 194.775L141.681 185.598ZM141.681 185.598L141.681 185.598L128.574 194.775C133.643 202.014 143.62 203.773 150.858 198.705L141.681 185.598ZM169.532 166.097L141.681 185.598L150.858 198.705L178.709 179.203L169.532 166.097ZM118 101C118 109.284 111.284 116 103 116V132C120.121 132 134 118.121 134 101H118ZM103 86.0001C111.284 86.0001 118 92.7158 118 101H134C134 83.8792 120.121 70.0001 103 70.0001V86.0001ZM87.9997 101C87.9997 92.7158 94.7154 86.0001 103 86.0001V70.0001C85.8788 70.0001 71.9997 83.8792 71.9997 101H87.9997ZM103 116C94.7154 116 87.9997 109.284 87.9997 101H71.9997C71.9997 118.121 85.8788 132 103 132V116Z" fill="black" mask="url(#path-2-inside-1_1726_25193)"/>
</svg>
