<svg width="62" height="62" viewBox="0 0 62 62" fill="none" xmlns="http://www.w3.org/2000/svg">
<mask id="path-1-inside-1_749_38895" fill="white">
<path fill-rule="evenodd" clip-rule="evenodd" d="M7.73771 40.819C8.01007 41.8895 9.09617 42.527 10.1636 42.2428L14.7484 41.0222C15.1724 41.7001 15.6429 42.3586 16.1605 42.9934C17.4016 44.5156 18.8254 45.7937 20.3727 46.8222L19.1543 51.3352C18.8653 52.4056 19.4899 53.5142 20.5494 53.8112L28.1666 55.9469C29.2261 56.244 30.3193 55.617 30.6083 54.5466L31.8578 49.9186C33.8035 49.8022 35.7402 49.381 37.594 48.6478L40.6874 52.4418C41.3864 53.2992 42.6376 53.4189 43.482 52.7093L49.567 47.5957C50.4114 46.8861 50.5292 45.6159 49.8302 44.7585L46.7439 40.9734C48.4577 38.2064 49.422 35.069 49.6072 31.8796L54.2686 30.6386C55.336 30.3545 55.9806 29.2563 55.7082 28.1858L53.7372 20.4388C53.4648 19.3684 52.3787 18.7309 51.3113 19.0151L46.5774 20.2754C46.1878 19.6696 45.7606 19.0798 45.2954 18.5092C44.0915 17.0328 42.7158 15.7859 41.2222 14.7737L42.5377 9.90098C42.8267 8.83056 42.2021 7.722 41.1426 7.42494L33.5254 5.2893C32.4659 4.99223 31.3727 5.61916 31.0837 6.68958L29.7648 11.5748C27.7089 11.6793 25.6606 12.1239 23.7072 12.9168L20.6465 9.16295C19.9475 8.3056 18.6963 8.18584 17.8519 8.89543L11.7669 14.0091C10.9225 14.7186 10.8047 15.9889 11.5038 16.8463L14.6238 20.6729C13.0081 23.3337 12.0796 26.3289 11.8643 29.3792L7.20624 30.6193C6.13883 30.9034 5.4943 32.0016 5.76666 33.0721L7.73771 40.819ZM34.9567 29.5124C34.3548 27.1547 31.9778 25.7433 29.6476 26.3599C27.3174 26.9766 25.9163 29.3878 26.5182 31.7455C27.1201 34.1032 29.497 35.5146 31.8273 34.898C34.1575 34.2813 35.5586 31.8701 34.9567 29.5124Z"/>
</mask>
<path fill-rule="evenodd" clip-rule="evenodd" d="M7.73771 40.819C8.01007 41.8895 9.09617 42.527 10.1636 42.2428L14.7484 41.0222C15.1724 41.7001 15.6429 42.3586 16.1605 42.9934C17.4016 44.5156 18.8254 45.7937 20.3727 46.8222L19.1543 51.3352C18.8653 52.4056 19.4899 53.5142 20.5494 53.8112L28.1666 55.9469C29.2261 56.244 30.3193 55.617 30.6083 54.5466L31.8578 49.9186C33.8035 49.8022 35.7402 49.381 37.594 48.6478L40.6874 52.4418C41.3864 53.2992 42.6376 53.4189 43.482 52.7093L49.567 47.5957C50.4114 46.8861 50.5292 45.6159 49.8302 44.7585L46.7439 40.9734C48.4577 38.2064 49.422 35.069 49.6072 31.8796L54.2686 30.6386C55.336 30.3545 55.9806 29.2563 55.7082 28.1858L53.7372 20.4388C53.4648 19.3684 52.3787 18.7309 51.3113 19.0151L46.5774 20.2754C46.1878 19.6696 45.7606 19.0798 45.2954 18.5092C44.0915 17.0328 42.7158 15.7859 41.2222 14.7737L42.5377 9.90098C42.8267 8.83056 42.2021 7.722 41.1426 7.42494L33.5254 5.2893C32.4659 4.99223 31.3727 5.61916 31.0837 6.68958L29.7648 11.5748C27.7089 11.6793 25.6606 12.1239 23.7072 12.9168L20.6465 9.16295C19.9475 8.3056 18.6963 8.18584 17.8519 8.89543L11.7669 14.0091C10.9225 14.7186 10.8047 15.9889 11.5038 16.8463L14.6238 20.6729C13.0081 23.3337 12.0796 26.3289 11.8643 29.3792L7.20624 30.6193C6.13883 30.9034 5.4943 32.0016 5.76666 33.0721L7.73771 40.819ZM34.9567 29.5124C34.3548 27.1547 31.9778 25.7433 29.6476 26.3599C27.3174 26.9766 25.9163 29.3878 26.5182 31.7455C27.1201 34.1032 29.497 35.5146 31.8273 34.898C34.1575 34.2813 35.5586 31.8701 34.9567 29.5124Z" fill="#D9D9D9"/>
<path d="M10.1636 42.2428L9.28108 38.8559L9.28108 38.8559L10.1636 42.2428ZM7.73771 40.819L11.125 39.9381L7.73771 40.819ZM14.7484 41.0222L17.7123 39.1507L16.3509 36.9738L13.8659 37.6354L14.7484 41.0222ZM16.1605 42.9934L18.8709 40.7679L18.8709 40.7679L16.1605 42.9934ZM20.3727 46.8222L23.7465 47.7233L24.404 45.2881L22.3136 43.8986L20.3727 46.8222ZM19.1543 51.3352L22.5281 52.2363L22.5281 52.2363L19.1543 51.3352ZM20.5494 53.8112L21.5053 50.4359L21.5053 50.4359L20.5494 53.8112ZM28.1666 55.9469L27.2108 59.3222L27.2108 59.3222L28.1666 55.9469ZM30.6083 54.5466L27.2345 53.6455L27.2345 53.6455L30.6083 54.5466ZM31.8578 49.9186L31.6657 46.4203L29.1445 46.5711L28.484 49.0175L31.8578 49.9186ZM37.594 48.6478L40.3044 46.4223L38.6965 44.4503L36.3242 45.3886L37.594 48.6478ZM40.6874 52.4418L37.977 54.6673L40.6874 52.4418ZM43.482 52.7093L45.7202 55.3908L45.7202 55.3908L43.482 52.7093ZM49.567 47.5957L47.3288 44.9142L47.3288 44.9142L49.567 47.5957ZM49.8302 44.7585L52.5406 42.533L52.5406 42.533L49.8302 44.7585ZM46.7439 40.9734L43.7768 39.1346L42.457 41.2653L44.0335 43.1989L46.7439 40.9734ZM49.6072 31.8796L48.7247 28.4928L46.2654 29.1475L46.1176 31.692L49.6072 31.8796ZM54.2686 30.6386L53.3861 27.2518L53.3861 27.2518L54.2686 30.6386ZM55.7082 28.1858L52.3209 29.0667L52.3209 29.0667L55.7082 28.1858ZM53.7372 20.4388L50.3499 21.3198L50.3499 21.3198L53.7372 20.4388ZM51.3113 19.0151L50.4288 15.6283L50.4288 15.6283L51.3113 19.0151ZM46.5774 20.2754L43.637 22.1839L45.0075 24.3151L47.4599 23.6622L46.5774 20.2754ZM45.2954 18.5092L42.585 20.7347L42.585 20.7347L45.2954 18.5092ZM41.2222 14.7737L37.8484 13.8726L37.197 16.2851L39.2556 17.68L41.2222 14.7737ZM42.5377 9.90098L39.164 8.99989L39.1639 8.99989L42.5377 9.90098ZM41.1426 7.42494L40.1868 10.8003L40.1868 10.8003L41.1426 7.42494ZM33.5254 5.2893L34.4813 1.91397L34.4813 1.91397L33.5254 5.2893ZM31.0837 6.68958L27.7099 5.78849L27.7099 5.7885L31.0837 6.68958ZM29.7648 11.5748L29.9258 15.0748L32.4719 14.9453L33.1386 12.4759L29.7648 11.5748ZM23.7072 12.9168L20.9968 15.1423L22.6199 17.1329L25.0061 16.1643L23.7072 12.9168ZM20.6465 9.16295L17.9361 11.3884L17.9361 11.3884L20.6465 9.16295ZM17.8519 8.89543L15.6137 6.21395L15.6137 6.21395L17.8519 8.89543ZM11.7669 14.0091L14.0051 16.6905L14.0051 16.6905L11.7669 14.0091ZM11.5038 16.8463L8.79333 19.0717L8.79333 19.0717L11.5038 16.8463ZM14.6238 20.6729L17.6073 22.4852L18.896 20.3628L17.3342 18.4474L14.6238 20.6729ZM11.8643 29.3792L12.7468 32.766L15.174 32.1199L15.3511 29.6105L11.8643 29.3792ZM7.20624 30.6193L6.32374 27.2324L6.32374 27.2324L7.20624 30.6193ZM5.76666 33.0721L9.15395 32.1911L5.76666 33.0721ZM29.6476 26.3599L30.5251 29.7481L30.5251 29.7481L29.6476 26.3599ZM31.8273 34.898L32.7048 38.2861L32.7048 38.2861L31.8273 34.898ZM9.28108 38.8559C10.0892 38.6408 10.9188 39.1276 11.125 39.9381L4.35042 41.7C5.10135 44.6514 8.10309 46.4131 11.0461 45.6296L9.28108 38.8559ZM13.8659 37.6354L9.28108 38.8559L11.0461 45.6296L15.6309 44.4091L13.8659 37.6354ZM18.8709 40.7679C18.4455 40.2461 18.0595 39.7059 17.7123 39.1507L11.7845 42.8937C12.2852 43.6944 12.8404 44.4711 13.45 45.2189L18.8709 40.7679ZM22.3136 43.8986C21.0541 43.0615 19.8902 42.018 18.8709 40.7679L13.45 45.2189C14.913 47.0131 16.5967 48.526 18.4319 49.7459L22.3136 43.8986ZM22.5281 52.2363L23.7465 47.7233L16.999 45.9212L15.7805 50.4341L22.5281 52.2363ZM21.5053 50.4359C22.2959 50.6576 22.7371 51.462 22.5281 52.2363L15.7805 50.4341C14.9934 53.3493 16.684 56.3708 19.5936 57.1866L21.5053 50.4359ZM29.1224 52.5716L21.5053 50.4359L19.5936 57.1866L27.2108 59.3222L29.1224 52.5716ZM27.2345 53.6455C27.4523 52.839 28.2991 52.3407 29.1224 52.5716L27.2108 59.3222C30.1531 60.1472 33.1863 58.3951 33.9821 55.4477L27.2345 53.6455ZM28.484 49.0175L27.2345 53.6455L33.9821 55.4477L35.2316 50.8197L28.484 49.0175ZM36.3242 45.3886C34.8207 45.9833 33.2481 46.3257 31.6657 46.4203L32.0499 53.4169C34.3589 53.2788 36.6598 52.7787 38.8637 51.907L36.3242 45.3886ZM43.3978 50.2163L40.3044 46.4223L34.8835 50.8733L37.977 54.6673L43.3978 50.2163ZM41.2438 50.0279C41.9123 49.4661 42.8828 49.5846 43.3978 50.2163L37.977 54.6673C39.8901 57.0137 43.363 57.3718 45.7202 55.3908L41.2438 50.0279ZM47.3288 44.9142L41.2438 50.0279L45.7202 55.3908L51.8052 50.2772L47.3288 44.9142ZM47.1197 46.984C46.6239 46.3759 46.685 45.4553 47.3288 44.9142L51.8052 50.2772C54.1378 48.3169 54.4345 44.8558 52.5406 42.533L47.1197 46.984ZM44.0335 43.1989L47.1198 46.984L52.5406 42.533L49.4544 38.7479L44.0335 43.1989ZM46.1176 31.692C45.9655 34.3118 45.1737 36.8791 43.7768 39.1346L49.7111 42.8122C51.7417 39.5337 52.8785 35.8262 53.0968 32.0672L46.1176 31.692ZM53.3861 27.2518L48.7247 28.4928L50.4897 35.2665L55.1511 34.0255L53.3861 27.2518ZM52.3209 29.0667C52.1186 28.2715 52.5932 27.4629 53.3861 27.2518L55.1511 34.0255C58.0789 33.2461 59.8426 30.2411 59.0955 27.3049L52.3209 29.0667ZM50.3499 21.3198L52.3209 29.0667L59.0955 27.3049L57.1245 19.5579L50.3499 21.3198ZM52.1938 22.402C51.3856 22.6171 50.5561 22.1303 50.3499 21.3198L57.1245 19.5579C56.3735 16.6065 53.3718 14.8448 50.4288 15.6283L52.1938 22.402ZM47.4599 23.6622L52.1938 22.402L50.4288 15.6283L45.6949 16.8885L47.4599 23.6622ZM42.585 20.7347C42.9674 21.2038 43.3179 21.6877 43.637 22.1839L49.5178 18.3668C49.0578 17.6515 48.5538 16.9559 48.0058 16.2837L42.585 20.7347ZM39.2556 17.68C40.4715 18.504 41.5962 19.5221 42.585 20.7347L48.0058 16.2838C46.5869 14.5435 44.9601 13.0677 43.1888 11.8674L39.2556 17.68ZM39.1639 8.99989L37.8484 13.8726L44.5959 15.6748L45.9115 10.8021L39.1639 8.99989ZM40.1868 10.8003C39.3962 10.5786 38.9549 9.7742 39.164 8.99989L45.9115 10.8021C46.6986 7.88692 45.0081 4.86539 42.0984 4.04961L40.1868 10.8003ZM32.5696 8.66462L40.1868 10.8003L42.0984 4.04962L34.4813 1.91397L32.5696 8.66462ZM34.4575 7.59067C34.2398 8.39717 33.3929 8.89545 32.5696 8.66462L34.4813 1.91397C31.5389 1.08902 28.5057 2.84115 27.7099 5.78849L34.4575 7.59067ZM33.1386 12.4759L34.4575 7.59066L27.7099 5.7885L26.391 10.6737L33.1386 12.4759ZM25.0061 16.1643C26.5904 15.5212 28.2536 15.1598 29.9258 15.0748L29.6038 8.07479C27.1642 8.19885 24.7307 8.72657 22.4083 9.66928L25.0061 16.1643ZM17.9361 11.3884L20.9968 15.1423L26.4176 10.6913L23.3569 6.93745L17.9361 11.3884ZM20.0901 11.5769C19.4216 12.1387 18.4512 12.0202 17.9361 11.3884L23.3569 6.93745C21.4438 4.59104 17.9709 4.23299 15.6137 6.21395L20.0901 11.5769ZM14.0051 16.6905L20.0901 11.5769L15.6137 6.21395L9.52875 11.3276L14.0051 16.6905ZM14.2142 14.6208C14.71 15.2289 14.649 16.1495 14.0051 16.6905L9.52875 11.3276C7.19611 13.2878 6.89944 16.749 8.79333 19.0717L14.2142 14.6208ZM17.3342 18.4474L14.2142 14.6208L8.79333 19.0717L11.9134 22.8984L17.3342 18.4474ZM15.3511 29.6105C15.5279 27.1053 16.2901 24.6543 17.6073 22.4852L11.6404 18.8606C9.72616 22.013 8.63135 25.5525 8.37757 29.1478L15.3511 29.6105ZM8.08874 34.0061L12.7468 32.766L10.9818 25.9923L6.32374 27.2324L8.08874 34.0061ZM9.15395 32.1911C9.35628 32.9864 8.88168 33.795 8.08875 34.0061L6.32374 27.2324C3.39597 28.0118 1.63233 31.0168 2.37938 33.953L9.15395 32.1911ZM11.125 39.9381L9.15395 32.1911L2.37938 33.953L4.35042 41.7L11.125 39.9381ZM30.5251 29.7481C30.9518 29.6352 31.4397 29.8854 31.5701 30.396L38.3433 28.6287C37.2698 24.4239 33.0039 21.8513 28.7701 22.9718L30.5251 29.7481ZM29.9048 30.8619C29.7722 30.3424 30.0889 29.8636 30.5251 29.7481L28.7701 22.9718C24.5459 24.0897 22.0605 28.4333 23.1316 32.6292L29.9048 30.8619ZM30.9497 31.5098C30.523 31.6227 30.0351 31.3725 29.9048 30.8619L23.1316 32.6292C24.205 36.834 28.471 39.4065 32.7048 38.2861L30.9497 31.5098ZM31.5701 30.396C31.7027 30.9155 31.386 31.3943 30.9497 31.5098L32.7048 38.2861C36.929 37.1682 39.4144 32.8246 38.3433 28.6287L31.5701 30.396Z" fill="black" mask="url(#path-1-inside-1_749_38895)"/>
</svg>
