<svg width="100" height="100" viewBox="0 0 100 100" fill="none" xmlns="http://www.w3.org/2000/svg">
<mask id="path-1-inside-1_1730_24824" fill="white">
<path fill-rule="evenodd" clip-rule="evenodd" d="M82.7168 89.5325C86.2937 86.9389 87.1871 81.8692 84.7123 78.2091L80.3816 71.8044C82.8665 68.1387 84.6683 64.0746 85.7504 59.8263L92.7981 59.1878C97.135 58.7949 100.345 54.8573 99.9678 50.3929L99.1653 40.8947C98.7882 36.4303 94.9667 33.1298 90.6298 33.5227L83.4689 34.1715C82.6091 32.2979 81.5872 30.4733 80.3999 28.7173C78.9024 26.5026 77.2158 24.5067 75.3783 22.7365L78.3438 15.6904C80.0828 11.5587 78.313 6.67398 74.3909 4.78005L66.0464 0.750608C62.1243 -1.14332 57.5352 0.670741 55.7963 4.80242L52.4478 12.7584C48.725 12.5716 44.9609 12.9765 41.2953 13.9985L36.5956 7.04791C34.1207 3.38781 29.2148 2.52325 25.6379 5.11689L18.2118 10.5016C14.6349 13.0953 13.7415 18.1649 16.2163 21.825L20.9524 28.8294C18.5892 32.3539 16.8542 36.2417 15.7794 40.3041L7.19974 41.0814C2.86285 41.4744 -0.347141 45.4119 0.030029 49.8763L0.832483 59.3745C1.20965 63.8389 5.03116 67.1394 9.36805 66.7465L17.8237 65.9804C18.7134 67.968 19.7841 69.9022 21.04 71.7595C22.3508 73.6981 23.8066 75.4691 25.3815 77.0678L22.3335 84.31C20.5945 88.4417 22.3643 93.3264 26.2864 95.2203L34.6309 99.2498C38.553 101.144 43.1421 99.3296 44.881 95.198L48.0541 87.6588C52.0209 87.9642 56.0483 87.5976 59.9659 86.5276L64.333 92.9862C66.8078 96.6463 71.7137 97.5109 75.2906 94.9173L82.7168 89.5325ZM49.5 56C52.5376 56 55 53.3137 55 50C55 46.6863 52.5376 44 49.5 44C46.4624 44 44 46.6863 44 50C44 53.3137 46.4624 56 49.5 56Z"/>
</mask>
<path d="M84.7123 78.2091L78.0851 82.6902L78.0851 82.6902L84.7123 78.2091ZM82.7168 89.5325L78.0206 83.056L78.0206 83.056L82.7168 89.5325ZM80.3816 71.8044L73.7597 67.3154L70.7206 71.7986L73.7544 76.2854L80.3816 71.8044ZM85.7504 59.8263L85.0285 51.8589L79.3943 52.3694L77.9979 57.8517L85.7504 59.8263ZM92.7981 59.1878L93.5199 67.1552L92.7981 59.1878ZM99.9678 50.3929L107.939 49.7194V49.7194L99.9678 50.3929ZM99.1653 40.8947L91.1937 41.5682V41.5682L99.1653 40.8947ZM90.6298 33.5227L91.3516 41.4901L90.6298 33.5227ZM83.4689 34.1715L76.198 37.5082L78.5573 42.6492L84.1907 42.1389L83.4689 34.1715ZM80.3999 28.7173L87.0271 24.2362L87.0271 24.2362L80.3999 28.7173ZM75.3783 22.7365L68.0048 19.6331L65.8762 24.6907L69.8279 28.4977L75.3783 22.7365ZM78.3438 15.6904L85.7174 18.7937V18.7937L78.3438 15.6904ZM74.3909 4.78005L77.8696 -2.42399V-2.42399L74.3909 4.78005ZM66.0464 0.750608L62.5677 7.95465V7.95465L66.0464 0.750608ZM55.7963 4.80242L48.4227 1.69907L48.4227 1.69907L55.7963 4.80242ZM52.4478 12.7584L52.0469 20.7484L57.6464 21.0293L59.8213 15.8618L52.4478 12.7584ZM41.2953 13.9985L34.6681 18.4796L37.8948 23.2517L43.4438 21.7046L41.2953 13.9985ZM36.5956 7.04791L29.9684 11.529L29.9684 11.529L36.5956 7.04791ZM25.6379 5.11689L30.3341 11.5934L30.3341 11.5934L25.6379 5.11689ZM18.2118 10.5016L13.5156 4.02507V4.02507L18.2118 10.5016ZM16.2163 21.825L22.8435 17.3439V17.3439L16.2163 21.825ZM20.9524 28.8294L27.597 33.2847L30.5969 28.8107L27.5796 24.3484L20.9524 28.8294ZM15.7794 40.3041L16.5013 48.2715L22.0805 47.766L23.5134 42.3502L15.7794 40.3041ZM7.19974 41.0814L7.92157 49.0488H7.92158L7.19974 41.0814ZM0.030029 49.8763L8.00163 49.2028L0.030029 49.8763ZM0.832483 59.3745L8.80408 58.701L0.832483 59.3745ZM9.36805 66.7465L8.64622 58.7791H8.64621L9.36805 66.7465ZM17.8237 65.9804L25.1256 62.7121L22.7916 57.4976L17.1019 58.0131L17.8237 65.9804ZM21.04 71.7595L27.6672 67.2784L27.6672 67.2784L21.04 71.7595ZM25.3815 77.0678L32.7551 80.1712L34.8246 75.254L31.0805 71.4534L25.3815 77.0678ZM22.3335 84.31L29.707 87.4133L29.707 87.4133L22.3335 84.31ZM26.2864 95.2203L29.7652 88.0163H29.7652L26.2864 95.2203ZM34.6309 99.2498L38.1096 92.0457H38.1096L34.6309 99.2498ZM44.881 95.198L37.5075 92.0946L44.881 95.198ZM48.0541 87.6588L48.6683 79.6824L42.9179 79.2396L40.6805 84.5554L48.0541 87.6588ZM59.9659 86.5276L66.5931 82.0466L63.3844 77.301L57.8583 78.8103L59.9659 86.5276ZM64.333 92.9862L57.7058 97.4673L57.7058 97.4673L64.333 92.9862ZM75.2906 94.9173L79.9868 101.394L79.9868 101.394L75.2906 94.9173ZM78.0851 82.6902C78.0942 82.7037 78.101 82.7175 78.1063 82.7434C78.1126 82.7749 78.1157 82.8237 78.1053 82.8823C78.095 82.9409 78.0755 82.9858 78.0587 83.0132C78.0449 83.0358 78.0338 83.0464 78.0206 83.056L87.413 96.0091C94.484 90.8818 96.2319 80.9636 91.3395 73.728L78.0851 82.6902ZM73.7544 76.2854L78.0851 82.6902L91.3395 73.728L87.0088 67.3233L73.7544 76.2854ZM77.9979 57.8517C77.1383 61.2263 75.7117 64.436 73.7597 67.3154L87.0035 76.2933C90.0214 71.8414 92.1982 66.9229 93.5028 61.801L77.9979 57.8517ZM92.0762 51.2204L85.0285 51.8589L86.4722 67.7937L93.5199 67.1552L92.0762 51.2204ZM91.9962 51.0664C92.0015 51.1288 91.9936 51.168 91.9855 51.1938C91.9758 51.2246 91.9616 51.2481 91.9501 51.2623C91.9386 51.2764 91.9399 51.269 91.9668 51.2543C91.9807 51.2467 91.9991 51.2385 92.021 51.2318C92.0435 51.2249 92.063 51.2216 92.0762 51.2204L93.5199 67.1552C102.448 66.3462 108.669 58.3543 107.939 49.7194L91.9962 51.0664ZM91.1937 41.5682L91.9962 51.0664L107.939 49.7194L107.137 40.2212L91.1937 41.5682ZM91.3516 41.4901C91.3384 41.4913 91.3165 41.4917 91.2892 41.4885C91.2624 41.4853 91.2373 41.4795 91.2155 41.4722C91.1724 41.4579 91.1542 41.4424 91.1534 41.4417C91.1527 41.4411 91.1604 41.4479 91.1688 41.4643C91.1749 41.4762 91.1885 41.506 91.1937 41.5682L107.137 40.2212C106.405 31.5525 98.878 24.7427 89.9079 25.5553L91.3516 41.4901ZM84.1907 42.1389L91.3516 41.4901L89.9079 25.5553L82.7471 26.2041L84.1907 42.1389ZM73.7727 33.1984C74.7122 34.5879 75.5194 36.0295 76.198 37.5082L90.7398 30.8348C89.6988 28.5664 88.4622 26.3587 87.0271 24.2362L73.7727 33.1984ZM69.8279 28.4977C71.2622 29.8796 72.5881 31.4464 73.7727 33.1984L87.0271 24.2362C85.2168 21.5589 83.1693 19.1338 80.9288 16.9752L69.8279 28.4977ZM70.9703 12.587L68.0048 19.6331L82.7519 25.8398L85.7174 18.7937L70.9703 12.587ZM70.9121 11.9841C70.836 11.9474 70.9032 11.9404 70.9687 12.1212C71.0346 12.3032 71.0188 12.4719 70.9703 12.587L85.7174 18.7937C89.0296 10.924 85.8062 1.40847 77.8696 -2.42399L70.9121 11.9841ZM62.5677 7.95465L70.9121 11.9841L77.8696 -2.42399L69.5252 -6.45344L62.5677 7.95465ZM63.1698 7.90577C63.1947 7.84658 63.2066 7.84696 63.18 7.87301C63.1567 7.89586 63.1127 7.92943 63.0436 7.95674C62.974 7.98424 62.8845 8.00291 62.7835 7.99974C62.6762 7.99637 62.5985 7.96956 62.5677 7.95465L69.5252 -6.45344C61.2688 -10.4403 51.8466 -6.43597 48.4227 1.69907L63.1698 7.90577ZM59.8213 15.8618L63.1698 7.90577L48.4227 1.69907L45.0742 9.65506L59.8213 15.8618ZM43.4438 21.7046C46.2694 20.9168 49.1722 20.6041 52.0469 20.7484L52.8486 4.76846C48.2778 4.53914 43.6523 5.0362 39.1468 6.2924L43.4438 21.7046ZM29.9684 11.529L34.6681 18.4796L47.9225 9.5174L43.2228 2.56683L29.9684 11.529ZM30.3341 11.5934C30.346 11.5848 30.3248 11.6016 30.2755 11.6127C30.2316 11.6226 30.1856 11.6236 30.1416 11.6158C30.0976 11.6081 30.0547 11.5915 30.0168 11.5671C29.9743 11.5398 29.9601 11.5168 29.9684 11.529L43.2228 2.56683C38.2155 -4.83863 28.1789 -6.60736 20.9417 -1.35967L30.3341 11.5934ZM22.908 16.9782L30.3341 11.5934L20.9417 -1.35967L13.5156 4.02507L22.908 16.9782ZM22.8435 17.3439C22.8344 17.3305 22.8275 17.3167 22.8223 17.2908C22.8159 17.2593 22.8129 17.2104 22.8232 17.1518C22.8336 17.0932 22.8531 17.0483 22.8699 17.0209C22.8836 16.9984 22.8948 16.9877 22.908 16.9782L13.5156 4.02507C6.44452 9.15233 4.69668 19.0706 9.58909 26.3061L22.8435 17.3439ZM27.5796 24.3484L22.8435 17.3439L9.58909 26.3061L14.3252 33.3105L27.5796 24.3484ZM23.5134 42.3502C24.3669 39.124 25.7404 36.0537 27.597 33.2847L14.3079 24.3742C11.438 28.6542 9.34148 33.3595 8.04551 38.258L23.5134 42.3502ZM7.92158 49.0488L16.5013 48.2715L15.0576 32.3368L6.4779 33.1141L7.92158 49.0488ZM8.00163 49.2028C7.99636 49.1404 8.00425 49.1012 8.01237 49.0754C8.02204 49.0446 8.03622 49.0211 8.04777 49.007C8.05926 48.9929 8.05791 49.0002 8.03101 49.0149C8.01711 49.0225 7.99869 49.0307 7.97679 49.0374C7.95436 49.0443 7.93481 49.0476 7.92157 49.0488L6.4779 33.1141C-2.4505 33.923 -8.67108 41.915 -7.94157 50.5498L8.00163 49.2028ZM8.80408 58.701L8.00163 49.2028L-7.94157 50.5498L-7.13912 60.048L8.80408 58.701ZM8.64621 58.7791C8.65948 58.7779 8.68137 58.7775 8.70866 58.7807C8.73543 58.7839 8.76055 58.7897 8.78234 58.797C8.82541 58.8113 8.84366 58.8268 8.84447 58.8275C8.84516 58.8281 8.83744 58.8213 8.82901 58.8049C8.82292 58.7931 8.80933 58.7632 8.80408 58.701L-7.13912 60.048C-6.40675 68.7167 1.11987 75.5266 10.0899 74.7139L8.64621 58.7791ZM17.1019 58.0131L8.64622 58.7791L10.0899 74.7139L18.5456 73.9478L17.1019 58.0131ZM27.6672 67.2784C26.6734 65.8088 25.8278 64.2808 25.1256 62.7121L10.5218 69.2488C11.5989 71.6552 12.8948 73.9956 14.4128 76.2406L27.6672 67.2784ZM31.0805 71.4534C29.8495 70.2038 28.7043 68.8123 27.6672 67.2784L14.4127 76.2406C15.9973 78.584 17.7636 80.7344 19.6825 82.6822L31.0805 71.4534ZM29.707 87.4133L32.7551 80.1712L18.008 73.9645L14.9599 81.2066L29.707 87.4133ZM29.7652 88.0163C29.8413 88.053 29.7741 88.06 29.7086 87.8792C29.6427 87.6972 29.6585 87.5285 29.707 87.4133L14.9599 81.2066C11.6477 89.0763 14.8711 98.5919 22.8077 102.424L29.7652 88.0163ZM38.1096 92.0457L29.7652 88.0163L22.8077 102.424L31.1521 106.454L38.1096 92.0457ZM37.5075 92.0946C37.4826 92.1538 37.4707 92.1534 37.4973 92.1274C37.5206 92.1045 37.5646 92.0709 37.6337 92.0436C37.7033 92.0161 37.7928 91.9975 37.8938 92.0006C38.0011 92.004 38.0788 92.0308 38.1096 92.0457L31.1521 106.454C39.4085 110.441 48.8307 106.436 52.2546 98.3013L37.5075 92.0946ZM40.6805 84.5554L37.5075 92.0946L52.2546 98.3013L55.4276 90.7621L40.6805 84.5554ZM57.8583 78.8103C54.8386 79.6349 51.7325 79.9183 48.6683 79.6824L47.4398 95.6352C52.3093 96.0101 57.258 95.5602 62.0736 94.245L57.8583 78.8103ZM70.9602 88.5052L66.5931 82.0466L53.3387 91.0087L57.7058 97.4673L70.9602 88.5052ZM70.5945 88.4407C70.5826 88.4493 70.6037 88.4326 70.6531 88.4214C70.697 88.4115 70.743 88.4106 70.787 88.4183C70.8309 88.426 70.8738 88.4427 70.9117 88.467C70.9543 88.4944 70.9684 88.5173 70.9602 88.5051L57.7058 97.4673C62.7131 104.873 72.7497 106.641 79.9868 101.394L70.5945 88.4407ZM78.0206 83.056L70.5945 88.4407L79.9868 101.394L87.413 96.0091L78.0206 83.056ZM47 50C47 49.6679 47.1262 49.2358 47.4919 48.8368C47.8682 48.4263 48.5722 48 49.5 48V64C57.5969 64 63 57.0625 63 50H47ZM49.5 52C48.5722 52 47.8682 51.5737 47.4919 51.1632C47.1262 50.7642 47 50.3321 47 50H63C63 42.9375 57.5969 36 49.5 36V52ZM52 50C52 50.3321 51.8738 50.7642 51.5081 51.1632C51.1318 51.5737 50.4278 52 49.5 52V36C41.4031 36 36 42.9375 36 50H52ZM49.5 48C50.4278 48 51.1318 48.4263 51.5081 48.8368C51.8738 49.2358 52 49.6679 52 50H36C36 57.0625 41.4031 64 49.5 64V48Z" fill="black" mask="url(#path-1-inside-1_1730_24824)"/>
</svg>
