<svg width="57" height="54" viewBox="0 0 57 54" fill="none" xmlns="http://www.w3.org/2000/svg">
<mask id="path-1-inside-1_749_38895" fill="white">
<path fill-rule="evenodd" clip-rule="evenodd" d="M7.69571 35.406C7.96807 36.4765 9.05418 37.114 10.1216 36.8298L13.8813 35.8289C14.2516 36.421 14.6626 36.9961 15.1146 37.5505C16.1986 38.88 17.4422 39.9963 18.7936 40.8946L17.7957 44.5909C17.5067 45.6613 18.1313 46.7699 19.1908 47.0669L25.3579 48.796C26.4174 49.0931 27.5106 48.4662 27.7996 47.3958L28.8247 43.599C30.5241 43.4974 32.2156 43.1295 33.8347 42.4891L36.3763 45.6063C37.0753 46.4636 38.3265 46.5834 39.1709 45.8738L44.0984 41.7328C44.9428 41.0232 45.0606 39.753 44.3616 38.8956L41.8263 35.7862C43.3231 33.3696 44.1653 30.6293 44.3271 27.8437L48.1537 26.825C49.2211 26.5408 49.8656 25.4426 49.5933 24.3722L47.9966 18.0967C47.7243 17.0262 46.6382 16.3888 45.5708 16.6729L41.6808 17.7085C41.3406 17.1794 40.9674 16.6643 40.5611 16.166C39.5097 14.8764 38.3081 13.7874 37.0036 12.9034L38.0863 8.89287C38.3753 7.82245 37.7507 6.7139 36.6912 6.41684L30.5241 4.68774C29.4646 4.39068 28.3714 5.01761 28.0824 6.08802L26.9967 10.1094C25.201 10.2007 23.412 10.589 21.706 11.2815L19.193 8.19943C18.4939 7.34209 17.2427 7.22232 16.3983 7.93192L11.4708 12.0729C10.6265 12.7825 10.5086 14.0527 11.2077 14.91L13.7725 18.0557C12.3613 20.3797 11.5504 22.9957 11.3624 25.6598L7.53864 26.6778C6.47122 26.9619 5.8267 28.0601 6.09906 29.1306L7.69571 35.406ZM31.5313 25.7761C31.0056 23.7169 28.9295 22.4842 26.8943 23.0228C24.8591 23.5614 23.6354 25.6674 24.1611 27.7266C24.6868 29.7858 26.7628 31.0185 28.798 30.4799C30.8332 29.9413 32.057 27.8354 31.5313 25.7761Z"/>
</mask>
<path fill-rule="evenodd" clip-rule="evenodd" d="M7.69571 35.406C7.96807 36.4765 9.05418 37.114 10.1216 36.8298L13.8813 35.8289C14.2516 36.421 14.6626 36.9961 15.1146 37.5505C16.1986 38.88 17.4422 39.9963 18.7936 40.8946L17.7957 44.5909C17.5067 45.6613 18.1313 46.7699 19.1908 47.0669L25.3579 48.796C26.4174 49.0931 27.5106 48.4662 27.7996 47.3958L28.8247 43.599C30.5241 43.4974 32.2156 43.1295 33.8347 42.4891L36.3763 45.6063C37.0753 46.4636 38.3265 46.5834 39.1709 45.8738L44.0984 41.7328C44.9428 41.0232 45.0606 39.753 44.3616 38.8956L41.8263 35.7862C43.3231 33.3696 44.1653 30.6293 44.3271 27.8437L48.1537 26.825C49.2211 26.5408 49.8656 25.4426 49.5933 24.3722L47.9966 18.0967C47.7243 17.0262 46.6382 16.3888 45.5708 16.6729L41.6808 17.7085C41.3406 17.1794 40.9674 16.6643 40.5611 16.166C39.5097 14.8764 38.3081 13.7874 37.0036 12.9034L38.0863 8.89287C38.3753 7.82245 37.7507 6.7139 36.6912 6.41684L30.5241 4.68774C29.4646 4.39068 28.3714 5.01761 28.0824 6.08802L26.9967 10.1094C25.201 10.2007 23.412 10.589 21.706 11.2815L19.193 8.19943C18.4939 7.34209 17.2427 7.22232 16.3983 7.93192L11.4708 12.0729C10.6265 12.7825 10.5086 14.0527 11.2077 14.91L13.7725 18.0557C12.3613 20.3797 11.5504 22.9957 11.3624 25.6598L7.53864 26.6778C6.47122 26.9619 5.8267 28.0601 6.09906 29.1306L7.69571 35.406ZM31.5313 25.7761C31.0056 23.7169 28.9295 22.4842 26.8943 23.0228C24.8591 23.5614 23.6354 25.6674 24.1611 27.7266C24.6868 29.7858 26.7628 31.0185 28.798 30.4799C30.8332 29.9413 32.057 27.8354 31.5313 25.7761Z" fill="#D9D9D9"/>
<path d="M10.1216 36.8298L9.23909 33.4429L9.23909 33.4429L10.1216 36.8298ZM7.69571 35.406L4.30843 36.287L7.69571 35.406ZM13.8813 35.8289L16.8452 33.9574L15.4838 31.7805L12.9988 32.442L13.8813 35.8289ZM15.1146 37.5505L17.825 35.325L17.825 35.325L15.1146 37.5505ZM18.7936 40.8946L22.1674 41.7957L22.8249 39.3605L20.7345 37.971L18.7936 40.8946ZM17.7957 44.5909L14.4219 43.6898L14.4219 43.6898L17.7957 44.5909ZM19.1908 47.0669L20.1466 43.6916L20.1466 43.6916L19.1908 47.0669ZM25.3579 48.796L24.4021 52.1714L24.4021 52.1714L25.3579 48.796ZM27.7996 47.3958L31.1734 48.2968L31.1734 48.2968L27.7996 47.3958ZM28.8247 43.599L28.6326 40.1007L26.1114 40.2515L25.4509 42.6979L28.8247 43.599ZM33.8347 42.4891L36.5451 40.2636L34.9372 38.2916L32.5649 39.2299L33.8347 42.4891ZM36.3763 45.6063L33.6659 47.8318L33.6659 47.8318L36.3763 45.6063ZM39.1709 45.8738L41.4091 48.5553L41.4091 48.5553L39.1709 45.8738ZM44.0984 41.7328L41.8602 39.0514L41.8602 39.0514L44.0984 41.7328ZM44.3616 38.8956L47.072 36.6702L47.072 36.6702L44.3616 38.8956ZM41.8263 35.7862L38.8591 33.9474L37.5394 36.0782L39.1159 38.0117L41.8263 35.7862ZM44.3271 27.8437L43.4446 24.4569L40.9853 25.1116L40.8375 27.6561L44.3271 27.8437ZM48.1537 26.825L47.2712 23.4381L48.1537 26.825ZM49.5933 24.3722L46.206 25.2531L46.206 25.2531L49.5933 24.3722ZM47.9966 18.0967L51.3839 17.2158L51.3839 17.2158L47.9966 18.0967ZM45.5708 16.6729L44.6883 13.2861L45.5708 16.6729ZM41.6808 17.7085L38.7404 19.6171L40.1109 21.7483L42.5633 21.0954L41.6808 17.7085ZM40.5611 16.166L37.8507 18.3915L37.8507 18.3915L40.5611 16.166ZM37.0036 12.9034L33.6298 12.0023L32.9784 14.4147L35.037 15.8097L37.0036 12.9034ZM38.0863 8.89287L34.7126 7.99178L34.7126 7.99179L38.0863 8.89287ZM36.6912 6.41684L35.7354 9.79216L35.7354 9.79216L36.6912 6.41684ZM30.5241 4.68774L31.4799 1.31241L31.4799 1.31241L30.5241 4.68774ZM28.0824 6.08802L24.7086 5.18693L24.7086 5.18694L28.0824 6.08802ZM26.9967 10.1094L27.1576 13.6094L29.7037 13.4799L30.3704 11.0105L26.9967 10.1094ZM21.706 11.2815L18.9955 13.507L20.6186 15.4977L23.0049 14.529L21.706 11.2815ZM19.193 8.19943L16.4825 10.4249L19.193 8.19943ZM16.3983 7.93192L14.1602 5.25043L14.1602 5.25044L16.3983 7.93192ZM11.4708 12.0729L9.23265 9.39137L9.23264 9.39138L11.4708 12.0729ZM11.2077 14.91L8.49722 17.1355L8.49723 17.1355L11.2077 14.91ZM13.7725 18.0557L16.7559 19.868L18.0447 17.7457L16.4829 15.8302L13.7725 18.0557ZM11.3624 25.6598L12.2449 29.0467L14.672 28.4005L14.8491 25.8911L11.3624 25.6598ZM7.53864 26.6778L8.42114 30.0646L8.42114 30.0646L7.53864 26.6778ZM6.09906 29.1306L9.48635 28.2497L6.09906 29.1306ZM26.8943 23.0228L27.7718 26.411L27.7718 26.411L26.8943 23.0228ZM9.23909 33.4429C10.0472 33.2278 10.8768 33.7146 11.083 34.5251L4.30843 36.287C5.05936 39.2384 8.0611 41.0001 11.0041 40.2166L9.23909 33.4429ZM12.9988 32.442L9.23909 33.4429L11.0041 40.2166L14.7638 39.2157L12.9988 32.442ZM17.825 35.325C17.4651 34.8836 17.1388 34.4267 16.8452 33.9574L10.9174 37.7004C11.3644 38.4152 11.86 39.1086 12.4042 39.776L17.825 35.325ZM20.7345 37.971C19.6709 37.2641 18.6872 36.3824 17.825 35.325L12.4042 39.776C13.71 41.3775 15.2135 42.7286 16.8528 43.8183L20.7345 37.971ZM21.1695 45.492L22.1674 41.7957L15.4198 39.9936L14.4219 43.6898L21.1695 45.492ZM20.1466 43.6916C20.9372 43.9133 21.3785 44.7177 21.1695 45.492L14.4219 43.6898C13.6348 46.605 15.3254 49.6265 18.235 50.4423L20.1466 43.6916ZM26.3137 45.4207L20.1466 43.6916L18.235 50.4423L24.4021 52.1714L26.3137 45.4207ZM24.4258 46.4947C24.6436 45.6882 25.4904 45.1899 26.3137 45.4207L24.4021 52.1714C27.3444 52.9963 30.3777 51.2442 31.1734 48.2968L24.4258 46.4947ZM25.4509 42.6979L24.4258 46.4947L31.1734 48.2968L32.1985 44.5001L25.4509 42.6979ZM32.5649 39.2299C31.2961 39.7318 29.9687 40.0208 28.6326 40.1007L29.0168 47.0973C31.0794 46.9739 33.1352 46.5272 35.1044 45.7483L32.5649 39.2299ZM39.0867 43.3808L36.5451 40.2636L31.1243 44.7146L33.6659 47.8318L39.0867 43.3808ZM36.9327 43.1923C37.6012 42.6305 38.5716 42.7491 39.0867 43.3808L33.6659 47.8318C35.579 50.1782 39.0518 50.5362 41.4091 48.5553L36.9327 43.1923ZM41.8602 39.0514L36.9327 43.1923L41.4091 48.5553L46.3366 44.4143L41.8602 39.0514ZM41.6512 41.1211C41.1553 40.513 41.2164 39.5924 41.8602 39.0514L46.3366 44.4143C48.6692 42.4541 48.9659 38.9929 47.072 36.6702L41.6512 41.1211ZM39.1159 38.0117L41.6512 41.1211L47.072 36.6702L44.5367 33.5607L39.1159 38.0117ZM40.8375 27.6561C40.7088 29.8721 40.0391 32.0423 38.8591 33.9474L44.7935 37.625C46.6071 34.6969 47.6218 31.3865 47.8167 28.0313L40.8375 27.6561ZM47.2712 23.4381L43.4446 24.4569L45.2096 31.2305L49.0362 30.2118L47.2712 23.4381ZM46.206 25.2531C46.0037 24.4578 46.4783 23.6492 47.2712 23.4381L49.0362 30.2118C51.964 29.4324 53.7276 26.4274 52.9806 23.4912L46.206 25.2531ZM44.6094 18.9776L46.206 25.2531L52.9806 23.4912L51.3839 17.2158L44.6094 18.9776ZM46.4533 20.0598C45.6451 20.2749 44.8156 19.7881 44.6094 18.9776L51.3839 17.2158C50.633 14.2643 47.6313 12.5026 44.6883 13.2861L46.4533 20.0598ZM42.5633 21.0954L46.4533 20.0598L44.6883 13.2861L40.7983 14.3217L42.5633 21.0954ZM37.8507 18.3915C38.1742 18.7883 38.4706 19.1975 38.7404 19.6171L44.6213 15.8C44.2106 15.1613 43.7607 14.5404 43.2715 13.9405L37.8507 18.3915ZM35.037 15.8097C36.0638 16.5055 37.0143 17.3657 37.8507 18.3915L43.2715 13.9405C42.005 12.3871 40.5524 11.0692 38.9702 9.99703L35.037 15.8097ZM34.7126 7.99179L33.6298 12.0023L40.3773 13.8044L41.4601 9.79395L34.7126 7.99179ZM35.7354 9.79216C34.9448 9.5705 34.5035 8.76611 34.7126 7.99178L41.4601 9.79395C42.2472 6.87879 40.5566 3.85729 37.647 3.04151L35.7354 9.79216ZM29.5683 8.06306L35.7354 9.79216L37.647 3.04151L31.4799 1.31241L29.5683 8.06306ZM31.4562 6.98911C31.2384 7.79562 30.3916 8.29389 29.5683 8.06307L31.4799 1.31241C28.5376 0.487466 25.5044 2.23959 24.7086 5.18693L31.4562 6.98911ZM30.3704 11.0105L31.4562 6.9891L24.7086 5.18694L23.6229 9.20834L30.3704 11.0105ZM23.0049 14.529C24.3419 13.9863 25.7457 13.6812 27.1576 13.6094L26.8357 6.60942C24.6563 6.72025 22.4821 7.19169 20.407 8.03402L23.0049 14.529ZM16.4825 10.4249L18.9955 13.507L24.4164 9.05603L21.9034 5.97394L16.4825 10.4249ZM18.6365 10.6134C17.968 11.1752 16.9976 11.0566 16.4825 10.4249L21.9034 5.97394C19.9903 3.62754 16.5174 3.26947 14.1602 5.25043L18.6365 10.6134ZM13.709 14.7543L18.6365 10.6134L14.1602 5.25044L9.23265 9.39137L13.709 14.7543ZM13.9181 12.6846C14.4139 13.2927 14.3529 14.2133 13.709 14.7543L9.23264 9.39138C6.90004 11.3516 6.60333 14.8127 8.49722 17.1355L13.9181 12.6846ZM16.4829 15.8302L13.9181 12.6846L8.49723 17.1355L11.0621 20.2812L16.4829 15.8302ZM14.8491 25.8911C14.9987 23.7721 15.6433 21.7003 16.7559 19.868L10.789 16.2435C9.07938 19.059 8.10211 22.2193 7.87559 25.4285L14.8491 25.8911ZM8.42114 30.0646L12.2449 29.0467L10.4799 22.273L6.65614 23.2909L8.42114 30.0646ZM9.48635 28.2497C9.68868 29.0449 9.21409 29.8535 8.42114 30.0646L6.65614 23.2909C3.72836 24.0704 1.96473 27.0753 2.71178 30.0115L9.48635 28.2497ZM11.083 34.5251L9.48635 28.2497L2.71178 30.0115L4.30843 36.287L11.083 34.5251ZM27.7718 26.411C27.9035 26.3761 28.0905 26.4477 28.1447 26.6598L34.9179 24.8925C33.9206 20.9862 29.9556 18.5923 26.0168 19.6346L27.7718 26.411ZM27.5477 26.843C27.4912 26.6219 27.6306 26.4484 27.7718 26.411L26.0168 19.6346C22.0876 20.6745 19.7795 24.7128 20.7745 28.6102L27.5477 26.843ZM27.9205 27.0918C27.7888 27.1266 27.6018 27.0551 27.5477 26.843L20.7745 28.6102C21.7717 32.5166 25.7368 34.9105 29.6755 33.8681L27.9205 27.0918ZM28.1447 26.6598C28.2011 26.8808 28.0617 27.0544 27.9205 27.0918L29.6755 33.8681C33.6048 32.8283 35.9128 28.7899 34.9179 24.8925L28.1447 26.6598Z" fill="black" mask="url(#path-1-inside-1_749_38895)"/>
</svg>
