<svg width="100" height="100" viewBox="0 0 100 100" fill="none" xmlns="http://www.w3.org/2000/svg">
<path d="M47.4667 41.8781V47.8659C47.4667 48.2532 47.7806 48.5672 48.168 48.5672C48.2767 48.5672 48.384 48.5419 48.4813 48.4933L50.4486 47.5108C51.0696 47.2006 51.8 47.6522 51.8 48.3464C51.8 48.4916 51.8338 48.6347 51.8988 48.7645L52.5609 50.0872C52.6304 50.2262 52.6667 50.3794 52.6667 50.5348V51.4115C52.6667 51.7904 52.8809 52.1368 53.2199 52.3061L53.8468 52.6192C54.1858 52.7886 54.4 53.1349 54.4 53.5139V53.7602C54.4 54.2388 54.788 54.6269 55.2667 54.6269C55.7453 54.6269 56.1333 55.0149 56.1333 55.4935V57.3627C56.1333 57.7641 56.4587 58.0896 56.8602 58.0896C56.9525 58.0896 57.0441 58.0719 57.1298 58.0377L61.1547 56.4296C61.2727 56.3824 61.3986 56.3582 61.5257 56.3582H63.6308C63.8281 56.3582 64.0209 56.2999 64.1851 56.1906L65.8517 55.0807C66.2482 54.8168 66.7757 54.869 67.1127 55.2056L67.2852 55.3779C67.3612 55.4538 67.449 55.517 67.5451 55.565L68.6046 56.0941C68.9307 56.257 69.1424 56.5845 69.157 56.9488L69.9584 76.96C69.9811 77.5275 69.5271 78 68.9592 78H33.7333C33.181 78 32.7333 77.5523 32.7333 77V61.3049C32.7333 60.926 32.5191 60.5796 32.1801 60.4103L31.5532 60.0972C31.2142 59.9279 31 59.5815 31 59.2025V58.0896V56.5945C31 56.4391 31.0362 56.2859 31.1058 56.1469L31.6813 54.9972C31.8 54.7601 32.008 54.5798 32.2596 54.496L33.7826 53.989C34.1911 53.853 34.4667 53.4707 34.4667 53.0402V52.2662C34.4667 52.1108 34.5029 51.9575 34.5724 51.8185L36.0942 48.7785C36.1638 48.6395 36.2 48.4863 36.2 48.3309V47.5568C36.2 47.1263 35.9244 46.7441 35.5159 46.608L34.0744 46.1281C33.7758 46.0287 33.5414 45.7944 33.4417 45.4959L32.7558 43.4406C32.7409 43.3957 32.7227 43.3519 32.7015 43.3095L32.0907 42.0894C31.9497 41.8077 31.9497 41.4759 32.0907 41.1942L32.6276 40.1218C32.6971 39.9828 32.7333 39.8295 32.7333 39.6741V21C32.7333 20.4477 33.181 20 33.7333 20H37.8C38.3523 20 38.8 20.4477 38.8 21V24.3284V28.3537C38.8 28.5513 38.8585 28.7444 38.9682 28.9088L40.3651 31.0017C40.4748 31.166 40.5333 31.3592 40.5333 31.5568V32.5705C40.5333 32.8359 40.6388 33.0905 40.8266 33.278L43.1333 35.5821L45.6633 38.1091C45.7099 38.1557 45.7609 38.1975 45.8157 38.234L47.5978 39.4207C48.0179 39.7004 48.1637 40.2493 47.9378 40.7006L47.5724 41.4305C47.5029 41.5694 47.4667 41.7227 47.4667 41.8781Z" fill="black"/>
</svg>
