<svg width="93" height="89" viewBox="0 0 93 89" fill="none" xmlns="http://www.w3.org/2000/svg">
<path d="M12.1602 49.8889H38.9123" stroke="black" stroke-width="3" stroke-linecap="round"/>
<path d="M23.1045 40.1111H40.1286" stroke="black" stroke-width="3" stroke-linecap="round"/>
<path d="M14.5918 30.3333H55.936" stroke="black" stroke-width="3" stroke-linecap="round"/>
<path d="M29.1846 23H47.4246" stroke="black" stroke-width="3" stroke-linecap="round"/>
<path d="M76.6082 12L72.0052 28.1928C71.8591 28.7067 72.1428 29.2447 72.6494 29.4144L89.9842 35.2222" stroke="black" stroke-width="5" stroke-linecap="round"/>
<path fill-rule="evenodd" clip-rule="evenodd" d="M44.488 3.48744C43.8489 3.4588 43.2062 3.44434 42.5602 3.44434C19.0548 3.44434 0 22.5966 0 46.2221C0 69.8476 19.0548 88.9999 42.5602 88.9999C51.4061 88.9999 59.6216 86.2874 66.4285 81.6448L59.677 79.857C54.5419 82.5059 48.7226 83.9999 42.5602 83.9999C21.8403 83.9999 5 67.1103 5 46.2221C5 25.334 21.8403 8.44434 42.5602 8.44434C42.7696 8.44434 42.9787 8.44606 43.1873 8.4495L44.488 3.48744Z" fill="black"/>
<path fill-rule="evenodd" clip-rule="evenodd" d="M44.4594 20.5557L48.2657 6.03371L75.3178 13.197L87.54 34.5787L75.4979 80.5219L31.7762 68.9445L36.1301 52.3335H30.9612L26.1821 70.5666C25.902 71.6351 26.5406 72.7305 27.6084 73.0132L77.1302 86.1264C78.198 86.4092 79.2906 85.7722 79.5706 84.7038L92.8945 33.8706L78.6203 8.89919L46.6334 0.429144C45.5656 0.146401 44.473 0.783365 44.1929 1.85184L39.2905 20.5557H44.4594Z" fill="black"/>
</svg>
