<svg width="106" height="63" viewBox="0 0 106 63" fill="none" xmlns="http://www.w3.org/2000/svg">
<path d="M87.7397 11.5889C90.1921 12.2608 90.1921 15.7392 87.7397 16.4111L67.4106 21.9812C65.8196 22.4171 64.25 21.2197 64.25 19.5701V8.42992C64.25 6.78026 65.8196 5.58285 67.4106 6.01879L87.7397 11.5889Z" fill="#D9D9D9" stroke="black" stroke-width="5"/>
<path d="M88.9536 45.6012C91.348 46.3041 91.348 49.6958 88.9536 50.3988L67.4542 56.7103C65.8533 57.1803 64.25 55.98 64.25 54.3115V41.6885C64.25 40.02 65.8533 38.8197 67.4542 39.2897L88.9536 45.6012Z" fill="#D9D9D9" stroke="black" stroke-width="5"/>
<path fill-rule="evenodd" clip-rule="evenodd" d="M42.2263 24.0189C46.339 19.3576 54.2752 16.2003 63.3907 16.2003H63.3913V11.4785C53.0344 11.8864 44.1864 15.5388 39.1775 20.8806C40.3794 21.8769 41.4015 22.9261 42.2263 24.0189ZM34.7832 31.1247C34.7832 31.1261 34.7832 31.1275 34.7832 31.1289C34.7832 41.6335 47.256 50.3064 63.3913 50.9543V46.4099H63.3907C50.0501 46.4099 39.2353 39.6472 39.2353 31.3051C39.2353 31.2449 39.2359 31.1847 39.237 31.1247H34.7832Z" fill="black"/>
<path fill-rule="evenodd" clip-rule="evenodd" d="M2.60479 51.2036C1.18923 51.308 0 50.1731 0 48.7538V46.2663C0 46.2662 0.000133428 46.266 0.00029802 46.266C12.742 46.266 23.8824 43.287 29.9342 38.8443C30.7767 39.868 31.7944 40.8511 32.9723 41.7857C26.5704 46.7022 15.7038 50.2379 2.60479 51.2036ZM39.1986 31.2166C39.0933 21.2304 23.6728 12.9795 2.42254 11.4599C1.10547 11.3658 0 12.4214 0 13.7418V16.0561C0 16.0563 0.000133428 16.0564 0.00029802 16.0564C19.1978 16.0564 34.7605 22.8191 34.7605 31.1612C34.7605 31.1797 34.7605 31.1982 34.7603 31.2166H39.1986Z" fill="black"/>
</svg>
