<svg width="100" height="80" viewBox="0 0 100 80" fill="none" xmlns="http://www.w3.org/2000/svg">
<g clip-path="url(#clip0_5615_62689)">
<path d="M70 31V41H84V38.6504L77.8975 31H70Z" stroke="black" stroke-width="6"/>
<circle cx="22" cy="67" r="10" stroke="black" stroke-width="6"/>
<circle cx="22" cy="67" r="3" fill="black"/>
<circle cx="76" cy="67" r="10" stroke="black" stroke-width="6"/>
<path d="M79.3096 18C81.0988 18 82.7947 18.7985 83.9346 20.1777L94.625 33.1162C95.5135 34.1915 95.9999 35.5426 96 36.9375V55.3418C98.3303 56.1655 100 58.3876 100 61V66C100 69.3137 97.3137 72 94 72H87.3145C87.7569 70.7486 88 69.4029 88 68C88 67.3185 87.9421 66.6505 87.833 66H94V61.001C93.9989 60.9998 93.998 60.9988 93.9971 60.998L90 59.585V36.9375L79.3096 23.999V24H64V51H6.00293L8.25391 52.9961L8.00098 55.9932C7.99863 56.0211 8 56.0214 8 56V65.998L8.07422 66H10.167C10.0579 66.6505 10 67.3185 10 68C10 69.4029 10.2431 70.7486 10.6855 72H8L7.69141 71.9922C4.52111 71.8316 2 69.2102 2 66V56C2 55.8283 2.00832 55.6583 2.02246 55.4902C0.782502 54.391 0 52.7873 0 51C0 47.6863 2.68629 45 6 45H58V24C58 20.6863 60.6863 18 64 18H79.3096ZM64.167 66C64.0579 66.6505 64 67.3185 64 68C64 69.4029 64.2431 70.7486 64.6855 72H33.3145C33.7569 70.7486 34 69.4029 34 68C34 67.3185 33.9421 66.6505 33.833 66H64.167Z" fill="black"/>
<circle cx="76" cy="67" r="3" fill="black"/>
<line x1="61" y1="48" x2="61" y2="68" stroke="black" stroke-width="6"/>
<mask id="path-8-inside-1_5615_62689" fill="white">
<path d="M47.7637 2.5874C50.7909 1.2396 54.3377 2.6012 55.6855 5.62842L56.623 7.73291C57.9708 10.76 56.6091 14.3069 53.582 15.6548L52.5127 16.1304L56.5889 25.2837C57.9366 28.3108 56.5758 31.8577 53.5488 33.2056L15.6758 50.0679C12.6486 51.4157 9.10171 50.0541 7.75391 47.0269L0.308594 30.3032C-1.03903 27.2761 0.322467 23.7301 3.34961 22.3823L40.1982 5.9751C40.3277 5.90576 40.4604 5.83949 40.5967 5.77881L47.7637 2.5874Z"/>
</mask>
<path d="M47.7637 2.5874L45.3233 -2.89387L45.323 -2.89374L47.7637 2.5874ZM55.6855 5.62842L50.2043 8.06884L50.2048 8.06997L55.6855 5.62842ZM56.623 7.73291L62.1043 5.29249L62.1038 5.29136L56.623 7.73291ZM53.582 15.6548L56.0203 21.137L56.0227 21.1359L53.582 15.6548ZM52.5127 16.1304L50.0745 10.6481L44.5896 13.0875L47.0316 18.5712L52.5127 16.1304ZM56.5889 25.2837L62.0701 22.8433L62.07 22.8428L56.5889 25.2837ZM53.5488 33.2056L55.9893 38.6868L55.9895 38.6867L53.5488 33.2056ZM15.6758 50.0679L18.1162 55.5491L18.1162 55.5491L15.6758 50.0679ZM7.75391 47.0269L2.27257 49.4671L2.27263 49.4673L7.75391 47.0269ZM0.308594 30.3032L-5.17278 32.7434L-5.17274 32.7435L0.308594 30.3032ZM3.34961 22.3823L5.79003 27.8636L5.79017 27.8635L3.34961 22.3823ZM40.1982 5.9751L42.6388 11.4563L42.8387 11.3673L43.0316 11.264L40.1982 5.9751ZM40.5967 5.77881L43.0371 11.2601L43.0374 11.26L40.5967 5.77881ZM47.7637 2.5874L50.2041 8.06868L50.2043 8.06884L55.6855 5.62842L61.1668 3.188C58.4713 -2.8663 51.3778 -5.58955 45.3233 -2.89387L47.7637 2.5874ZM55.6855 5.62842L50.2048 8.06997L51.1423 10.1745L56.623 7.73291L62.1038 5.29136L61.1663 3.18687L55.6855 5.62842ZM56.623 7.73291L51.1418 10.1733L51.1413 10.1736L53.582 15.6548L56.0227 21.1359C62.0763 18.4404 64.8001 11.3473 62.1043 5.29249L56.623 7.73291ZM53.582 15.6548L51.1438 10.1725L50.0745 10.6481L52.5127 16.1304L54.9509 21.6126L56.0203 21.137L53.582 15.6548ZM52.5127 16.1304L47.0316 18.5712L51.1078 27.7245L56.5889 25.2837L62.07 22.8428L57.9938 13.6895L52.5127 16.1304ZM56.5889 25.2837L51.1076 27.7241L51.1081 27.7244L53.5488 33.2056L55.9895 38.6867C62.0446 35.9904 64.7652 28.8965 62.0701 22.8433L56.5889 25.2837ZM53.5488 33.2056L51.1084 27.7243L13.2353 44.5866L15.6758 50.0679L18.1162 55.5491L55.9893 38.6868L53.5488 33.2056ZM15.6758 50.0679L13.2354 44.5866L13.2352 44.5864L7.75391 47.0269L2.27263 49.4673C4.96818 55.5216 12.0616 58.2448 18.1162 55.5491L15.6758 50.0679ZM7.75391 47.0269L13.2352 44.5866L5.78993 27.8629L0.308594 30.3032L-5.17274 32.7435L2.27257 49.4671L7.75391 47.0269ZM0.308594 30.3032L5.78997 27.863L5.79003 27.8636L3.34961 22.3823L0.909189 16.9011C-5.14468 19.5964 -7.86823 26.6886 -5.17278 32.7434L0.308594 30.3032ZM3.34961 22.3823L5.79017 27.8635L42.6388 11.4563L40.1982 5.9751L37.7577 0.493889L0.909046 16.9011L3.34961 22.3823ZM40.1982 5.9751L43.0316 11.264C43.0454 11.2566 43.0525 11.253 43.0537 11.2524C43.0549 11.2519 43.0491 11.2547 43.0371 11.2601L40.5967 5.77881L38.1563 0.297536C37.8607 0.429111 37.5951 0.562875 37.3649 0.686242L40.1982 5.9751ZM40.5967 5.77881L43.0374 11.26L50.2044 8.06855L47.7637 2.5874L45.323 -2.89374L38.156 0.297665L40.5967 5.77881Z" fill="black" mask="url(#path-8-inside-1_5615_62689)"/>
<path d="M17.1045 1.16888C26.1902 -1.88667 37.1388 1.22468 45.9258 8.47259L39.6875 10.7949C32.7429 5.99875 24.9811 4.57123 19.2861 6.69036C13.5914 8.80957 9.66754 14.5852 9.28516 22.1074L3.04688 24.4286C2.46854 13.8783 7.25813 4.82175 16.4658 1.39544L17.1045 1.16888Z" fill="black"/>
<path d="M16.0117 28.9949L18.9874 36.0052" stroke="black" stroke-width="6" stroke-linecap="round"/>
<path d="M27.0117 23.9949L29.9874 31.0052" stroke="black" stroke-width="6" stroke-linecap="round"/>
<path d="M38.0117 18.9949L40.9874 26.0052" stroke="black" stroke-width="6" stroke-linecap="round"/>
<line x1="42" y1="33" x2="42" y2="50" stroke="black" stroke-width="6"/>
<line x1="50" y1="31" x2="50" y2="48" stroke="black" stroke-width="6"/>
</g>
<defs>
<clipPath id="clip0_5615_62689">
<rect width="100" height="80" fill="white"/>
</clipPath>
</defs>
</svg>
