<svg width="100" height="80" viewBox="0 0 100 80" fill="none" xmlns="http://www.w3.org/2000/svg">
<g clip-path="url(#clip0_5611_41953)">
<circle cx="50.499" cy="18.5" r="15.5" stroke="black" stroke-width="6"/>
<circle cx="82.999" cy="29" r="9" stroke="black" stroke-width="6"/>
<circle cx="16.999" cy="29" r="9" stroke="black" stroke-width="6"/>
<mask id="path-4-inside-1_5611_41953" fill="white">
<path d="M49.8223 40C62.9017 40 73.7329 54.7593 75.6185 74.0085C75.9416 77.3065 73.2229 80 69.9092 80H29.7354C26.4216 80 23.703 77.3065 24.026 74.0085C25.9117 54.7594 36.7429 40.0001 49.8223 40Z"/>
</mask>
<path d="M49.8223 40L49.8223 34L49.8222 34L49.8223 40ZM24.026 74.0085L18.0546 73.4236L24.026 74.0085ZM75.6185 74.0085L69.6471 74.5935L75.6185 74.0085ZM49.8223 40V46C53.9296 46 58.3021 48.305 62.1205 53.3891C65.9298 58.4609 68.7924 65.8684 69.6471 74.5935L75.6185 74.0085L81.5899 73.4236C80.559 62.8995 77.0632 53.3027 71.7156 46.1826C66.3772 39.0747 58.7944 34 49.8223 34V40ZM69.9092 80V74H29.7354V80V86H69.9092V80ZM24.026 74.0085L29.9975 74.5935C30.8522 65.8684 33.7148 58.461 37.5241 53.3891C41.3425 48.3051 45.715 46 49.8223 46L49.8223 40L49.8222 34C40.8502 34.0001 33.2674 39.0747 27.9289 46.1826C22.5813 53.3027 19.0855 62.8995 18.0546 73.4236L24.026 74.0085ZM29.7354 80V74C29.7137 74 29.7552 73.9929 29.8228 74.0625C29.8603 74.1012 29.9131 74.1717 29.9527 74.2803C29.9952 74.3969 30.0054 74.512 29.9975 74.5935L24.026 74.0085L18.0546 73.4236C17.3473 80.644 23.2854 86 29.7354 86V80ZM75.6185 74.0085L69.6471 74.5935C69.6391 74.512 69.6493 74.3969 69.6918 74.2803C69.7315 74.1717 69.7843 74.1012 69.8218 74.0625C69.8894 73.9929 69.9309 74 69.9092 74V80V86C76.3591 86 82.2972 80.644 81.5899 73.4236L75.6185 74.0085Z" fill="black" mask="url(#path-4-inside-1_5611_41953)"/>
<path d="M16.999 44C22.3601 44.0006 27.1548 47.6503 30.3457 53.3877C29.0519 55.6122 27.9185 58.0601 26.9717 60.6885C26.0448 57.7819 24.7381 55.3665 23.2607 53.5811C21.0944 50.9632 18.8737 50.0003 16.998 50C15.1224 50.0002 12.9027 50.9633 10.7363 53.5811C8.70305 56.0383 6.98844 59.6866 6.15039 64.1699H25.8594C25.3174 66.0964 24.8712 68.101 24.5303 70.1699H5.60449L5.29492 70.1621C2.12229 70.0002 -0.432179 67.3624 0.0605469 64.1904C1.85828 52.6188 8.7597 44.0001 16.999 44Z" fill="black"/>
<path d="M82.999 44C91.2382 44.0005 98.1398 52.619 99.9375 64.1904C100.43 67.3625 97.8749 70.0003 94.7021 70.1621L94.3936 70.1699H75.1143C74.7733 68.101 74.3272 66.0964 73.7852 64.1699H93.8467C93.0086 59.6866 91.2941 56.0383 89.2607 53.5811C87.094 50.9627 84.8739 50 82.998 50C81.1223 50.0002 78.9028 50.9629 76.7363 53.5811C75.1695 55.4745 73.7934 58.0756 72.8604 61.2207C71.9203 58.5149 70.7829 55.9947 69.4785 53.7041C72.6676 47.7842 77.5395 44 82.999 44Z" fill="black"/>
</g>
<defs>
<clipPath id="clip0_5611_41953">
<rect width="100" height="80" fill="white"/>
</clipPath>
</defs>
</svg>
