<svg width="200" height="174" viewBox="0 0 200 174" fill="none" xmlns="http://www.w3.org/2000/svg">
<mask id="path-2-inside-1_749_38938" fill="white">
<path fill-rule="evenodd" clip-rule="evenodd" d="M147.052 151.655C147.424 152.972 148.615 153.9 149.983 153.9H195.012C197.916 153.9 200.222 151.431 199.852 148.55C196.343 121.229 181.687 100.734 164.141 100.734C152.525 100.734 142.177 109.716 135.49 123.713C135.033 124.67 135.152 125.794 135.743 126.674C140.536 133.798 144.401 142.265 147.052 151.655Z"/>
</mask>
<path d="M199.852 148.55L191.917 149.569V149.569L199.852 148.55ZM149.983 161.9H195.012V145.9H149.983V161.9ZM195.012 161.9C202.432 161.9 208.809 155.495 207.787 147.531L191.917 149.569C191.634 147.367 193.4 145.9 195.012 145.9V161.9ZM207.787 147.531C205.897 132.816 200.963 119.501 193.699 109.649C186.464 99.836 176.281 92.7344 164.141 92.7344V108.734C169.547 108.734 175.465 111.88 180.821 119.145C186.149 126.371 190.298 136.963 191.917 149.569L207.787 147.531ZM164.141 92.7344C148.038 92.7344 135.549 105.031 128.272 120.265L142.709 127.162C148.805 114.4 157.013 108.734 164.141 108.734V92.7344ZM154.751 149.481C151.893 139.359 147.692 130.103 142.381 122.209L129.106 131.139C133.379 137.492 136.909 145.171 139.354 153.829L154.751 149.481ZM128.272 120.265C126.503 123.967 127.056 128.091 129.106 131.139L142.381 122.209C143.248 123.497 143.564 125.372 142.709 127.162L128.272 120.265ZM149.983 145.9C152.305 145.9 154.18 147.458 154.751 149.481L139.354 153.829C140.669 158.486 144.924 161.9 149.983 161.9V145.9Z" fill="black" mask="url(#path-2-inside-1_749_38938)"/>
<mask id="path-4-inside-2_749_38938" fill="white">
<path fill-rule="evenodd" clip-rule="evenodd" d="M62.4187 131.943C63.5776 129.858 63.91 127.377 63.04 125.156C56.7903 109.206 46.2696 98.7344 34.3446 98.7344C17.2273 98.7344 3.00371 120.309 0.151256 148.695C-0.0225317 150.425 1.35588 151.9 3.09403 151.9H48.2644C51.8608 151.9 54.9816 149.487 56.1531 146.087C57.8946 141.032 60 136.293 62.4187 131.943Z"/>
</mask>
<path d="M0.151256 148.695L-7.80866 147.895V147.895L0.151256 148.695ZM56.1531 146.087L48.5894 143.481L56.1531 146.087ZM62.4187 131.943L55.4267 128.055L62.4187 131.943ZM70.4886 122.238C63.8549 105.307 51.3398 90.7344 34.3446 90.7344V106.734C41.1994 106.734 49.7256 113.104 55.5914 128.075L70.4886 122.238ZM34.3446 90.7344C22.1421 90.7344 12.1572 98.4152 5.27345 108.586C-1.6755 118.853 -6.28017 132.685 -7.80866 147.895L8.11117 149.495C9.43514 136.32 13.3685 125.171 18.5238 117.554C23.7442 109.841 29.4298 106.734 34.3446 106.734V90.7344ZM-7.80866 147.895C-8.47195 154.496 -3.21584 159.9 3.09403 159.9V143.9C5.92759 143.9 8.42689 146.353 8.11117 149.495L-7.80866 147.895ZM3.09403 159.9H48.2644V143.9H3.09403V159.9ZM63.7168 148.693C65.314 144.057 67.2318 139.749 69.4107 135.83L55.4267 128.055C52.7682 132.837 50.4753 138.008 48.5894 143.481L63.7168 148.693ZM48.2644 159.9C55.5604 159.9 61.5292 155.042 63.7168 148.693L48.5894 143.481C48.5247 143.669 48.416 143.796 48.3299 143.86C48.2905 143.889 48.2655 143.899 48.2605 143.9C48.258 143.901 48.2585 143.901 48.2613 143.9C48.2643 143.9 48.2659 143.9 48.2644 143.9V159.9ZM55.5914 128.075C55.5598 127.994 55.5434 127.921 55.5362 127.865C55.5293 127.81 55.5323 127.781 55.5322 127.782C55.532 127.783 55.5289 127.811 55.5123 127.862C55.4958 127.914 55.4686 127.98 55.4267 128.055L69.4107 135.83C71.5184 132.039 72.3769 127.057 70.4886 122.238L55.5914 128.075Z" fill="black" mask="url(#path-4-inside-2_749_38938)"/>
<mask id="path-6-inside-3_749_38938" fill="white">
<path fill-rule="evenodd" clip-rule="evenodd" d="M146.719 165.65C148.564 165.65 149.974 164 149.627 162.188C146.516 145.93 140.067 132.077 131.769 122.214C122.804 111.558 112.053 105.914 101.01 105.914C89.9684 105.914 79.2167 111.558 70.2515 122.214C61.9535 132.077 55.5049 145.93 52.3937 162.188C52.047 164 53.4574 165.65 55.302 165.65H146.719ZM51.4585 173.65C46.7829 173.65 43.0794 169.647 43.7885 165.025C49.6826 126.609 73.0641 97.9141 101.01 97.9141C128.957 97.9141 152.338 126.609 158.232 165.025C158.942 169.647 155.238 173.65 150.562 173.65H51.4585Z"/>
</mask>
<path d="M131.769 122.214L125.648 127.364L125.648 127.364L131.769 122.214ZM70.2515 122.214L64.1299 117.064L70.2515 122.214ZM43.7885 165.025L51.696 166.239H51.696L43.7885 165.025ZM158.232 165.025L150.325 166.239V166.239L158.232 165.025ZM149.627 162.188L141.77 163.692L149.627 162.188ZM125.648 127.364C132.928 136.017 138.873 148.552 141.77 163.692L157.485 160.684C154.16 143.308 147.207 128.137 137.891 117.064L125.648 127.364ZM101.01 113.914C109.129 113.914 117.799 118.035 125.648 127.364L137.891 117.064C127.81 105.081 114.976 97.9141 101.01 97.9141V113.914ZM76.3732 127.364C84.2222 118.035 92.8922 113.914 101.01 113.914V97.9141C87.0445 97.9141 74.2111 105.081 64.1299 117.064L76.3732 127.364ZM60.2511 163.692C63.1483 148.552 69.0933 136.017 76.3732 127.364L64.1299 117.064C54.8138 128.137 47.8614 143.308 44.5363 160.684L60.2511 163.692ZM146.719 157.65H55.302V173.65H146.719V157.65ZM35.881 163.812C34.3698 173.662 42.2769 181.65 51.4585 181.65V165.65C51.4382 165.65 51.4874 165.649 51.5486 165.717C51.5817 165.754 51.631 165.824 51.6658 165.935C51.704 166.058 51.7062 166.172 51.696 166.239L35.881 163.812ZM101.01 89.9141C84.1062 89.9141 69.194 98.6178 58.0082 111.913C46.8364 125.192 39.0122 143.404 35.881 163.812L51.696 166.239C54.4588 148.231 61.2725 132.886 70.2515 122.214C79.2167 111.558 89.9684 105.914 101.01 105.914V89.9141ZM166.14 163.812C163.009 143.404 155.185 125.192 144.013 111.913C132.827 98.6178 117.915 89.9141 101.01 89.9141V105.914C112.053 105.914 122.804 111.558 131.769 122.214C140.748 132.886 147.562 148.231 150.325 166.239L166.14 163.812ZM150.562 181.65C159.744 181.65 167.651 173.662 166.14 163.812L150.325 166.239C150.315 166.172 150.317 166.058 150.355 165.935C150.39 165.824 150.439 165.754 150.472 165.717C150.534 165.649 150.583 165.65 150.562 165.65V181.65ZM51.4585 181.65H150.562V165.65H51.4585V181.65ZM44.5363 160.684C43.2126 167.601 48.6144 173.65 55.302 173.65V157.65C58.3004 157.65 60.8814 160.398 60.2511 163.692L44.5363 160.684ZM141.77 163.692C141.14 160.398 143.721 157.65 146.719 157.65V173.65C153.407 173.65 158.808 167.601 157.485 160.684L141.77 163.692Z" fill="black" mask="url(#path-6-inside-3_749_38938)"/>
<circle cx="98.5" cy="52.5" r="34.5" stroke="black" stroke-width="8"/>
<circle cx="166" cy="73" r="19" stroke="black" stroke-width="8"/>
<path d="M51.4646 73C51.4646 83.4556 42.892 92 32.2323 92C21.5726 92 13 83.4556 13 73C13 62.5444 21.5726 54 32.2323 54C42.892 54 51.4646 62.5444 51.4646 73Z" stroke="black" stroke-width="8"/>
</svg>
