<svg width="80" height="100" viewBox="0 0 80 100" fill="none" xmlns="http://www.w3.org/2000/svg">
<g clip-path="url(#clip0_5582_19113)">
<path d="M58.1191 99.9922C61.2893 99.8316 63.8103 97.21 63.8105 94V90.8174H65.8994L66.208 90.8096C69.3783 90.6489 71.8994 88.0275 71.8994 84.8174V14.3994L71.8916 14.0908C71.7359 11.023 69.2759 8.56266 66.208 8.40723L65.8994 8.39941H14.0889L13.7803 8.40723C10.7124 8.56266 8.25237 11.023 8.09668 14.0908L8.08887 14.3994V17.582H6L5.69141 17.5898C2.62333 17.7453 0.16325 20.2054 0.0078125 23.2734L0 23.582V94C0.000228191 97.21 2.52125 99.8316 5.69141 99.9922L6 100H57.8105L58.1191 99.9922ZM63.8105 23.582L63.8027 23.2734C63.6473 20.2054 61.1872 17.7453 58.1191 17.5898L57.8105 17.582H14.0889V14.3994H65.8994V84.8174H63.8105V23.582ZM6 23.582H57.8105V94H6V23.582Z" fill="black"/>
<path d="M74.3213 82.4102C77.4914 82.2496 80.0124 79.6279 80.0127 76.418V6L80.0049 5.69141C79.8494 2.62333 77.3894 0.163266 74.3213 0.0078125L74.0127 0H22.2021L21.8936 0.0078125C18.8255 0.163266 16.3654 2.62333 16.21 5.69141L16.2021 6V12.0713H22.2021V6H74.0127V76.418H70.4863V82.418H74.0127L74.3213 82.4102Z" fill="black"/>
<path d="M46 72H16" stroke="black" stroke-width="6" stroke-linecap="round"/>
<path d="M46 85H16" stroke="black" stroke-width="6" stroke-linecap="round"/>
<circle cx="31" cy="47" r="15" stroke="black" stroke-width="6"/>
<path d="M31 48V40" stroke="black" stroke-width="6" stroke-linecap="round"/>
<path d="M31 48L34 51" stroke="black" stroke-width="6" stroke-linecap="round"/>
</g>
<defs>
<clipPath id="clip0_5582_19113">
<rect width="80" height="100" fill="white"/>
</clipPath>
</defs>
</svg>
