<svg width="80" height="100" viewBox="0 0 80 100" fill="none" xmlns="http://www.w3.org/2000/svg">
<path d="M10.9922 27H70.0205C71.7929 27 73.1662 28.5236 73.0098 30.2646L72.9893 30.4346L63.6299 94.4346C63.4142 95.9079 62.1502 97 60.6611 97H20.3516C18.8626 96.9999 17.5985 95.9078 17.3828 94.4346L8.02344 30.4346C7.75868 28.6242 9.16253 27 10.9922 27Z" stroke="black" stroke-width="6"/>
<mask id="path-2-inside-1_1709_28665" fill="white">
<path d="M50.709 0C54.0227 0 56.709 2.68629 56.709 6V9C56.709 12.3137 59.3953 15 62.709 15H75.9492L76.1035 15.0039C77.6888 15.0841 78.9492 16.3948 78.9492 18C78.9492 19.6052 77.6888 20.9159 76.1035 20.9961L75.9492 21H4.05078C2.39393 21 1.05078 19.6569 1.05078 18C1.05078 16.3431 2.39393 15 4.05078 15H17.291C20.6047 15 23.291 12.3137 23.291 9V6C23.291 2.68638 25.9774 0.000147198 29.291 0H50.709Z"/>
</mask>
<path d="M56.709 6L62.709 6L62.709 6L56.709 6ZM75.9492 15L76.1011 9.00192L76.0252 9H75.9492V15ZM76.1035 15.0039L76.4065 9.01156L76.331 9.00774L76.2554 9.00583L76.1035 15.0039ZM76.1035 20.9961L76.2554 26.9942L76.331 26.9923L76.4065 26.9884L76.1035 20.9961ZM75.9492 21V27H76.0252L76.1011 26.9981L75.9492 21ZM29.291 0L29.291 -6L29.2907 -6L29.291 0ZM50.709 0V6L50.709 6L56.709 6L62.709 6C62.709 -0.627417 57.3364 -6 50.709 -6V0ZM56.709 6H50.709V9H56.709H62.709V6H56.709ZM62.709 15V21H75.9492V15V9H62.709V15ZM75.9492 15L75.7974 20.9981L75.9517 21.002L76.1035 15.0039L76.2554 9.00583L76.1011 9.00192L75.9492 15ZM76.1035 15.0039L75.8005 20.9963C74.2095 20.9158 72.9492 19.6063 72.9492 18H78.9492H84.9492C84.9492 13.1833 81.1681 9.25233 76.4065 9.01156L76.1035 15.0039ZM78.9492 18H72.9492C72.9492 16.3937 74.2095 15.0842 75.8005 15.0037L76.1035 20.9961L76.4065 26.9884C81.1681 26.7477 84.9492 22.8167 84.9492 18H78.9492ZM76.1035 20.9961L75.9517 14.998L75.7974 15.0019L75.9492 21L76.1011 26.9981L76.2554 26.9942L76.1035 20.9961ZM75.9492 21V15H4.05078V21V27H75.9492V21ZM4.05078 21V15C5.70764 15 7.05078 16.3431 7.05078 18H1.05078H-4.94922C-4.94922 22.9706 -0.919781 27 4.05078 27V21ZM1.05078 18H7.05078C7.05078 19.6569 5.70764 21 4.05078 21V15V9C-0.919781 9 -4.94922 13.0294 -4.94922 18H1.05078ZM4.05078 15V21H17.291V15V9H4.05078V15ZM23.291 9H29.291V6H23.291H17.291V9H23.291ZM23.291 6H29.291L29.2913 6L29.291 0L29.2907 -6C22.6639 -5.99971 17.291 -0.627592 17.291 6H23.291ZM29.291 0V6H50.709V0V-6H29.291V0ZM17.291 15V21C23.9184 21 29.291 15.6274 29.291 9H23.291H17.291L17.291 9V15ZM56.709 9H50.709C50.709 15.6274 56.0816 21 62.709 21V15V9L62.709 9H56.709Z" fill="black" mask="url(#path-2-inside-1_1709_28665)"/>
<path d="M4.05078 27L75.9495 27" stroke="black" stroke-width="6" stroke-linecap="round"/>
<path d="M40.5059 42V86" stroke="black" stroke-width="6" stroke-linecap="round"/>
<path d="M56.4795 42L52.6582 85.1312" stroke="black" stroke-width="6" stroke-linecap="round"/>
<path d="M28.125 85.1309L24.3037 41.9997" stroke="black" stroke-width="6" stroke-linecap="round"/>
</svg>
