<svg width="200" height="161" viewBox="0 0 200 161" fill="none" xmlns="http://www.w3.org/2000/svg">
<rect x="81.3867" y="44.9248" width="13.1055" height="57.0406" rx="4" stroke="black" stroke-width="8"/>
<path d="M88.4424 42.9263V4.90251" stroke="black" stroke-width="8" stroke-linecap="round"/>
<path d="M88.4424 4.90234L77.3871 4.90234" stroke="black" stroke-width="8" stroke-linecap="round"/>
<path d="M119.578 66.3075C119.578 63.6854 122.059 61.7725 124.595 62.4388L144.775 67.741C146.533 68.2028 147.759 69.792 147.759 71.6097V75.9466V78.9535C147.759 81.1626 145.968 82.9535 143.759 82.9535H123.578C121.369 82.9535 119.578 81.1626 119.578 78.9535V66.3075Z" stroke="black" stroke-width="8"/>
<ellipse cx="163.819" cy="137.985" rx="7.03518" ry="7.00438" fill="black"/>
<ellipse cx="66.3316" cy="142.989" rx="4.0201" ry="4.0025" fill="black"/>
<ellipse cx="28.1402" cy="142.989" rx="4.0201" ry="4.0025" fill="black"/>
<mask id="path-8-inside-1_1760_26057" fill="white">
<path fill-rule="evenodd" clip-rule="evenodd" d="M110.513 94.1399V97.9603H110.553V105.96V113.975V131.986H141.496C144.147 122.185 153.137 114.971 163.819 114.971C174.501 114.971 183.49 122.185 186.141 131.986H192V119.969C190.472 118.418 188.985 115.935 188.985 112.749V99.0891L161.637 89.9289C157.561 88.5635 154.814 84.7456 154.814 80.4467V67.8913C154.814 65.5682 153.222 63.5969 151.058 63.0454C147.675 62.1833 144.434 59.4787 143.528 55.32C139.499 36.8387 126.34 23.2152 110.513 19.7345V94.1399ZM186.848 139.986H192C196.418 139.986 200 136.405 200 131.986V119.969C200 117.782 199.122 115.8 197.7 114.356C197.273 113.922 196.985 113.357 196.985 112.749V99.0891C196.985 95.65 194.787 92.5957 191.526 91.5034L164.178 82.3431C163.363 82.0701 162.814 81.3065 162.814 80.4467V67.8913C162.814 61.8231 158.656 56.726 153.034 55.2932C152.206 55.0822 151.526 54.4509 151.344 53.616C146.611 31.9049 130.537 15.1419 110.513 11.5699L110.483 11.5646C107.929 11.1109 105.312 10.8716 102.646 10.864L102.513 10.8638L102.513 10.864V94.1399V97.9603H62.3116H8C3.58172 97.9603 0 101.542 0 105.96V113.975C0 115.524 0.440196 116.97 1.20231 118.195C1.07319 118.766 1.00503 119.359 1.00503 119.969V131.986C1.00503 136.405 4.58675 139.986 9.00503 139.986H10.3C10.1354 140.963 10.0498 141.966 10.0498 142.988C10.0498 152.936 18.1492 161 28.1403 161C38.1313 161 46.2307 152.936 46.2307 142.988C46.2307 141.966 46.1451 140.963 45.9806 139.986H48.4914C48.3268 140.963 48.2412 141.966 48.2412 142.988C48.2412 152.936 56.3406 161 66.3317 161C76.3227 161 84.4221 152.936 84.4221 142.988C84.4221 141.966 84.3365 140.963 84.172 139.986H140.789C141.808 151.76 151.729 161 163.819 161C175.908 161 185.83 151.76 186.848 139.986ZM85.6755 131.986H80.6559C77.3476 127.723 72.1617 124.977 66.3317 124.977C60.5017 124.977 55.3158 127.723 52.0074 131.986H42.4645C39.1561 127.723 33.9703 124.977 28.1403 124.977C22.3103 124.977 17.1244 127.723 13.816 131.986H9.00503L9.00502 121.975H78.8013L85.6755 131.986Z"/>
</mask>
<path d="M110.513 97.9603H102.513V105.96H110.513V97.9603ZM110.553 97.9603H118.553V89.9603H110.553V97.9603ZM110.553 131.986H102.553V139.986H110.553V131.986ZM141.496 131.986V139.986H147.62L149.219 134.075L141.496 131.986ZM186.141 131.986L178.419 134.075L180.017 139.986H186.141V131.986ZM192 131.986V139.986H200V131.986H192ZM192 119.969H200V116.691L197.7 114.356L192 119.969ZM188.985 99.0891H196.985V93.3319L191.526 91.5034L188.985 99.0891ZM161.637 89.9289L164.178 82.3431L161.637 89.9289ZM151.058 63.0454L153.034 55.2932L153.034 55.2932L151.058 63.0454ZM143.528 55.32L135.711 57.0239L143.528 55.32ZM110.513 19.7345L112.231 11.9213L102.513 9.784V19.7345H110.513ZM186.848 139.986V131.986H179.51L178.878 139.297L186.848 139.986ZM197.7 114.356L203.4 108.742L203.4 108.742L197.7 114.356ZM191.526 91.5034L188.985 99.0891L191.526 91.5034ZM164.178 82.3431L161.637 89.9289L161.637 89.9289L164.178 82.3431ZM153.034 55.2932L155.01 47.541L155.01 47.541L153.034 55.2932ZM151.344 53.616L159.16 51.9121L159.16 51.912L151.344 53.616ZM110.513 11.5699L111.918 3.69426L111.915 3.69379L110.513 11.5699ZM110.483 11.5646L111.885 3.6884L111.882 3.68793L110.483 11.5646ZM102.646 10.864L102.669 2.86399L102.657 2.86397L102.646 10.864ZM102.513 10.8638L102.525 2.86378L99.2041 2.859L96.8562 5.20692L102.513 10.8638ZM102.513 10.864L96.856 5.20711L94.5128 7.55025V10.864H102.513ZM102.513 97.9603V105.96H110.513V97.9603H102.513ZM1.20231 118.195L9.00494 119.961L9.72999 116.758L7.99506 113.969L1.20231 118.195ZM10.3 139.986L18.1887 141.316L19.7609 131.986H10.3V139.986ZM45.9806 139.986V131.986H36.5196L38.0918 141.316L45.9806 139.986ZM48.4914 139.986L56.3801 141.316L57.9523 131.986H48.4914V139.986ZM84.172 139.986V131.986H74.711L76.2832 141.316L84.172 139.986ZM140.789 139.986L148.76 139.297L148.127 131.986H140.789V139.986ZM80.6559 131.986L74.3356 136.891L76.7377 139.986H80.6559V131.986ZM85.6755 131.986V139.986H100.873L92.2704 127.458L85.6755 131.986ZM52.0074 131.986V139.986H55.9256L58.3277 136.891L52.0074 131.986ZM42.4645 131.986L36.1442 136.891L38.5463 139.986H42.4645V131.986ZM13.816 131.986V139.986H17.7342L20.1363 136.891L13.816 131.986ZM9.00503 131.986H1.00503L1.00503 139.986H9.00503V131.986ZM9.00502 121.975V113.975H1.00502L1.00502 121.975H9.00502ZM78.8013 121.975L85.3963 117.447L83.0126 113.975H78.8013V121.975ZM118.513 97.9603V94.1399H102.513V97.9603H118.513ZM110.553 89.9603H110.513V105.96H110.553V89.9603ZM118.553 105.96V97.9603H102.553V105.96H118.553ZM118.553 113.975V105.96H102.553V113.975H118.553ZM118.553 131.986V113.975H102.553V131.986H118.553ZM141.496 123.986H110.553V139.986H141.496V123.986ZM149.219 134.075C150.945 127.694 156.821 122.971 163.819 122.971V106.971C149.453 106.971 137.35 116.676 133.774 129.898L149.219 134.075ZM163.819 122.971C170.817 122.971 176.693 127.694 178.419 134.075L193.864 129.898C190.288 116.676 178.185 106.971 163.819 106.971V122.971ZM192 123.986H186.141V139.986H192V123.986ZM184 119.969V131.986H200V119.969H184ZM180.985 112.749C180.985 118.532 183.688 122.929 186.3 125.582L197.7 114.356C197.257 113.906 196.985 113.339 196.985 112.749H180.985ZM180.985 99.0891V112.749H196.985V99.0891H180.985ZM159.097 97.5147L186.444 106.675L191.526 91.5034L164.178 82.3431L159.097 97.5147ZM146.814 80.4467C146.814 88.1848 151.759 95.057 159.097 97.5147L164.178 82.3431C163.363 82.0701 162.814 81.3065 162.814 80.4467H146.814ZM146.814 67.8913V80.4467H162.814V67.8913H146.814ZM149.083 70.7976C147.761 70.4608 146.814 69.2859 146.814 67.8913H162.814C162.814 61.8505 158.683 56.7329 153.034 55.2932L149.083 70.7976ZM135.711 57.0239C137.35 64.5416 143.184 69.2943 149.083 70.7976L153.034 55.2932C152.656 55.1968 152.247 54.9794 151.929 54.6716C151.644 54.3953 151.441 54.0609 151.344 53.616L135.711 57.0239ZM108.795 27.5478C121.197 30.2754 132.262 41.2036 135.711 57.0239L151.344 53.616C146.735 32.4738 131.482 16.155 112.231 11.9213L108.795 27.5478ZM118.513 94.1399V19.7345H102.513V94.1399H118.513ZM186.848 147.986H192V131.986H186.848V147.986ZM192 147.986C200.837 147.986 208 140.823 208 131.986H192V147.986ZM208 131.986V119.969H192V131.986H208ZM208 119.969C208 115.598 206.236 111.622 203.4 108.742L192 119.969L192 119.969H208ZM203.4 108.742C204.074 109.427 204.985 110.779 204.985 112.749H188.985C188.985 115.936 190.473 118.418 192 119.969L203.4 108.742ZM204.985 112.749V99.0891H188.985V112.749H204.985ZM204.985 99.0891C204.985 92.2108 200.589 86.1022 194.067 83.9176L188.985 99.0891H204.985ZM194.067 83.9176L166.719 74.7574L161.637 89.9289L188.985 99.0891L194.067 83.9176ZM166.719 74.7574C169.165 75.5766 170.814 77.8673 170.814 80.4467H154.814C154.814 84.7457 157.561 88.5635 161.637 89.9289L166.719 74.7574ZM170.814 80.4467V67.8913H154.814V80.4467H170.814ZM170.814 67.8913C170.814 58.0779 164.09 49.8551 155.01 47.541L151.058 63.0454C153.222 63.5969 154.814 65.5682 154.814 67.8913H170.814ZM155.01 47.541C156.736 47.9811 158.618 49.4232 159.16 51.9121L143.528 55.3199C144.434 59.4787 147.675 62.1833 151.058 63.0454L155.01 47.541ZM159.16 51.912C153.837 27.4921 135.568 7.91312 111.918 3.69426L109.108 19.4456C125.505 22.3707 139.385 36.3177 143.528 55.32L159.16 51.912ZM111.915 3.69379L111.885 3.6884L109.08 19.4407L109.111 19.4461L111.915 3.69379ZM111.882 3.68793C108.877 3.15403 105.799 2.87301 102.669 2.86399L102.623 18.8639C104.824 18.8703 106.981 19.0677 109.083 19.4412L111.882 3.68793ZM102.657 2.86397L102.525 2.86378L102.502 18.8638L102.634 18.864L102.657 2.86397ZM96.8562 5.20692L96.856 5.20711L108.17 16.5208L108.17 16.5206L96.8562 5.20692ZM94.5128 10.864V94.1399H110.513V10.864H94.5128ZM94.5128 94.1399V97.9603H110.513V94.1399H94.5128ZM102.513 89.9603H62.3116V105.96H102.513V89.9603ZM62.3116 89.9603H8V105.96H62.3116V89.9603ZM8 89.9603C-0.836553 89.9603 -8 97.1237 -8 105.96H8V89.9603ZM-8 105.96V113.975H8V105.96H-8ZM-8 113.975C-8 117.061 -7.1187 119.965 -5.59043 122.421L7.99506 113.969C7.99505 113.969 7.99715 113.973 7.99904 113.979C7.99993 113.983 8.00031 113.985 8.00041 113.985C8.00052 113.986 8 113.983 8 113.975H-8ZM-6.60031 116.429C-6.85972 117.575 -6.99498 118.761 -6.99498 119.969H9.00502C9.00502 119.963 9.00536 119.96 9.00542 119.959C9.00548 119.959 9.00539 119.959 9.00494 119.961L-6.60031 116.429ZM-6.99498 119.969V131.986H9.00502V119.969H-6.99498ZM-6.99498 131.986C-6.99498 140.823 0.168463 147.986 9.00503 147.986V131.986L9.00502 131.986H-6.99498ZM9.00503 147.986H10.3V131.986H9.00503V147.986ZM2.41118 138.657C2.17295 140.071 2.0498 141.518 2.0498 142.988H18.0498C18.0498 142.413 18.0979 141.855 18.1887 141.316L2.41118 138.657ZM2.0498 142.988C2.0498 157.387 13.764 169 28.1403 169V153C22.5343 153 18.0498 148.485 18.0498 142.988H2.0498ZM28.1403 169C42.5165 169 54.2307 157.387 54.2307 142.988H38.2307C38.2307 148.485 33.7462 153 28.1403 153V169ZM54.2307 142.988C54.2307 141.518 54.1076 140.071 53.8693 138.657L38.0918 141.316C38.1826 141.855 38.2307 142.413 38.2307 142.988H54.2307ZM45.9806 147.986H48.4914V131.986H45.9806V147.986ZM40.6026 138.657C40.3644 140.071 40.2412 141.518 40.2412 142.988H56.2412C56.2412 142.413 56.2893 141.855 56.3801 141.316L40.6026 138.657ZM40.2412 142.988C40.2412 157.387 51.9554 169 66.3317 169V153C60.7257 153 56.2412 148.485 56.2412 142.988H40.2412ZM66.3317 169C80.7079 169 92.4221 157.387 92.4221 142.988H76.4221C76.4221 148.485 71.9376 153 66.3317 153V169ZM92.4221 142.988C92.4221 141.518 92.299 140.071 92.0607 138.657L76.2832 141.316C76.374 141.855 76.4221 142.413 76.4221 142.988H92.4221ZM84.172 147.986H140.789V131.986H84.172V147.986ZM163.819 153C155.888 153 149.421 146.942 148.76 139.297L132.819 140.676C134.195 156.578 147.571 169 163.819 169V153ZM178.878 139.297C178.217 146.942 171.75 153 163.819 153V169C180.066 169 193.443 156.578 194.818 140.676L178.878 139.297ZM80.6559 139.986H85.6755V123.986H80.6559V139.986ZM66.3317 132.977C69.5932 132.977 72.4824 134.503 74.3356 136.891L86.9763 127.082C82.2127 120.943 74.7302 116.977 66.3317 116.977V132.977ZM58.3277 136.891C60.181 134.503 63.0702 132.977 66.3317 132.977V116.977C57.9331 116.977 50.4506 120.943 45.6871 127.082L58.3277 136.891ZM42.4645 139.986H52.0074V123.986H42.4645V139.986ZM28.1403 132.977C31.4017 132.977 34.291 134.503 36.1442 136.891L48.7848 127.082C44.0213 120.943 36.5388 116.977 28.1403 116.977V132.977ZM20.1363 136.891C21.9895 134.503 24.8788 132.977 28.1403 132.977V116.977C19.7417 116.977 12.2592 120.943 7.49567 127.082L20.1363 136.891ZM9.00503 139.986H13.816V123.986H9.00503V139.986ZM1.00502 121.975L1.00503 131.986H17.005L17.005 121.975H1.00502ZM78.8013 113.975H9.00502V129.975H78.8013V113.975ZM92.2704 127.458L85.3963 117.447L72.2064 126.504L79.0805 136.515L92.2704 127.458Z" fill="black" mask="url(#path-8-inside-1_1760_26057)"/>
</svg>
