<svg width="100" height="80" viewBox="0 0 100 80" fill="none" xmlns="http://www.w3.org/2000/svg">
<g clip-path="url(#clip0_5615_64042)">
<circle cx="19" cy="69" r="8" stroke="black" stroke-width="6"/>
<circle cx="19" cy="69" r="3" fill="black"/>
<circle cx="41" cy="69" r="8" stroke="black" stroke-width="6"/>
<circle cx="41" cy="69" r="3" fill="black"/>
<circle cx="79" cy="67" r="10" stroke="black" stroke-width="6"/>
<circle cx="79" cy="67" r="4" fill="black"/>
<path d="M52 8C62.8213 8.00092 72.0973 15.5025 76.0117 26.1719C78.1271 27.1462 79.5 29.2686 79.5 31.6211V38.1729C79.5001 38.9058 80.0942 39.4999 80.8271 39.5L80.8262 40.8281L80.8271 40.8271V39.5C80.9418 39.5 81.0562 39.5146 81.167 39.5439L93.5352 42.8184C96.1668 43.515 97.9999 45.8959 98 48.6182V56.5283C99.2273 57.627 100 59.2231 100 61V66C100 69.3137 97.3137 72 94 72H90.3145C90.7569 70.7486 91 69.4029 91 68C91 67.3185 90.9421 66.6505 90.833 66H94V61.001L93.998 60.999L92 59.21V48.6182L80.0781 45.4619C76.3837 45.0867 73.5006 41.9672 73.5 38.1738V31.6211L71.2373 30.5791L70.3789 28.2383C68.0086 21.7778 63.4066 17.1016 58 15.0928V66H67.167C67.0579 66.6505 67 67.3185 67 68C67 69.4029 67.2431 70.7486 67.6855 72H48.665C48.8819 71.2032 49 70.3655 49 69.5C49 68.2637 48.7617 67.0834 48.332 66H52V54H8V65.998L8.07422 66H9.33496C9.11813 66.7968 9 67.6345 9 68.5C9 69.7363 9.23829 70.9166 9.66797 72H8L7.69141 71.9922C4.52111 71.8316 2 69.2102 2 66V56.2412C0.794277 55.4339 0 54.06 0 52.5C0 50.0147 2.01472 48 4.5 48H52V8ZM30.668 66C30.2383 67.0834 30 68.2637 30 69.5C30 70.3655 30.1181 71.2032 30.335 72H27.332C27.7617 70.9166 28 69.7363 28 68.5C28 67.6345 27.8819 66.7968 27.665 66H30.668Z" fill="black"/>
<path d="M71 37.8947V34.4462C71 33.635 70.51 32.9041 69.7595 32.596L63.7595 30.1329C62.4435 29.5926 61 30.5604 61 31.983V40C61 41.1046 61.8954 42 63 42H69C70.1046 42 71 41.1046 71 40V37.8947Z" fill="black"/>
<rect x="40" y="19" width="8" height="32" rx="3" stroke="black" stroke-width="6"/>
<path d="M44 19V3" stroke="black" stroke-width="6" stroke-linecap="round"/>
<path d="M44 3L38 3" stroke="black" stroke-width="6" stroke-linecap="round"/>
</g>
<defs>
<clipPath id="clip0_5615_64042">
<rect width="100" height="80" fill="white"/>
</clipPath>
</defs>
</svg>
