<svg width="97" height="95" viewBox="0 0 97 95" fill="none" xmlns="http://www.w3.org/2000/svg">
<mask id="path-1-outside-1_2315_1435" maskUnits="userSpaceOnUse" x="-31.7227" y="-34.3348" width="161.22" height="161.22" fill="black">
<rect fill="white" x="-31.7227" y="-34.3348" width="161.22" height="161.22"/>
<path fill-rule="evenodd" clip-rule="evenodd" d="M8.04754 16.479C6.49572 18.0513 6.51232 20.5839 8.08463 22.1358L29.3641 43.138C32.5087 46.2417 32.5419 51.3069 29.4383 54.4515L10.8099 73.3258C9.25811 74.8981 9.27471 77.4307 10.847 78.9825L19.3877 87.412C20.9601 88.9638 23.4927 88.9472 25.0445 87.3749L43.6729 68.5006C46.7765 65.356 51.8417 65.3228 54.9863 68.4264L73.5636 86.7617C75.1359 88.3135 77.6685 88.2969 79.2203 86.7246L87.6498 78.1838C89.2016 76.6115 89.185 74.0789 87.6127 72.5271L69.0354 54.1919C65.8908 51.0882 65.8576 46.023 68.9612 42.8784L89.6704 21.8959C91.2222 20.3236 91.2056 17.791 89.6333 16.2392L81.0926 7.80972C79.5203 6.25789 76.9877 6.2745 75.4358 7.84681L54.7267 28.8293C51.6231 31.9739 46.5578 32.0071 43.4132 28.9035L22.1337 7.90121C20.5614 6.34939 18.0288 6.366 16.477 7.9383L8.04754 16.479Z"/>
</mask>
<path fill-rule="evenodd" clip-rule="evenodd" d="M8.04754 16.479C6.49572 18.0513 6.51232 20.5839 8.08463 22.1358L29.3641 43.138C32.5087 46.2417 32.5419 51.3069 29.4383 54.4515L10.8099 73.3258C9.25811 74.8981 9.27471 77.4307 10.847 78.9825L19.3877 87.412C20.9601 88.9638 23.4927 88.9472 25.0445 87.3749L43.6729 68.5006C46.7765 65.356 51.8417 65.3228 54.9863 68.4264L73.5636 86.7617C75.1359 88.3135 77.6685 88.2969 79.2203 86.7246L87.6498 78.1838C89.2016 76.6115 89.185 74.0789 87.6127 72.5271L69.0354 54.1919C65.8908 51.0882 65.8576 46.023 68.9612 42.8784L89.6704 21.8959C91.2222 20.3236 91.2056 17.791 89.6333 16.2392L81.0926 7.80972C79.5203 6.25789 76.9877 6.2745 75.4358 7.84681L54.7267 28.8293C51.6231 31.9739 46.5578 32.0071 43.4132 28.9035L22.1337 7.90121C20.5614 6.34939 18.0288 6.366 16.477 7.9383L8.04754 16.479Z" fill="#FC3939"/>
<path d="M8.08463 22.1358L12.2994 17.8654L12.2994 17.8654L8.08463 22.1358ZM8.04754 16.479L12.3179 20.6938L8.04754 16.479ZM10.8099 73.3258L15.0803 77.5405L15.0803 77.5405L10.8099 73.3258ZM10.847 78.9825L15.0617 74.7121L10.847 78.9825ZM19.3877 87.412L23.6025 83.1416L19.3877 87.412ZM25.0445 87.3749L20.7741 83.1601L20.7741 83.1601L25.0445 87.3749ZM73.5636 86.7617L69.3488 91.032L69.3488 91.032L73.5636 86.7617ZM79.2203 86.7246L83.4907 90.9393L83.4907 90.9393L79.2203 86.7246ZM87.6498 78.1838L83.3794 73.9691L83.3794 73.9691L87.6498 78.1838ZM87.6127 72.5271L83.398 76.7975L83.398 76.7975L87.6127 72.5271ZM89.6704 21.8959L93.9407 26.1107L93.9408 26.1107L89.6704 21.8959ZM89.6333 16.2392L93.848 11.9688L93.848 11.9688L89.6333 16.2392ZM81.0926 7.80972L76.8778 12.0801L76.8778 12.0801L81.0926 7.80972ZM75.4358 7.84681L79.7062 12.0615L79.7062 12.0615L75.4358 7.84681ZM22.1337 7.90121L17.919 12.1716L17.919 12.1716L22.1337 7.90121ZM16.477 7.9383L20.7474 12.153L16.477 7.9383ZM54.7267 28.8293L50.4563 24.6146L54.7267 28.8293ZM43.4132 28.9035L39.1985 33.1738L43.4132 28.9035ZM69.0354 54.1919L64.8207 58.4622L69.0354 54.1919ZM68.9612 42.8784L64.6909 38.6637L68.9612 42.8784ZM43.6729 68.5006L39.4025 64.2859L43.6729 68.5006ZM54.9863 68.4264L50.7716 72.6968L54.9863 68.4264ZM29.3641 43.138L25.1494 47.4084L29.3641 43.138ZM29.4383 54.4515L25.1679 50.2368L29.4383 54.4515ZM12.2994 17.8654C13.0855 18.6413 13.0938 19.9076 12.3179 20.6938L3.77717 12.2643C-0.102384 16.1951 -0.0608637 22.5266 3.8699 26.4061L12.2994 17.8654ZM33.5789 38.8677L12.2994 17.8654L3.8699 26.4061L25.1494 47.4084L33.5789 38.8677ZM15.0803 77.5405L33.7087 58.6662L25.1679 50.2368L6.53956 69.111L15.0803 77.5405ZM15.0617 74.7121C15.8479 75.488 15.8562 76.7543 15.0803 77.5405L6.53957 69.111C2.66 73.0418 2.70153 79.3733 6.63228 83.2529L15.0617 74.7121ZM23.6025 83.1416L15.0617 74.7121L6.63228 83.2529L15.173 91.6823L23.6025 83.1416ZM20.7741 83.1601C21.55 82.374 22.8163 82.3657 23.6025 83.1416L15.173 91.6823C19.1038 95.5619 25.4353 95.5204 29.3149 91.5896L20.7741 83.1601ZM39.4025 64.2859L20.7741 83.1601L29.3149 91.5896L47.9432 72.7153L39.4025 64.2859ZM77.7783 82.4913L59.201 64.1561L50.7716 72.6968L69.3488 91.032L77.7783 82.4913ZM74.95 82.5098C75.7259 81.7237 76.9922 81.7154 77.7783 82.4913L69.3488 91.032C73.2796 94.9116 79.6111 94.8701 83.4907 90.9393L74.95 82.5098ZM83.3794 73.9691L74.9499 82.5099L83.4907 90.9393L91.9201 82.3986L83.3794 73.9691ZM83.398 76.7975C82.6118 76.0216 82.6035 74.7553 83.3794 73.9691L91.9201 82.3986C95.7997 78.4678 95.7582 72.1363 91.8274 68.2567L83.398 76.7975ZM64.8207 58.4622L83.398 76.7975L91.8274 68.2567L73.2502 49.9215L64.8207 58.4622ZM85.4 17.6812L64.6909 38.6637L73.2316 47.0931L93.9407 26.1107L85.4 17.6812ZM85.4186 20.5095C84.6324 19.7336 84.6241 18.4673 85.4 17.6812L93.9408 26.1107C97.8203 22.1799 97.7788 15.8484 93.848 11.9688L85.4186 20.5095ZM76.8778 12.0801L85.4186 20.5095L93.848 11.9688L85.3073 3.53935L76.8778 12.0801ZM79.7062 12.0615C78.9303 12.8477 77.664 12.856 76.8778 12.0801L85.3073 3.53936C81.3765 -0.340211 75.045 -0.298686 71.1655 3.63207L79.7062 12.0615ZM58.9971 33.044L79.7062 12.0615L71.1655 3.63207L50.4563 24.6146L58.9971 33.044ZM17.919 12.1716L39.1985 33.1738L47.628 24.6331L26.3485 3.63085L17.919 12.1716ZM20.7474 12.153C19.9715 12.9392 18.7052 12.9475 17.919 12.1716L26.3485 3.63086C22.4177 -0.248715 16.0862 -0.207189 12.2066 3.72357L20.7474 12.153ZM12.3179 20.6938L20.7474 12.153L12.2066 3.72357L3.77717 12.2643L12.3179 20.6938ZM50.4563 24.6146C49.6804 25.4007 48.4141 25.409 47.628 24.6331L39.1985 33.1738C44.7016 38.6052 53.5657 38.5471 58.9971 33.044L50.4563 24.6146ZM73.2502 49.9215C72.464 49.1456 72.4557 47.8793 73.2316 47.0931L64.6909 38.6637C59.2595 44.1668 59.3176 53.0309 64.8207 58.4622L73.2502 49.9215ZM47.9432 72.7153C48.7191 71.9292 49.9854 71.9209 50.7716 72.6968L59.201 64.1561C53.698 58.7247 44.8339 58.7828 39.4025 64.2859L47.9432 72.7153ZM25.1494 47.4084C25.9355 48.1843 25.9438 49.4506 25.1679 50.2368L33.7087 58.6662C39.14 53.1632 39.0819 44.299 33.5789 38.8677L25.1494 47.4084Z" fill="black" mask="url(#path-1-outside-1_2315_1435)"/>
</svg>
