<svg width="101" height="93" viewBox="0 0 101 93" fill="none" xmlns="http://www.w3.org/2000/svg">
<path d="M96.0703 45L4.00031 45" stroke="black" stroke-width="8" stroke-linecap="round"/>
<mask id="path-2-inside-1_1845_1488" fill="white">
<path fill-rule="evenodd" clip-rule="evenodd" d="M86.1437 38.5215C85.5758 24.2035 76.0255 12.0697 62.692 7.05988C62.2267 3.08462 58.8469 0 54.7467 0H41.356C36.9726 0 33.4125 3.52548 33.3567 7.89569C21.0995 13.3335 12.4858 24.9457 11.9473 38.5215H86.1437Z"/>
</mask>
<path d="M62.692 7.05988L54.7463 7.99L55.3132 12.8335L59.8782 14.5487L62.692 7.05988ZM86.1437 38.5215V46.5215H94.4673L94.1374 38.2044L86.1437 38.5215ZM33.3567 7.89569L36.6009 15.2084L41.2905 13.1279L41.3561 7.9979L33.3567 7.89569ZM11.9473 38.5215L3.95355 38.2044L3.62364 46.5215H11.9473V38.5215ZM59.8782 14.5487C70.4737 18.5298 77.7208 28.0176 78.15 38.8386L94.1374 38.2044C93.4308 20.3894 81.5773 5.60959 65.5058 -0.428952L59.8782 14.5487ZM54.7467 8C54.752 8 54.7551 8.00024 54.7561 8.00034C54.7571 8.00044 54.7569 8.00047 54.7557 8.00023C54.7529 7.9997 54.7492 7.99867 54.7456 7.99728C54.7389 7.99468 54.7397 7.99367 54.7447 7.99814C54.747 8.00016 54.7489 8.0023 54.7503 8.00412C54.7517 8.00588 54.7519 8.00642 54.7513 8.00526C54.7506 8.00391 54.7492 8.00108 54.748 7.99708C54.7466 7.99276 54.7463 7.98989 54.7463 7.99L70.6378 6.12976C69.7061 -1.82913 62.9528 -8 54.7467 -8V8ZM41.356 8H54.7467V-8H41.356V8ZM41.3561 7.9979C41.3561 7.99297 41.3564 7.99047 41.3564 7.99005C41.3565 7.9896 41.3564 7.99035 41.3561 7.99201C41.3553 7.99573 41.354 7.99968 41.3526 8.00286C41.3513 8.00572 41.3507 8.00648 41.3514 8.00547C41.3522 8.00432 41.3538 8.00221 41.3563 7.99979C41.3587 7.99737 41.3607 7.99585 41.3617 7.99522C41.3625 7.99469 41.3615 7.99547 41.3584 7.99678C41.3549 7.99821 41.3509 7.99944 41.3475 8.00014C41.346 8.00044 41.3455 8.00045 41.3464 8.00036C41.3472 8.00028 41.3503 8 41.356 8V-8C32.5885 -8 25.4691 -0.949161 25.3574 7.79348L41.3561 7.9979ZM19.941 38.8386C20.3481 28.5744 26.8794 19.5212 36.6009 15.2084L30.1125 0.583025C15.3197 7.14575 4.62342 21.317 3.95355 38.2044L19.941 38.8386ZM11.9473 46.5215H86.1437V30.5215H11.9473V46.5215Z" fill="black" mask="url(#path-2-inside-1_1845_1488)"/>
<path d="M58.4502 6V21" stroke="black" stroke-width="8" stroke-linecap="round"/>
<path d="M38.6504 5V21" stroke="black" stroke-width="8" stroke-linecap="round"/>
<path d="M8.61113 84L11.0184 59.0781H19.472L21.8367 84H17.1214L16.7674 79.9785H13.7654L13.4539 84H8.61113ZM14.1194 75.9995H16.3851L15.2947 63.3262H15.0682L14.1194 75.9995ZM26.266 84V59.0781H33.1195C34.9132 59.0781 36.2631 59.5785 37.1693 60.5791C38.0756 61.5703 38.5287 63.0241 38.5287 64.9404V76.6084C38.5287 78.9684 38.1133 80.7904 37.2826 82.0742C36.4613 83.3581 35.017 84 32.9496 84H26.266ZM31.2787 79.5962H32.1425C33.0582 79.5962 33.516 79.1525 33.516 78.2651V65.4077C33.516 64.577 33.4027 64.0436 33.1762 63.8076C32.959 63.5622 32.5106 63.4395 31.831 63.4395H31.2787V79.5962ZM43.4678 84V59.0781H51.0576L53.1533 74.272L55.2349 59.0781H62.8955V84H58.3359V66.0449L55.4756 84H51.001L47.9707 66.0449V84H43.4678ZM67.7779 84V59.0781H72.5924V84H67.7779ZM77.4748 84V59.0781H82.6008L84.8947 71.0151V59.0781H89.7092V84H84.8381L82.3459 71.5391V84H77.4748Z" fill="black"/>
</svg>
