<svg width="90" height="90" viewBox="0 0 90 90" fill="none" xmlns="http://www.w3.org/2000/svg">
<path fill-rule="evenodd" clip-rule="evenodd" d="M30 4C30 1.79086 28.2091 0 26 0H8C3.58172 0 0 3.58172 0 8V26C0 28.2091 1.79086 30 4 30C6.20914 30 8 28.2091 8 26V16C8 11.5817 11.5817 8 16 8H26C28.2091 8 30 6.20914 30 4ZM64 8C61.7909 8 60 6.20914 60 4C60 1.79086 61.7909 0 64 0H82C86.4183 0 90 3.58172 90 8V26C90 28.2091 88.2091 30 86 30C83.7909 30 82 28.2091 82 26V16C82 11.5817 78.4183 8 74 8H64ZM60 86C60 83.7909 61.7909 82 64 82H74C78.4183 82 82 78.4183 82 74V64C82 61.7909 83.7909 60 86 60C88.2091 60 90 61.7909 90 64V82C90 86.4183 86.4183 90 82 90H64C61.7909 90 60 88.2091 60 86ZM4 60C6.20914 60 8 61.7909 8 64V74C8 78.4183 11.5817 82 16 82H26C28.2091 82 30 83.7909 30 86C30 88.2091 28.2091 90 26 90H8C3.58172 90 0 86.4183 0 82V64C0 61.7909 1.79086 60 4 60Z" fill="black"/>
<path d="M63 26L63 33" stroke="black" stroke-width="8" stroke-linecap="round"/>
<path d="M26 26L26 33" stroke="black" stroke-width="8" stroke-linecap="round"/>
<path d="M61 65C48.4721 72.7825 41.5026 73.2146 29 65" stroke="black" stroke-width="8" stroke-linecap="round"/>
<path d="M45 34C45 34 56.25 55.4755 45 53.9193" stroke="black" stroke-width="8" stroke-linecap="round"/>
</svg>
