<svg width="200" height="200" viewBox="0 0 200 200" fill="none" xmlns="http://www.w3.org/2000/svg">
<path d="M170.341 100C170.341 139.115 137.767 171 97.3639 171C56.961 171 24.3867 139.115 24.3867 100C24.3867 60.8853 56.961 29 97.3639 29C137.767 29 170.341 60.8853 170.341 100Z" stroke="black" stroke-width="8"/>
<path d="M105.873 100C105.873 104.424 102.162 108.188 97.3643 108.188C92.5662 108.188 88.8555 104.424 88.8555 100C88.8555 95.5756 92.5662 91.8125 97.3643 91.8125C102.162 91.8125 105.873 95.5756 105.873 100Z" stroke="black" stroke-width="8"/>
<path d="M53.7441 56.75L56.4657 59.4017" stroke="black" stroke-width="8" stroke-linecap="round"/>
<path d="M138.932 139L141.653 141.652" stroke="black" stroke-width="8" stroke-linecap="round"/>
<path d="M97.3643 161.627V157.877" stroke="black" stroke-width="8" stroke-linecap="round"/>
<path d="M53.7441 142.509L56.4657 139.857" stroke="black" stroke-width="8" stroke-linecap="round"/>
<path d="M138.932 60.2593L141.653 57.6076" stroke="black" stroke-width="8" stroke-linecap="round"/>
<path d="M97.3682 43.1929V39.4429" stroke="black" stroke-width="8" stroke-linecap="round"/>
<path d="M89.0303 100H56.3098" stroke="black" stroke-width="8" stroke-linecap="round"/>
<path d="M35.2695 100H39.1184" stroke="black" stroke-width="8" stroke-linecap="round"/>
<path d="M154.327 100H158.176" stroke="black" stroke-width="8" stroke-linecap="round"/>
<path d="M120.439 120.516L106.602 107" stroke="black" stroke-width="8" stroke-linecap="round"/>
<path fill-rule="evenodd" clip-rule="evenodd" d="M47.251 29.303C48.9078 29.303 50.251 30.6462 50.251 32.303V34.303C50.251 35.9599 48.9078 37.303 47.251 37.303H42.251H31.6763H26.6763C25.0195 37.303 23.6763 35.9599 23.6763 34.303V29.303V19V14C23.6763 12.3431 25.0195 11 26.6763 11H28.6763C30.3332 11 31.6763 12.3431 31.6763 14V19V21.303V27C31.6763 28.2719 32.7074 29.303 33.9794 29.303H34.251H39.6763H42.251H47.251Z" fill="black"/>
<path fill-rule="evenodd" clip-rule="evenodd" d="M192 100C192 150.615 149.827 192 97.3638 192C57.063 192 22.8347 167.58 9.13024 133.314C8.37609 131.428 6.38681 130.316 4.40366 130.753C2.05667 131.271 0.677709 133.721 1.56186 135.956C16.3833 173.419 53.6876 200 97.3638 200C154.048 200 200 155.228 200 100C200 44.7715 154.048 0 97.3638 0C72.5258 0 49.7486 8.59618 31.995 22.9016C30.0028 24.5069 30.1369 27.5377 32.1901 29.0641C33.7034 30.1891 35.7882 30.1087 37.2602 28.9301C53.5783 15.8646 74.4932 8 97.3638 8C149.827 8 192 49.3848 192 100Z" fill="black"/>
</svg>
