<svg width="160" height="201" viewBox="0 0 160 201" fill="none" xmlns="http://www.w3.org/2000/svg">
<rect width="160" height="200" fill="#384C6B"/>
<mask id="path-2-inside-1_1726_24957" fill="white">
<path fill-rule="evenodd" clip-rule="evenodd" d="M10 200.3H150C148.3 153.482 117.605 122.905 79.9894 122.905C42.4983 122.905 11.8847 158.206 10 200.3Z"/>
</mask>
<path fill-rule="evenodd" clip-rule="evenodd" d="M10 200.3H150C148.3 153.482 117.605 122.905 79.9894 122.905C42.4983 122.905 11.8847 158.206 10 200.3Z" fill="white"/>
<path d="M10 200.3L2.00801 199.942L1.63381 208.3H10V200.3ZM150 200.3V208.3H158.296L157.995 200.01L150 200.3ZM10 208.3H150V192.3H10V208.3ZM79.9894 130.905C112.537 130.905 140.433 157.269 142.005 200.59L157.995 200.01C156.168 149.694 122.673 114.905 79.9894 114.905V130.905ZM17.992 200.658C19.7395 161.627 47.8941 130.905 79.9894 130.905V114.905C37.1026 114.905 4.02982 154.785 2.00801 199.942L17.992 200.658Z" fill="black" mask="url(#path-2-inside-1_1726_24957)"/>
<circle cx="79" cy="70" r="41" fill="white" stroke="black" stroke-width="8"/>
<path d="M135 61L23 61" stroke="black" stroke-width="8" stroke-linecap="round"/>
<mask id="path-6-inside-2_1726_24957" fill="white">
<path fill-rule="evenodd" clip-rule="evenodd" d="M59 14C59 9.58172 62.5817 6 67 6H89C93.4183 6 97 9.58172 97 14V15.5639C114.742 22.5605 127.285 39.7549 127.285 59.8571C127.285 61.2529 127.225 62.6347 127.106 64H31.4641C31.3456 62.6347 31.2852 61.2529 31.2852 59.8571C31.2852 40.7401 42.629 24.2529 59 16.6653V14Z"/>
</mask>
<path fill-rule="evenodd" clip-rule="evenodd" d="M59 14C59 9.58172 62.5817 6 67 6H89C93.4183 6 97 9.58172 97 14V15.5639C114.742 22.5605 127.285 39.7549 127.285 59.8571C127.285 61.2529 127.225 62.6347 127.106 64H31.4641C31.3456 62.6347 31.2852 61.2529 31.2852 59.8571C31.2852 40.7401 42.629 24.2529 59 16.6653V14Z" fill="#FC8F2B"/>
<path d="M97 15.5639H89V21.0087L94.0651 23.0061L97 15.5639ZM127.106 64V72H134.442L135.076 64.6917L127.106 64ZM31.4641 64L23.4941 64.6917L24.1283 72H31.4641V64ZM59 16.6653L62.3641 23.9236L67 21.7749V16.6653H59ZM67 -2C58.1634 -2 51 5.16344 51 14H67V-2ZM89 -2H67V14H89V-2ZM105 14C105 5.16344 97.8366 -2 89 -2V14H105ZM105 15.5639V14H89V15.5639H105ZM135.285 59.8571C135.285 36.331 120.602 16.272 99.9349 8.1217L94.0651 23.0061C108.881 28.849 119.285 43.1788 119.285 59.8571H135.285ZM135.076 64.6917C135.215 63.0967 135.285 61.4841 135.285 59.8571H119.285C119.285 61.0217 119.235 62.1727 119.136 63.3083L135.076 64.6917ZM31.4641 72H127.106V56H31.4641V72ZM23.2852 59.8571C23.2852 61.4841 23.3556 63.0966 23.4941 64.6917L39.4342 63.3083C39.3356 62.1727 39.2852 61.0217 39.2852 59.8571H23.2852ZM55.6359 9.40697C36.5669 18.2451 23.2852 37.4848 23.2852 59.8571H39.2852C39.2852 43.9955 48.6912 30.2607 62.3641 23.9236L55.6359 9.40697ZM51 14V16.6653H67V14H51Z" fill="black" mask="url(#path-6-inside-2_1726_24957)"/>
<path d="M64 15V34" stroke="black" stroke-width="8" stroke-linecap="round"/>
<path d="M93 15V34" stroke="black" stroke-width="8" stroke-linecap="round"/>
</svg>
