<svg width="161" height="200" viewBox="0 0 161 200" fill="none" xmlns="http://www.w3.org/2000/svg">
<path d="M4 9.99156C4 7.42957 6.37489 5.52806 8.87483 6.08838L84.798 23.1053C86.6247 23.5147 87.9231 25.1364 87.9231 27.0084V191.381C87.9231 193.883 85.652 195.771 83.1922 195.314L7.26904 181.202C5.37426 180.85 4 179.197 4 177.27V9.99156Z" stroke="black" stroke-width="8"/>
<path fill-rule="evenodd" clip-rule="evenodd" d="M114.897 8H35.6931L9.74966 2.18522C4.74975 1.06458 0 4.86761 0 9.99156V8.00001C0 3.58173 3.58172 0 8 0H114.897C119.316 0 122.897 3.58172 122.897 8V73.3668H114.897V8ZM114.897 116.583V175.92H91.9231V183.92H114.897C119.316 183.92 122.897 180.338 122.897 175.92V116.583H114.897Z" fill="black"/>
<mask id="path-3-inside-1_1709_28346" fill="white">
<path fill-rule="evenodd" clip-rule="evenodd" d="M158.145 100.029C160.65 97.0525 160.65 92.7054 158.145 89.7285L141.08 69.4462C136.275 63.7352 126.959 67.1331 126.959 74.5967V78.3473H103.918C99.5001 78.3473 95.9184 81.929 95.9184 86.3473V103.411C95.9184 107.829 99.5001 111.411 103.918 111.411H126.959V115.161C126.959 122.625 136.275 126.023 141.08 120.312L158.145 100.029Z"/>
</mask>
<path d="M158.145 89.7285L164.266 84.5781L164.266 84.5781L158.145 89.7285ZM158.145 100.029L164.266 105.18L158.145 100.029ZM141.08 69.4462L147.202 64.2958L141.08 69.4462ZM126.959 78.3473V86.3473H134.959V78.3473H126.959ZM126.959 111.411H134.959V103.411H126.959V111.411ZM141.08 120.312L147.202 125.462L147.202 125.462L141.08 120.312ZM152.023 94.879L152.023 94.879L164.266 105.18C169.276 99.2261 169.276 90.5318 164.266 84.5781L152.023 94.879ZM134.959 74.5967L152.023 94.879L164.266 84.5781L147.202 64.2958L134.959 74.5967ZM134.959 74.5967C134.959 74.5716 134.96 74.5524 134.961 74.5386C134.962 74.5249 134.963 74.5158 134.964 74.511C134.965 74.5061 134.965 74.5047 134.965 74.5064C134.964 74.508 134.963 74.5118 134.961 74.5176C134.959 74.5234 134.957 74.5303 134.953 74.5381C134.95 74.546 134.946 74.5541 134.942 74.5624C134.933 74.5792 134.924 74.5938 134.915 74.6057C134.897 74.6295 134.888 74.6346 134.897 74.6282C134.901 74.6251 134.909 74.6199 134.92 74.6139C134.931 74.6079 134.944 74.602 134.959 74.5967C134.973 74.5914 134.987 74.5875 134.999 74.5849C135.012 74.5822 135.021 74.5812 135.026 74.5809C135.037 74.5802 135.027 74.5824 134.998 74.5755C134.983 74.5721 134.967 74.567 134.949 74.5597C134.941 74.5562 134.932 74.5524 134.925 74.5486C134.917 74.5447 134.911 74.5411 134.906 74.5379C134.901 74.5347 134.897 74.5324 134.896 74.5314C134.895 74.5304 134.896 74.5312 134.899 74.5344C134.903 74.5376 134.91 74.5438 134.92 74.5536C134.929 74.5634 134.942 74.5775 134.959 74.5967L147.202 64.2958C137.591 52.8737 118.959 59.6694 118.959 74.5967H134.959ZM134.959 78.3473V74.5967H118.959V78.3473H134.959ZM103.918 86.3473H126.959V70.3473H103.918V86.3473ZM103.918 86.3473L103.918 86.3473V70.3473C95.0818 70.3473 87.9184 77.5107 87.9184 86.3473H103.918ZM103.918 103.411V86.3473H87.9184V103.411H103.918ZM103.918 103.411L103.918 103.411H87.9184C87.9184 112.248 95.0818 119.411 103.918 119.411V103.411ZM126.959 103.411H103.918V119.411H126.959V103.411ZM134.959 115.161V111.411H118.959V115.161H134.959ZM134.959 115.161C134.942 115.18 134.929 115.195 134.92 115.204C134.91 115.214 134.903 115.22 134.899 115.224C134.896 115.227 134.895 115.228 134.896 115.227C134.897 115.226 134.901 115.223 134.906 115.22C134.911 115.217 134.917 115.213 134.925 115.209C134.932 115.206 134.941 115.202 134.949 115.198C134.967 115.191 134.983 115.186 134.998 115.182C135.027 115.176 135.037 115.178 135.026 115.177C135.021 115.177 135.012 115.176 134.999 115.173C134.987 115.17 134.973 115.167 134.959 115.161C134.944 115.156 134.931 115.15 134.92 115.144C134.909 115.138 134.901 115.133 134.897 115.13C134.888 115.123 134.897 115.128 134.915 115.152C134.924 115.164 134.933 115.179 134.942 115.196C134.946 115.204 134.95 115.212 134.953 115.22C134.957 115.228 134.959 115.235 134.961 115.24C134.963 115.246 134.964 115.25 134.965 115.252C134.965 115.253 134.965 115.252 134.964 115.247C134.963 115.242 134.962 115.233 134.961 115.219C134.96 115.206 134.959 115.186 134.959 115.161H118.959C118.959 130.088 137.591 136.884 147.202 125.462L134.959 115.161ZM152.023 94.879L134.959 115.161L147.202 125.462L164.266 105.18L152.023 94.879Z" fill="black" mask="url(#path-3-inside-1_1709_28346)"/>
<path d="M71.9395 101.507V111.558" stroke="black" stroke-width="8" stroke-linecap="round"/>
</svg>
