<svg width="158" height="200" viewBox="0 0 158 200" fill="none" xmlns="http://www.w3.org/2000/svg">
<mask id="path-1-inside-1_1754_25686" fill="white">
<path fill-rule="evenodd" clip-rule="evenodd" d="M126.926 55.8589C128.184 52.9119 131.079 51 134.283 51H138.262C141.498 51 144.415 52.9498 145.653 55.94L153.347 74.5242C153.347 74.5242 153.347 74.5242 153.347 74.5243C153.347 74.5243 153.347 74.5243 153.347 74.5244L147.531 82.9238C146.604 84.2619 146.108 85.8507 146.108 87.4783V170C146.108 174.418 142.526 178 138.108 178H135.103C130.684 178 127.103 174.418 127.103 170V87.6887C127.103 85.9011 126.504 84.1651 125.402 82.7575L118.957 74.5243C118.957 74.5243 118.957 74.5243 118.957 74.5243V74.5242C118.957 74.5242 118.957 74.5242 118.957 74.5242C118.957 74.5242 118.957 74.5242 118.957 74.5242L126.926 55.8589Z"/>
</mask>
<path d="M118.957 74.5242L126.315 77.6653L118.957 74.5242ZM118.957 74.5243L125.256 69.5931L118.957 74.5243ZM125.402 82.7575L119.103 87.6887L125.402 82.7575ZM147.531 82.9238L140.954 78.3694L147.531 82.9238ZM153.347 74.5244L159.924 79.0788L153.347 74.5244ZM153.347 74.5242L145.955 77.5842L153.347 74.5242ZM138.262 43H134.283V59H138.262V43ZM160.739 71.4641L153.045 52.8799L138.262 59L145.955 77.5842L160.739 71.4641ZM154.108 87.4783L159.924 79.0788L146.77 69.9699L140.954 78.3694L154.108 87.4783ZM138.108 87.4783V170H154.108V87.4783H138.108ZM138.108 170H135.103V186H138.108V170ZM135.103 170V87.6887H119.103V170H135.103ZM112.658 79.4556L119.103 87.6887L131.701 77.8263L125.256 69.5931L112.658 79.4556ZM110.957 74.5242V74.5243H126.957V74.5242H110.957ZM119.568 52.7178L111.6 71.3831L126.315 77.6653L134.283 59L119.568 52.7178ZM118.957 82.5242C122.04 82.5242 125.009 80.7226 126.315 77.6653L111.6 71.3831C112.905 68.3258 115.874 66.5242 118.957 66.5242V82.5242ZM126.957 74.5242C126.957 78.9425 123.375 82.5242 118.957 82.5242V66.5242C114.539 66.5242 110.957 70.106 110.957 74.5242H126.957ZM125.256 69.5931C126.358 71.0007 126.957 72.7367 126.957 74.5243H110.957C110.957 76.3119 111.556 78.048 112.658 79.4556L125.256 69.5931ZM135.103 87.6887C135.103 84.1136 133.905 80.6414 131.701 77.8263L119.103 87.6887H119.103H135.103ZM135.103 170H135.103H119.103C119.103 178.837 126.266 186 135.103 186V170ZM138.108 170V170V186C146.944 186 154.108 178.837 154.108 170H138.108ZM140.954 78.3694C139.1 81.0455 138.108 84.2232 138.108 87.4783H154.108L140.954 78.3694ZM145.347 74.5243C145.347 72.8904 145.847 71.3027 146.77 69.9699L159.924 79.0788C160.847 77.746 161.347 76.1582 161.347 74.5243H145.347ZM145.955 77.5842C145.554 76.6141 145.347 75.5743 145.347 74.5243H161.347C161.347 73.4742 161.14 72.4344 160.739 71.4641L145.955 77.5842ZM134.283 43C127.875 43 122.084 46.8239 119.568 52.7178L134.283 59L134.283 59V43ZM138.262 59L138.262 59L153.045 52.8799C150.569 46.8996 144.734 43 138.262 43V59Z" fill="black" mask="url(#path-1-inside-1_1754_25686)"/>
<mask id="path-3-inside-2_1754_25686" fill="white">
<path fill-rule="evenodd" clip-rule="evenodd" d="M28.957 30.3843C28.957 27.5723 30.141 24.8903 32.2187 22.9955L54.5712 2.61112C56.4133 0.931233 58.8165 0 61.3095 0L104.711 0C107.287 0 109.614 1.53887 110.623 3.90945C112.841 9.12205 120.229 9.12205 122.447 3.90945C123.455 1.53887 125.783 0 128.359 0L131.957 0C137.48 0 141.957 4.47715 141.957 10V35.8601C141.957 41.383 137.48 45.8601 131.957 45.8601H127.997C125.499 45.8601 123.242 44.3678 122.264 42.069C120.113 37.0142 112.949 37.0142 110.798 42.069C109.82 44.3678 107.563 45.8601 105.065 45.8601L71.5799 45.8601C67.6106 45.8601 64.4218 42.7229 62.0478 39.5418C61.641 38.9967 61.1893 38.4742 60.6928 37.9795C55.1923 32.4989 46.2743 32.4989 40.7738 37.9795L40.5418 38.2108C37.3002 41.4406 32.3479 44.6474 30.1637 40.6263C29.3942 39.2094 28.957 37.5858 28.957 35.8601L28.957 30.3843Z"/>
</mask>
<path d="M32.2187 22.9955L26.8281 17.0844H26.8281L32.2187 22.9955ZM54.5712 2.61112L49.1806 -3.29998V-3.29998L54.5712 2.61112ZM110.623 3.90945L103.262 7.04146V7.04146L110.623 3.90945ZM122.447 3.90945L129.808 7.04146V7.04146L122.447 3.90945ZM122.264 42.069L114.902 45.201V45.201L122.264 42.069ZM110.798 42.069L118.159 45.201V45.201L110.798 42.069ZM60.6928 37.9795L55.0462 43.6466L55.0462 43.6466L60.6928 37.9795ZM40.7738 37.9795L35.1272 32.3125L35.1272 32.3125L40.7738 37.9795ZM62.0478 39.5418L55.6364 44.3266L62.0478 39.5418ZM26.8281 17.0844C23.0882 20.495 20.957 25.3227 20.957 30.3843H36.957C36.957 29.822 37.1938 29.2855 37.6094 28.9066L26.8281 17.0844ZM49.1806 -3.29998L26.8281 17.0844L37.6094 28.9066L59.9619 8.52222L49.1806 -3.29998ZM61.3095 -8C56.822 -8 52.4964 -6.32378 49.1806 -3.29998L59.9619 8.52223C60.3303 8.18625 60.8109 8 61.3095 8V-8ZM104.711 -8L61.3095 -8V8L104.711 8V-8ZM117.984 0.777442C115.72 -4.54494 110.495 -8 104.711 -8V8C104.079 8 103.509 7.62269 103.262 7.04146L117.984 0.777442ZM115.085 0.77744C115.179 0.55735 115.397 0.270061 115.726 0.0636793C116.019 -0.120092 116.303 -0.181102 116.535 -0.181102C116.767 -0.181102 117.051 -0.120092 117.344 0.0636792C117.673 0.27006 117.891 0.557349 117.984 0.777439L103.262 7.04146C108.241 18.7447 124.829 18.7447 129.808 7.04146L115.085 0.77744ZM128.359 -8C122.575 -8 117.35 -4.54495 115.085 0.777443L129.808 7.04146C129.561 7.62269 128.99 8 128.359 8V-8ZM131.957 -8H128.359V8H131.957V-8ZM149.957 10C149.957 0.0588716 141.898 -8 131.957 -8V8C133.062 8 133.957 8.89543 133.957 10L149.957 10ZM149.957 35.8601V10L133.957 10V35.8601H149.957ZM131.957 53.8601C141.898 53.8601 149.957 45.8012 149.957 35.8601H133.957C133.957 36.9647 133.062 37.8601 131.957 37.8601V53.8601ZM127.997 53.8601H131.957V37.8601H127.997V53.8601ZM114.902 45.201C117.136 50.4517 122.291 53.8601 127.997 53.8601V37.8601C128.706 37.8601 129.347 38.284 129.625 38.937L114.902 45.201ZM118.159 45.201C117.549 46.6369 115.513 46.6369 114.902 45.201L129.625 38.937C124.713 27.3916 108.349 27.3916 103.437 38.937L118.159 45.201ZM105.065 53.8601C110.771 53.8601 115.925 50.4516 118.159 45.201L103.437 38.937C103.714 38.284 104.355 37.8601 105.065 37.8601V53.8601ZM71.5799 53.8601L105.065 53.8601V37.8601L71.5799 37.8601V53.8601ZM55.0462 43.6466C55.2658 43.8655 55.462 44.0929 55.6364 44.3266L68.4592 34.7571C67.8199 33.9004 67.1127 33.083 66.3394 32.3125L55.0462 43.6466ZM46.4204 43.6466C48.7991 41.2766 52.6676 41.2766 55.0462 43.6466L66.3394 32.3125C57.7171 23.7213 43.7495 23.7213 35.1272 32.3125L46.4204 43.6466ZM46.1884 43.8778L46.4205 43.6466L35.1272 32.3125L34.8951 32.5437L46.1884 43.8778ZM20.957 35.8601C20.957 38.9525 21.7435 41.8851 23.1338 44.4447L37.1937 36.8078C37.0448 36.5338 36.957 36.2191 36.957 35.8601H20.957ZM20.957 30.3843V35.8601H36.957V30.3843H20.957ZM34.8952 32.5437C34.3217 33.115 33.7197 33.6364 33.1633 34.0399C32.8899 34.2382 32.6585 34.3854 32.4758 34.4886C32.289 34.5941 32.1977 34.6283 32.2017 34.6268C32.2073 34.6247 32.2507 34.609 32.33 34.5895C32.4092 34.57 32.5358 34.5437 32.7054 34.5257C33.0441 34.4896 33.5956 34.4826 34.2695 34.6583C34.9718 34.8414 35.6445 35.1821 36.21 35.651C36.7571 36.1046 37.056 36.5545 37.1937 36.8078L23.1338 44.4447C24.575 47.0979 26.9633 49.2882 30.2323 50.1406C33.1995 50.9143 35.8854 50.3179 37.7108 49.6485C41.2428 48.3531 44.2743 45.785 46.1884 43.8778L34.8952 32.5437ZM71.5799 37.8601C71.8093 37.8601 71.6569 37.9704 70.9881 37.4733C70.2768 36.9446 69.4222 36.0474 68.4592 34.7571L55.6364 44.3266C58.0666 47.5829 63.3765 53.8601 71.5799 53.8601V37.8601Z" fill="black" mask="url(#path-3-inside-2_1754_25686)"/>
<path fill-rule="evenodd" clip-rule="evenodd" d="M94.5513 79.7696L94.5412 79.9704V80.1714V124.914V125.111L94.5508 125.307L96.6621 168.311V197.118C96.5412 198.672 97.7697 200 99.3285 200H101.883C103.339 200 104.549 198.88 104.662 197.429V168.114L102.541 124.914V80.1714L104.24 46.4018C104.469 41.8315 100.826 38 96.2496 38L79.4196 38.0001C74.8248 38.0002 71.1743 41.8618 71.4323 46.4494L73.3292 80.1714V124.914L70.957 168.114V197.429C71.0836 198.884 72.3015 200 73.7617 200H76.2814C77.8566 200 79.0936 198.651 78.957 197.081V168.334L81.3172 125.353L81.3292 125.134V124.914V80.1714V79.9466L81.3166 79.7221L79.8937 54.4268C79.6363 49.8514 83.2771 46.0001 87.8596 46.0001C92.4235 46 96.0575 49.8213 95.8282 54.3794L94.5513 79.7696Z" fill="black"/>
<path fill-rule="evenodd" clip-rule="evenodd" d="M122.957 179.596C122.957 178.715 123.672 178 124.553 178H148.361C149.242 178 149.957 178.715 149.957 179.596C149.957 179.761 149.935 179.907 149.897 180.038C149.634 180.963 149.28 181.982 148.809 183.336L148.809 183.336L148.792 183.384C148.346 184.669 147.803 186.233 147.352 187.847C146.687 190.227 145.977 193.499 146.361 197.029C146.556 198.818 148.188 200 149.988 200H152.939C154.115 200 154.974 198.886 154.634 197.759C153.532 194.107 155.027 189.809 156.409 185.838L156.409 185.838C156.843 184.591 157.265 183.377 157.593 182.225C157.83 181.39 157.957 180.508 157.957 179.596C157.957 174.296 153.661 170 148.361 170H124.553C119.253 170 114.957 174.296 114.957 179.596C114.957 180.508 115.084 181.39 115.322 182.225C115.649 183.377 116.071 184.591 116.505 185.838C117.887 189.809 119.382 194.107 118.28 197.759C117.94 198.886 118.799 200 119.975 200H122.926C124.726 200 126.358 198.818 126.553 197.029C126.937 193.499 126.227 190.227 125.562 187.847C125.111 186.233 124.568 184.669 124.122 183.384L124.105 183.336C123.634 181.982 123.28 180.963 123.017 180.038C122.98 179.907 122.957 179.761 122.957 179.596Z" fill="black"/>
<path fill-rule="evenodd" clip-rule="evenodd" d="M19.0534 58.449L19.0814 78.8873C19.0918 86.4887 25.2624 92.6424 32.8638 92.6319C40.4653 92.6214 46.619 86.4507 46.6086 78.8493L46.5804 58.2743C46.5803 58.2469 46.6112 58.2315 46.6333 58.2476C53.3069 63.0948 57.9117 71.4919 57.9251 81.2809C57.9376 90.3946 53.9621 98.333 48.0183 103.311C44.0623 106.624 40.4002 111.919 40.4093 118.578L40.5166 196.919C40.5191 198.71 42.093 200 43.884 200H45.8743C47.4256 200 48.5188 198.459 48.5166 196.908L48.4093 118.567C48.4044 114.977 50.4031 111.749 53.1548 109.444C60.9378 102.926 65.9408 92.7268 65.9251 81.2699C65.9072 68.228 59.3905 56.834 49.687 50.653C44.4097 47.2913 38.5718 52.0281 38.5804 58.2853L38.6086 78.8603C38.6129 82.0435 36.036 84.6275 32.8529 84.6319C29.6697 84.6363 27.0857 82.0594 27.0814 78.8762L27.0534 58.438C27.0447 52.15 21.1406 47.4307 15.8807 50.8764C6.34571 57.1226 -0.0176643 68.442 3.6836e-05 81.3608C0.0161548 93.1241 5.31926 103.547 13.4791 110.013C16.3827 112.314 18.5176 115.618 18.5226 119.322L18.6297 197.438C18.6315 198.746 19.5749 200 20.8829 200H23.8667C25.3482 200 26.6317 198.909 26.6297 197.427L26.5226 119.311C26.5132 112.436 22.6053 107.037 18.4477 103.743C12.2271 98.8134 8.01285 90.7088 8.00003 81.3498C7.98675 71.6618 12.4748 63.3227 19.0256 58.4352C19.037 58.4267 19.0532 58.4348 19.0534 58.449Z" fill="black"/>
<path d="M148.957 190H121.957" stroke="black" stroke-width="8" stroke-linecap="round"/>
</svg>
