<svg width="180" height="180" viewBox="0 0 180 180" fill="none" xmlns="http://www.w3.org/2000/svg">
<mask id="path-1-inside-1_1727_1358" fill="white">
<path fill-rule="evenodd" clip-rule="evenodd" d="M38.1989 92.1933C37.5642 88.3857 34.3012 85.5743 30.4416 85.5097L8.13386 85.1363C3.66384 85.0615 0 88.6646 0 93.1352V172C0 176.418 3.58172 180 8 180H172C176.418 180 180 176.418 180 172V93.0376C180 88.6048 176.396 85.017 171.963 85.0377L149.418 85.1428C145.5 85.1611 142.172 88.0141 141.555 91.8832L136.075 126.26C135.456 130.143 132.106 133 128.174 133H51.777C47.8663 133 44.5288 130.173 43.8859 126.315L38.1989 92.1933Z"/>
</mask>
<path d="M8.13386 85.1363L8 93.1352L8.13386 85.1363ZM171.963 85.0377L171.925 77.0378L171.963 85.0377ZM136.075 126.26L143.975 127.519V127.519L136.075 126.26ZM43.8859 126.315L35.9947 127.631L43.8859 126.315ZM141.555 91.8832L133.655 90.6238L141.555 91.8832ZM30.4416 85.5097L30.3077 93.5085L30.4416 85.5097ZM8 93.1352L30.3077 93.5085L30.5754 77.5108L8.26772 77.1375L8 93.1352ZM8 93.1352L8 93.1352L8.26772 77.1375C-0.672323 76.9878 -8 84.1939 -8 93.1352H8ZM8 172V93.1352H-8V172H8ZM8 172H-8C-8 180.837 -0.836559 188 8 188V172ZM172 172H8V188H172V172ZM172 172V188C180.837 188 188 180.837 188 172H172ZM172 93.0376V172H188V93.0376H172ZM172 93.0376H188C188 84.1719 180.791 76.9964 171.925 77.0378L172 93.0376ZM149.455 93.1427L172 93.0376L171.925 77.0378L149.381 77.1429L149.455 93.1427ZM133.655 90.6238L128.174 125L143.975 127.519L149.455 93.1427L133.655 90.6238ZM128.174 125V125V141C136.038 141 142.737 135.285 143.975 127.519L128.174 125ZM128.174 125H51.777V141H128.174V125ZM51.777 125L35.9947 127.631C37.2805 135.346 43.9556 141 51.777 141V125ZM51.777 125L46.09 90.8782L30.3077 93.5085L35.9947 127.631L51.777 125ZM149.381 77.1429C141.545 77.1794 134.888 82.8856 133.655 90.6238L149.455 93.1427L149.381 77.1429ZM30.3077 93.5085L30.3077 93.5085L46.09 90.8782C44.8208 83.2629 38.2947 77.64 30.5754 77.5108L30.3077 93.5085Z" fill="black" mask="url(#path-1-inside-1_1727_1358)"/>
<path fill-rule="evenodd" clip-rule="evenodd" d="M62 44H24.7528C21.5531 44 18.6612 45.9065 17.4002 48.8473L0.208402 88.9411C0.0709021 89.2617 0 89.607 0 89.9559C0 91.3755 1.1488 92.5273 2.56837 92.5311L35.9037 92.6192C37.1417 92.6224 38.0853 91.5116 37.8817 90.2904L37.2148 86.2886C37.0544 85.3262 36.2229 84.62 35.2473 84.6174L13.8195 84.5608C12.3857 84.557 11.4216 83.0903 11.9866 81.7726L24.2332 53.2118C24.5484 52.4766 25.2714 52 26.0713 52H62V44ZM118 52H158.48C159.355 52 160.129 52.5691 160.389 53.4047L169.42 82.3717C169.823 83.6614 168.857 84.9705 167.506 84.9669L144.379 84.9058C143.394 84.9032 142.554 85.6182 142.399 86.591L141.761 90.5893C141.568 91.802 142.503 92.9009 143.731 92.9041L177.958 92.9946C179.085 92.9976 180 92.085 180 90.9583V90.6453C180 89.8378 179.878 89.035 179.637 88.2641L167.589 49.6188C166.546 46.2765 163.452 44 159.951 44H118V52Z" fill="black"/>
<mask id="path-4-inside-2_1727_1358" fill="white">
<path fill-rule="evenodd" clip-rule="evenodd" d="M84.0898 117.036C87.2882 120.877 93.186 120.877 96.3845 117.036L134.606 71.1413C138.946 65.9302 135.24 58.0217 128.459 58.0217H111.892V8.00014C111.892 3.58187 108.31 0.000144958 103.892 0.000144958H76.5851C72.1668 0.000144958 68.5851 3.58186 68.5851 8.00014V58.0217H52.0153C45.2337 58.0217 41.5281 65.9302 45.8679 71.1413L84.0898 117.036Z"/>
</mask>
<path d="M96.3845 117.036L90.2371 111.917V111.917L96.3845 117.036ZM84.0898 117.036L90.2371 111.916L84.0898 117.036ZM134.606 71.1413L140.754 76.2609L134.606 71.1413ZM111.892 58.0217H103.892V66.0217H111.892V58.0217ZM68.5851 58.0217V66.0217H76.5851V58.0217H68.5851ZM45.8679 71.1413L52.0153 66.0217L45.8679 71.1413ZM90.2371 111.917L90.2371 111.916L77.9424 122.156C84.3394 129.837 96.1349 129.837 102.532 122.156L90.2371 111.917ZM128.459 66.0217L90.2371 111.917L102.532 122.156L140.754 76.2609L128.459 66.0217ZM128.459 66.0217C128.476 66.0217 128.49 66.0223 128.499 66.023C128.509 66.0237 128.515 66.0245 128.518 66.025C128.524 66.0259 128.521 66.0259 128.513 66.0232C128.504 66.0206 128.493 66.0165 128.481 66.0108C128.469 66.0052 128.459 65.9992 128.451 65.9935C128.434 65.9822 128.43 65.976 128.434 65.9815C128.437 65.9842 128.44 65.9891 128.445 65.9964C128.45 66.0036 128.455 66.0122 128.459 66.0217C128.463 66.0312 128.467 66.0404 128.47 66.0486C128.472 66.0568 128.473 66.063 128.474 66.0665C128.475 66.0736 128.473 66.0665 128.475 66.0462C128.476 66.036 128.478 66.0242 128.482 66.0115C128.485 65.9986 128.489 65.9876 128.492 65.9793C128.496 65.9709 128.497 65.9691 128.494 65.9742C128.493 65.977 128.489 65.9822 128.484 65.9899C128.478 65.9976 128.47 66.0083 128.459 66.0217L140.754 76.2609C149.433 65.8387 142.022 50.0217 128.459 50.0217V66.0217ZM111.892 66.0217H128.459V50.0217H111.892V66.0217ZM103.892 8.00014V58.0217H119.892V8.00014H103.892ZM103.892 8.00014H103.892H119.892C119.892 -0.836411 112.728 -7.99986 103.892 -7.99986V8.00014ZM76.5851 8.00014H103.892V-7.99986H76.5851V8.00014ZM76.5851 8.00014V-7.99986C67.7485 -7.99986 60.5851 -0.836418 60.5851 8.00014H76.5851ZM76.5851 58.0217V8.00014H60.5851L60.5851 58.0217H76.5851ZM52.0153 66.0217H68.5851V50.0217H52.0153V66.0217ZM52.0153 66.0217C52.0041 66.0083 51.9961 65.9976 51.9906 65.9899C51.985 65.9822 51.9817 65.9769 51.98 65.9741C51.9769 65.9691 51.9785 65.9709 51.982 65.9793C51.9855 65.9876 51.9894 65.9986 51.9927 66.0115C51.9959 66.0242 51.9979 66.036 51.999 66.0461C52.0012 66.0665 51.999 66.0736 52.0002 66.0665C52.0008 66.0629 52.0021 66.0568 52.0047 66.0486C52.0073 66.0404 52.0108 66.0312 52.0153 66.0217C52.0197 66.0122 52.0245 66.0036 52.0292 65.9964C52.0339 65.9891 52.0377 65.9842 52.04 65.9815C52.0447 65.976 52.0407 65.9822 52.0237 65.9935C52.0152 65.9992 52.0048 66.0052 51.993 66.0108C51.981 66.0165 51.97 66.0206 51.9614 66.0232C51.9527 66.0259 51.9503 66.0259 51.9562 66.025C51.9594 66.0245 51.9656 66.0237 51.9751 66.023C51.9845 66.0223 51.9978 66.0217 52.0153 66.0217V50.0217C38.4522 50.0217 31.0409 65.8387 39.7206 76.2609L52.0153 66.0217ZM90.2371 111.916L52.0153 66.0217L39.7206 76.2609L77.9424 122.156L90.2371 111.916Z" fill="black" mask="url(#path-4-inside-2_1727_1358)"/>
</svg>
