<svg width="90" height="90" viewBox="0 0 90 90" fill="none" xmlns="http://www.w3.org/2000/svg">
<mask id="path-1-inside-1_1730_24823" fill="white">
<path fill-rule="evenodd" clip-rule="evenodd" d="M23.9035 41.3106C23.7785 40.3054 22.9217 39.5523 21.9088 39.5573L19.6089 39.5688L8.14311 39.3637C3.66955 39.2836 0 42.8881 0 47.3624V81.9999C0 86.4182 3.58172 89.9999 8 89.9999H82C86.4183 89.9999 90 86.4182 90 81.9999V47.2579C90 42.8241 86.3939 39.2359 81.9601 39.258L67.1809 39.3317C66.1715 39.3367 65.3241 40.0932 65.2049 41.0955L63.439 55.9447C62.9604 59.9692 59.5478 63 55.495 63H33.667C29.6304 63 26.2261 59.9928 25.7281 55.987L23.9035 41.3106Z"/>
</mask>
<path d="M19.6089 39.5688L19.4658 47.5675L19.5573 47.5692L19.6488 47.5687L19.6089 39.5688ZM8.14311 39.3637L8 47.3624L8.14311 39.3637ZM81.9601 39.258L82 47.2579L81.9601 39.258ZM63.439 55.9447L71.383 56.8894V56.8894L63.439 55.9447ZM25.7281 55.987L33.667 55V55L25.7281 55.987ZM65.2049 41.0955L73.1489 42.0402L65.2049 41.0955ZM19.6488 47.5687L21.9487 47.5572L21.8689 31.5574L19.5691 31.5689L19.6488 47.5687ZM8 47.3624L19.4658 47.5675L19.752 31.5701L8.28622 31.3649L8 47.3624ZM8 47.3624L8 47.3624L8.28622 31.3649C-0.660891 31.2049 -8 38.4138 -8 47.3624H8ZM8 81.9999V47.3624H-8V81.9999H8ZM8 81.9999H-8C-8 90.8365 -0.836556 97.9999 8 97.9999V81.9999ZM82 81.9999H8V97.9999H82V81.9999ZM82 81.9999V97.9999C90.8366 97.9999 98 90.8365 98 81.9999H82ZM82 47.2579V81.9999H98V47.2579H82ZM82 47.2579V47.2579H98C98 38.3902 90.7879 31.2139 81.9203 31.2581L82 47.2579ZM67.2208 47.3316L82 47.2579L81.9203 31.2581L67.141 31.3318L67.2208 47.3316ZM57.2608 40.1508L55.495 55L71.383 56.8894L73.1489 42.0402L57.2608 40.1508ZM55.495 55V55V71C63.6007 71 70.4258 64.9384 71.383 56.8894L55.495 55ZM55.495 55H33.667V71H55.495V55ZM33.667 55V55L17.7892 56.974C18.7853 64.9855 25.5938 71 33.667 71V55ZM33.667 55L31.8424 40.3236L15.9646 42.2976L17.7892 56.974L33.667 55ZM67.141 31.3318C62.094 31.357 57.8568 35.139 57.2608 40.1508L73.1489 42.0402C72.7913 45.0473 70.249 47.3165 67.2208 47.3316L67.141 31.3318ZM21.9487 47.5572C18.9098 47.5724 16.3395 45.3132 15.9646 42.2976L31.8424 40.3236C31.2175 35.2975 26.9336 31.5322 21.8689 31.5574L21.9487 47.5572Z" fill="black" mask="url(#path-1-inside-1_1730_24823)"/>
<path fill-rule="evenodd" clip-rule="evenodd" d="M28 18.0376H15.4579C12.0375 18.0376 8.99551 20.2121 7.88847 23.4483L2.07026 40.4568L2.0665 40.4678L1.68634 41.5791L0.0898432 46.2462C0.0303562 46.4201 0 46.6026 0 46.7864C0 47.7061 0.743911 48.4524 1.66356 48.4555L6.59612 48.4718L7.77045 48.4757L7.78228 48.4758L16.8443 48.5058C18.0562 48.5098 18.9932 47.4436 18.8334 46.2422L18.3013 42.2404C18.1695 41.249 17.3256 40.5073 16.3254 40.504L13.304 40.494C11.935 40.4895 10.9752 39.1419 11.4182 37.8467L14.9951 27.3903C15.2719 26.5812 16.0324 26.0376 16.8875 26.0376H28V18.0376ZM62 26.0376H75.101C76.0196 26.0376 76.8201 26.6634 77.0418 27.5548L79.6957 38.2248C80.0102 39.4891 79.0511 40.7118 77.7483 40.7075L73.4812 40.6934C72.4717 40.69 71.618 41.4396 71.4906 42.441L70.9821 46.4394C70.8304 47.6318 71.7574 48.6877 72.9595 48.6917L88.7204 48.7439C89.4264 48.7462 90 48.1746 90 47.4685C90 46.8311 89.9222 46.1961 89.7684 45.5775L88.7445 41.4613L88.5665 40.7457L88.566 40.7433L84.4279 24.1066C83.5409 20.5407 80.3389 18.0376 76.6644 18.0376H62V26.0376Z" fill="black"/>
<mask id="path-4-inside-2_1730_24823" fill="white">
<path fill-rule="evenodd" clip-rule="evenodd" d="M40.0261 54.9929C42.4115 57.6625 46.589 57.6625 48.9744 54.9929L63.7129 38.4979C67.1672 34.632 64.4232 28.5002 59.2388 28.5002H57.0006V8.00014C57.0006 3.58186 53.4189 0.000141144 49.0006 0.000141144H41.0006C36.5823 0.000141144 33.0006 3.58186 33.0006 8.00014V28.5002H29.7617C24.5773 28.5002 21.8333 34.632 25.2876 38.498L40.0261 54.9929Z"/>
</mask>
<path d="M48.9744 54.9929L54.94 60.3232V60.3232L48.9744 54.9929ZM40.0261 54.9929L34.0606 60.3232L34.0606 60.3232L40.0261 54.9929ZM63.7129 38.4979L57.7474 33.1676L63.7129 38.4979ZM57.0006 28.5002L49.0006 28.5002V36.5002H57.0006V28.5002ZM33.0006 28.5002V36.5002H41.0006V28.5002H33.0006ZM25.2876 38.498L31.2531 33.1676L25.2876 38.498ZM43.0089 49.6625C43.804 48.7727 45.1965 48.7726 45.9916 49.6625L34.0606 60.3232C39.6265 66.5524 49.374 66.5524 54.94 60.3232L43.0089 49.6625ZM57.7474 33.1676L43.0089 49.6625L54.94 60.3232L69.6785 43.8283L57.7474 33.1676ZM59.2388 36.5002C57.5106 36.5002 56.5959 34.4563 57.7474 33.1676L69.6785 43.8283C77.7386 34.8076 71.3357 20.5002 59.2388 20.5002V36.5002ZM57.0006 36.5002H59.2388V20.5002H57.0006V36.5002ZM49.0006 8.00014V28.5002L65.0006 28.5002V8.00014H49.0006ZM49.0006 8.00014H49.0006H65.0006C65.0006 -0.836418 57.8372 -7.99986 49.0006 -7.99986V8.00014ZM41.0006 8.00014H49.0006V-7.99986H41.0006V8.00014ZM41.0006 8.00014V-7.99986C32.1641 -7.99986 25.0006 -0.836414 25.0006 8.00014H41.0006ZM41.0006 28.5002V8.00014H25.0006L25.0006 28.5002H41.0006ZM29.7617 36.5002H33.0006V20.5002H29.7617V36.5002ZM31.2531 33.1676C32.4046 34.4563 31.4899 36.5002 29.7617 36.5002V20.5002C17.6647 20.5002 11.262 34.8077 19.3221 43.8283L31.2531 33.1676ZM45.9916 49.6625L31.2531 33.1676L19.3221 43.8283L34.0606 60.3232L45.9916 49.6625Z" fill="black" mask="url(#path-4-inside-2_1730_24823)"/>
</svg>
