<svg width="100" height="100" viewBox="0 0 100 100" fill="none" xmlns="http://www.w3.org/2000/svg">
<path fill-rule="evenodd" clip-rule="evenodd" d="M31.1221 90.468C29.1427 92.4473 29.6694 95.78 32.287 96.7718C37.7928 98.858 43.763 100 50 100C77.6142 100 100 77.6142 100 50C100 43.763 98.858 37.7928 96.7718 32.287C95.78 29.6694 92.4473 29.1427 90.468 31.1221C89.2634 32.3266 88.9401 34.1406 89.5183 35.743C91.1245 40.1943 92 44.9949 92 50C92 73.196 73.196 92 50 92C44.9949 92 40.1943 91.1245 35.743 89.5183C34.1406 88.9401 32.3266 89.2634 31.1221 90.468ZM67.8234 9.15646C66.6435 10.3365 64.8766 10.6751 63.2935 10.1473C59.1157 8.75436 54.646 8 50 8C26.804 8 8 26.804 8 50C8 54.646 8.75436 59.1157 10.1473 63.2935C10.6751 64.8766 10.3364 66.6435 9.15646 67.8234C7.14533 69.8346 3.75586 69.2597 2.81324 66.5763C0.991017 61.3888 0 55.8102 0 50C0 22.3858 22.3858 0 50 0C55.8102 0 61.3888 0.991017 66.5763 2.81324C69.2597 3.75586 69.8346 7.14533 67.8234 9.15646Z" fill="black"/>
<path fill-rule="evenodd" clip-rule="evenodd" d="M79.5564 4.44434C79.5564 2.2352 77.7655 0.444336 75.5564 0.444336C73.3473 0.444336 71.5564 2.2352 71.5564 4.44434V9.77756C71.5564 11.9867 69.7655 13.7776 67.5564 13.7776H62.2227C60.0135 13.7776 58.2227 15.5684 58.2227 17.7776C58.2227 19.9867 60.0135 21.7776 62.2227 21.7776H75.5269C75.5367 21.7776 75.5466 21.7777 75.5564 21.7777C77.7655 21.7777 79.5564 19.9868 79.5564 17.7777V4.44434Z" fill="black"/>
<path fill-rule="evenodd" clip-rule="evenodd" d="M19.3323 95.5557C19.3323 97.7648 21.1231 99.5557 23.3323 99.5557C25.5414 99.5557 27.3323 97.7648 27.3323 95.5557V90.2224C27.3323 88.0133 29.1231 86.2224 31.3323 86.2224H36.666C38.8752 86.2224 40.666 84.4316 40.666 82.2224C40.666 80.0133 38.8752 78.2224 36.666 78.2224H23.3618C23.352 78.2224 23.3421 78.2223 23.3323 78.2223C21.1231 78.2223 19.3323 80.0132 19.3323 82.2223L19.3323 95.5557Z" fill="black"/>
</svg>
