<svg width="200" height="200" viewBox="0 0 200 200" fill="none" xmlns="http://www.w3.org/2000/svg">
<circle cx="100" cy="100" r="96" stroke="black" stroke-width="8"/>
<mask id="path-2-inside-1_749_38909" fill="white">
<path fill-rule="evenodd" clip-rule="evenodd" d="M142.881 72.1053C142.881 96.6243 123.464 116.211 99.8659 116.211C76.2682 116.211 56.8511 96.6243 56.8511 72.1053C56.8511 47.5863 76.2682 28 99.8659 28C123.464 28 142.881 47.5863 142.881 72.1053ZM150.881 72.1053C150.881 100.882 128.041 124.211 99.8659 124.211C71.6912 124.211 48.8511 100.882 48.8511 72.1053C48.8511 43.3283 71.6912 20 99.8659 20C128.041 20 150.881 43.3283 150.881 72.1053ZM99.6904 200C130.035 200 157.138 185.826 175 163.606C158.799 146.367 131.411 135.038 100.353 135.038C68.8392 135.038 41.1041 146.702 25 164.368C42.8654 186.149 69.6943 200 99.6904 200Z"/>
</mask>
<path d="M175 163.606L181.235 168.618L185.594 163.196L180.83 158.127L175 163.606ZM25 164.368L19.0877 158.979L14.4267 164.092L18.8145 169.442L25 164.368ZM99.8659 124.211C128.032 124.211 150.881 100.891 150.881 72.1053H134.881C134.881 92.3574 118.896 108.211 99.8659 108.211V124.211ZM48.8511 72.1053C48.8511 100.891 71.7 124.211 99.8659 124.211V108.211C80.8363 108.211 64.8511 92.3574 64.8511 72.1053H48.8511ZM99.8659 20C71.7 20 48.8511 43.3194 48.8511 72.1053H64.8511C64.8511 51.8531 80.8363 36 99.8659 36V20ZM150.881 72.1053C150.881 43.3194 128.032 20 99.8659 20V36C118.896 36 134.881 51.8531 134.881 72.1053H150.881ZM99.8659 132.211C132.618 132.211 158.881 105.14 158.881 72.1053H142.881C142.881 96.6243 123.464 116.211 99.8659 116.211V132.211ZM40.8511 72.1053C40.8511 105.14 67.1143 132.211 99.8659 132.211V116.211C76.2682 116.211 56.8511 96.6243 56.8511 72.1053H40.8511ZM99.8659 12C67.1143 12 40.8511 39.0704 40.8511 72.1053H56.8511C56.8511 47.5863 76.2682 28 99.8659 28V12ZM158.881 72.1053C158.881 39.0704 132.618 12 99.8659 12V28C123.464 28 142.881 47.5863 142.881 72.1053H158.881ZM168.765 158.594C152.333 179.034 127.474 192 99.6904 192V208C132.597 208 161.944 192.617 181.235 168.618L168.765 158.594ZM100.353 143.038C129.632 143.038 154.752 153.742 169.17 169.084L180.83 158.127C162.846 138.991 133.19 127.038 100.353 127.038V143.038ZM30.9123 169.758C45.2198 154.062 70.6359 143.038 100.353 143.038V127.038C67.0425 127.038 36.9885 139.341 19.0877 158.979L30.9123 169.758ZM99.6904 192C72.2256 192 47.6193 179.331 31.1855 159.295L18.8145 169.442C38.1116 192.968 67.1629 208 99.6904 208V192Z" fill="black" mask="url(#path-2-inside-1_749_38909)"/>
</svg>
