<svg width="200" height="160" viewBox="0 0 200 160" fill="none" xmlns="http://www.w3.org/2000/svg">
<mask id="path-1-inside-1_1760_25998" fill="white">
<path fill-rule="evenodd" clip-rule="evenodd" d="M137 61C137 56.5817 140.582 53 145 53L162.842 53C164.914 53 166.905 53.8039 168.396 55.2425L197.554 83.3724C199.117 84.8801 200 86.9583 200 89.1298V113.098V122.667V133C200 137.418 196.418 141 192 141H190.797C189.334 151.731 180.133 160 169 160C157.867 160 148.666 151.731 147.203 141H145.003H145L144.989 141L137 141L126.593 141H116.5H110.346H99.9754C99.4544 151.581 90.7104 160 80 160C69.2896 160 60.5456 151.581 60.0246 141H56.9754C56.4544 151.581 47.7104 160 37 160C26.2896 160 17.5456 151.581 17.0246 141H15C10.5817 141 7 137.418 7 133V113L7.00023 112.938L7 112.938C3.05369 112.446 0 109.08 0 105V97C0 92.5817 3.58172 89 8 89H76.5H129H137V81V61ZM190.429 133C188.165 123.259 179.43 116 169 116C158.57 116 149.835 123.259 147.571 133H145.005H145.003H145V125V105V97V89V69V61H153L162.842 61L192 89.1298V113.098V122.667V125V133H190.429ZM100.253 133H98.7408C95.9033 125.407 88.5831 120 80 120C71.4169 120 64.0967 125.407 61.2592 133H55.7408C52.9033 125.407 45.5831 120 37 120C28.4169 120 21.0967 125.407 18.2592 133H15V125V121V113H23H94.9615L104.192 125L110.346 133H100.253ZM137 105V133L120.439 133L116.687 128.122L101.303 108.122L98.9007 105H94.9615H15H8V97H76.5H137V105Z"/>
</mask>
<path d="M145 53V61V53ZM162.842 53L162.842 45H162.842V53ZM168.396 55.2425L173.951 49.4851L173.951 49.4851L168.396 55.2425ZM197.554 83.3724L203.109 77.6149L203.109 77.6149L197.554 83.3724ZM190.797 141V133H183.814L182.871 139.919L190.797 141ZM147.203 141L155.129 139.919L154.186 133H147.203V141ZM145 141L144.995 149H145V141ZM144.989 141L144.994 133H144.989L144.989 141ZM137 141V149H137L137 141ZM126.593 141L126.593 133H126.593V141ZM99.9754 141V133H92.3597L91.9851 140.607L99.9754 141ZM60.0246 141L68.0149 140.607L67.6403 133H60.0246V141ZM56.9754 141V133H49.3597L48.9851 140.607L56.9754 141ZM17.0246 141L25.0149 140.607L24.6403 133H17.0246V141ZM7 113L-0.999943 112.97L-1 112.985V113H7ZM7.00023 112.938L15.0002 112.968L15.0269 105.917L8.03426 105.005L7.00023 112.938ZM7 112.938L8.03402 105.005L8.01198 105.002L7.98992 105L7 112.938ZM137 89V97H145V89H137ZM190.429 133L182.637 134.811L184.075 141H190.429V133ZM147.571 133V141H153.925L155.363 134.811L147.571 133ZM145 133H137V141H145V133ZM145 61V53H137V61H145ZM153 61V69V69V61ZM162.842 61L168.396 55.2425L166.072 53L162.842 53V61ZM192 89.1298H200V85.7317L197.554 83.3724L192 89.1298ZM192 133V141H200V133H192ZM98.7408 133L91.2469 135.8L93.1899 141H98.7408V133ZM61.2592 133V141H66.8101L68.7531 135.8L61.2592 133ZM55.7408 133L48.2469 135.8L50.1899 141H55.7408V133ZM18.2592 133V141H23.8101L25.7531 135.8L18.2592 133ZM15 133H7V141H15V133ZM15 113V105H7V113H15ZM94.9615 113L101.303 108.122L98.9007 105H94.9615V113ZM104.192 125L97.8513 129.878H97.8513L104.192 125ZM110.346 133V141H126.593L116.687 128.122L110.346 133ZM137 133V141H145V133H137ZM120.439 133L114.098 137.878L116.5 141H120.439V133ZM116.687 128.122L110.346 133H110.346L116.687 128.122ZM101.303 108.122L107.644 103.245L107.644 103.245L101.303 108.122ZM98.9007 105L105.242 100.122L102.84 97H98.9007V105ZM8 105H0V113H8V105ZM8 97V89H0V97H8ZM137 97H145V89H137V97ZM145 45C136.163 45 129 52.1634 129 61H145V61V45ZM162.842 45L145 45V61L162.842 61V45ZM173.951 49.4851C170.968 46.6078 166.986 45 162.842 45L162.842 61L162.842 61L173.951 49.4851ZM203.109 77.6149L173.951 49.4851L162.842 61L192 89.1298L203.109 77.6149ZM208 89.1298C208 84.7868 206.234 80.6303 203.109 77.6149L192 89.1298L192 89.1298H208ZM208 113.098V89.1298H192V113.098H208ZM208 122.667V113.098H192V122.667H208ZM208 133V122.667H192V133H208ZM192 149C200.837 149 208 141.837 208 133H192V149ZM190.797 149H192V133H190.797V149ZM182.871 139.919C181.94 146.74 176.078 152 169 152V168C184.187 168 196.728 156.722 198.724 142.081L182.871 139.919ZM169 152C161.922 152 156.06 146.74 155.129 139.919L139.276 142.081C141.272 156.722 153.813 168 169 168V152ZM145.003 149H147.203V133H145.003V149ZM145 149H145.003V133H145V149ZM144.983 149L144.995 149L145.005 133L144.994 133L144.983 149ZM137 149L144.989 149L144.989 133L137 133L137 149ZM126.593 149L137 149V133L126.593 133L126.593 149ZM116.5 149H126.593V133H116.5V149ZM110.346 149H116.5V133H110.346V149ZM99.9754 149H110.346V133H99.9754V149ZM80 168C94.9969 168 107.236 156.214 107.966 141.393L91.9851 140.607C91.6728 146.949 86.4239 152 80 152V168ZM52.0342 141.393C52.764 156.214 65.0031 168 80 168V152C73.5761 152 68.3272 146.949 68.0149 140.607L52.0342 141.393ZM56.9754 149H60.0246V133H56.9754V149ZM37 168C51.9969 168 64.236 156.214 64.9658 141.393L48.9851 140.607C48.6728 146.949 43.4239 152 37 152V168ZM9.03425 141.393C9.76401 156.214 22.0031 168 37 168V152C30.5761 152 25.3272 146.949 25.0149 140.607L9.03425 141.393ZM15 149H17.0246V133H15V149ZM-1 133C-1 141.837 6.16344 149 15 149V133H-1ZM-1 113V133H15V113H-1ZM-0.999709 112.908L-0.999943 112.97L14.9999 113.03L15.0002 112.968L-0.999709 112.908ZM5.96598 120.871L5.96621 120.871L8.03426 105.005L8.03402 105.005L5.96598 120.871ZM-8 105C-8 113.165 -1.89072 119.891 6.01008 120.877L7.98992 105C7.9898 105 7.99063 105 7.99221 105C7.99376 105 7.99556 105.001 7.99747 105.001C8.00142 105.003 8.00414 105.004 8.00536 105.005C8.00641 105.005 8.00579 105.005 8.004 105.004C8.00214 105.002 8.00001 105 7.99803 104.998C7.99365 104.993 7.99471 104.992 7.99731 104.999C7.9987 105.003 7.99972 105.006 8.00024 105.009C8.00047 105.01 8.00044 105.01 8.00034 105.009C8.00024 105.008 8 105.005 8 105H-8ZM-8 97V105H8V97H-8ZM8 81C-0.836556 81 -8 88.1635 -8 97H8V81ZM76.5 81H8V97H76.5V81ZM129 81H76.5V97H129V81ZM137 81H129V97H137V81ZM129 81V89H145V81H129ZM129 61V81H145V61H129ZM169 124C175.627 124 181.196 128.613 182.637 134.811L198.222 131.189C195.134 117.905 183.234 108 169 108V124ZM155.363 134.811C156.804 128.613 162.373 124 169 124V108C154.766 108 142.866 117.905 139.778 131.189L155.363 134.811ZM145.005 141H147.571V125H145.005V141ZM145.003 141H145.005V125H145.003V141ZM145 141H145.003V125H145V141ZM137 125V133H153V125H137ZM137 105V125H153V105H137ZM137 97V105H153V97H137ZM137 89V97H153V89H137ZM137 69V89H153V69H137ZM137 61V69H153V61H137ZM153 53H145V69H153V53ZM162.842 53L153 53V69L162.842 69V53ZM197.554 83.3724L168.396 55.2425L157.287 66.7575L186.446 94.8873L197.554 83.3724ZM200 113.098V89.1298H184V113.098H200ZM200 122.667V113.098H184V122.667H200ZM200 125V122.667H184V125H200ZM200 133V125H184V133H200ZM190.429 141H192V125H190.429V141ZM98.7408 141H100.253V125H98.7408V141ZM80 128C85.1372 128 89.5398 131.232 91.2469 135.8L106.235 130.2C102.267 119.581 92.0289 112 80 112V128ZM68.7531 135.8C70.4602 131.232 74.8628 128 80 128V112C67.9711 112 57.7331 119.581 53.7653 130.2L68.7531 135.8ZM55.7408 141H61.2592V125H55.7408V141ZM37 128C42.1372 128 46.5398 131.232 48.2469 135.8L63.2347 130.2C59.2669 119.581 49.0289 112 37 112V128ZM25.7531 135.8C27.4602 131.232 31.8628 128 37 128V112C24.9711 112 14.7331 119.581 10.7653 130.2L25.7531 135.8ZM15 141H18.2592V125H15V141ZM7 125V133H23V125H7ZM7 121V125H23V121H7ZM7 113V121H23V113H7ZM23 105H15V121H23V105ZM94.9615 105H23V121H94.9615V105ZM110.533 120.122L101.303 108.122L88.6205 117.878L97.8513 129.878L110.533 120.122ZM116.687 128.122L110.533 120.122L97.8513 129.878L104.005 137.878L116.687 128.122ZM100.253 141H110.346V125H100.253V141ZM145 133V105H129V133H145ZM120.439 141L137 141V125L120.439 125V141ZM110.346 133L114.098 137.878L126.78 128.122L123.028 123.245L110.346 133ZM94.9615 113L110.346 133L123.028 123.245L107.644 103.245L94.9615 113ZM92.5598 109.878L94.9615 113L107.644 103.245L105.242 100.122L92.5598 109.878ZM94.9615 113H98.9007V97H94.9615V113ZM15 113H94.9615V97H15V113ZM8 113H15V97H8V113ZM0 97V105H16V97H0ZM76.5 89H8V105H76.5V89ZM137 89H76.5V105H137V89ZM145 105V97H129V105H145Z" fill="black" mask="url(#path-1-inside-1_1760_25998)"/>
<circle cx="80" cy="140" r="5" fill="black"/>
<circle cx="37" cy="140" r="5" fill="black"/>
<circle cx="169" cy="138" r="7" fill="black"/>
<path d="M152 74C152 71.7909 153.791 70 156 70H160.056C161.092 70 162.088 70.4024 162.834 71.1225L178.863 86.6005C179.59 87.3019 180 88.2683 180 89.278C180 91.3336 178.334 93 176.278 93H156C153.791 93 152 91.2091 152 89V74Z" stroke="black" stroke-width="8"/>
<path fill-rule="evenodd" clip-rule="evenodd" d="M16.7013 50.2657L20.3047 48.9542L26.4427 46.7201L83.7095 25.8767L88.7684 24.0354L92.9507 22.5132L94.6636 21.8897L99.56 20.1076L100.296 19.8399L99.9114 13.8666L99.9128 13.8632L99.9132 13.8622L115.065 8.34723L116.705 12.8518L116.705 12.8525L110.055 15.9411L112.566 22.8401L122.676 50.6171L22.0387 87.246L9.52911 52.8762L10.1394 52.654L16.7013 50.2657ZM42.5661 13.1553C50.5358 10.3653 59.1095 10.6007 66.9846 12.6036C68.1888 12.9098 69.3767 13.2574 70.5436 13.6419C71.1514 13.8421 71.7535 14.0523 72.3493 14.2719C75.5469 15.4505 78.4604 16.8643 80.9733 18.3592L70.5577 22.1501L33.8861 35.4975L23.7097 39.2014L23.7065 39.2026C24.7077 36.5233 25.8108 33.8222 27.09 31.1505C27.3423 30.6235 27.6015 30.0977 27.8681 29.5734C27.9516 29.4091 28.0356 29.2455 28.1201 29.0827C28.465 28.418 28.8177 27.7659 29.1788 27.1274C30.2686 25.2 31.4345 23.3961 32.6918 21.7394C35.4782 18.068 38.7139 15.1199 42.5661 13.1553ZM39.8866 5.61725C39.7324 5.67141 39.5783 5.72651 39.4243 5.78256C39.271 5.85745 39.1186 5.93341 38.9671 6.0104C30.7814 10.1713 25.2135 17.3788 21.1314 25.1826C20.9826 25.4671 20.8358 25.7524 20.6908 26.0384C18.9545 29.4646 17.4938 32.9875 16.2144 36.4028C15.3992 38.5792 14.6576 40.7119 13.9652 42.7481L13.8217 42.8004L6.79295 45.3586C2.64113 46.8698 0.500431 51.4605 2.01157 55.6123L14.5212 89.9821C16.0323 94.134 20.6231 96.2747 24.7749 94.7635L125.412 58.1346C129.564 56.6235 131.705 52.0327 130.193 47.8809L120.083 20.1039C123.809 18.3733 125.654 14.0477 124.222 10.1157L122.583 5.61107C121.072 1.45925 116.481 -0.681449 112.329 0.82969L97.1771 6.34462C96.093 6.7392 95.146 7.34376 94.3653 8.09564C93.0781 9.33546 92.2431 10.9759 91.9913 12.736C91.9145 13.2729 91.892 13.821 91.9274 14.3722L90.6813 14.8258L90.2146 14.9956C90.0134 14.8374 89.8086 14.6795 89.6004 14.5219C88.2348 13.4883 86.7199 12.4699 85.0778 11.4923L85.0634 11.4838C84.772 11.3104 84.4765 11.1383 84.1769 10.9675C81.46 9.41851 78.41 7.97972 75.116 6.76558C73.8135 6.28549 72.4751 5.84134 71.1066 5.4399C66.8688 4.19683 62.3422 3.3632 57.6985 3.13964C56.3436 3.07441 54.9787 3.06112 53.6081 3.10475C49.0452 3.24988 44.4187 4.02583 39.8866 5.61725ZM28.6131 73.1468C29.3687 75.2227 31.6641 76.2931 33.74 75.5375C35.8159 74.7819 36.8862 72.4866 36.1307 70.4106L32.3685 60.074C31.6129 57.9981 29.3175 56.9278 27.2416 57.6833C25.1657 58.4389 24.0953 60.7343 24.8509 62.8102L28.6131 73.1468ZM52.5341 68.697C50.4582 69.4526 48.1628 68.3822 47.4072 66.3063L43.645 55.9697C42.8895 53.8938 43.9598 51.5984 46.0357 50.8428C48.1116 50.0873 50.407 51.1576 51.1626 53.2335L54.9248 63.5702C55.6804 65.6461 54.61 67.9414 52.5341 68.697ZM65.2608 59.808C66.0163 61.8839 68.3117 62.9543 70.3876 62.1987C72.4635 61.4431 73.5339 59.1478 72.7783 57.0719L69.0161 46.7352C68.2605 44.6593 65.9651 43.589 63.8892 44.3446C61.8133 45.1001 60.743 47.3955 61.4985 49.4714L65.2608 59.808ZM89.1816 55.3584C87.1056 56.1139 84.8103 55.0436 84.0547 52.9677L80.2925 42.6311C79.5369 40.5552 80.6073 38.2598 82.6832 37.5042C84.7591 36.7487 87.0545 37.819 87.81 39.8949L91.5722 50.2315C92.3278 52.3074 91.2575 54.6028 89.1816 55.3584ZM102.849 46.1272C103.604 48.2031 105.9 49.2735 107.976 48.5179C110.052 47.7623 111.122 45.467 110.366 43.391L106.604 33.0544C105.849 30.9785 103.553 29.9082 101.477 30.6637C99.4014 31.4193 98.3311 33.7147 99.0866 35.7906L102.849 46.1272Z" fill="black"/>
<line x1="117" y1="59" x2="117" y2="90" stroke="black" stroke-width="8" stroke-linecap="round"/>
<line x1="106.5" y1="62.9932" x2="106.5" y2="90.0074" stroke="black" stroke-width="8" stroke-linecap="round"/>
</svg>
