<svg width="80" height="100" viewBox="0 0 80 100" fill="none" xmlns="http://www.w3.org/2000/svg">
<path d="M9.34793 32.5788C8.99492 30.165 10.8663 28 13.3058 28H67.7071C70.1467 28 72.018 30.1649 71.665 32.5788L62.8904 92.5788C62.6031 94.5435 60.918 96 58.9325 96H22.0805C20.0949 96 18.4099 94.5435 18.1226 92.5788L9.34793 32.5788Z" stroke="black" stroke-width="8"/>
<mask id="path-2-inside-1_1709_28665" fill="white">
<path fill-rule="evenodd" clip-rule="evenodd" d="M31.2913 0C26.873 0 23.2913 3.58172 23.2913 8C23.2913 10.7614 21.0527 13 18.2913 13H4.05078C1.84164 13 0.0507812 14.7909 0.0507812 17C0.0507812 19.2091 1.84164 21 4.05078 21H31.2913H48.709H75.9495C78.1587 21 79.9495 19.2091 79.9495 17C79.9495 14.7909 78.1587 13 75.9495 13H61.709C58.9476 13 56.709 10.7614 56.709 8C56.709 3.58172 53.1273 0 48.709 0H31.2913Z"/>
</mask>
<path d="M31.2913 8V8V-8C22.4547 -8 15.2913 -0.836557 15.2913 8H31.2913ZM4.05078 21H18.2913V5H4.05078V21ZM8.05078 17C8.05078 19.2091 6.25992 21 4.05078 21V5C-2.57664 5 -7.94922 10.3726 -7.94922 17H8.05078ZM4.05078 13C6.25992 13 8.05078 14.7909 8.05078 17H-7.94922C-7.94922 23.6274 -2.57664 29 4.05078 29V13ZM31.2913 13H4.05078V29H31.2913V13ZM48.709 13H31.2913V29H48.709V13ZM75.9495 13H48.709V29H75.9495V13ZM71.9495 17C71.9495 14.7909 73.7404 13 75.9495 13V29C82.5769 29 87.9495 23.6274 87.9495 17H71.9495ZM75.9495 21C73.7404 21 71.9495 19.2091 71.9495 17H87.9495C87.9495 10.3726 82.5769 5 75.9495 5V21ZM61.709 21H75.9495V5H61.709V21ZM48.709 8H64.709C64.709 -0.836556 57.5456 -8 48.709 -8V8ZM31.2913 8H48.709V-8H31.2913V8ZM61.709 5C63.3659 5 64.709 6.34315 64.709 8H48.709C48.709 15.1797 54.5293 21 61.709 21V5ZM15.2913 8C15.2913 6.34314 16.6344 5 18.2913 5V21C25.471 21 31.2913 15.1797 31.2913 8H15.2913Z" fill="black" mask="url(#path-2-inside-1_1709_28665)"/>
<path d="M4.05078 28L75.9495 28" stroke="black" stroke-width="8" stroke-linecap="round"/>
<path d="M40.5059 42V86" stroke="black" stroke-width="8" stroke-linecap="round"/>
<path d="M56.4795 42L52.6582 85.1312" stroke="black" stroke-width="8" stroke-linecap="round"/>
<path d="M28.125 85.1309L24.3037 41.9997" stroke="black" stroke-width="8" stroke-linecap="round"/>
</svg>
