<svg xmlns="http://www.w3.org/2000/svg" xmlns:xlink="http://www.w3.org/1999/xlink" xmlns:serif="http://www.serif.com/" viewBox="0 0 32 40" version="1.1" xml:space="preserve" style="" x="0px" y="0px" fill-rule="evenodd" clip-rule="evenodd" stroke-linejoin="round" stroke-miterlimit="2"><g transform="matrix(1,0,0,1,-192,-96)"><path d="M211,121L215.5,121C216.328,121 217,120.328 217,119.5L217,115C217,114.724 216.776,114.5 216.5,114.5C216.224,114.5 216,114.724 216,115L216,119.5C216,119.776 215.776,120 215.5,120C215.5,120 211,120 211,120C210.724,120 210.5,120.224 210.5,120.5C210.5,120.776 210.724,121 211,121ZM201,121L205,121C205.276,121 205.5,120.776 205.5,120.5C205.5,120.224 205.276,120 205,120L201,120C200.724,120 200.5,120.224 200.5,120.5C200.5,120.776 200.724,121 201,121ZM199,115L199,119C199,119.276 199.224,119.5 199.5,119.5C199.776,119.5 200,119.276 200,119L200,115C200,114.724 199.776,114.5 199.5,114.5C199.224,114.5 199,114.724 199,115ZM200,109L200,104.5C200,104.224 200.224,104 200.5,104C200.5,104 205,104 205,104C205.276,104 205.5,103.776 205.5,103.5C205.5,103.224 205.276,103 205,103L200.5,103C199.672,103 199,103.672 199,104.5L199,109C199,109.276 199.224,109.5 199.5,109.5C199.776,109.5 200,109.276 200,109ZM216,105L216,109C216,109.276 216.224,109.5 216.5,109.5C216.776,109.5 217,109.276 217,109L217,105C217,104.724 216.776,104.5 216.5,104.5C216.224,104.5 216,104.724 216,105ZM211,104L215,104C215.276,104 215.5,103.776 215.5,103.5C215.5,103.224 215.276,103 215,103L211,103C210.724,103 210.5,103.224 210.5,103.5C210.5,103.776 210.724,104 211,104Z"/></g><text x="0" y="47" fill="#000000" font-size="5px" font-weight="bold" font-family="'Helvetica Neue', Helvetica, Arial-Unicode, Arial, Sans-serif">Created by Liez Art</text><text x="0" y="52" fill="#000000" font-size="5px" font-weight="bold" font-family="'Helvetica Neue', Helvetica, Arial-Unicode, Arial, Sans-serif">from the Noun Project</text></svg>